  0
SECTION
  2
HEADER
  9
$ACADVER
  1
AC1009
  9
$INSBASE
 10
0.0
 20
0.0
 30
0.0
  9
$EXTMIN
 10
-1529.094805332606029
 20
-1548.5109058991549773
 30
0.0
  9
$EXTMAX
 10
4035.2508933851709116
 20
1181.812130478868994
 30
0.0
  9
$LIMMIN
 10
0.0
 20
0.0
  9
$LIMMAX
 10
420.0
 20
297.0
  9
$ORTHOMODE
 70
     0
  9
$REGENMODE
 70
     1
  9
$FILLMODE
 70
     1
  9
$QTEXTMODE
 70
     0
  9
$MIRRTEXT
 70
     0
  9
$DRAGMODE
 70
     2
  9
$LTSCALE
 40
1.0
  9
$OSMODE
 70
    63
  9
$ATTMODE
 70
     1
  9
$TEXTSIZE
 40
2.5
  9
$TRACEWID
 40
1.0
  9
$TEXTSTYLE
  7
STANDARD
  9
$CLAYER
  8
PATH
  9
$CELTYPE
  6
BYLAYER
  9
$CECOLOR
 62
   256
  9
$DIMSCALE
 40
1.0
  9
$DIMASZ
 40
2.5
  9
$DIMEXO
 40
0.625
  9
$DIMDLI
 40
3.75
  9
$DIMRND
 40
0.0
  9
$DIMDLE
 40
0.0
  9
$DIMEXE
 40
1.25
  9
$DIMTP
 40
0.0
  9
$DIMTM
 40
0.0
  9
$DIMTXT
 40
2.5
  9
$DIMCEN
 40
2.5
  9
$DIMTSZ
 40
0.0
  9
$DIMTOL
 70
     0
  9
$DIMLIM
 70
     0
  9
$DIMTIH
 70
     0
  9
$DIMTOH
 70
     0
  9
$DIMSE1
 70
     0
  9
$DIMSE2
 70
     0
  9
$DIMTAD
 70
     1
  9
$DIMZIN
 70
     8
  9
$DIMBLK
  1

  9
$DIMASO
 70
     1
  9
$DIMSHO
 70
     1
  9
$DIMPOST
  1

  9
$DIMAPOST
  1

  9
$DIMALT
 70
     0
  9
$DIMALTD
 70
     3
  9
$DIMALTF
 40
0.03937007874016
  9
$DIMLFAC
 40
1.0
  9
$DIMTOFL
 70
     1
  9
$DIMTVP
 40
0.0
  9
$DIMTIX
 70
     0
  9
$DIMSOXD
 70
     0
  9
$DIMSAH
 70
     0
  9
$DIMBLK1
  1

  9
$DIMBLK2
  1

  9
$DIMSTYLE
  2
ISO-25
  9
$DIMCLRD
 70
     0
  9
$DIMCLRE
 70
     0
  9
$DIMCLRT
 70
     0
  9
$DIMTFAC
 40
1.0
  9
$DIMGAP
 40
0.625
  9
$LUNITS
 70
     2
  9
$LUPREC
 70
     4
  9
$SKETCHINC
 40
1.0
  9
$FILLETRAD
 40
1.0
  9
$AUNITS
 70
     0
  9
$AUPREC
 70
     0
  9
$MENU
  1
.
  9
$ELEVATION
 40
0.0
  9
$PELEVATION
 40
0.0
  9
$THICKNESS
 40
0.0
  9
$LIMCHECK
 70
     0
  9
$BLIPMODE
 70
     0
  9
$CHAMFERA
 40
0.0
  9
$CHAMFERB
 40
0.0
  9
$SKPOLY
 70
     0
  9
$TDCREATE
 40
2459128.9035069448873401
  9
$TDUPDATE
 40
2459143.9318055561743677
  9
$TDINDWG
 40
1.5227207986
  9
$TDUSRTIMER
 40
1.5227207986
  9
$USRTIMER
 70
     1
  9
$ANGBASE
 50
0.0
  9
$ANGDIR
 70
     0
  9
$PDMODE
 70
     0
  9
$PDSIZE
 40
0.0
  9
$PLINEWID
 40
0.0
  9
$COORDS
 70
     1
  9
$SPLFRAME
 70
     0
  9
$SPLINETYPE
 70
     6
  9
$SPLINESEGS
 70
     8
  9
$ATTDIA
 70
     1
  9
$ATTREQ
 70
     1
  9
$HANDLING
 70
     1
  9
$HANDSEED
  5
17EDF
  9
$SURFTAB1
 70
     6
  9
$SURFTAB2
 70
     6
  9
$SURFTYPE
 70
     6
  9
$SURFU
 70
     6
  9
$SURFV
 70
     6
  9
$UCSNAME
  2

  9
$UCSORG
 10
0.0
 20
0.0
 30
0.0
  9
$UCSXDIR
 10
1.0
 20
0.0
 30
0.0
  9
$UCSYDIR
 10
0.0
 20
1.0
 30
0.0
  9
$PUCSNAME
  2

  9
$PUCSORG
 10
0.0
 20
0.0
 30
0.0
  9
$PUCSXDIR
 10
1.0
 20
0.0
 30
0.0
  9
$PUCSYDIR
 10
0.0
 20
1.0
 30
0.0
  9
$USERI1
 70
     0
  9
$USERI2
 70
     0
  9
$USERI3
 70
     0
  9
$USERI4
 70
     0
  9
$USERI5
 70
     0
  9
$USERR1
 40
0.0
  9
$USERR2
 40
0.0
  9
$USERR3
 40
0.0
  9
$USERR4
 40
0.0
  9
$USERR5
 40
0.0
  9
$WORLDVIEW
 70
     1
  9
$SHADEDGE
 70
     3
  9
$SHADEDIF
 70
    70
  9
$TILEMODE
 70
     1
  9
$MAXACTVP
 70
    64
  9
$PLIMCHECK
 70
     0
  9
$PEXTMIN
 10
0.0
 20
0.0
 30
0.0
  9
$PEXTMAX
 10
0.0
 20
0.0
 30
0.0
  9
$PLIMMIN
 10
0.0
 20
0.0
  9
$PLIMMAX
 10
12.0
 20
9.0
  9
$UNITMODE
 70
     0
  9
$VISRETAIN
 70
     1
  9
$PLINEGEN
 70
     0
  9
$PSLTSCALE
 70
     1
  0
ENDSEC
  0
SECTION
  2
TABLES
  0
TABLE
  2
VPORT
 70
     1
  0
VPORT
  2
*ACTIVE
 70
     0
 10
0.0
 20
0.0
 11
1.0
 21
1.0
 12
-60.5808351970990699
 22
-87.6128735223535386
 13
0.0
 23
0.0
 14
10.0
 24
10.0
 15
10.0
 25
10.0
 16
0.0
 26
0.0
 36
1.0
 17
0.0
 27
0.0
 37
0.0
 40
2521.153360545913074
 41
1.8742586002372481
 42
50.0
 43
0.0
 44
0.0
 50
0.0
 51
0.0
 71
     0
 72
  1000
 73
     1
 74
     3
 75
     0
 76
     0
 77
     0
 78
     0
  0
ENDTAB
  0
TABLE
  2
LTYPE
 70
     4
  0
LTYPE
  2
CONTINUOUS
 70
     0
  3
Solid line
 72
    65
 73
     0
 40
0.0
  0
ENDTAB
  0
TABLE
  2
LAYER
 70
    12
  0
LAYER
  2
0
 70
     0
 62
     7
  6
CONTINUOUS
  0
LAYER
  2
PATH
 70
     0
 62
    40
  6
CONTINUOUS
  0
LAYER
  2
BUILDING
 70
     2
 62
     1
  6
CONTINUOUS
  0
LAYER
  2
DINING
 70
     2
 62
    81
  6
CONTINUOUS
  0
LAYER
  2
BOUNDARY
 70
     2
 62
     6
  6
CONTINUOUS
  0
ENDTAB
  0
TABLE
  2
STYLE
 70
     3
  0
STYLE
  2
STANDARD
 70
     0
 40
0.0
 41
1.0
 50
0.0
 71
     0
 42
2.5
  3
txt
  4

  0
ENDTAB
  0
TABLE
  2
VIEW
 70
     0
  0
ENDTAB
  0
TABLE
  2
UCS
 70
     0
  0
ENDTAB
  0
TABLE
  2
APPID
 70
    13
  0
APPID
  2
ACAD
 70
     0
  0
APPID
  2
ACAD_PSEXT
 70
     0
  0
APPID
  2
ACADANNOPO
 70
     0
  0
APPID
  2
ACADANNOTATIVE
 70
     0
  0
APPID
  2
ACAD_DSTYLE_DIMJAG
 70
     0
  0
APPID
  2
ACAD_DSTYLE_DIMTALN
 70
     0
  0
APPID
  2
ACAD_MLEADERVER
 70
     0
  0
APPID
  2
ACAD_NAV_VCDISPLAY
 70
     0
  0
APPID
  2
ACLAYERTOOLS
 70
     0
  0
APPID
  2
ACAECLAYERSTANDARD
 70
     0
  0
APPID
  2
ACCMTRANSPARENCY
 70
     0
  0
APPID
  2
ACAD_EXEMPT_FROM_CAD_STANDARDS
 70
     0
  0
APPID
  2
ACAD_OBJECT_CHANGE_GUID
 70
     0
  0
ENDTAB
  0
TABLE
  2
DIMSTYLE
 70
     5
  0
DIMSTYLE
  2
STANDARD
 70
     0
  3

  4

  5

  6

  7

 40
1.0
 41
0.18
 42
0.0625
 43
0.38
 44
0.18
 45
0.0
 46
0.0
 47
0.0
 48
0.0
140
0.18
141
0.09
142
0.0
143
25.3999999999999986
144
1.0
145
0.0
146
1.0
147
0.09
 71
     0
 72
     0
 73
     1
 74
     1
 75
     0
 76
     0
 77
     0
 78
     0
170
     0
171
     2
172
     0
173
     0
174
     0
175
     0
176
     0
177
     0
178
     0
  0
DIMSTYLE
  2
ISO-25
 70
     0
  3

  4

  5

  6

  7

 40
1.0
 41
2.5
 42
0.625
 43
3.75
 44
1.25
 45
0.0
 46
0.0
 47
0.0
 48
0.0
140
2.5
141
2.5
142
0.0
143
0.03937007874016
144
1.0
145
0.0
146
1.0
147
0.625
 71
     0
 72
     0
 73
     0
 74
     0
 75
     0
 76
     0
 77
     1
 78
     8
170
     0
171
     3
172
     1
173
     0
174
     0
175
     0
176
     0
177
     0
178
     0
  0
ENDTAB
  0
ENDSEC
  0
SECTION
  2
BLOCKS
  0
BLOCK
  8
0
  2
$MODEL_SPACE
 70
     0
 10
0.0
 20
0.0
 30
0.0
  3
$MODEL_SPACE
  1

  0
ENDBLK
  5
21
  8
0
  0
BLOCK
 67
     1
  8
0
  2
$PAPER_SPACE
 70
     0
 10
0.0
 20
0.0
 30
0.0
  3
$PAPER_SPACE
  1

  0
ENDBLK
  5
D5
 67
     1
  8
0
  0
ENDSEC
  0
SECTION
  2
ENTITIES
  0
CIRCLE
  5
10E09
  8
BUILDING
 10
-61.1529328711330891
 20
-16.337621677666899
 30
0.0
 40
22.5960571728646791
  0
CIRCLE
  5
10E0B
  8
BUILDING
 10
3.4703185930848122
 20
51.3509203223511577
 30
0.0
 40
17.3384412871303084
  0
TEXT
  5
1147A
  8
DINING
 10
-0.747616080345324
 20
55.8709662586943523
 30
0.0
 40
2.5
  1
0.95
  0
TEXT
  5
1147B
  8
DINING
 10
-70.6990679204991466
 20
-11.2485729097779696
 30
0.0
 40
2.5
  1
0.8
  0
TEXT
  5
1147C
  8
BUILDING
 10
-1.431435266785229
 20
45.3231659568009491
 30
0.0
 40
2.5
  1
1000
  0
TEXT
  5
1147D
  8
BUILDING
 10
-62.3541200272056813
 20
-21.8774853956238111
 30
0.0
 40
2.5
  1
2000
  0
POLYLINE
  5
13563
  8
BOUNDARY
 66
     1
 10
0.0
 20
0.0
 30
0.0
 70
     1
  0
VERTEX
  5
172AF
  8
BOUNDARY
 10
900.3295007395136054
 20
807.4465786644794889
 30
0.0
  0
VERTEX
  5
172B0
  8
BOUNDARY
 10
-269.2260674206045223
 20
798.420266083736351
 30
0.0
  0
VERTEX
  5
172B1
  8
BOUNDARY
 10
-1529.094805332606029
 20
220.7354167753692025
 30
0.0
  0
VERTEX
  5
172B2
  8
BOUNDARY
 10
-1384.5937072320809875
 20
-316.3309555745872785
 30
0.0
  0
VERTEX
  5
172B3
  8
BOUNDARY
 10
-413.7271323992536054
 20
-1182.8582295371379587
 30
0.0
  0
VERTEX
  5
172B4
  8
BOUNDARY
 10
995.1583422277471982
 20
-1061.0028267999330183
 30
0.0
  0
VERTEX
  5
172B5
  8
BOUNDARY
 10
995.1583422277471982
 20
-235.0940297957932046
 30
0.0
  0
SEQEND
  5
172B6
  8
BOUNDARY
  0
POLYLINE
  5
157E4
  8
PATH
 66
     1
 10
0.0
 20
0.0
 30
0.0
  0
VERTEX
  5
178CB
  8
PATH
 10
-1203.572389566586935
 20
304.1892388365740771
 30
0.0
  0
VERTEX
  5
178CC
  8
PATH
 10
-1298.6410415995781023
 20
221.5982035776177952
 30
0.0
  0
VERTEX
  5
178CD
  8
PATH
 10
-1321.0472636493070695
 20
194.2776579629208129
 30
0.0
  0
VERTEX
  5
178CE
  8
PATH
 10
-1344.6316909224399296
 20
85.293203965811685
 30
0.0
  0
SEQEND
  5
178CF
  8
PATH
  0
POLYLINE
  5
157E5
  8
PATH
 66
     1
 10
0.0
 20
0.0
 30
0.0
  0
VERTEX
  5
178D0
  8
PATH
 10
-1344.6316909224399296
 20
85.293203965811685
 30
0.0
  0
VERTEX
  5
178D1
  8
PATH
 10
-1346.7335042688789599
 20
79.1967595411042566
 30
0.0
  0
VERTEX
  5
178D2
  8
PATH
 10
-1346.599148941473004
 20
65.548240477735817
 30
0.0
  0
VERTEX
  5
178D3
  8
PATH
 10
-1343.7458200527619283
 20
45.0492157787593897
 30
0.0
  0
VERTEX
  5
178D4
  8
PATH
 10
-1340.3514477919229648
 20
27.0879959739322693
 30
0.0
  0
VERTEX
  5
178D5
  8
PATH
 10
-1333.2135935311230241
 20
7.6351474039765881
 30
0.0
  0
VERTEX
  5
178D6
  8
PATH
 10
-1324.351150340705999
 20
-19.8768754233096807
 30
0.0
  0
SEQEND
  5
178D7
  8
PATH
  0
POLYLINE
  5
157E6
  8
PATH
 66
     1
 10
0.0
 20
0.0
 30
0.0
  0
VERTEX
  5
178D8
  8
PATH
 10
-1324.3511503406480188
 20
-19.8768754233096807
 30
0.0
  0
VERTEX
  5
178D9
  8
PATH
 10
-1311.9633625769779428
 20
-58.3327608275649183
 30
0.0
  0
VERTEX
  5
178DA
  8
PATH
 10
-1294.0935509134581025
 20
-106.0909415296701042
 30
0.0
  0
VERTEX
  5
178DB
  8
PATH
 10
-1283.324498593646922
 20
-127.7781786368649932
 30
0.0
  0
VERTEX
  5
178DC
  8
PATH
 10
-1263.5852208709839033
 20
-140.6438500410368135
 30
0.0
  0
VERTEX
  5
178DD
  8
PATH
 10
-1248.8857488666110385
 20
-135.8891416200858089
 30
0.0
  0
VERTEX
  5
178DE
  8
PATH
 10
-1155.8879250841130215
 20
-89.567835207977609
 30
0.0
  0
SEQEND
  5
178DF
  8
PATH
  0
POLYLINE
  5
157E7
  8
PATH
 66
     1
 10
0.0
 20
0.0
 30
0.0
  0
VERTEX
  5
178E0
  8
PATH
 10
-1155.8879250843449427
 20
-89.5678352075119619
 30
0.0
  0
VERTEX
  5
178E1
  8
PATH
 10
-1018.3621790538450114
 20
-21.0676062516358797
 30
0.0
  0
VERTEX
  5
178E2
  8
PATH
 10
-951.0552095162129262
 20
11.7381519396367295
 30
0.0
  0
VERTEX
  5
178E3
  8
PATH
 10
-920.1628159382526064
 20
21.7436300511981315
 30
0.0
  0
VERTEX
  5
178E4
  8
PATH
 10
-892.9512276995374123
 20
30.3819882264870103
 30
0.0
  0
SEQEND
  5
178E5
  8
PATH
  0
POLYLINE
  5
157E8
  8
PATH
 66
     1
 10
0.0
 20
0.0
 30
0.0
  0
VERTEX
  5
178E6
  8
PATH
 10
-892.9512276994792046
 20
30.3819882264870103
 30
0.0
  0
VERTEX
  5
178E7
  8
PATH
 10
-868.0107347895536805
 20
22.6910301223906608
 30
0.0
  0
SEQEND
  5
178E8
  8
PATH
  0
POLYLINE
  5
157E9
  8
PATH
 66
     1
 10
0.0
 20
0.0
 30
0.0
  0
VERTEX
  5
178E9
  8
PATH
 10
-868.0107347895536805
 20
22.6910301223906608
 30
0.0
  0
VERTEX
  5
178EA
  8
PATH
 10
-868.5211958201980451
 20
-124.1155212623489064
 30
0.0
  0
VERTEX
  5
178EB
  8
PATH
 10
-868.0567645472037839
 20
-139.3649947270241114
 30
0.0
  0
SEQEND
  5
178EC
  8
PATH
  0
POLYLINE
  5
157EA
  8
PATH
 66
     1
 10
0.0
 20
0.0
 30
0.0
  0
VERTEX
  5
178ED
  8
PATH
 10
-868.0567645472037839
 20
-139.3649947270241114
 30
0.0
  0
VERTEX
  5
178EE
  8
PATH
 10
-866.1478883620728766
 20
-202.0424207024697978
 30
0.0
  0
VERTEX
  5
178EF
  8
PATH
 10
-863.5917291914373664
 20
-229.509736312502298
 30
0.0
  0
VERTEX
  5
178F0
  8
PATH
 10
-858.245105990048728
 20
-251.6552631277081957
 30
0.0
  0
SEQEND
  5
178F1
  8
PATH
  0
POLYLINE
  5
157EB
  8
PATH
 66
     1
 10
0.0
 20
0.0
 30
0.0
  0
VERTEX
  5
178F2
  8
PATH
 10
-858.245105990048728
 20
-251.6552631277081957
 30
0.0
  0
VERTEX
  5
178F3
  8
PATH
 10
-851.0202457347330665
 20
-281.5803823093374945
 30
0.0
  0
VERTEX
  5
178F4
  8
PATH
 10
-837.2239322810927433
 20
-314.5792140215125983
 30
0.0
  0
SEQEND
  5
178F5
  8
PATH
  0
POLYLINE
  5
157EC
  8
PATH
 66
     1
 10
0.0
 20
0.0
 30
0.0
  0
VERTEX
  5
178F6
  8
PATH
 10
-837.2239322810345357
 20
-314.5792140215125983
 30
0.0
  0
VERTEX
  5
178F7
  8
PATH
 10
-832.0076822389529525
 20
-327.0557468202387099
 30
0.0
  0
VERTEX
  5
178F8
  8
PATH
 10
-799.5204213386896299
 20
-373.798148792651773
 30
0.0
  0
VERTEX
  5
178F9
  8
PATH
 10
-789.4060322626173729
 20
-388.2207763958213036
 30
0.0
  0
SEQEND
  5
178FA
  8
PATH
  0
POLYLINE
  5
157ED
  8
PATH
 66
     1
 10
0.0
 20
0.0
 30
0.0
  0
VERTEX
  5
178FB
  8
PATH
 10
-789.4060322626173729
 20
-388.2207763958213036
 30
0.0
  0
VERTEX
  5
178FC
  8
PATH
 10
-774.2254883797286311
 20
-409.8674947088074987
 30
0.0
  0
VERTEX
  5
178FD
  8
PATH
 10
-649.9985812941012
 20
-586.5496373981659417
 30
0.0
  0
SEQEND
  5
178FE
  8
PATH
  0
POLYLINE
  5
157EE
  8
PATH
 66
     1
 10
0.0
 20
0.0
 30
0.0
  0
VERTEX
  5
178FF
  8
PATH
 10
-649.9985812941012
 20
-586.5496373981659417
 30
0.0
  0
VERTEX
  5
17900
  8
PATH
 10
-641.2846389050972675
 20
-586.0343526242721737
 30
0.0
  0
VERTEX
  5
17901
  8
PATH
 10
-536.5508445126032484
 20
-578.396087062494189
 30
0.0
  0
SEQEND
  5
17902
  8
PATH
  0
POLYLINE
  5
157EF
  8
PATH
 66
     1
 10
0.0
 20
0.0
 30
0.0
  0
VERTEX
  5
17903
  8
PATH
 10
-536.5508445126032484
 20
-578.396087062494189
 30
0.0
  0
VERTEX
  5
17904
  8
PATH
 10
-528.4886311094305711
 20
-577.8081075343725388
 30
0.0
  0
VERTEX
  5
17905
  8
PATH
 10
-520.925060209425169
 20
-577.2305042165753548
 30
0.0
  0
SEQEND
  5
17906
  8
PATH
  0
POLYLINE
  5
157F0
  8
PATH
 66
     1
 10
0.0
 20
0.0
 30
0.0
  0
VERTEX
  5
17907
  8
PATH
 10
-520.9235703718295554
 20
-577.2303904429500108
 30
0.0
  0
VERTEX
  5
17908
  8
PATH
 10
-263.6426705427729758
 20
-557.5827526649882202
 30
0.0
  0
SEQEND
  5
17909
  8
PATH
  0
POLYLINE
  5
157F1
  8
PATH
 66
     1
 10
0.0
 20
0.0
 30
0.0
  0
VERTEX
  5
1790A
  8
PATH
 10
-263.6426705427729758
 20
-557.5827526649882202
 30
0.0
  0
VERTEX
  5
1790B
  8
PATH
 10
-255.923602150243795
 20
-556.9932745503683691
 30
0.0
  0
VERTEX
  5
1790C
  8
PATH
 10
-219.9818213386024013
 20
-552.8203547573139076
 30
0.0
  0
VERTEX
  5
1790D
  8
PATH
 10
-105.9408410373288945
 20
-519.5889462311241687
 30
0.0
  0
VERTEX
  5
1790E
  8
PATH
 10
-86.6854744479205692
 20
-514.9002867866729503
 30
0.0
  0
VERTEX
  5
1790F
  8
PATH
 10
-77.310131155551062
 20
-514.1409466149707441
 30
0.0
  0
VERTEX
  5
17910
  8
PATH
 10
-61.1417432572488906
 20
-516.7952108480458264
 30
0.0
  0
VERTEX
  5
17911
  8
PATH
 10
-46.4825600084877735
 20
-524.4686148543331683
 30
0.0
  0
VERTEX
  5
17912
  8
PATH
 10
-31.9730589431273984
 20
-537.6103288465601509
 30
0.0
  0
VERTEX
  5
17913
  8
PATH
 10
10.6802433016564393
 20
-624.4322409461674397
 30
0.0
  0
VERTEX
  5
17914
  8
PATH
 10
32.1837688411323981
 20
-649.5507161723870695
 30
0.0
  0
VERTEX
  5
17915
  8
PATH
 10
59.978478124117828
 20
-697.003311930173254
 30
0.0
  0
VERTEX
  5
17916
  8
PATH
 10
135.4245078302191985
 20
-826.1495690894735162
 30
0.0
  0
VERTEX
  5
17917
  8
PATH
 10
169.4715752004848923
 20
-890.6743629541670089
 30
0.0
  0
VERTEX
  5
17918
  8
PATH
 10
199.932229620855594
 20
-964.354548669369251
 30
0.0
  0
SEQEND
  5
17919
  8
PATH
  0
POLYLINE
  5
157F2
  8
PATH
 66
     1
 10
0.0
 20
0.0
 30
0.0
  0
VERTEX
  5
1791A
  8
PATH
 10
199.932229620855594
 20
-964.354548669369251
 30
0.0
  0
VERTEX
  5
1791B
  8
PATH
 10
280.1015479341585888
 20
-941.5440141688521862
 30
0.0
  0
VERTEX
  5
1791C
  8
PATH
 10
525.4398771968408255
 20
-875.8251652027903447
 30
0.0
  0
SEQEND
  5
1791D
  8
PATH
  0
POLYLINE
  5
157F3
  8
PATH
 66
     1
 10
0.0
 20
0.0
 30
0.0
  0
VERTEX
  5
1791E
  8
PATH
 10
525.4398771967244102
 20
-875.8251652027903447
 30
0.0
  0
VERTEX
  5
1791F
  8
PATH
 10
471.1390743144875159
 20
-722.5380568014878691
 30
0.0
  0
VERTEX
  5
17920
  8
PATH
 10
448.8228685498324921
 20
-661.0309328506191378
 30
0.0
  0
VERTEX
  5
17921
  8
PATH
 10
394.1083654523098971
 20
-541.3433971558188205
 30
0.0
  0
VERTEX
  5
17922
  8
PATH
 10
382.7910145009373082
 20
-519.6213631294158404
 30
0.0
  0
SEQEND
  5
17923
  8
PATH
  0
POLYLINE
  5
157F4
  8
PATH
 66
     1
 10
0.0
 20
0.0
 30
0.0
  0
VERTEX
  5
17924
  8
PATH
 10
382.7910145008791005
 20
-519.6213631294158404
 30
0.0
  0
VERTEX
  5
17925
  8
PATH
 10
332.2095100882434053
 20
-422.5374108263712856
 30
0.0
  0
SEQEND
  5
17926
  8
PATH
  0
POLYLINE
  5
157F5
  8
PATH
 66
     1
 10
0.0
 20
0.0
 30
0.0
  0
VERTEX
  5
17927
  8
PATH
 10
332.2095100882434053
 20
-422.5374108263712856
 30
0.0
  0
VERTEX
  5
17928
  8
PATH
 10
284.0197334806288723
 20
-340.7741811414671247
 30
0.0
  0
VERTEX
  5
17929
  8
PATH
 10
284.0192129796923837
 20
-340.7731603895736043
 30
0.0
  0
SEQEND
  5
1792A
  8
PATH
  0
POLYLINE
  5
157F6
  8
PATH
 66
     1
 10
0.0
 20
0.0
 30
0.0
  0
VERTEX
  5
1792B
  8
PATH
 10
284.0192129796923837
 20
-340.7731603895736043
 30
0.0
  0
VERTEX
  5
1792C
  8
PATH
 10
240.442466259337408
 20
-255.3149969716978944
 30
0.0
  0
VERTEX
  5
1792D
  8
PATH
 10
218.3202889875828987
 20
-213.7707743741993909
 30
0.0
  0
SEQEND
  5
1792E
  8
PATH
  0
POLYLINE
  5
157F7
  8
PATH
 66
     1
 10
0.0
 20
0.0
 30
0.0
  0
VERTEX
  5
1792F
  8
PATH
 10
218.320288987524691
 20
-213.7707743741993909
 30
0.0
  0
VERTEX
  5
17930
  8
PATH
 10
169.277433673778404
 20
-121.6710107325997967
 30
0.0
  0
VERTEX
  5
17931
  8
PATH
 10
151.5599222321033892
 20
-88.4254998038013582
 30
0.0
  0
SEQEND
  5
17932
  8
PATH
  0
POLYLINE
  5
157F8
  8
PATH
 66
     1
 10
0.0
 20
0.0
 30
0.0
  0
VERTEX
  5
17933
  8
PATH
 10
151.5599222321033892
 20
-88.4254998038013582
 30
0.0
  0
VERTEX
  5
17934
  8
PATH
 10
135.9471554065094097
 20
-59.1293759187174217
 30
0.0
  0
VERTEX
  5
17935
  8
PATH
 10
131.7793040487304097
 20
-51.2316059176300698
 30
0.0
  0
SEQEND
  5
17936
  8
PATH
  0
POLYLINE
  5
157F9
  8
PATH
 66
     1
 10
0.0
 20
0.0
 30
0.0
  0
VERTEX
  5
17937
  8
PATH
 10
131.7793040487304097
 20
-51.2316059176300698
 30
0.0
  0
VERTEX
  5
17938
  8
PATH
 10
89.2862460739998056
 20
29.2895954694176908
 30
0.0
  0
SEQEND
  5
17939
  8
PATH
  0
POLYLINE
  5
157FA
  8
PATH
 66
     1
 10
0.0
 20
0.0
 30
0.0
  0
VERTEX
  5
1793A
  8
PATH
 10
89.2862460739998056
 20
29.2895954694176908
 30
0.0
  0
VERTEX
  5
1793B
  8
PATH
 10
48.2290958239900576
 20
108.4274588972838984
 30
0.0
  0
VERTEX
  5
1793C
  8
PATH
 10
46.466371749920647
 20
111.9914791072296936
 30
0.0
  0
SEQEND
  5
1793D
  8
PATH
  0
POLYLINE
  5
157FB
  8
PATH
 66
     1
 10
0.0
 20
0.0
 30
0.0
  0
VERTEX
  5
1793E
  8
PATH
 10
46.3786097479023667
 20
111.949808306577296
 30
0.0
  0
VERTEX
  5
1793F
  8
PATH
 10
2.5159825541632008
 20
200.8505893713372927
 30
0.0
  0
SEQEND
  5
17940
  8
PATH
  0
POLYLINE
  5
157FC
  8
PATH
 66
     1
 10
0.0
 20
0.0
 30
0.0
  0
VERTEX
  5
17941
  8
PATH
 10
2.5159825541632008
 20
200.8505893713372927
 30
0.0
  0
VERTEX
  5
17942
  8
PATH
 10
1.8259060596901691
 20
202.2492365404540919
 30
0.0
  0
VERTEX
  5
17943
  8
PATH
 10
-24.7004774075612694
 20
252.1275525931777963
 30
0.0
  0
SEQEND
  5
17944
  8
PATH
  0
POLYLINE
  5
157FD
  8
PATH
 66
     1
 10
0.0
 20
0.0
 30
0.0
  0
VERTEX
  5
17945
  8
PATH
 10
-24.7004774075612694
 20
252.1275525931777963
 30
0.0
  0
VERTEX
  5
17946
  8
PATH
 10
-54.2894252918340499
 20
307.764495942792621
 30
0.0
  0
VERTEX
  5
17947
  8
PATH
 10
-69.9475965078599984
 20
340.2540475205095731
 30
0.0
  0
SEQEND
  5
17948
  8
PATH
  0
POLYLINE
  5
157FE
  8
PATH
 66
     1
 10
0.0
 20
0.0
 30
0.0
  0
VERTEX
  5
17949
  8
PATH
 10
-69.946943103466765
 20
340.2526917546566096
 30
0.0
  0
VERTEX
  5
1794A
  8
PATH
 10
-78.0274267767817946
 20
357.0191000057894257
 30
0.0
  0
SEQEND
  5
1794B
  8
PATH
  0
POLYLINE
  5
157FF
  8
PATH
 66
     1
 10
0.0
 20
0.0
 30
0.0
  0
VERTEX
  5
1794C
  8
PATH
 10
-78.0274267767817946
 20
357.0191000057894257
 30
0.0
  0
VERTEX
  5
1794D
  8
PATH
 10
-86.2933995523635531
 20
374.1703844774093
 30
0.0
  0
VERTEX
  5
1794E
  8
PATH
 10
-114.7104731751169027
 20
412.9750939105214798
 30
0.0
  0
SEQEND
  5
1794F
  8
PATH
  0
POLYLINE
  5
15800
  8
PATH
 66
     1
 10
0.0
 20
0.0
 30
0.0
  0
VERTEX
  5
17950
  8
PATH
 10
-114.7104731751169027
 20
412.9750939105214798
 30
0.0
  0
VERTEX
  5
17951
  8
PATH
 10
-131.145490071110487
 20
428.9920137059452827
 30
0.0
  0
VERTEX
  5
17952
  8
PATH
 10
-150.5396191281178915
 20
465.4211220755751128
 30
0.0
  0
VERTEX
  5
17953
  8
PATH
 10
-180.2479015578427948
 20
516.2613611496562953
 30
0.0
  0
VERTEX
  5
17954
  8
PATH
 10
-188.3277634844561987
 20
530.6101994007403846
 30
0.0
  0
SEQEND
  5
17955
  8
PATH
  0
POLYLINE
  5
15801
  8
PATH
 66
     1
 10
0.0
 20
0.0
 30
0.0
  0
VERTEX
  5
17956
  8
PATH
 10
-188.3238335052882917
 20
530.6032202425922151
 30
0.0
  0
VERTEX
  5
17957
  8
PATH
 10
-195.4413836483873013
 20
543.2431114530699006
 30
0.0
  0
VERTEX
  5
17958
  8
PATH
 10
-218.3791210828493945
 20
562.1126719718375853
 30
0.0
  0
VERTEX
  5
17959
  8
PATH
 10
-237.9786193055479089
 20
571.067500468394428
 30
0.0
  0
VERTEX
  5
1795A
  8
PATH
 10
-282.1275300830748165
 20
582.4108606940644677
 30
0.0
  0
VERTEX
  5
1795B
  8
PATH
 10
-302.2862121710350038
 20
587.5903133368628914
 30
0.0
  0
VERTEX
  5
1795C
  8
PATH
 10
-306.4952258609845899
 20
589.8678817842665012
 30
0.0
  0
SEQEND
  5
1795D
  8
PATH
  0
POLYLINE
  5
15802
  8
PATH
 66
     1
 10
0.0
 20
0.0
 30
0.0
  0
VERTEX
  5
1795E
  8
PATH
 10
-306.4952258609845899
 20
589.8678817842665012
 30
0.0
  0
VERTEX
  5
1795F
  8
PATH
 10
-319.9392943913845215
 20
597.1426944952035001
 30
0.0
  0
VERTEX
  5
17960
  8
PATH
 10
-333.5669927165290005
 20
611.1600964712488349
 30
0.0
  0
VERTEX
  5
17961
  8
PATH
 10
-342.4905416869004853
 20
626.9841052382762427
 30
0.0
  0
VERTEX
  5
17962
  8
PATH
 10
-353.4196963111899095
 20
658.792796510788321
 30
0.0
  0
SEQEND
  5
17963
  8
PATH
  0
POLYLINE
  5
15803
  8
PATH
 66
     1
 10
0.0
 20
0.0
 30
0.0
  0
VERTEX
  5
17964
  8
PATH
 10
-353.4196963111899095
 20
658.792796510788321
 30
0.0
  0
VERTEX
  5
17965
  8
PATH
 10
-353.4196963111899095
 20
658.792796510788321
 30
0.0
  0
VERTEX
  5
17966
  8
PATH
 10
-405.0611736878781244
 20
643.4170409553262289
 30
0.0
  0
VERTEX
  5
17967
  8
PATH
 10
-499.8220217696652981
 20
613.8193174759435351
 30
0.0
  0
SEQEND
  5
17968
  8
PATH
  0
POLYLINE
  5
15804
  8
PATH
 66
     1
 10
0.0
 20
0.0
 30
0.0
  0
VERTEX
  5
17969
  8
PATH
 10
-499.8220217696652981
 20
613.8193174759435351
 30
0.0
  0
VERTEX
  5
1796A
  8
PATH
 10
-539.6268304900877411
 20
602.5298993126998539
 30
0.0
  0
VERTEX
  5
1796B
  8
PATH
 10
-586.5592517770273844
 20
587.1095823841677657
 30
0.0
  0
VERTEX
  5
1796C
  8
PATH
 10
-604.1508911629351815
 20
581.329598160511523
 30
0.0
  0
VERTEX
  5
1796D
  8
PATH
 10
-614.9597719652955448
 20
575.3616626021030243
 30
0.0
  0
SEQEND
  5
1796E
  8
PATH
  0
POLYLINE
  5
15805
  8
PATH
 66
     1
 10
0.0
 20
0.0
 30
0.0
  0
VERTEX
  5
1796F
  8
PATH
 10
-614.9597719652955448
 20
575.3616626021030243
 30
0.0
  0
VERTEX
  5
17970
  8
PATH
 10
-684.5878066003932645
 20
526.430287818940883
 30
0.0
  0
SEQEND
  5
17971
  8
PATH
  0
POLYLINE
  5
15806
  8
PATH
 66
     1
 10
0.0
 20
0.0
 30
0.0
  0
VERTEX
  5
17972
  8
PATH
 10
-684.5878066003932645
 20
526.430287818940883
 30
0.0
  0
VERTEX
  5
17973
  8
PATH
 10
-726.4999959651759127
 20
496.1274150414901101
 30
0.0
  0
VERTEX
  5
17974
  8
PATH
 10
-740.6378519954887452
 20
476.6635252638296834
 30
0.0
  0
SEQEND
  5
17975
  8
PATH
  0
POLYLINE
  5
15807
  8
PATH
 66
     1
 10
0.0
 20
0.0
 30
0.0
  0
VERTEX
  5
17976
  8
PATH
 10
-740.6378519954887452
 20
476.6635252638296834
 30
0.0
  0
VERTEX
  5
17977
  8
PATH
 10
-733.5946531147492351
 20
465.4077635771171799
 30
0.0
  0
VERTEX
  5
17978
  8
PATH
 10
-706.242731598278624
 20
430.2768780948172207
 30
0.0
  0
SEQEND
  5
17979
  8
PATH
  0
POLYLINE
  5
15808
  8
PATH
 66
     1
 10
0.0
 20
0.0
 30
0.0
  0
VERTEX
  5
1797A
  8
PATH
 10
-706.242731598278624
 20
430.2768780948172207
 30
0.0
  0
VERTEX
  5
1797B
  8
PATH
 10
-691.5779853810818167
 20
411.4414365087213241
 30
0.0
  0
SEQEND
  5
1797C
  8
PATH
  0
POLYLINE
  5
15809
  8
PATH
 66
     1
 10
0.0
 20
0.0
 30
0.0
  0
VERTEX
  5
1797D
  8
PATH
 10
-691.5779853810818167
 20
411.4414365087213241
 30
0.0
  0
VERTEX
  5
1797E
  8
PATH
 10
-645.3555696391413221
 20
352.0732347840021248
 30
0.0
  0
VERTEX
  5
1797F
  8
PATH
 10
-633.9830361568165245
 20
337.466432465291291
 30
0.0
  0
SEQEND
  5
17980
  8
PATH
  0
POLYLINE
  5
1580A
  8
PATH
 66
     1
 10
0.0
 20
0.0
 30
0.0
  0
VERTEX
  5
17981
  8
PATH
 10
-633.9828091688832501
 20
337.4660290172832902
 30
0.0
  0
VERTEX
  5
17982
  8
PATH
 10
-618.4275616684608394
 20
317.7336071944372975
 30
0.0
  0
SEQEND
  5
17983
  8
PATH
  0
POLYLINE
  5
1580B
  8
PATH
 66
     1
 10
0.0
 20
0.0
 30
0.0
  0
VERTEX
  5
17984
  8
PATH
 10
-618.4407480534428032
 20
317.750334624251991
 30
0.0
  0
VERTEX
  5
17985
  8
PATH
 10
-565.8089641663391376
 20
250.9849192295733076
 30
0.0
  0
SEQEND
  5
17986
  8
PATH
  0
POLYLINE
  5
1580C
  8
PATH
 66
     1
 10
0.0
 20
0.0
 30
0.0
  0
VERTEX
  5
17987
  8
PATH
 10
-565.8089641663391376
 20
250.9849192295733076
 30
0.0
  0
VERTEX
  5
17988
  8
PATH
 10
-501.9140394886634908
 20
169.9317822717638933
 30
0.0
  0
SEQEND
  5
17989
  8
PATH
  0
POLYLINE
  5
1580D
  8
PATH
 66
     1
 10
0.0
 20
0.0
 30
0.0
  0
VERTEX
  5
1798A
  8
PATH
 10
-501.9140394886634908
 20
169.9317822717638933
 30
0.0
  0
VERTEX
  5
1798B
  8
PATH
 10
-489.0736847931548255
 20
164.5723229810172938
 30
0.0
  0
VERTEX
  5
1798C
  8
PATH
 10
-472.1002890190720223
 20
163.1677599018948968
 30
0.0
  0
VERTEX
  5
1798D
  8
PATH
 10
-463.1616451473237248
 20
170.3912501782687912
 30
0.0
  0
SEQEND
  5
1798E
  8
PATH
  0
POLYLINE
  5
1580E
  8
PATH
 66
     1
 10
0.0
 20
0.0
 30
0.0
  0
VERTEX
  5
1798F
  8
PATH
 10
-463.1616451473237248
 20
170.3912501782687912
 30
0.0
  0
VERTEX
  5
17990
  8
PATH
 10
-455.0416409535245066
 20
181.7935959813694069
 30
0.0
  0
VERTEX
  5
17991
  8
PATH
 10
-408.5367317237686962
 20
223.7694573160769949
 30
0.0
  0
SEQEND
  5
17992
  8
PATH
  0
POLYLINE
  5
1580F
  8
PATH
 66
     1
 10
0.0
 20
0.0
 30
0.0
  0
VERTEX
  5
17993
  8
PATH
 10
-408.5367317236522808
 20
223.7694573160769949
 30
0.0
  0
VERTEX
  5
17994
  8
PATH
 10
-382.1157639040175127
 20
247.617324130194902
 30
0.0
  0
VERTEX
  5
17995
  8
PATH
 10
-345.3980230880698059
 20
276.832694671167701
 30
0.0
  0
VERTEX
  5
17996
  8
PATH
 10
-316.4448742550594034
 20
291.0254157907838817
 30
0.0
  0
SEQEND
  5
17997
  8
PATH
  0
POLYLINE
  5
15810
  8
PATH
 66
     1
 10
0.0
 20
0.0
 30
0.0
  0
VERTEX
  5
17998
  8
PATH
 10
-316.4448742550594034
 20
291.0254157907838817
 30
0.0
  0
VERTEX
  5
17999
  8
PATH
 10
-302.75922184153751
 20
297.7340694559316034
 30
0.0
  0
SEQEND
  5
1799A
  8
PATH
  0
POLYLINE
  5
15811
  8
PATH
 66
     1
 10
0.0
 20
0.0
 30
0.0
  0
VERTEX
  5
1799B
  8
PATH
 10
-302.7661724920762936
 20
297.7306622742253239
 30
0.0
  0
VERTEX
  5
1799C
  8
PATH
 10
-281.6531826224672841
 20
308.0801679166543181
 30
0.0
  0
VERTEX
  5
1799D
  8
PATH
 10
-215.9168264481268125
 20
355.3613523995081778
 30
0.0
  0
SEQEND
  5
1799E
  8
PATH
  0
POLYLINE
  5
15812
  8
PATH
 66
     1
 10
0.0
 20
0.0
 30
0.0
  0
VERTEX
  5
1799F
  8
PATH
 10
-215.9215090127690928
 20
355.3579844427804915
 30
0.0
  0
VERTEX
  5
179A0
  8
PATH
 10
-181.0773155350615866
 20
378.2145036836664076
 30
0.0
  0
SEQEND
  5
179A1
  8
PATH
  0
POLYLINE
  5
15813
  8
PATH
 66
     1
 10
0.0
 20
0.0
 30
0.0
  0
VERTEX
  5
179A2
  8
PATH
 10
-181.0773155350615866
 20
378.2145036836664076
 30
0.0
  0
VERTEX
  5
179A3
  8
PATH
 10
-114.7104731751169027
 20
412.9750939105214798
 30
0.0
  0
SEQEND
  5
179A4
  8
PATH
  0
POLYLINE
  5
15814
  8
PATH
 66
     1
 10
0.0
 20
0.0
 30
0.0
  0
VERTEX
  5
179A5
  8
PATH
 10
-114.7104731751169027
 20
412.9750939105214798
 30
0.0
  0
VERTEX
  5
179A6
  8
PATH
 10
-71.3935364880162524
 20
427.1356037562289885
 30
0.0
  0
VERTEX
  5
179A7
  8
PATH
 10
-22.7992307990934897
 20
440.7960686386139741
 30
0.0
  0
VERTEX
  5
179A8
  8
PATH
 10
27.7200851898960501
 20
453.0293551735157962
 30
0.0
  0
VERTEX
  5
179A9
  8
PATH
 10
107.068039831807198
 20
465.1875218409622903
 30
0.0
  0
VERTEX
  5
179AA
  8
PATH
 10
157.2009874023933094
 20
469.7757112170148162
 30
0.0
  0
SEQEND
  5
179AB
  8
PATH
  0
POLYLINE
  5
15815
  8
PATH
 66
     1
 10
0.0
 20
0.0
 30
0.0
  0
VERTEX
  5
179AC
  8
PATH
 10
157.1793294636736107
 20
469.9702720097774886
 30
0.0
  0
VERTEX
  5
179AD
  8
PATH
 10
206.6473731166188088
 20
474.3010661509396755
 30
0.0
  0
VERTEX
  5
179AE
  8
PATH
 10
319.94663350300101
 20
475.0695391735570752
 30
0.0
  0
VERTEX
  5
179AF
  8
PATH
 10
451.2316293991606813
 20
462.5598878604868105
 30
0.0
  0
VERTEX
  5
179B0
  8
PATH
 10
631.2181297633651411
 20
431.3112621657127761
 30
0.0
  0
VERTEX
  5
179B1
  8
PATH
 10
695.3467839669756358
 20
423.0986853726716959
 30
0.0
  0
SEQEND
  5
179B2
  8
PATH
  0
POLYLINE
  5
15816
  8
PATH
 66
     1
 10
0.0
 20
0.0
 30
0.0
  0
VERTEX
  5
179B3
  8
PATH
 10
695.3467839669756358
 20
423.0986853726716959
 30
0.0
  0
VERTEX
  5
179B4
  8
PATH
 10
723.6272992715092869
 20
424.968927005356818
 30
0.0
  0
SEQEND
  5
179B5
  8
PATH
  0
POLYLINE
  5
15817
  8
PATH
 66
     1
 10
0.0
 20
0.0
 30
0.0
  0
VERTEX
  5
179B6
  8
PATH
 10
723.6272992715092869
 20
424.968927005356818
 30
0.0
  0
VERTEX
  5
179B7
  8
PATH
 10
731.716931671006023
 20
425.5039090291174944
 30
0.0
  0
VERTEX
  5
179B8
  8
PATH
 10
810.9560995359061053
 20
434.2987825191157754
 30
0.0
  0
VERTEX
  5
179B9
  8
PATH
 10
876.4912916488101473
 20
438.4787161434578024
 30
0.0
  0
SEQEND
  5
179BA
  8
PATH
  0
POLYLINE
  5
15818
  8
PATH
 66
     1
 10
0.0
 20
0.0
 30
0.0
  0
VERTEX
  5
179BB
  8
PATH
 10
-1203.572389566586935
 20
304.1892388365740771
 30
0.0
  0
VERTEX
  5
179BC
  8
PATH
 10
-1104.1413876988369793
 20
219.0179151110860118
 30
0.0
  0
SEQEND
  5
179BD
  8
PATH
  0
POLYLINE
  5
15819
  8
PATH
 66
     1
 10
0.0
 20
0.0
 30
0.0
  0
VERTEX
  5
179BE
  8
PATH
 10
-1104.1413876988949596
 20
219.0179151110860118
 30
0.0
  0
VERTEX
  5
179BF
  8
PATH
 10
-1012.2938434038800324
 20
144.1296762647615992
 30
0.0
  0
SEQEND
  5
179C0
  8
PATH
  0
POLYLINE
  5
1581A
  8
PATH
 66
     1
 10
0.0
 20
0.0
 30
0.0
  0
VERTEX
  5
179C1
  8
PATH
 10
-1012.2938434036469744
 20
144.1296762647615992
 30
0.0
  0
VERTEX
  5
179C2
  8
PATH
 10
-977.1895867097919108
 20
115.5424330598252993
 30
0.0
  0
VERTEX
  5
179C3
  8
PATH
 10
-909.3988844655832509
 20
70.3565192032183404
 30
0.0
  0
SEQEND
  5
179C4
  8
PATH
  0
POLYLINE
  5
1581B
  8
PATH
 66
     1
 10
0.0
 20
0.0
 30
0.0
  0
VERTEX
  5
179C5
  8
PATH
 10
-909.3988844655832509
 20
70.3565192032183404
 30
0.0
  0
VERTEX
  5
179C6
  8
PATH
 10
-896.2313843614100506
 20
83.1130548976871069
 30
0.0
  0
VERTEX
  5
179C7
  8
PATH
 10
-882.0296337192556848
 20
90.8761516786689754
 30
0.0
  0
VERTEX
  5
179C8
  8
PATH
 10
-865.2480109941244564
 20
92.0308687049473377
 30
0.0
  0
VERTEX
  5
179C9
  8
PATH
 10
-857.4593452371918829
 20
88.5637187785978455
 30
0.0
  0
SEQEND
  5
179CA
  8
PATH
  0
POLYLINE
  5
1581C
  8
PATH
 66
     1
 10
0.0
 20
0.0
 30
0.0
  0
VERTEX
  5
179CB
  8
PATH
 10
-857.4593452371335616
 20
88.5637187785978455
 30
0.0
  0
VERTEX
  5
179CC
  8
PATH
 10
-849.6706794802594231
 20
85.0965688527139719
 30
0.0
  0
VERTEX
  5
179CD
  8
PATH
 10
-838.3298811416751732
 20
65.7998154764572831
 30
0.0
  0
SEQEND
  5
179CE
  8
PATH
  0
POLYLINE
  5
1581D
  8
PATH
 66
     1
 10
0.0
 20
0.0
 30
0.0
  0
VERTEX
  5
179CF
  8
PATH
 10
-838.2165934175280881
 20
65.6070525679315324
 30
0.0
  0
VERTEX
  5
179D0
  8
PATH
 10
-841.1438266576877822
 20
47.0645026369529589
 30
0.0
  0
VERTEX
  5
179D1
  8
PATH
 10
-852.1970057016734472
 20
30.9757651119070907
 30
0.0
  0
SEQEND
  5
179D2
  8
PATH
  0
POLYLINE
  5
1581E
  8
PATH
 66
     1
 10
0.0
 20
0.0
 30
0.0
  0
VERTEX
  5
179D3
  8
PATH
 10
-852.1970057016734472
 20
30.9757651119070907
 30
0.0
  0
VERTEX
  5
179D4
  8
PATH
 10
-868.0107347895536805
 20
22.6910301223906608
 30
0.0
  0
SEQEND
  5
179D5
  8
PATH
  0
POLYLINE
  5
1581F
  8
PATH
 66
     1
 10
0.0
 20
0.0
 30
0.0
  0
VERTEX
  5
179D6
  8
PATH
 10
-909.3988844655832509
 20
70.3565192032183404
 30
0.0
  0
VERTEX
  5
179D7
  8
PATH
 10
-910.620946979164728
 20
50.5346142338166828
 30
0.0
  0
VERTEX
  5
179D8
  8
PATH
 10
-899.4852277300815331
 20
35.3872666950846906
 30
0.0
  0
VERTEX
  5
179D9
  8
PATH
 10
-892.9512276994792046
 20
30.3819882264870103
 30
0.0
  0
SEQEND
  5
179DA
  8
PATH
  0
POLYLINE
  5
15820
  8
PATH
 66
     1
 10
0.0
 20
0.0
 30
0.0
  0
VERTEX
  5
179DB
  8
PATH
 10
-1344.6316909224399296
 20
85.293203965811685
 30
0.0
  0
VERTEX
  5
179DC
  8
PATH
 10
-1246.5951421976349138
 20
140.3761046045038086
 30
0.0
  0
SEQEND
  5
179DD
  8
PATH
  0
POLYLINE
  5
15821
  8
PATH
 66
     1
 10
0.0
 20
0.0
 30
0.0
  0
VERTEX
  5
179DE
  8
PATH
 10
-1246.5951421976349138
 20
140.3761046045038086
 30
0.0
  0
VERTEX
  5
179DF
  8
PATH
 10
-1162.5282823104789713
 20
186.1434848984281132
 30
0.0
  0
VERTEX
  5
179E0
  8
PATH
 10
-1104.1413876988949596
 20
219.0179151110860118
 30
0.0
  0
SEQEND
  5
179E1
  8
PATH
  0
POLYLINE
  5
15822
  8
PATH
 66
     1
 10
0.0
 20
0.0
 30
0.0
  0
VERTEX
  5
179E2
  8
PATH
 10
-1324.351150340705999
 20
-19.8768754233096807
 30
0.0
  0
VERTEX
  5
179E3
  8
PATH
 10
-1295.5930669914960163
 20
-11.51015829662356
 30
0.0
  0
VERTEX
  5
179E4
  8
PATH
 10
-1269.7961839569179574
 20
-2.5799401695330739
 30
0.0
  0
VERTEX
  5
179E5
  8
PATH
 10
-1202.6219817488019999
 20
29.4032046651045711
 30
0.0
  0
VERTEX
  5
179E6
  8
PATH
 10
-1189.0967345593530808
 20
37.7176719480703468
 30
0.0
  0
SEQEND
  5
179E7
  8
PATH
  0
POLYLINE
  5
15823
  8
PATH
 66
     1
 10
0.0
 20
0.0
 30
0.0
  0
VERTEX
  5
179E8
  8
PATH
 10
-1189.0967345593530808
 20
37.7176719480703468
 30
0.0
  0
VERTEX
  5
179E9
  8
PATH
 10
-1170.4621874253059559
 20
49.1730139693754609
 30
0.0
  0
VERTEX
  5
179EA
  8
PATH
 10
-1118.5180626299259075
 20
80.3212402635763283
 30
0.0
  0
VERTEX
  5
179EB
  8
PATH
 10
-1044.1242510334850522
 20
122.6732317144559943
 30
0.0
  0
VERTEX
  5
179EC
  8
PATH
 10
-1021.6959040693039924
 20
138.1002650680528916
 30
0.0
  0
VERTEX
  5
179ED
  8
PATH
 10
-1012.2938434036469744
 20
144.1296762647615992
 30
0.0
  0
SEQEND
  5
179EE
  8
PATH
  0
POLYLINE
  5
15824
  8
PATH
 66
     1
 10
0.0
 20
0.0
 30
0.0
  0
VERTEX
  5
179EF
  8
PATH
 10
-1246.5951421976349138
 20
140.3761046045038086
 30
0.0
  0
VERTEX
  5
179F0
  8
PATH
 10
-1189.0967345593530808
 20
37.7176719480703468
 30
0.0
  0
SEQEND
  5
179F1
  8
PATH
  0
POLYLINE
  5
15825
  8
PATH
 66
     1
 10
0.0
 20
0.0
 30
0.0
  0
VERTEX
  5
179F2
  8
PATH
 10
-1189.0967345593530808
 20
37.7176719480703468
 30
0.0
  0
VERTEX
  5
179F3
  8
PATH
 10
-1196.5391869953159585
 20
19.4887003107505699
 30
0.0
  0
VERTEX
  5
179F4
  8
PATH
 10
-1194.9727564809870728
 20
2.230395616083114
 30
0.0
  0
VERTEX
  5
179F5
  8
PATH
 10
-1192.6522990201629
 20
-13.8872770606030809
 30
0.0
  0
VERTEX
  5
179F6
  8
PATH
 10
-1184.1973521696199896
 20
-32.7318926285443013
 30
0.0
  0
VERTEX
  5
179F7
  8
PATH
 10
-1155.8879250844040598
 20
-89.5678352075119619
 30
0.0
  0
SEQEND
  5
179F8
  8
PATH
  0
POLYLINE
  5
15826
  8
PATH
 66
     1
 10
0.0
 20
0.0
 30
0.0
  0
VERTEX
  5
179F9
  8
PATH
 10
-1155.8879250843449427
 20
-89.5678352075119619
 30
0.0
  0
VERTEX
  5
179FA
  8
PATH
 10
-1148.3790604975220049
 20
-108.7042752252382058
 30
0.0
  0
VERTEX
  5
179FB
  8
PATH
 10
-1116.9450704245969064
 20
-172.386269282498688
 30
0.0
  0
VERTEX
  5
179FC
  8
PATH
 10
-1096.1293873412801076
 20
-213.9320656884883078
 30
0.0
  0
SEQEND
  5
179FD
  8
PATH
  0
POLYLINE
  5
15827
  8
PATH
 66
     1
 10
0.0
 20
0.0
 30
0.0
  0
VERTEX
  5
179FE
  8
PATH
 10
-1096.1282730205709868
 20
-213.9342897491951021
 30
0.0
  0
VERTEX
  5
179FF
  8
PATH
 10
-1049.2268986459960161
 20
-307.5442348629658227
 30
0.0
  0
VERTEX
  5
17A00
  8
PATH
 10
-1045.5161188023189425
 20
-313.8219334119422115
 30
0.0
  0
SEQEND
  5
17A01
  8
PATH
  0
POLYLINE
  5
15828
  8
PATH
 66
     1
 10
0.0
 20
0.0
 30
0.0
  0
VERTEX
  5
17A02
  8
PATH
 10
-1045.5161188022609622
 20
-313.8219334119422115
 30
0.0
  0
VERTEX
  5
17A03
  8
PATH
 10
-1018.1836452682180152
 20
-360.0615479046900873
 30
0.0
  0
VERTEX
  5
17A04
  8
PATH
 10
-968.069847747523454
 20
-424.9179575032976004
 30
0.0
  0
SEQEND
  5
17A05
  8
PATH
  0
POLYLINE
  5
15829
  8
PATH
 66
     1
 10
0.0
 20
0.0
 30
0.0
  0
VERTEX
  5
17A06
  8
PATH
 10
-968.0646831750200363
 20
-424.9246414037842783
 30
0.0
  0
VERTEX
  5
17A07
  8
PATH
 10
-928.7789891816355521
 20
-467.0483611490998896
 30
0.0
  0
VERTEX
  5
17A08
  8
PATH
 10
-901.1684352259179605
 20
-492.9901603287507896
 30
0.0
  0
SEQEND
  5
17A09
  8
PATH
  0
POLYLINE
  5
1582A
  8
PATH
 66
     1
 10
0.0
 20
0.0
 30
0.0
  0
VERTEX
  5
17A0A
  8
PATH
 10
-901.1684352260343758
 20
-492.9901603287507896
 30
0.0
  0
VERTEX
  5
17A0B
  8
PATH
 10
-882.1119598123042351
 20
-510.8948810761285131
 30
0.0
  0
VERTEX
  5
17A0C
  8
PATH
 10
-832.4487887998257065
 20
-561.8193976524706841
 30
0.0
  0
VERTEX
  5
17A0D
  8
PATH
 10
-742.7488543184736045
 20
-650.3106387648222153
 30
0.0
  0
VERTEX
  5
17A0E
  8
PATH
 10
-729.7059476305292947
 20
-663.7832808587190812
 30
0.0
  0
SEQEND
  5
17A0F
  8
PATH
  0
POLYLINE
  5
1582B
  8
PATH
 66
     1
 10
0.0
 20
0.0
 30
0.0
  0
VERTEX
  5
17A10
  8
PATH
 10
-729.7059476305292947
 20
-663.7832808587190812
 30
0.0
  0
VERTEX
  5
17A11
  8
PATH
 10
-584.2320141004311154
 20
-814.05026408000424
 30
0.0
  0
VERTEX
  5
17A12
  8
PATH
 10
-570.6781665987364249
 20
-827.5126316016030614
 30
0.0
  0
SEQEND
  5
17A13
  8
PATH
  0
POLYLINE
  5
1582C
  8
PATH
 66
     1
 10
0.0
 20
0.0
 30
0.0
  0
VERTEX
  5
17A14
  8
PATH
 10
-570.6781665987364249
 20
-827.5126316016030614
 30
0.0
  0
VERTEX
  5
17A15
  8
PATH
 10
-487.3745358695305185
 20
-794.1219217315738206
 30
0.0
  0
SEQEND
  5
17A16
  8
PATH
  0
POLYLINE
  5
1582D
  8
PATH
 66
     1
 10
0.0
 20
0.0
 30
0.0
  0
VERTEX
  5
17A17
  8
PATH
 10
-487.3745358695305185
 20
-794.1219217315738206
 30
0.0
  0
VERTEX
  5
17A18
  8
PATH
 10
-475.5201754128938774
 20
-789.5718830502081573
 30
0.0
  0
VERTEX
  5
17A19
  8
PATH
 10
-475.5201754128938774
 20
-789.5718830502081573
 30
0.0
  0
SEQEND
  5
17A1A
  8
PATH
  0
POLYLINE
  5
1582E
  8
PATH
 66
     1
 10
0.0
 20
0.0
 30
0.0
  0
VERTEX
  5
17A1B
  8
PATH
 10
-475.520175412952085
 20
-789.5718830502081573
 30
0.0
  0
VERTEX
  5
17A1C
  8
PATH
 10
-436.6851168570718755
 20
-775.1201920182865024
 30
0.0
  0
VERTEX
  5
17A1D
  8
PATH
 10
-213.3354947948973859
 20
-728.3766999020663206
 30
0.0
  0
SEQEND
  5
17A1E
  8
PATH
  0
POLYLINE
  5
1582F
  8
PATH
 66
     1
 10
0.0
 20
0.0
 30
0.0
  0
VERTEX
  5
17A1F
  8
PATH
 10
-213.3354947948973859
 20
-728.3766999020663206
 30
0.0
  0
VERTEX
  5
17A20
  8
PATH
 10
-193.9239892119803983
 20
-734.0882630892519956
 30
0.0
  0
VERTEX
  5
17A21
  8
PATH
 10
-74.5061907855706522
 20
-697.7441509537819684
 30
0.0
  0
VERTEX
  5
17A22
  8
PATH
 10
39.0294776288646972
 20
-661.2380717936392784
 30
0.0
  0
SEQEND
  5
17A23
  8
PATH
  0
POLYLINE
  5
15830
  8
PATH
 66
     1
 10
0.0
 20
0.0
 30
0.0
  0
VERTEX
  5
17A24
  8
PATH
 10
-213.3354947948973859
 20
-728.3766999020663206
 30
0.0
  0
VERTEX
  5
17A25
  8
PATH
 10
-218.1793637850350933
 20
-709.6889106737870634
 30
0.0
  0
SEQEND
  5
17A26
  8
PATH
  0
POLYLINE
  5
15831
  8
PATH
 66
     1
 10
0.0
 20
0.0
 30
0.0
  0
VERTEX
  5
17A27
  8
PATH
 10
-218.1793637850350933
 20
-709.6889106737870634
 30
0.0
  0
VERTEX
  5
17A28
  8
PATH
 10
-220.8989168859698111
 20
-699.1967947128649712
 30
0.0
  0
VERTEX
  5
17A29
  8
PATH
 10
-258.7186033410981167
 20
-575.0187465021807611
 30
0.0
  0
VERTEX
  5
17A2A
  8
PATH
 10
-263.6426705427729758
 20
-557.5827526649882202
 30
0.0
  0
SEQEND
  5
17A2B
  8
PATH
  0
POLYLINE
  5
15832
  8
PATH
 66
     1
 10
0.0
 20
0.0
 30
0.0
  0
VERTEX
  5
17A2C
  8
PATH
 10
-263.6426705427729758
 20
-557.5827526649882202
 30
0.0
  0
VERTEX
  5
17A2D
  8
PATH
 10
-273.4802927460551132
 20
-517.5554060632784967
 30
0.0
  0
VERTEX
  5
17A2E
  8
PATH
 10
-293.6218513732455904
 20
-425.2622346979987924
 30
0.0
  0
VERTEX
  5
17A2F
  8
PATH
 10
-300.1887402821012074
 20
-385.9552381443281774
 30
0.0
  0
SEQEND
  5
17A30
  8
PATH
  0
POLYLINE
  5
15833
  8
PATH
 66
     1
 10
0.0
 20
0.0
 30
0.0
  0
VERTEX
  5
17A31
  8
PATH
 10
-300.1887402821012074
 20
-385.9552381443281774
 30
0.0
  0
VERTEX
  5
17A32
  8
PATH
 10
-302.6759373390377732
 20
-371.0677857291375972
 30
0.0
  0
VERTEX
  5
17A33
  8
PATH
 10
-304.9121416981943185
 20
-238.9649508613584032
 30
0.0
  0
VERTEX
  5
17A34
  8
PATH
 10
-293.2633191370550776
 20
-201.4428012701172861
 30
0.0
  0
SEQEND
  5
17A35
  8
PATH
  0
POLYLINE
  5
15834
  8
PATH
 66
     1
 10
0.0
 20
0.0
 30
0.0
  0
VERTEX
  5
17A36
  8
PATH
 10
-218.1796977462508949
 20
-709.6876222420904696
 30
0.0
  0
VERTEX
  5
17A37
  8
PATH
 10
-153.6020641439390033
 20
-692.4455112451178138
 30
0.0
  0
VERTEX
  5
17A38
  8
PATH
 10
-57.2387834464461704
 20
-659.5763683425683439
 30
0.0
  0
VERTEX
  5
17A39
  8
PATH
 10
1.2623595194163491
 20
-639.6218544011426275
 30
0.0
  0
VERTEX
  5
17A3A
  8
PATH
 10
18.5875430559244705
 20
-633.6688339234750629
 30
0.0
  0
SEQEND
  5
17A3B
  8
PATH
  0
POLYLINE
  5
15835
  8
PATH
 66
     1
 10
0.0
 20
0.0
 30
0.0
  0
VERTEX
  5
17A3C
  8
PATH
 10
-1096.1289604978660464
 20
-213.9329176209357968
 30
0.0
  0
VERTEX
  5
17A3D
  8
PATH
 10
-1015.4817293022199465
 20
-173.9820893783544022
 30
0.0
  0
SEQEND
  5
17A3E
  8
PATH
  0
POLYLINE
  5
15836
  8
PATH
 66
     1
 10
0.0
 20
0.0
 30
0.0
  0
VERTEX
  5
17A3F
  8
PATH
 10
-1015.4817293022199465
 20
-173.9820893783544022
 30
0.0
  0
VERTEX
  5
17A40
  8
PATH
 10
-1007.840925776064978
 20
-188.3375307581808897
 30
0.0
  0
VERTEX
  5
17A41
  8
PATH
 10
-972.9437442527414532
 20
-244.8961365343492957
 30
0.0
  0
VERTEX
  5
17A42
  8
PATH
 10
-959.7554379106877604
 20
-269.9588928715747898
 30
0.0
  0
SEQEND
  5
17A43
  8
PATH
  0
POLYLINE
  5
15837
  8
PATH
 66
     1
 10
0.0
 20
0.0
 30
0.0
  0
VERTEX
  5
17A44
  8
PATH
 10
-959.7554379106295528
 20
-269.9588928715747898
 30
0.0
  0
VERTEX
  5
17A45
  8
PATH
 10
-914.7391429538984085
 20
-262.650237654284922
 30
0.0
  0
VERTEX
  5
17A46
  8
PATH
 10
-858.2451059901067083
 20
-251.6552631277081957
 30
0.0
  0
SEQEND
  5
17A47
  8
PATH
  0
POLYLINE
  5
15838
  8
PATH
 66
     1
 10
0.0
 20
0.0
 30
0.0
  0
VERTEX
  5
17A48
  8
PATH
 10
-1015.4817293022199465
 20
-173.9820893783544022
 30
0.0
  0
VERTEX
  5
17A49
  8
PATH
 10
-974.8967140213499079
 20
-154.0663651218127939
 30
0.0
  0
VERTEX
  5
17A4A
  8
PATH
 10
-957.6388441415765556
 20
-145.5976488873783978
 30
0.0
  0
VERTEX
  5
17A4B
  8
PATH
 10
-868.0565740572202458
 20
-139.3712494139981004
 30
0.0
  0
SEQEND
  5
17A4C
  8
PATH
  0
POLYLINE
  5
15839
  8
PATH
 66
     1
 10
0.0
 20
0.0
 30
0.0
  0
VERTEX
  5
17A4D
  8
PATH
 10
-633.9830895259656245
 20
337.4663891089658136
 30
0.0
  0
VERTEX
  5
17A4E
  8
PATH
 10
-664.2214306778769242
 20
318.7385643222878002
 30
0.0
  0
VERTEX
  5
17A4F
  8
PATH
 10
-712.3098073750878712
 20
283.450182492429974
 30
0.0
  0
SEQEND
  5
17A50
  8
PATH
  0
POLYLINE
  5
1583A
  8
PATH
 66
     1
 10
0.0
 20
0.0
 30
0.0
  0
VERTEX
  5
17A51
  8
PATH
 10
-712.3098073750878712
 20
283.450182492429974
 30
0.0
  0
VERTEX
  5
17A52
  8
PATH
 10
-754.5663777866429882
 20
248.4118202017197916
 30
0.0
  0
VERTEX
  5
17A53
  8
PATH
 10
-767.6638967000908451
 20
233.698601052681596
 30
0.0
  0
SEQEND
  5
17A54
  8
PATH
  0
POLYLINE
  5
1583B
  8
PATH
 66
     1
 10
0.0
 20
0.0
 30
0.0
  0
VERTEX
  5
17A55
  8
PATH
 10
-767.6638967000908451
 20
233.698601052681596
 30
0.0
  0
VERTEX
  5
17A56
  8
PATH
 10
-794.7232402872323291
 20
203.3012368758718083
 30
0.0
  0
VERTEX
  5
17A57
  8
PATH
 10
-800.9402312185993651
 20
194.5561003727416107
 30
0.0
  0
SEQEND
  5
17A58
  8
PATH
  0
POLYLINE
  5
1583C
  8
PATH
 66
     1
 10
0.0
 20
0.0
 30
0.0
  0
VERTEX
  5
17A59
  8
PATH
 10
-800.9402312185993651
 20
194.5561003727416107
 30
0.0
  0
VERTEX
  5
17A5A
  8
PATH
 10
-815.9334858112415532
 20
173.4658238254997116
 30
0.0
  0
VERTEX
  5
17A5B
  8
PATH
 10
-833.7278943388517973
 20
141.7177042970942864
 30
0.0
  0
VERTEX
  5
17A5C
  8
PATH
 10
-847.8589166253949543
 20
113.8235611189665946
 30
0.0
  0
VERTEX
  5
17A5D
  8
PATH
 10
-857.4593452371918829
 20
88.5637187785978455
 30
0.0
  0
SEQEND
  5
17A5E
  8
PATH
  0
POLYLINE
  5
1583D
  8
PATH
 66
     1
 10
0.0
 20
0.0
 30
0.0
  0
VERTEX
  5
17A5F
  8
PATH
 10
-1203.572389566586935
 20
304.1892388365740771
 30
0.0
  0
VERTEX
  5
17A60
  8
PATH
 10
-1182.2702007487669107
 20
322.1192929428580101
 30
0.0
  0
VERTEX
  5
17A61
  8
PATH
 10
-1159.4637140166159952
 20
341.536861693537503
 30
0.0
  0
VERTEX
  5
17A62
  8
PATH
 10
-1149.5649380703250699
 20
348.9541988992642132
 30
0.0
  0
VERTEX
  5
17A63
  8
PATH
 10
-1117.8904822939800852
 20
369.1137715145524112
 30
0.0
  0
VERTEX
  5
17A64
  8
PATH
 10
-1078.4984994977849055
 20
392.9479349307293887
 30
0.0
  0
VERTEX
  5
17A65
  8
PATH
 10
-1061.7213195981601075
 20
402.1132403240117128
 30
0.0
  0
VERTEX
  5
17A66
  8
PATH
 10
-1047.3072838385849082
 20
409.9875696497546755
 30
0.0
  0
VERTEX
  5
17A67
  8
PATH
 10
-1030.9046681669569807
 20
421.278720083697408
 30
0.0
  0
VERTEX
  5
17A68
  8
PATH
 10
-1018.0343377809180083
 20
428.7395405648784958
 30
0.0
  0
VERTEX
  5
17A69
  8
PATH
 10
-1008.7942954775789985
 20
433.1069516679780804
 30
0.0
  0
VERTEX
  5
17A6A
  8
PATH
 10
-989.6144033947638263
 20
439.9650039873595233
 30
0.0
  0
VERTEX
  5
17A6B
  8
PATH
 10
-972.7118965602858225
 20
448.5041948268698775
 30
0.0
  0
VERTEX
  5
17A6C
  8
PATH
 10
-961.0295134970947402
 20
455.2845869334922781
 30
0.0
  0
VERTEX
  5
17A6D
  8
PATH
 10
-937.2784372046735371
 20
469.0695834830912077
 30
0.0
  0
VERTEX
  5
17A6E
  8
PATH
 10
-921.3083690701896558
 20
476.2259043264712091
 30
0.0
  0
VERTEX
  5
17A6F
  8
PATH
 10
-898.217024064229804
 20
476.7286324534143205
 30
0.0
  0
VERTEX
  5
17A70
  8
PATH
 10
-818.3300065869260607
 20
507.5181124322625124
 30
0.0
  0
VERTEX
  5
17A71
  8
PATH
 10
-805.4760200893068713
 20
510.0663513294929885
 30
0.0
  0
VERTEX
  5
17A72
  8
PATH
 10
-794.9442396344528561
 20
510.1925135488198748
 30
0.0
  0
VERTEX
  5
17A73
  8
PATH
 10
-782.1922775408164625
 20
508.3044546149249072
 30
0.0
  0
VERTEX
  5
17A74
  8
PATH
 10
-762.7320592231843648
 20
500.3596054264853024
 30
0.0
  0
VERTEX
  5
17A75
  8
PATH
 10
-749.4295971407700563
 20
490.3934964701110744
 30
0.0
  0
VERTEX
  5
17A76
  8
PATH
 10
-740.6378519954887452
 20
476.6635252638296834
 30
0.0
  0
SEQEND
  5
17A77
  8
PATH
  0
POLYLINE
  5
1583E
  8
PATH
 66
     1
 10
0.0
 20
0.0
 30
0.0
  0
VERTEX
  5
17A78
  8
PATH
 10
-633.9830895259656245
 20
337.4663891089658136
 30
0.0
  0
VERTEX
  5
17A79
  8
PATH
 10
-590.2434446446859511
 20
372.9997840025970959
 30
0.0
  0
SEQEND
  5
17A7A
  8
PATH
  0
POLYLINE
  5
1583F
  8
PATH
 66
     1
 10
0.0
 20
0.0
 30
0.0
  0
VERTEX
  5
17A7B
  8
PATH
 10
-590.2434446374098798
 20
372.9997840081850882
 30
0.0
  0
VERTEX
  5
17A7C
  8
PATH
 10
-574.5248636754839708
 20
385.7693102811973063
 30
0.0
  0
SEQEND
  5
17A7D
  8
PATH
  0
POLYLINE
  5
15840
  8
PATH
 66
     1
 10
0.0
 20
0.0
 30
0.0
  0
VERTEX
  5
17A7E
  8
PATH
 10
-574.5248636754839708
 20
385.7693102811973063
 30
0.0
  0
VERTEX
  5
17A7F
  8
PATH
 10
-517.1470591702527599
 20
427.7151880874807262
 30
0.0
  0
SEQEND
  5
17A80
  8
PATH
  0
POLYLINE
  5
15841
  8
PATH
 66
     1
 10
0.0
 20
0.0
 30
0.0
  0
VERTEX
  5
17A81
  8
PATH
 10
-517.1470591702527599
 20
427.7151880874807262
 30
0.0
  0
VERTEX
  5
17A82
  8
PATH
 10
-441.9696883630384718
 20
482.6733872877011891
 30
0.0
  0
SEQEND
  5
17A83
  8
PATH
  0
POLYLINE
  5
15842
  8
PATH
 66
     1
 10
0.0
 20
0.0
 30
0.0
  0
VERTEX
  5
17A84
  8
PATH
 10
-441.9696883630384718
 20
482.6733872877011891
 30
0.0
  0
VERTEX
  5
17A85
  8
PATH
 10
-427.2150111285881735
 20
461.2271731803701869
 30
0.0
  0
VERTEX
  5
17A86
  8
PATH
 10
-396.4124732517083771
 20
414.6884325445207082
 30
0.0
  0
VERTEX
  5
17A87
  8
PATH
 10
-386.8187573215254815
 20
399.7005984993230072
 30
0.0
  0
SEQEND
  5
17A88
  8
PATH
  0
POLYLINE
  5
15843
  8
PATH
 66
     1
 10
0.0
 20
0.0
 30
0.0
  0
VERTEX
  5
17A89
  8
PATH
 10
-386.8187573215254815
 20
399.7005984993230072
 30
0.0
  0
VERTEX
  5
17A8A
  8
PATH
 10
-328.9641362162220162
 20
309.3169071144001805
 30
0.0
  0
VERTEX
  5
17A8B
  8
PATH
 10
-316.4189099209762048
 20
291.0381434062073822
 30
0.0
  0
SEQEND
  5
17A8C
  8
PATH
  0
POLYLINE
  5
15844
  8
PATH
 66
     1
 10
0.0
 20
0.0
 30
0.0
  0
VERTEX
  5
17A8D
  8
PATH
 10
-353.4196963111899095
 20
658.792796510788321
 30
0.0
  0
VERTEX
  5
17A8E
  8
PATH
 10
-338.7890613391210195
 20
665.4355266895654495
 30
0.0
  0
VERTEX
  5
17A8F
  8
PATH
 10
-269.5874318881105864
 20
680.7039061887699063
 30
0.0
  0
VERTEX
  5
17A90
  8
PATH
 10
-241.8869367662846059
 20
686.8156361463989015
 30
0.0
  0
VERTEX
  5
17A91
  8
PATH
 10
-128.9539816077013086
 20
711.3980054976926795
 30
0.0
  0
VERTEX
  5
17A92
  8
PATH
 10
-121.2826314254925961
 20
714.8396776202644105
 30
0.0
  0
VERTEX
  5
17A93
  8
PATH
 10
-116.5121251701057048
 20
721.0637836871246691
 30
0.0
  0
VERTEX
  5
17A94
  8
PATH
 10
-102.0891610685648061
 20
741.4096317641015048
 30
0.0
  0
VERTEX
  5
17A95
  8
PATH
 10
-78.3333192363061244
 20
746.794209492909431
 30
0.0
  0
VERTEX
  5
17A96
  8
PATH
 10
-71.941181649119244
 20
744.364003709568351
 30
0.0
  0
VERTEX
  5
17A97
  8
PATH
 10
-62.5971700904337922
 20
709.2440529652449186
 30
0.0
  0
VERTEX
  5
17A98
  8
PATH
 10
-51.4170404283358877
 20
702.5125965821134741
 30
0.0
  0
VERTEX
  5
17A99
  8
PATH
 10
-30.6517376398696797
 20
707.9469031184489722
 30
0.0
  0
VERTEX
  5
17A9A
  8
PATH
 10
-24.8319394731806788
 20
713.7604398266921635
 30
0.0
  0
VERTEX
  5
17A9B
  8
PATH
 10
-21.5391633921681205
 20
720.7213699324564686
 30
0.0
  0
VERTEX
  5
17A9C
  8
PATH
 10
-21.3860018874547713
 20
726.4584112698720446
 30
0.0
  0
VERTEX
  5
17A9D
  8
PATH
 10
-25.1335698595066788
 20
753.9902516487563844
 30
0.0
  0
VERTEX
  5
17A9E
  8
PATH
 10
-24.2912172691576416
 20
759.6507852222348447
 30
0.0
  0
VERTEX
  5
17A9F
  8
PATH
 10
-19.4376890565181384
 20
763.5626938362182727
 30
0.0
  0
VERTEX
  5
17AA0
  8
PATH
 10
10.4270379297522595
 20
764.5571212741124327
 30
0.0
  0
VERTEX
  5
17AA1
  8
PATH
 10
38.3272509379749025
 20
753.3781523653815384
 30
0.0
  0
VERTEX
  5
17AA2
  8
PATH
 10
169.9293468178802868
 20
752.9395276820796425
 30
0.0
  0
VERTEX
  5
17AA3
  8
PATH
 10
181.8689498544408139
 20
753.5982330064797452
 30
0.0
  0
VERTEX
  5
17AA4
  8
PATH
 10
191.316324017578097
 20
757.3180047767746146
 30
0.0
  0
VERTEX
  5
17AA5
  8
PATH
 10
208.6068733035208993
 20
769.8787727929229732
 30
0.0
  0
VERTEX
  5
17AA6
  8
PATH
 10
216.2440726097410959
 20
771.8809613832781906
 30
0.0
  0
VERTEX
  5
17AA7
  8
PATH
 10
304.7034774109924911
 20
769.2947536185893114
 30
0.0
  0
SEQEND
  5
17AA8
  8
PATH
  0
POLYLINE
  5
15845
  8
PATH
 66
     1
 10
0.0
 20
0.0
 30
0.0
  0
VERTEX
  5
17AA9
  8
PATH
 10
304.7034774109924911
 20
769.2947536185893114
 30
0.0
  0
VERTEX
  5
17AAA
  8
PATH
 10
304.6492178425395991
 20
754.2561452477748389
 30
0.0
  0
VERTEX
  5
17AAB
  8
PATH
 10
306.5939621389115928
 20
730.8878563647667761
 30
0.0
  0
VERTEX
  5
17AAC
  8
PATH
 10
300.4846309181157267
 20
702.3333721277813311
 30
0.0
  0
VERTEX
  5
17AAD
  8
PATH
 10
162.2123015502438079
 20
490.8842044268312179
 30
0.0
  0
VERTEX
  5
17AAE
  8
PATH
 10
157.2009874023933094
 20
469.7757112170148162
 30
0.0
  0
SEQEND
  5
17AAF
  8
PATH
  0
POLYLINE
  5
15846
  8
PATH
 66
     1
 10
0.0
 20
0.0
 30
0.0
  0
VERTEX
  5
17AB0
  8
PATH
 10
157.2009874023933094
 20
469.7757112170148162
 30
0.0
  0
VERTEX
  5
17AB1
  8
PATH
 10
160.4874860407288963
 20
440.251951472419023
 30
0.0
  0
VERTEX
  5
17AB2
  8
PATH
 10
166.4381780562544009
 20
400.8070071940819048
 30
0.0
  0
VERTEX
  5
17AB3
  8
PATH
 10
181.0016710499621126
 20
366.2008381761189071
 30
0.0
  0
VERTEX
  5
17AB4
  8
PATH
 10
211.950501002473203
 20
309.5370497154581244
 30
0.0
  0
SEQEND
  5
17AB5
  8
PATH
  0
POLYLINE
  5
15847
  8
PATH
 66
     1
 10
0.0
 20
0.0
 30
0.0
  0
VERTEX
  5
17AB6
  8
PATH
 10
304.703465745827998
 20
769.2915205006064525
 30
0.0
  0
VERTEX
  5
17AB7
  8
PATH
 10
451.7014269781502094
 20
767.3662969996730681
 30
0.0
  0
VERTEX
  5
17AB8
  8
PATH
 10
621.132505345842219
 20
764.3769054655494983
 30
0.0
  0
VERTEX
  5
17AB9
  8
PATH
 10
641.7009142382156597
 20
758.691773914782857
 30
0.0
  0
VERTEX
  5
17ABA
  8
PATH
 10
803.4070965621358482
 20
757.3127505993979867
 30
0.0
  0
VERTEX
  5
17ABB
  8
PATH
 10
876.6530354791758555
 20
744.4475748721088166
 30
0.0
  0
SEQEND
  5
17ABC
  8
PATH
  0
POLYLINE
  5
15848
  8
PATH
 66
     1
 10
0.0
 20
0.0
 30
0.0
  0
VERTEX
  5
17ABD
  8
PATH
 10
2.51870917713677
 20
200.8484703354114913
 30
0.0
  0
VERTEX
  5
17ABE
  8
PATH
 10
88.8197493895277148
 20
246.9065851001577983
 30
0.0
  0
SEQEND
  5
17ABF
  8
PATH
  0
POLYLINE
  5
15849
  8
PATH
 66
     1
 10
0.0
 20
0.0
 30
0.0
  0
VERTEX
  5
17AC0
  8
PATH
 10
-44.6984889820596365
 20
65.7533888454127009
 30
0.0
  0
VERTEX
  5
17AC1
  8
PATH
 10
25.1103165645472508
 20
101.1594378902155
 30
0.0
  0
SEQEND
  5
17AC2
  8
PATH
  0
POLYLINE
  5
1584A
  8
PATH
 66
     1
 10
0.0
 20
0.0
 30
0.0
  0
VERTEX
  5
17AC3
  8
PATH
 10
25.1103165644308284
 20
101.1594378902155
 30
0.0
  0
VERTEX
  5
17AC4
  8
PATH
 10
46.4665888071031077
 20
111.9910402433524013
 30
0.0
  0
SEQEND
  5
17AC5
  8
PATH
  0
POLYLINE
  5
1584B
  8
PATH
 66
     1
 10
0.0
 20
0.0
 30
0.0
  0
VERTEX
  5
17AC6
  8
PATH
 10
46.4904740327474428
 20
112.0031544953161955
 30
0.0
  0
VERTEX
  5
17AC7
  8
PATH
 10
67.861852789108525
 20
122.1948041581127029
 30
0.0
  0
VERTEX
  5
17AC8
  8
PATH
 10
122.833361747951102
 20
140.7247267147104139
 30
0.0
  0
VERTEX
  5
17AC9
  8
PATH
 10
88.8197493895277148
 20
246.9065851001577983
 30
0.0
  0
SEQEND
  5
17ACA
  8
PATH
  0
POLYLINE
  5
1584C
  8
PATH
 66
     1
 10
0.0
 20
0.0
 30
0.0
  0
VERTEX
  5
17ACB
  8
PATH
 10
88.8197493895277148
 20
246.9065851001577983
 30
0.0
  0
VERTEX
  5
17ACC
  8
PATH
 10
211.950501002473203
 20
309.5370497154581244
 30
0.0
  0
SEQEND
  5
17ACD
  8
PATH
  0
POLYLINE
  5
1584D
  8
PATH
 66
     1
 10
0.0
 20
0.0
 30
0.0
  0
VERTEX
  5
17ACE
  8
PATH
 10
211.950501002473203
 20
309.5370497154581244
 30
0.0
  0
VERTEX
  5
17ACF
  8
PATH
 10
256.9502574826328782
 20
243.1266753031449923
 30
0.0
  0
SEQEND
  5
17AD0
  8
PATH
  0
POLYLINE
  5
1584E
  8
PATH
 66
     1
 10
0.0
 20
0.0
 30
0.0
  0
VERTEX
  5
17AD1
  8
PATH
 10
256.9502574826328782
 20
243.1266753031449923
 30
0.0
  0
VERTEX
  5
17AD2
  8
PATH
 10
296.5426134961745106
 20
261.4965313254434136
 30
0.0
  0
VERTEX
  5
17AD3
  8
PATH
 10
397.5227571921860203
 20
306.5116720223376774
 30
0.0
  0
VERTEX
  5
17AD4
  8
PATH
 10
467.9689844527018749
 20
334.822419427386194
 30
0.0
  0
VERTEX
  5
17AD5
  8
PATH
 10
539.384925303151249
 20
361.4855360864240197
 30
0.0
  0
VERTEX
  5
17AD6
  8
PATH
 10
633.7140342274069553
 20
392.6351626683535869
 30
0.0
  0
VERTEX
  5
17AD7
  8
PATH
 10
679.2564587879896862
 20
407.6743116104552769
 30
0.0
  0
VERTEX
  5
17AD8
  8
PATH
 10
695.3467839669756358
 20
423.0986853726716959
 30
0.0
  0
SEQEND
  5
17AD9
  8
PATH
  0
POLYLINE
  5
1584F
  8
PATH
 66
     1
 10
0.0
 20
0.0
 30
0.0
  0
VERTEX
  5
17ADA
  8
PATH
 10
256.9502574826328782
 20
243.1266753031449923
 30
0.0
  0
VERTEX
  5
17ADB
  8
PATH
 10
283.2139762124716071
 20
190.0977491220037052
 30
0.0
  0
VERTEX
  5
17ADC
  8
PATH
 10
311.8829050997592276
 20
100.1373334187591979
 30
0.0
  0
SEQEND
  5
17ADD
  8
PATH
  0
POLYLINE
  5
15850
  8
PATH
 66
     1
 10
0.0
 20
0.0
 30
0.0
  0
VERTEX
  5
17ADE
  8
PATH
 10
311.8829050997592276
 20
100.1373334187591979
 30
0.0
  0
VERTEX
  5
17ADF
  8
PATH
 10
89.3270010312990053
 20
29.2123678401621909
 30
0.0
  0
SEQEND
  5
17AE0
  8
PATH
  0
POLYLINE
  5
15851
  8
PATH
 66
     1
 10
0.0
 20
0.0
 30
0.0
  0
VERTEX
  5
17AE1
  8
PATH
 10
311.8829050997592276
 20
100.1373334187591979
 30
0.0
  0
VERTEX
  5
17AE2
  8
PATH
 10
528.7209484844205463
 20
168.0280103739860067
 30
0.0
  0
SEQEND
  5
17AE3
  8
PATH
  0
POLYLINE
  5
15852
  8
PATH
 66
     1
 10
0.0
 20
0.0
 30
0.0
  0
VERTEX
  5
17AE4
  8
PATH
 10
528.7209484844205463
 20
168.0280103739860067
 30
0.0
  0
VERTEX
  5
17AE5
  8
PATH
 10
594.2583887741056969
 20
9.1727626137944753
 30
0.0
  0
SEQEND
  5
17AE6
  8
PATH
  0
POLYLINE
  5
15853
  8
PATH
 66
     1
 10
0.0
 20
0.0
 30
0.0
  0
VERTEX
  5
17AE7
  8
PATH
 10
528.7209484844205463
 20
168.0280103739860067
 30
0.0
  0
VERTEX
  5
17AE8
  8
PATH
 10
780.2990151289704954
 20
247.727550329691411
 30
0.0
  0
SEQEND
  5
17AE9
  8
PATH
  0
POLYLINE
  5
15854
  8
PATH
 66
     1
 10
0.0
 20
0.0
 30
0.0
  0
VERTEX
  5
17AEA
  8
PATH
 10
780.2990151289704954
 20
247.727550329691411
 30
0.0
  0
VERTEX
  5
17AEB
  8
PATH
 10
881.0008309695258504
 20
269.1376543590376968
 30
0.0
  0
SEQEND
  5
17AEC
  8
PATH
  0
POLYLINE
  5
15855
  8
PATH
 66
     1
 10
0.0
 20
0.0
 30
0.0
  0
VERTEX
  5
17AED
  8
PATH
 10
780.2990151289704954
 20
247.727550329691411
 30
0.0
  0
VERTEX
  5
17AEE
  8
PATH
 10
772.9589855408848962
 20
268.2936153593983022
 30
0.0
  0
VERTEX
  5
17AEF
  8
PATH
 10
748.4591756169537575
 20
324.7543125120500918
 30
0.0
  0
VERTEX
  5
17AF0
  8
PATH
 10
724.5773645136359846
 20
410.6026899642819785
 30
0.0
  0
VERTEX
  5
17AF1
  8
PATH
 10
723.6272992715092869
 20
424.968927005356818
 30
0.0
  0
SEQEND
  5
17AF2
  8
PATH
  0
POLYLINE
  5
15856
  8
PATH
 66
     1
 10
0.0
 20
0.0
 30
0.0
  0
VERTEX
  5
17AF3
  8
PATH
 10
311.8829050997592276
 20
100.1373334187591979
 30
0.0
  0
VERTEX
  5
17AF4
  8
PATH
 10
429.5701962040474768
 20
-275.6372756016863264
 30
0.0
  0
SEQEND
  5
17AF5
  8
PATH
  0
POLYLINE
  5
15857
  8
PATH
 66
     1
 10
0.0
 20
0.0
 30
0.0
  0
VERTEX
  5
17AF6
  8
PATH
 10
429.5701962040474768
 20
-275.6372756016863264
 30
0.0
  0
VERTEX
  5
17AF7
  8
PATH
 10
620.5665179169591283
 20
-196.322430658103201
 30
0.0
  0
SEQEND
  5
17AF8
  8
PATH
  0
POLYLINE
  5
15858
  8
PATH
 66
     1
 10
0.0
 20
0.0
 30
0.0
  0
VERTEX
  5
17AF9
  8
PATH
 10
594.2583887741056969
 20
9.1727626137944753
 30
0.0
  0
VERTEX
  5
17AFA
  8
PATH
 10
558.2019152606808348
 20
-7.7896058349360819
 30
0.0
  0
VERTEX
  5
17AFB
  8
PATH
 10
550.0113968233780497
 20
-14.4582599270579504
 30
0.0
  0
VERTEX
  5
17AFC
  8
PATH
 10
549.0544407446141122
 20
-24.4515319894489984
 30
0.0
  0
VERTEX
  5
17AFD
  8
PATH
 10
552.5267854863050161
 20
-35.2281349962067907
 30
0.0
  0
VERTEX
  5
17AFE
  8
PATH
 10
620.5665179169591283
 20
-196.322430658103201
 30
0.0
  0
SEQEND
  5
17AFF
  8
PATH
  0
POLYLINE
  5
15859
  8
PATH
 66
     1
 10
0.0
 20
0.0
 30
0.0
  0
VERTEX
  5
17B00
  8
PATH
 10
594.2583887741056969
 20
9.1727626137944753
 30
0.0
  0
VERTEX
  5
17B01
  8
PATH
 10
732.1606611048191553
 20
71.6256013331512804
 30
0.0
  0
VERTEX
  5
17B02
  8
PATH
 10
758.4380830075097037
 20
80.1786959157834644
 30
0.0
  0
VERTEX
  5
17B03
  8
PATH
 10
772.1673061417385497
 20
77.0818911497990484
 30
0.0
  0
VERTEX
  5
17B04
  8
PATH
 10
780.1390912512288196
 20
67.9389284025455709
 30
0.0
  0
VERTEX
  5
17B05
  8
PATH
 10
849.3636663796931998
 20
-100.1627299193715004
 30
0.0
  0
SEQEND
  5
17B06
  8
PATH
  0
POLYLINE
  5
1585A
  8
PATH
 66
     1
 10
0.0
 20
0.0
 30
0.0
  0
VERTEX
  5
17B07
  8
PATH
 10
620.5665179169591283
 20
-196.322430658103201
 30
0.0
  0
VERTEX
  5
17B08
  8
PATH
 10
849.3636663796931998
 20
-100.1627299193715004
 30
0.0
  0
SEQEND
  5
17B09
  8
PATH
  0
POLYLINE
  5
1585B
  8
PATH
 66
     1
 10
0.0
 20
0.0
 30
0.0
  0
VERTEX
  5
17B0A
  8
PATH
 10
849.3636663796931998
 20
-100.1627299193715004
 30
0.0
  0
VERTEX
  5
17B0B
  8
PATH
 10
881.0194822312769247
 20
-86.8583080796015565
 30
0.0
  0
SEQEND
  5
17B0C
  8
PATH
  0
POLYLINE
  5
1585C
  8
PATH
 66
     1
 10
0.0
 20
0.0
 30
0.0
  0
VERTEX
  5
17B0D
  8
PATH
 10
849.3636663796931998
 20
-100.1627299193715004
 30
0.0
  0
VERTEX
  5
17B0E
  8
PATH
 10
886.932971807822355
 20
-189.5530866463159043
 30
0.0
  0
SEQEND
  5
17B0F
  8
PATH
  0
POLYLINE
  5
1585D
  8
PATH
 66
     1
 10
0.0
 20
0.0
 30
0.0
  0
VERTEX
  5
17B10
  8
PATH
 10
620.5665179169591283
 20
-196.322430658103201
 30
0.0
  0
VERTEX
  5
17B11
  8
PATH
 10
661.2566443842224544
 20
-295.5987508561884169
 30
0.0
  0
VERTEX
  5
17B12
  8
PATH
 10
698.067752723392914
 20
-457.9005929496560725
 30
0.0
  0
SEQEND
  5
17B13
  8
PATH
  0
POLYLINE
  5
1585E
  8
PATH
 66
     1
 10
0.0
 20
0.0
 30
0.0
  0
VERTEX
  5
17B14
  8
PATH
 10
698.067752723392914
 20
-457.9005929496560725
 30
0.0
  0
VERTEX
  5
17B15
  8
PATH
 10
751.8514959704333478
 20
-432.890209895973328
 30
0.0
  0
VERTEX
  5
17B16
  8
PATH
 10
877.8952602132194443
 20
-376.4942233911206131
 30
0.0
  0
SEQEND
  5
17B17
  8
PATH
  0
POLYLINE
  5
1585F
  8
PATH
 66
     1
 10
0.0
 20
0.0
 30
0.0
  0
VERTEX
  5
17B18
  8
PATH
 10
698.067752723392914
 20
-457.9005929496560725
 30
0.0
  0
VERTEX
  5
17B19
  8
PATH
 10
724.1086910230659441
 20
-579.7837650072251563
 30
0.0
  0
SEQEND
  5
17B1A
  8
PATH
  0
POLYLINE
  5
15860
  8
PATH
 66
     1
 10
0.0
 20
0.0
 30
0.0
  0
VERTEX
  5
17B1B
  8
PATH
 10
698.067752723392914
 20
-457.9005929496560725
 30
0.0
  0
VERTEX
  5
17B1C
  8
PATH
 10
587.4517857874598121
 20
-524.7158506554042106
 30
0.0
  0
SEQEND
  5
17B1D
  8
PATH
  0
POLYLINE
  5
15861
  8
PATH
 66
     1
 10
0.0
 20
0.0
 30
0.0
  0
VERTEX
  5
17B1E
  8
PATH
 10
-53.3477578716847418
 20
-284.3628327743572868
 30
0.0
  0
VERTEX
  5
17B1F
  8
PATH
 10
332.2095100882434053
 20
-422.5374108263712856
 30
0.0
  0
SEQEND
  5
17B20
  8
PATH
  0
POLYLINE
  5
15862
  8
PATH
 66
     1
 10
0.0
 20
0.0
 30
0.0
  0
VERTEX
  5
17B21
  8
PATH
 10
332.2095100882434053
 20
-422.5374108263712856
 30
0.0
  0
VERTEX
  5
17B22
  8
PATH
 10
587.4517857874598121
 20
-524.7158506554042106
 30
0.0
  0
SEQEND
  5
17B23
  8
PATH
  0
POLYLINE
  5
15863
  8
PATH
 66
     1
 10
0.0
 20
0.0
 30
0.0
  0
VERTEX
  5
17B24
  8
PATH
 10
587.4517857874598121
 20
-524.7158506554042106
 30
0.0
  0
VERTEX
  5
17B25
  8
PATH
 10
724.1086910230659441
 20
-579.7837650072251563
 30
0.0
  0
SEQEND
  5
17B26
  8
PATH
  0
POLYLINE
  5
15864
  8
PATH
 66
     1
 10
0.0
 20
0.0
 30
0.0
  0
VERTEX
  5
17B27
  8
PATH
 10
724.1086910230659441
 20
-579.7837650072251563
 30
0.0
  0
VERTEX
  5
17B28
  8
PATH
 10
886.6417384971717865
 20
-647.6176001885396545
 30
0.0
  0
SEQEND
  5
17B29
  8
PATH
  0
POLYLINE
  5
15865
  8
PATH
 66
     1
 10
0.0
 20
0.0
 30
0.0
  0
VERTEX
  5
17B2A
  8
PATH
 10
-441.9696883630384718
 20
482.6733872877011891
 30
0.0
  0
VERTEX
  5
17B2B
  8
PATH
 10
-434.5965634285383885
 20
502.3014064017261262
 30
0.0
  0
SEQEND
  5
17B2C
  8
PATH
  0
POLYLINE
  5
15866
  8
PATH
 66
     1
 10
0.0
 20
0.0
 30
0.0
  0
VERTEX
  5
17B2D
  8
PATH
 10
-434.5965634285383885
 20
502.3014064017261262
 30
0.0
  0
VERTEX
  5
17B2E
  8
PATH
 10
-446.9659579594298862
 20
528.0063561536881025
 30
0.0
  0
VERTEX
  5
17B2F
  8
PATH
 10
-455.6130820184043273
 20
542.04514884720993
 30
0.0
  0
SEQEND
  5
17B30
  8
PATH
  0
POLYLINE
  5
15867
  8
PATH
 66
     1
 10
0.0
 20
0.0
 30
0.0
  0
VERTEX
  5
17B31
  8
PATH
 10
-455.6130820184625918
 20
542.04514884720993
 30
0.0
  0
VERTEX
  5
17B32
  8
PATH
 10
-499.8220217696652981
 20
613.8193174759435351
 30
0.0
  0
SEQEND
  5
17B33
  8
PATH
  0
POLYLINE
  5
15868
  8
PATH
 66
     1
 10
0.0
 20
0.0
 30
0.0
  0
VERTEX
  5
17B34
  8
PATH
 10
-281.5312504756875001
 20
471.141951144258087
 30
0.0
  0
VERTEX
  5
17B35
  8
PATH
 10
-260.6399539809353882
 20
484.4694635146806263
 30
0.0
  0
SEQEND
  5
17B36
  8
PATH
  0
POLYLINE
  5
15869
  8
PATH
 66
     1
 10
0.0
 20
0.0
 30
0.0
  0
VERTEX
  5
17B37
  8
PATH
 10
-260.635968585862372
 20
484.4720059801401817
 30
0.0
  0
VERTEX
  5
17B38
  8
PATH
 10
-188.3238335052882917
 20
530.6032202425922151
 30
0.0
  0
SEQEND
  5
17B39
  8
PATH
  0
POLYLINE
  5
1586A
  8
PATH
 66
     1
 10
0.0
 20
0.0
 30
0.0
  0
VERTEX
  5
17B3A
  8
PATH
 10
32.1837688411323981
 20
-649.5507161723870695
 30
0.0
  0
VERTEX
  5
17B3B
  8
PATH
 10
382.7910145009955158
 20
-519.6213631294158404
 30
0.0
  0
SEQEND
  5
17B3C
  8
PATH
  0
POLYLINE
  5
1586B
  8
PATH
 66
     1
 10
0.0
 20
0.0
 30
0.0
  0
VERTEX
  5
17B3D
  8
PATH
 10
32.1837688411323981
 20
-649.5507161723870695
 30
0.0
  0
VERTEX
  5
17B3E
  8
PATH
 10
31.3208614915347496
 20
-619.0663502448660438
 30
0.0
  0
VERTEX
  5
17B3F
  8
PATH
 10
-19.4304806166474009
 20
-509.7328156362709137
 30
0.0
  0
VERTEX
  5
17B40
  8
PATH
 10
-36.8512457298493175
 20
-477.1171496207315954
 30
0.0
  0
VERTEX
  5
17B41
  8
PATH
 10
-46.3849249020131467
 20
-442.8668519909916199
 30
0.0
  0
VERTEX
  5
17B42
  8
PATH
 10
-53.3477578716847418
 20
-284.3628327743572868
 30
0.0
  0
SEQEND
  5
17B43
  8
PATH
  0
POLYLINE
  5
1586C
  8
PATH
 66
     1
 10
0.0
 20
0.0
 30
0.0
  0
VERTEX
  5
17B44
  8
PATH
 10
-53.3477578716847418
 20
-284.3628327743572868
 30
0.0
  0
VERTEX
  5
17B45
  8
PATH
 10
-54.2795047656545577
 20
-243.8351148752917936
 30
0.0
  0
VERTEX
  5
17B46
  8
PATH
 10
-59.7197811359219486
 20
-219.763359084208787
 30
0.0
  0
SEQEND
  5
17B47
  8
PATH
  0
POLYLINE
  5
1586D
  8
PATH
 66
     1
 10
0.0
 20
0.0
 30
0.0
  0
VERTEX
  5
17B48
  8
PATH
 10
-59.7197811358637409
 20
-219.763359084208787
 30
0.0
  0
VERTEX
  5
17B49
  8
PATH
 10
-78.8266032660758356
 20
-135.2208239337851126
 30
0.0
  0
VERTEX
  5
17B4A
  8
PATH
 10
-96.3274411396851065
 20
-130.932672294271498
 30
0.0
  0
SEQEND
  5
17B4B
  8
PATH
  0
POLYLINE
  5
1586E
  8
PATH
 66
     1
 10
0.0
 20
0.0
 30
0.0
  0
VERTEX
  5
17B4C
  8
PATH
 10
-87.0247215078707086
 20
-106.0678878095422988
 30
0.0
  0
VERTEX
  5
17B4D
  8
PATH
 10
-73.6658871201361762
 20
-107.8618428776461968
 30
0.0
  0
VERTEX
  5
17B4E
  8
PATH
 10
-42.7795987188146611
 20
-88.3740285853345995
 30
0.0
  0
VERTEX
  5
17B4F
  8
PATH
 10
2.8864923829532918
 20
-56.2467780201186471
 30
0.0
  0
SEQEND
  5
17B50
  8
PATH
  0
POLYLINE
  5
1586F
  8
PATH
 66
     1
 10
0.0
 20
0.0
 30
0.0
  0
VERTEX
  5
17B51
  8
PATH
 10
2.8864923829532918
 20
-56.2467780201186471
 30
0.0
  0
VERTEX
  5
17B52
  8
PATH
 10
13.6757529523893009
 20
-72.4272801409897511
 30
0.0
  0
SEQEND
  5
17B53
  8
PATH
  0
POLYLINE
  5
15870
  8
PATH
 66
     1
 10
0.0
 20
0.0
 30
0.0
  0
VERTEX
  5
17B54
  8
PATH
 10
13.6757529523310897
 20
-72.4272801409897511
 30
0.0
  0
VERTEX
  5
17B55
  8
PATH
 10
38.4889294851309387
 20
-109.6392515203405935
 30
0.0
  0
SEQEND
  5
17B56
  8
PATH
  0
POLYLINE
  5
15871
  8
PATH
 66
     1
 10
0.0
 20
0.0
 30
0.0
  0
VERTEX
  5
17B57
  8
PATH
 10
38.4889294851309387
 20
-109.6392515203405935
 30
0.0
  0
VERTEX
  5
17B58
  8
PATH
 10
49.4774227521702414
 20
-126.1185401118782039
 30
0.0
  0
SEQEND
  5
17B59
  8
PATH
  0
POLYLINE
  5
15872
  8
PATH
 66
     1
 10
0.0
 20
0.0
 30
0.0
  0
VERTEX
  5
17B5A
  8
PATH
 10
49.4774227521702414
 20
-126.1185401118782039
 30
0.0
  0
VERTEX
  5
17B5B
  8
PATH
 10
30.3360530002828384
 20
-137.3697663531129081
 30
0.0
  0
VERTEX
  5
17B5C
  8
PATH
 10
22.4540343784465186
 20
-144.7783300736410013
 30
0.0
  0
VERTEX
  5
17B5D
  8
PATH
 10
20.2527302875969291
 20
-151.3751605511133107
 30
0.0
  0
VERTEX
  5
17B5E
  8
PATH
 10
22.2641526528022986
 20
-160.7687252582472865
 30
0.0
  0
SEQEND
  5
17B5F
  8
PATH
  0
POLYLINE
  5
15873
  8
PATH
 66
     1
 10
0.0
 20
0.0
 30
0.0
  0
VERTEX
  5
17B60
  8
PATH
 10
22.2641526528022986
 20
-160.7687252582472865
 30
0.0
  0
VERTEX
  5
17B61
  8
PATH
 10
37.4317271822219482
 20
-185.7549910041925045
 30
0.0
  0
VERTEX
  5
17B62
  8
PATH
 10
50.5187162794609321
 20
-207.3138095722025014
 30
0.0
  0
SEQEND
  5
17B63
  8
PATH
  0
POLYLINE
  5
15874
  8
PATH
 66
     1
 10
0.0
 20
0.0
 30
0.0
  0
VERTEX
  5
17B64
  8
PATH
 10
50.5187162794609321
 20
-207.3138095722025014
 30
0.0
  0
VERTEX
  5
17B65
  8
PATH
 10
34.9952031337743392
 20
-257.1986072030341006
 30
0.0
  0
SEQEND
  5
17B66
  8
PATH
  0
POLYLINE
  5
15875
  8
PATH
 66
     1
 10
0.0
 20
0.0
 30
0.0
  0
VERTEX
  5
17B67
  8
PATH
 10
34.9952031337743392
 20
-257.1986072030341006
 30
0.0
  0
VERTEX
  5
17B68
  8
PATH
 10
12.5868756486306594
 20
-250.8705452521753898
 30
0.0
  0
VERTEX
  5
17B69
  8
PATH
 10
-0.0549614675255725
 20
-248.7987264184702951
 30
0.0
  0
VERTEX
  5
17B6A
  8
PATH
 10
-11.5116347177681693
 20
-249.0946952267040899
 30
0.0
  0
VERTEX
  5
17B6B
  8
PATH
 10
-20.8174451136874303
 20
-250.4788240161215072
 30
0.0
  0
VERTEX
  5
17B6C
  8
PATH
 10
-38.6937871955014998
 20
-258.7661117431197795
 30
0.0
  0
VERTEX
  5
17B6D
  8
PATH
 10
-53.3477578716847418
 20
-284.3628327743572868
 30
0.0
  0
SEQEND
  5
17B6E
  8
PATH
  0
POLYLINE
  5
15876
  8
PATH
 66
     1
 10
0.0
 20
0.0
 30
0.0
  0
VERTEX
  5
17B6F
  8
PATH
 10
34.9952031337743392
 20
-257.1986072030341006
 30
0.0
  0
VERTEX
  5
17B70
  8
PATH
 10
135.2856026212539007
 20
-293.1418900354256039
 30
0.0
  0
SEQEND
  5
17B71
  8
PATH
  0
POLYLINE
  5
15877
  8
PATH
 66
     1
 10
0.0
 20
0.0
 30
0.0
  0
VERTEX
  5
17B72
  8
PATH
 10
-901.1684352259179605
 20
-492.9901603287507896
 30
0.0
  0
VERTEX
  5
17B73
  8
PATH
 10
-789.4060322626173729
 20
-388.2207763958213036
 30
0.0
  0
SEQEND
  5
17B74
  8
PATH
  0
POLYLINE
  5
15878
  8
PATH
 66
     1
 10
0.0
 20
0.0
 30
0.0
  0
VERTEX
  5
17B75
  8
PATH
 10
-968.0646831750200363
 20
-424.9246414037842783
 30
0.0
  0
VERTEX
  5
17B76
  8
PATH
 10
-915.0513580321129439
 20
-378.6621278891761904
 30
0.0
  0
VERTEX
  5
17B77
  8
PATH
 10
-908.9118049453390995
 20
-359.9508163853969904
 30
0.0
  0
SEQEND
  5
17B78
  8
PATH
  0
POLYLINE
  5
15879
  8
PATH
 66
     1
 10
0.0
 20
0.0
 30
0.0
  0
VERTEX
  5
17B79
  8
PATH
 10
-908.9118049453390995
 20
-359.9508163853969904
 30
0.0
  0
VERTEX
  5
17B7A
  8
PATH
 10
-897.4943831084091244
 20
-356.37308511319128
 30
0.0
  0
VERTEX
  5
17B7B
  8
PATH
 10
-837.2239322810927433
 20
-314.5792140215125983
 30
0.0
  0
SEQEND
  5
17B7C
  8
PATH
  0
POLYLINE
  5
1587A
  8
PATH
 66
     1
 10
0.0
 20
0.0
 30
0.0
  0
VERTEX
  5
17B7D
  8
PATH
 10
-908.9118049453390995
 20
-359.9508163853969904
 30
0.0
  0
VERTEX
  5
17B7E
  8
PATH
 10
-915.5524415840189931
 20
-353.890618685116408
 30
0.0
  0
VERTEX
  5
17B7F
  8
PATH
 10
-959.7554379106877604
 20
-269.9588928715747898
 30
0.0
  0
SEQEND
  5
17B80
  8
PATH
  0
POLYLINE
  5
1587B
  8
PATH
 66
     1
 10
0.0
 20
0.0
 30
0.0
  0
VERTEX
  5
17B81
  8
PATH
 10
-1045.5161188023189425
 20
-313.8219334119422115
 30
0.0
  0
VERTEX
  5
17B82
  8
PATH
 10
-959.7554379106877604
 20
-269.9588928715747898
 30
0.0
  0
SEQEND
  5
17B83
  8
PATH
  0
POLYLINE
  5
1587C
  8
PATH
 66
     1
 10
0.0
 20
0.0
 30
0.0
  0
VERTEX
  5
17B84
  8
PATH
 10
-729.7059476305292947
 20
-663.7832808587190812
 30
0.0
  0
VERTEX
  5
17B85
  8
PATH
 10
-649.9985812941012
 20
-586.5496373981659417
 30
0.0
  0
SEQEND
  5
17B86
  8
PATH
  0
POLYLINE
  5
1587D
  8
PATH
 66
     1
 10
0.0
 20
0.0
 30
0.0
  0
VERTEX
  5
17B87
  8
PATH
 10
-789.4060322626173729
 20
-388.2207763958213036
 30
0.0
  0
VERTEX
  5
17B88
  8
PATH
 10
-755.2098491043578861
 20
-375.7244872543452061
 30
0.0
  0
VERTEX
  5
17B89
  8
PATH
 10
-714.3781810504877967
 20
-352.086011175015301
 30
0.0
  0
VERTEX
  5
17B8A
  8
PATH
 10
-689.885141786609779
 20
-337.9063768288542065
 30
0.0
  0
VERTEX
  5
17B8B
  8
PATH
 10
-667.9308980053900768
 20
-334.7347853704778231
 30
0.0
  0
VERTEX
  5
17B8C
  8
PATH
 10
-635.3248245591676096
 20
-334.6795379975300762
 30
0.0
  0
VERTEX
  5
17B8D
  8
PATH
 10
-563.0548141680918661
 20
-344.9426442537878756
 30
0.0
  0
SEQEND
  5
17B8E
  8
PATH
  0
POLYLINE
  5
1587E
  8
PATH
 66
     1
 10
0.0
 20
0.0
 30
0.0
  0
VERTEX
  5
17B8F
  8
PATH
 10
-563.0548141680918661
 20
-344.9426442537878756
 30
0.0
  0
VERTEX
  5
17B90
  8
PATH
 10
-557.6708990979968803
 20
-377.1120171909643091
 30
0.0
  0
VERTEX
  5
17B91
  8
PATH
 10
-551.5277276328561129
 20
-416.0496323531914982
 30
0.0
  0
VERTEX
  5
17B92
  8
PATH
 10
-543.3193899066098993
 20
-485.5876561584373121
 30
0.0
  0
VERTEX
  5
17B93
  8
PATH
 10
-536.5508445126032484
 20
-578.396087062494189
 30
0.0
  0
SEQEND
  5
17B94
  8
PATH
  0
POLYLINE
  5
1587F
  8
PATH
 66
     1
 10
0.0
 20
0.0
 30
0.0
  0
VERTEX
  5
17B95
  8
PATH
 10
-536.5508445126032484
 20
-578.396087062494189
 30
0.0
  0
VERTEX
  5
17B96
  8
PATH
 10
-533.7183476229693042
 20
-612.7692689778704107
 30
0.0
  0
VERTEX
  5
17B97
  8
PATH
 10
-530.2152934642654145
 20
-647.2446909206410055
 30
0.0
  0
VERTEX
  5
17B98
  8
PATH
 10
-524.5756178032752359
 20
-684.5107198897238732
 30
0.0
  0
VERTEX
  5
17B99
  8
PATH
 10
-501.565561115174205
 20
-758.7179446573791211
 30
0.0
  0
VERTEX
  5
17B9A
  8
PATH
 10
-487.3745358695305185
 20
-794.1219217315738206
 30
0.0
  0
SEQEND
  5
17B9B
  8
PATH
  0
POLYLINE
  5
15880
  8
PATH
 66
     1
 10
0.0
 20
0.0
 30
0.0
  0
VERTEX
  5
17B9C
  8
PATH
 10
-520.925060209425169
 20
-577.2305042165753548
 30
0.0
  0
VERTEX
  5
17B9D
  8
PATH
 10
-520.3422542764601531
 20
-609.483810433135659
 30
0.0
  0
VERTEX
  5
17B9E
  8
PATH
 10
-516.4146282589789507
 20
-656.1903821504165535
 30
0.0
  0
VERTEX
  5
17B9F
  8
PATH
 10
-510.2840901918389136
 20
-687.7513314652677536
 30
0.0
  0
VERTEX
  5
17BA0
  8
PATH
 10
-494.986993582409923
 20
-737.2600102144715493
 30
0.0
  0
VERTEX
  5
17BA1
  8
PATH
 10
-475.5201754128938774
 20
-789.5718830502081573
 30
0.0
  0
SEQEND
  5
17BA2
  8
PATH
  0
POLYLINE
  5
15881
  8
PATH
 66
     1
 10
0.0
 20
0.0
 30
0.0
  0
VERTEX
  5
17BA3
  8
PATH
 10
-520.925060209425169
 20
-577.2305042165753548
 30
0.0
  0
VERTEX
  5
17BA4
  8
PATH
 10
-526.8156259628158296
 20
-512.675912580867589
 30
0.0
  0
VERTEX
  5
17BA5
  8
PATH
 10
-538.5966793629486347
 20
-408.298070893106285
 30
0.0
  0
VERTEX
  5
17BA6
  8
PATH
 10
-545.0131772994209314
 20
-348.9380730404009228
 30
0.0
  0
SEQEND
  5
17BA7
  8
PATH
  0
POLYLINE
  5
15882
  8
PATH
 66
     1
 10
0.0
 20
0.0
 30
0.0
  0
VERTEX
  5
17BA8
  8
PATH
 10
-545.0131772994209314
 20
-348.9380730404009228
 30
0.0
  0
VERTEX
  5
17BA9
  8
PATH
 10
-563.0548141680918661
 20
-344.9426442537878756
 30
0.0
  0
SEQEND
  5
17BAA
  8
PATH
  0
POLYLINE
  5
15883
  8
PATH
 66
     1
 10
0.0
 20
0.0
 30
0.0
  0
VERTEX
  5
17BAB
  8
PATH
 10
-545.0131772994209314
 20
-348.9380730404009228
 30
0.0
  0
VERTEX
  5
17BAC
  8
PATH
 10
-300.1887402821012074
 20
-385.9552381443281774
 30
0.0
  0
SEQEND
  5
17BAD
  8
PATH
  0
POLYLINE
  5
15884
  8
PATH
 66
     1
 10
0.0
 20
0.0
 30
0.0
  0
VERTEX
  5
17BAE
  8
PATH
 10
199.932229620855594
 20
-964.354548669369251
 30
0.0
  0
VERTEX
  5
17BAF
  8
PATH
 10
159.0899459784704959
 20
-963.8406875691797495
 30
0.0
  0
VERTEX
  5
17BB0
  8
PATH
 10
114.2123587680252967
 20
-968.2893953890961711
 30
0.0
  0
VERTEX
  5
17BB1
  8
PATH
 10
69.3347870206780499
 20
-978.5556400929999654
 30
0.0
  0
VERTEX
  5
17BB2
  8
PATH
 10
33.633484677222441
 20
-991.6050160554658532
 30
0.0
  0
VERTEX
  5
17BB3
  8
PATH
 10
-6.7905900625191862
 20
-1012.4797260923729709
 30
0.0
  0
SEQEND
  5
17BB4
  8
PATH
  0
POLYLINE
  5
15885
  8
PATH
 66
     1
 10
0.0
 20
0.0
 30
0.0
  0
VERTEX
  5
17BB5
  8
PATH
 10
199.932229620855594
 20
-964.354548669369251
 30
0.0
  0
VERTEX
  5
17BB6
  8
PATH
 10
221.4528982398188077
 20
-1014.146532070305966
 30
0.0
  0
SEQEND
  5
17BB7
  8
PATH
  0
POLYLINE
  5
15886
  8
PATH
 66
     1
 10
0.0
 20
0.0
 30
0.0
  0
VERTEX
  5
17BB8
  8
PATH
 10
525.4398771968408255
 20
-875.8251652027903447
 30
0.0
  0
VERTEX
  5
17BB9
  8
PATH
 10
571.5575868889427511
 20
-1014.6079373564059551
 30
0.0
  0
SEQEND
  5
17BBA
  8
PATH
  0
POLYLINE
  5
15887
  8
PATH
 66
     1
 10
0.0
 20
0.0
 30
0.0
  0
VERTEX
  5
17BBB
  8
PATH
 10
525.4398771985870553
 20
-875.8251652079123915
 30
0.0
  0
VERTEX
  5
17BBC
  8
PATH
 10
754.03426376431878
 20
-789.1438067298804526
 30
0.0
  0
SEQEND
  5
17BBD
  8
PATH
  0
POLYLINE
  5
15888
  8
PATH
 66
     1
 10
0.0
 20
0.0
 30
0.0
  0
VERTEX
  5
17BBE
  8
PATH
 10
754.03426376431878
 20
-789.1438067298804526
 30
0.0
  0
VERTEX
  5
17BBF
  8
PATH
 10
781.593364297397784
 20
-1012.4139561382539796
 30
0.0
  0
SEQEND
  5
17BC0
  8
PATH
  0
POLYLINE
  5
15889
  8
PATH
 66
     1
 10
0.0
 20
0.0
 30
0.0
  0
VERTEX
  5
17BC1
  8
PATH
 10
754.03426376431878
 20
-789.1438067298804526
 30
0.0
  0
VERTEX
  5
17BC2
  8
PATH
 10
880.4263387484096484
 20
-748.0555148212661152
 30
0.0
  0
SEQEND
  5
17BC3
  8
PATH
  0
POLYLINE
  5
1588A
  8
PATH
 66
     1
 10
0.0
 20
0.0
 30
0.0
  0
VERTEX
  5
17BC4
  8
PATH
 10
754.03426376431878
 20
-789.1438067298804526
 30
0.0
  0
VERTEX
  5
17BC5
  8
PATH
 10
733.4662104353045606
 20
-614.128247438413382
 30
0.0
  0
SEQEND
  5
17BC6
  8
PATH
  0
POLYLINE
  5
1588B
  8
PATH
 66
     1
 10
0.0
 20
0.0
 30
0.0
  0
VERTEX
  5
17BC7
  8
PATH
 10
135.2856026212539007
 20
-293.1418900354256039
 30
0.0
  0
VERTEX
  5
17BC8
  8
PATH
 10
150.8461203105835011
 20
-249.7005722475659866
 30
0.0
  0
SEQEND
  5
17BC9
  8
PATH
  0
POLYLINE
  5
1588C
  8
PATH
 66
     1
 10
0.0
 20
0.0
 30
0.0
  0
VERTEX
  5
17BCA
  8
PATH
 10
150.8461203105835011
 20
-249.7005722475659866
 30
0.0
  0
VERTEX
  5
17BCB
  8
PATH
 10
218.3202889874665118
 20
-213.7707743741993909
 30
0.0
  0
SEQEND
  5
17BCC
  8
PATH
  0
POLYLINE
  5
1588D
  8
PATH
 66
     1
 10
0.0
 20
0.0
 30
0.0
  0
VERTEX
  5
17BCD
  8
PATH
 10
-263.6426705427729758
 20
-557.5827526649882202
 30
0.0
  0
VERTEX
  5
17BCE
  8
PATH
 10
-226.4461974885344091
 20
-534.3876947657626033
 30
0.0
  0
VERTEX
  5
17BCF
  8
PATH
 10
-95.1283343404793413
 20
-495.6722832382146748
 30
0.0
  0
VERTEX
  5
17BD0
  8
PATH
 10
-83.6544874493411044
 20
-487.5216120094481767
 30
0.0
  0
VERTEX
  5
17BD1
  8
PATH
 10
-73.6717990263859974
 20
-474.7439370513383778
 30
0.0
  0
VERTEX
  5
17BD2
  8
PATH
 10
-71.8379306443530368
 20
-459.3102952432308825
 30
0.0
  0
VERTEX
  5
17BD3
  8
PATH
 10
-78.9192334260005737
 20
-276.8492628414605861
 30
0.0
  0
SEQEND
  5
17BD4
  8
PATH
  0
POLYLINE
  5
1588E
  8
PATH
 66
     1
 10
0.0
 20
0.0
 30
0.0
  0
VERTEX
  5
17BD5
  8
PATH
 10
-53.3477578716847418
 20
-284.3628327743572868
 30
0.0
  0
VERTEX
  5
17BD6
  8
PATH
 10
-78.9192334260005737
 20
-276.8492628414605861
 30
0.0
  0
SEQEND
  5
17BD7
  8
PATH
  0
POLYLINE
  5
1588F
  8
PATH
 66
     1
 10
0.0
 20
0.0
 30
0.0
  0
VERTEX
  5
17BD8
  8
PATH
 10
-78.9192334260005737
 20
-276.8492628414605861
 30
0.0
  0
VERTEX
  5
17BD9
  8
PATH
 10
-293.2633191370550776
 20
-201.4428012701172861
 30
0.0
  0
SEQEND
  5
17BDA
  8
PATH
  0
POLYLINE
  5
15890
  8
PATH
 66
     1
 10
0.0
 20
0.0
 30
0.0
  0
VERTEX
  5
17BDB
  8
PATH
 10
-563.0548141680918661
 20
-344.9426442537878756
 30
0.0
  0
VERTEX
  5
17BDC
  8
PATH
 10
-572.4388465283700498
 20
-302.3461792515082038
 30
0.0
  0
VERTEX
  5
17BDD
  8
PATH
 10
-581.8420377382572042
 20
-249.2844033729707007
 30
0.0
  0
VERTEX
  5
17BDE
  8
PATH
 10
-587.2952277447475353
 20
-208.7855364046482123
 30
0.0
  0
VERTEX
  5
17BDF
  8
PATH
 10
-587.1679041228635469
 20
-168.1608871668067877
 30
0.0
  0
VERTEX
  5
17BE0
  8
PATH
 10
-570.1596604645746993
 20
-80.2850611246612971
 30
0.0
  0
SEQEND
  5
17BE1
  8
PATH
  0
POLYLINE
  5
15891
  8
PATH
 66
     1
 10
0.0
 20
0.0
 30
0.0
  0
VERTEX
  5
17BE2
  8
PATH
 10
-538.0381037991172661
 20
-91.9160155909557943
 30
0.0
  0
VERTEX
  5
17BE3
  8
PATH
 10
-546.64662798804045
 20
-126.7225857800295046
 30
0.0
  0
VERTEX
  5
17BE4
  8
PATH
 10
-552.2417852245416725
 20
-161.3331595193085093
 30
0.0
  0
VERTEX
  5
17BE5
  8
PATH
 10
-554.0277487510611536
 20
-196.7083080252122897
 30
0.0
  0
VERTEX
  5
17BE6
  8
PATH
 10
-551.3717043944780016
 20
-223.3120293355968897
 30
0.0
  0
VERTEX
  5
17BE7
  8
PATH
 10
-544.7449072799208807
 20
-263.8585151861843769
 30
0.0
  0
VERTEX
  5
17BE8
  8
PATH
 10
-537.5827602610370377
 20
-306.3195916721087997
 30
0.0
  0
VERTEX
  5
17BE9
  8
PATH
 10
-545.0131772994209314
 20
-348.9380730404009228
 30
0.0
  0
SEQEND
  5
17BEA
  8
PATH
  0
POLYLINE
  5
15892
  8
PATH
 66
     1
 10
0.0
 20
0.0
 30
0.0
  0
VERTEX
  5
17BEB
  8
PATH
 10
-852.1970057016734472
 20
30.9757651119070907
 30
0.0
  0
VERTEX
  5
17BEC
  8
PATH
 10
-828.3928196555498289
 20
30.7902011471378501
 30
0.0
  0
VERTEX
  5
17BED
  8
PATH
 10
-795.6512658687570365
 20
23.840647983881361
 30
0.0
  0
SEQEND
  5
17BEE
  8
PATH
  0
POLYLINE
  5
15893
  8
PATH
 66
     1
 10
0.0
 20
0.0
 30
0.0
  0
VERTEX
  5
17BEF
  8
PATH
 10
-795.6512658687570365
 20
23.840647983881361
 30
0.0
  0
VERTEX
  5
17BF0
  8
PATH
 10
-772.0427308484941022
 20
18.8296222305434604
 30
0.0
  0
VERTEX
  5
17BF1
  8
PATH
 10
-742.1671659678248716
 20
12.4883890753189899
 30
0.0
  0
VERTEX
  5
17BF2
  8
PATH
 10
-611.2006939114215811
 20
-49.5133325615388387
 30
0.0
  0
VERTEX
  5
17BF3
  8
PATH
 10
-588.7291725377581315
 20
-69.4938369551164214
 30
0.0
  0
VERTEX
  5
17BF4
  8
PATH
 10
-570.1596604645746993
 20
-80.2850611246612971
 30
0.0
  0
SEQEND
  5
17BF5
  8
PATH
  0
POLYLINE
  5
15894
  8
PATH
 66
     1
 10
0.0
 20
0.0
 30
0.0
  0
VERTEX
  5
17BF6
  8
PATH
 10
-795.6512658687570365
 20
23.840647983881361
 30
0.0
  0
VERTEX
  5
17BF7
  8
PATH
 10
-777.6833497620100388
 20
10.7261575335214694
 30
0.0
  0
VERTEX
  5
17BF8
  8
PATH
 10
-624.3882759300322505
 20
-60.6271490863946312
 30
0.0
  0
VERTEX
  5
17BF9
  8
PATH
 10
-588.7291725377581315
 20
-69.4938369551164214
 30
0.0
  0
SEQEND
  5
17BFA
  8
PATH
  0
POLYLINE
  5
15895
  8
PATH
 66
     1
 10
0.0
 20
0.0
 30
0.0
  0
VERTEX
  5
17BFB
  8
PATH
 10
-838.2165934175280881
 20
65.6070525679315324
 30
0.0
  0
VERTEX
  5
17BFC
  8
PATH
 10
-793.3297435895218541
 20
55.3750528842720087
 30
0.0
  0
VERTEX
  5
17BFD
  8
PATH
 10
-778.1834492935595335
 20
48.5620691949079628
 30
0.0
  0
SEQEND
  5
17BFE
  8
PATH
  0
POLYLINE
  5
15896
  8
PATH
 66
     1
 10
0.0
 20
0.0
 30
0.0
  0
VERTEX
  5
17BFF
  8
PATH
 10
-778.1834492933849106
 20
48.5620691949079628
 30
0.0
  0
VERTEX
  5
17C00
  8
PATH
 10
-599.3161301488433992
 20
-31.8945827134375612
 30
0.0
  0
VERTEX
  5
17C01
  8
PATH
 10
-531.3949621293139671
 20
-58.3799669774671202
 30
0.0
  0
SEQEND
  5
17C02
  8
PATH
  0
POLYLINE
  5
15897
  8
PATH
 66
     1
 10
0.0
 20
0.0
 30
0.0
  0
VERTEX
  5
17C03
  8
PATH
 10
-570.1596604645746993
 20
-80.2850611246612971
 30
0.0
  0
VERTEX
  5
17C04
  8
PATH
 10
-538.0381037991172661
 20
-91.9160155909557943
 30
0.0
  0
SEQEND
  5
17C05
  8
PATH
  0
POLYLINE
  5
15898
  8
PATH
 66
     1
 10
0.0
 20
0.0
 30
0.0
  0
VERTEX
  5
17C06
  8
PATH
 10
-538.0381037991172661
 20
-91.9160155909557943
 30
0.0
  0
VERTEX
  5
17C07
  8
PATH
 10
-531.3949621293139671
 20
-58.3799669774671202
 30
0.0
  0
SEQEND
  5
17C08
  8
PATH
  0
POLYLINE
  5
15899
  8
PATH
 66
     1
 10
0.0
 20
0.0
 30
0.0
  0
VERTEX
  5
17C09
  8
PATH
 10
-538.0381037991172661
 20
-91.9160155909557943
 30
0.0
  0
VERTEX
  5
17C0A
  8
PATH
 10
-369.1605608242243761
 20
-167.836985604320887
 30
0.0
  0
VERTEX
  5
17C0B
  8
PATH
 10
-293.2633191370550776
 20
-201.4428012701172861
 30
0.0
  0
SEQEND
  5
17C0C
  8
PATH
  0
POLYLINE
  5
1589A
  8
PATH
 66
     1
 10
0.0
 20
0.0
 30
0.0
  0
VERTEX
  5
17C0D
  8
PATH
 10
-463.1616451473237248
 20
170.3912501782687912
 30
0.0
  0
VERTEX
  5
17C0E
  8
PATH
 10
-444.8784654213959016
 20
155.8965213173578093
 30
0.0
  0
SEQEND
  5
17C0F
  8
PATH
  0
POLYLINE
  5
1589B
  8
PATH
 66
     1
 10
0.0
 20
0.0
 30
0.0
  0
VERTEX
  5
17C10
  8
PATH
 10
-444.8784654213959016
 20
155.8965213173578093
 30
0.0
  0
VERTEX
  5
17C11
  8
PATH
 10
-379.0756907210598001
 20
216.707666826950998
 30
0.0
  0
VERTEX
  5
17C12
  8
PATH
 10
-309.6362263956252718
 20
262.3353455542164738
 30
0.0
  0
SEQEND
  5
17C13
  8
PATH
  0
POLYLINE
  5
1589C
  8
PATH
 66
     1
 10
0.0
 20
0.0
 30
0.0
  0
VERTEX
  5
17C14
  8
PATH
 10
-501.9140394886634908
 20
169.9317822717638933
 30
0.0
  0
VERTEX
  5
17C15
  8
PATH
 10
-501.9140394886634908
 20
169.9317822717638933
 30
0.0
  0
VERTEX
  5
17C16
  8
PATH
 10
-501.2664109101315262
 20
156.0096197207967066
 30
0.0
  0
VERTEX
  5
17C17
  8
PATH
 10
-500.8744199198117144
 20
149.5490446547555052
 30
0.0
  0
VERTEX
  5
17C18
  8
PATH
 10
-501.8882926322547746
 20
144.4391475804659137
 30
0.0
  0
VERTEX
  5
17C19
  8
PATH
 10
-504.9704397000168115
 20
135.0166871790351877
 30
0.0
  0
VERTEX
  5
17C1A
  8
PATH
 10
-508.8946096364670098
 20
129.1827518712306926
 30
0.0
  0
SEQEND
  5
17C1B
  8
PATH
  0
POLYLINE
  5
1589D
  8
PATH
 66
     1
 10
0.0
 20
0.0
 30
0.0
  0
VERTEX
  5
17C1C
  8
PATH
 10
-508.8946096364089158
 20
129.1827518712306926
 30
0.0
  0
VERTEX
  5
17C1D
  8
PATH
 10
-524.511832287083962
 20
105.9651369089770014
 30
0.0
  0
VERTEX
  5
17C1E
  8
PATH
 10
-540.8160596731612486
 20
69.0944530987689944
 30
0.0
  0
VERTEX
  5
17C1F
  8
PATH
 10
-550.9290097174962284
 20
33.0288537038068171
 30
0.0
  0
VERTEX
  5
17C20
  8
PATH
 10
-558.9373624544967925
 20
-5.033676674538583
 30
0.0
  0
SEQEND
  5
17C21
  8
PATH
  0
POLYLINE
  5
1589E
  8
PATH
 66
     1
 10
0.0
 20
0.0
 30
0.0
  0
VERTEX
  5
17C22
  8
PATH
 10
-444.8784654213959016
 20
155.8965213173578093
 30
0.0
  0
VERTEX
  5
17C23
  8
PATH
 10
-465.794705498570579
 20
149.5978853176856944
 30
0.0
  0
VERTEX
  5
17C24
  8
PATH
 10
-488.951832257982403
 20
136.6358742742376933
 30
0.0
  0
VERTEX
  5
17C25
  8
PATH
 10
-508.8946096364089158
 20
129.1827518712306926
 30
0.0
  0
SEQEND
  5
17C26
  8
PATH
  0
POLYLINE
  5
1589F
  8
PATH
 66
     1
 10
0.0
 20
0.0
 30
0.0
  0
VERTEX
  5
17C27
  8
PATH
 10
-778.1834492935595335
 20
48.5620691949079628
 30
0.0
  0
VERTEX
  5
17C28
  8
PATH
 10
-726.8913993973546894
 20
61.2407202711838181
 30
0.0
  0
VERTEX
  5
17C29
  8
PATH
 10
-647.670669711616938
 20
29.0598549638452788
 30
0.0
  0
VERTEX
  5
17C2A
  8
PATH
 10
-628.4676109654974425
 20
25.6569833439352806
 30
0.0
  0
VERTEX
  5
17C2B
  8
PATH
 10
-558.9373624544967925
 20
-5.033676674538583
 30
0.0
  0
SEQEND
  5
17C2C
  8
PATH
  0
POLYLINE
  5
158A0
  8
PATH
 66
     1
 10
0.0
 20
0.0
 30
0.0
  0
VERTEX
  5
17C2D
  8
PATH
 10
-444.8784654213959016
 20
155.8965213173578093
 30
0.0
  0
VERTEX
  5
17C2E
  8
PATH
 10
-449.7366979365032762
 20
138.4321507709609875
 30
0.0
  0
VERTEX
  5
17C2F
  8
PATH
 10
-453.8471757670195075
 20
133.7931506876410879
 30
0.0
  0
VERTEX
  5
17C30
  8
PATH
 10
-475.0124934747727252
 20
112.6080015781844992
 30
0.0
  0
VERTEX
  5
17C31
  8
PATH
 10
-489.2841973209432922
 20
94.615005188206851
 30
0.0
  0
VERTEX
  5
17C32
  8
PATH
 10
-495.8593784226250136
 20
83.8129029684278066
 30
0.0
  0
VERTEX
  5
17C33
  8
PATH
 10
-504.182746562131797
 20
66.0942954989659484
 30
0.0
  0
VERTEX
  5
17C34
  8
PATH
 10
-507.4820272585055818
 20
54.3865563553335889
 30
0.0
  0
VERTEX
  5
17C35
  8
PATH
 10
-531.3949621293139671
 20
-58.3799669774671202
 30
0.0
  0
SEQEND
  5
17C36
  8
PATH
  0
POLYLINE
  5
158A1
  8
PATH
 66
     1
 10
0.0
 20
0.0
 30
0.0
  0
VERTEX
  5
17C37
  8
PATH
 10
-558.9373624544967925
 20
-5.033676674538583
 30
0.0
  0
VERTEX
  5
17C38
  8
PATH
 10
-557.2933506948902505
 20
-29.6230031814848189
 30
0.0
  0
VERTEX
  5
17C39
  8
PATH
 10
-531.3949621293139671
 20
-58.3799669774671202
 30
0.0
  0
SEQEND
  5
17C3A
  8
PATH
  0
POLYLINE
  5
158A2
  8
PATH
 66
     1
 10
0.0
 20
0.0
 30
0.0
  0
VERTEX
  5
17C3B
  8
PATH
 10
-309.6362263956252718
 20
262.3353455542164738
 30
0.0
  0
VERTEX
  5
17C3C
  8
PATH
 10
-266.2174332689755829
 20
198.824309936309902
 30
0.0
  0
VERTEX
  5
17C3D
  8
PATH
 10
-234.2436018590379092
 20
148.9196522301571974
 30
0.0
  0
VERTEX
  5
17C3E
  8
PATH
 10
-201.6713441077299933
 20
94.2302699182691867
 30
0.0
  0
SEQEND
  5
17C3F
  8
PATH
  0
POLYLINE
  5
158A3
  8
PATH
 66
     1
 10
0.0
 20
0.0
 30
0.0
  0
VERTEX
  5
17C40
  8
PATH
 10
2.5173784622893431
 20
200.8477601446720087
 30
0.0
  0
VERTEX
  5
17C41
  8
PATH
 10
-46.6215000722004334
 20
166.8293968230063911
 30
0.0
  0
SEQEND
  5
17C42
  8
PATH
  0
POLYLINE
  5
158A4
  8
PATH
 66
     1
 10
0.0
 20
0.0
 30
0.0
  0
VERTEX
  5
17C43
  8
PATH
 10
-46.6215000722004334
 20
166.8293968230063911
 30
0.0
  0
VERTEX
  5
17C44
  8
PATH
 10
-85.4289240228390554
 20
139.963398108775408
 30
0.0
  0
SEQEND
  5
17C45
  8
PATH
  0
POLYLINE
  5
158A5
  8
PATH
 66
     1
 10
0.0
 20
0.0
 30
0.0
  0
VERTEX
  5
17C46
  8
PATH
 10
-85.4289240228390554
 20
139.963398108775408
 30
0.0
  0
VERTEX
  5
17C47
  8
PATH
 10
-62.8530295328382635
 20
98.8305858136664028
 30
0.0
  0
SEQEND
  5
17C48
  8
PATH
  0
POLYLINE
  5
158A6
  8
PATH
 66
     1
 10
0.0
 20
0.0
 30
0.0
  0
VERTEX
  5
17C49
  8
PATH
 10
-62.8530295328382635
 20
98.8305858136664028
 30
0.0
  0
VERTEX
  5
17C4A
  8
PATH
 10
-44.6984889820596365
 20
65.7533888454127009
 30
0.0
  0
SEQEND
  5
17C4B
  8
PATH
  0
POLYLINE
  5
158A7
  8
PATH
 66
     1
 10
0.0
 20
0.0
 30
0.0
  0
VERTEX
  5
17C4C
  8
PATH
 10
-85.4289240228390554
 20
139.963398108775408
 30
0.0
  0
VERTEX
  5
17C4D
  8
PATH
 10
-87.910040604197988
 20
153.1490810518662045
 30
0.0
  0
VERTEX
  5
17C4E
  8
PATH
 10
-120.9809487631573006
 20
205.3884011386471968
 30
0.0
  0
SEQEND
  5
17C4F
  8
PATH
  0
POLYLINE
  5
158A8
  8
PATH
 66
     1
 10
0.0
 20
0.0
 30
0.0
  0
VERTEX
  5
17C50
  8
PATH
 10
-120.9809487632154941
 20
205.3884011386471968
 30
0.0
  0
VERTEX
  5
17C51
  8
PATH
 10
-140.6318974956083991
 20
236.4293449163014884
 30
0.0
  0
SEQEND
  5
17C52
  8
PATH
  0
POLYLINE
  5
158A9
  8
PATH
 66
     1
 10
0.0
 20
0.0
 30
0.0
  0
VERTEX
  5
17C53
  8
PATH
 10
-140.6318974956666068
 20
236.4293449163014884
 30
0.0
  0
VERTEX
  5
17C54
  8
PATH
 10
-165.3070025346968919
 20
275.4065240161071983
 30
0.0
  0
SEQEND
  5
17C55
  8
PATH
  0
POLYLINE
  5
158AA
  8
PATH
 66
     1
 10
0.0
 20
0.0
 30
0.0
  0
VERTEX
  5
17C56
  8
PATH
 10
-165.3070025346968919
 20
275.4065240161071983
 30
0.0
  0
VERTEX
  5
17C57
  8
PATH
 10
-190.9868408143665874
 20
315.9707953455435927
 30
0.0
  0
SEQEND
  5
17C58
  8
PATH
  0
POLYLINE
  5
158AB
  8
PATH
 66
     1
 10
0.0
 20
0.0
 30
0.0
  0
VERTEX
  5
17C59
  8
PATH
 10
-190.9868408143665874
 20
315.9707953455435927
 30
0.0
  0
VERTEX
  5
17C5A
  8
PATH
 10
-215.9215090127690928
 20
355.3579844427804915
 30
0.0
  0
SEQEND
  5
17C5B
  8
PATH
  0
POLYLINE
  5
158AC
  8
PATH
 66
     1
 10
0.0
 20
0.0
 30
0.0
  0
VERTEX
  5
17C5C
  8
PATH
 10
-369.7702421167196007
 20
412.0939518302257056
 30
0.0
  0
VERTEX
  5
17C5D
  8
PATH
 10
-299.2443055640470106
 20
456.265673294248586
 30
0.0
  0
VERTEX
  5
17C5E
  8
PATH
 10
-289.2206243160326267
 20
458.0121011594819151
 30
0.0
  0
VERTEX
  5
17C5F
  8
PATH
 10
-278.4976218633964891
 20
452.5399462609129273
 30
0.0
  0
SEQEND
  5
17C60
  8
PATH
  0
POLYLINE
  5
158AD
  8
PATH
 66
     1
 10
0.0
 20
0.0
 30
0.0
  0
VERTEX
  5
17C61
  8
PATH
 10
-278.4976218633964891
 20
452.5399462609129273
 30
0.0
  0
VERTEX
  5
17C62
  8
PATH
 10
-225.9749785739259096
 20
370.9712248715150054
 30
0.0
  0
SEQEND
  5
17C63
  8
PATH
  0
POLYLINE
  5
158AE
  8
PATH
 66
     1
 10
0.0
 20
0.0
 30
0.0
  0
VERTEX
  5
17C64
  8
PATH
 10
-225.9749785739259096
 20
370.9712248715150054
 30
0.0
  0
VERTEX
  5
17C65
  8
PATH
 10
-215.9215090127690928
 20
355.3579844427804915
 30
0.0
  0
SEQEND
  5
17C66
  8
PATH
  0
POLYLINE
  5
158AF
  8
PATH
 66
     1
 10
0.0
 20
0.0
 30
0.0
  0
VERTEX
  5
17C67
  8
PATH
 10
-434.5965634285383885
 20
502.3014064017261262
 30
0.0
  0
VERTEX
  5
17C68
  8
PATH
 10
-409.4094177932274761
 20
473.2282205676237936
 30
0.0
  0
VERTEX
  5
17C69
  8
PATH
 10
-369.7702421167196007
 20
412.0939518302257056
 30
0.0
  0
SEQEND
  5
17C6A
  8
PATH
  0
POLYLINE
  5
158B0
  8
PATH
 66
     1
 10
0.0
 20
0.0
 30
0.0
  0
VERTEX
  5
17C6B
  8
PATH
 10
-369.7702421167196007
 20
412.0939518302257056
 30
0.0
  0
VERTEX
  5
17C6C
  8
PATH
 10
-302.75922184153751
 20
297.7340694559316034
 30
0.0
  0
SEQEND
  5
17C6D
  8
PATH
  0
POLYLINE
  5
158B1
  8
PATH
 66
     1
 10
0.0
 20
0.0
 30
0.0
  0
VERTEX
  5
17C6E
  8
PATH
 10
-85.4289240228390554
 20
139.963398108775408
 30
0.0
  0
VERTEX
  5
17C6F
  8
PATH
 10
-163.5177576329006115
 20
83.2499524769882555
 30
0.0
  0
SEQEND
  5
17C70
  8
PATH
  0
POLYLINE
  5
158B2
  8
PATH
 66
     1
 10
0.0
 20
0.0
 30
0.0
  0
VERTEX
  5
17C71
  8
PATH
 10
-163.5177576329006115
 20
83.2499524769882555
 30
0.0
  0
VERTEX
  5
17C72
  8
PATH
 10
-154.4235377377044074
 20
62.6244372572327919
 30
0.0
  0
SEQEND
  5
17C73
  8
PATH
  0
POLYLINE
  5
158B3
  8
PATH
 66
     1
 10
0.0
 20
0.0
 30
0.0
  0
VERTEX
  5
17C74
  8
PATH
 10
-154.4235377377044074
 20
62.6244372572327919
 30
0.0
  0
VERTEX
  5
17C75
  8
PATH
 10
-125.1630551324488039
 20
-3.7377726155755222
 30
0.0
  0
SEQEND
  5
17C76
  8
PATH
  0
POLYLINE
  5
158B4
  8
PATH
 66
     1
 10
0.0
 20
0.0
 30
0.0
  0
VERTEX
  5
17C77
  8
PATH
 10
-125.1630551324488039
 20
-3.7377726155755222
 30
0.0
  0
VERTEX
  5
17C78
  8
PATH
 10
-115.2151896190044056
 20
1.4869351410816301
 30
0.0
  0
SEQEND
  5
17C79
  8
PATH
  0
POLYLINE
  5
158B5
  8
PATH
 66
     1
 10
0.0
 20
0.0
 30
0.0
  0
VERTEX
  5
17C7A
  8
PATH
 10
-115.2151896189460984
 20
1.4869351410816301
 30
0.0
  0
VERTEX
  5
17C7B
  8
PATH
 10
-87.6329316952760564
 20
15.9733831864359601
 30
0.0
  0
SEQEND
  5
17C7C
  8
PATH
  0
POLYLINE
  5
158B6
  8
PATH
 66
     1
 10
0.0
 20
0.0
 30
0.0
  0
VERTEX
  5
17C7D
  8
PATH
 10
-87.6329316953924717
 20
15.9733831864359601
 30
0.0
  0
VERTEX
  5
17C7E
  8
PATH
 10
-36.6084400995314425
 20
42.7719015889379008
 30
0.0
  0
SEQEND
  5
17C7F
  8
PATH
  0
POLYLINE
  5
158B7
  8
PATH
 66
     1
 10
0.0
 20
0.0
 30
0.0
  0
VERTEX
  5
17C80
  8
PATH
 10
-36.6084400995314425
 20
42.7719015889379008
 30
0.0
  0
VERTEX
  5
17C81
  8
PATH
 10
-9.6030408545193495
 20
-9.6148701714773779
 30
0.0
  0
SEQEND
  5
17C82
  8
PATH
  0
POLYLINE
  5
158B8
  8
PATH
 66
     1
 10
0.0
 20
0.0
 30
0.0
  0
VERTEX
  5
17C83
  8
PATH
 10
-9.6030408544029342
 20
-9.6148701714773779
 30
0.0
  0
VERTEX
  5
17C84
  8
PATH
 10
1.7208873628260331
 20
-31.581738261920691
 30
0.0
  0
SEQEND
  5
17C85
  8
PATH
  0
POLYLINE
  5
158B9
  8
PATH
 66
     1
 10
0.0
 20
0.0
 30
0.0
  0
VERTEX
  5
17C86
  8
PATH
 10
-44.6984889820596365
 20
65.7533888454127009
 30
0.0
  0
VERTEX
  5
17C87
  8
PATH
 10
-36.6084400995314425
 20
42.7719015889379008
 30
0.0
  0
SEQEND
  5
17C88
  8
PATH
  0
POLYLINE
  5
158BA
  8
PATH
 66
     1
 10
0.0
 20
0.0
 30
0.0
  0
VERTEX
  5
17C89
  8
PATH
 10
-531.3949621293139671
 20
-58.3799669774671202
 30
0.0
  0
VERTEX
  5
17C8A
  8
PATH
 10
-446.3786263231448856
 20
-99.6268535898489205
 30
0.0
  0
VERTEX
  5
17C8B
  8
PATH
 10
-385.7955914945487166
 20
-123.7325231390496043
 30
0.0
  0
VERTEX
  5
17C8C
  8
PATH
 10
-331.5261630302557023
 20
-136.5045626363207987
 30
0.0
  0
VERTEX
  5
17C8D
  8
PATH
 10
-286.1206482300913194
 20
-141.363246432920306
 30
0.0
  0
VERTEX
  5
17C8E
  8
PATH
 10
-242.8216327054105932
 20
-139.913443887555303
 30
0.0
  0
VERTEX
  5
17C8F
  8
PATH
 10
-193.0028714912623116
 20
-133.2934875967403059
 30
0.0
  0
VERTEX
  5
17C90
  8
PATH
 10
-125.279536212576204
 20
-113.0287462244232017
 30
0.0
  0
VERTEX
  5
17C91
  8
PATH
 10
-114.4263886108674058
 20
-118.2296175606969939
 30
0.0
  0
SEQEND
  5
17C92
  8
PATH
  0
POLYLINE
  5
158BB
  8
PATH
 66
     1
 10
0.0
 20
0.0
 30
0.0
  0
VERTEX
  5
17C93
  8
PATH
 10
1.7208873628260331
 20
-31.581738261920691
 30
0.0
  0
VERTEX
  5
17C94
  8
PATH
 10
27.6183261153491912
 20
-13.57905249339092
 30
0.0
  0
SEQEND
  5
17C95
  8
PATH
  0
POLYLINE
  5
158BC
  8
PATH
 66
     1
 10
0.0
 20
0.0
 30
0.0
  0
VERTEX
  5
17C96
  8
PATH
 10
27.61832611529098
 20
-13.57905249339092
 30
0.0
  0
VERTEX
  5
17C97
  8
PATH
 10
89.2862460739998056
 20
29.2895954694176908
 30
0.0
  0
SEQEND
  5
17C98
  8
PATH
  0
POLYLINE
  5
158BD
  8
PATH
 66
     1
 10
0.0
 20
0.0
 30
0.0
  0
VERTEX
  5
17C99
  8
PATH
 10
2.8864923829532918
 20
-56.2467780201186471
 30
0.0
  0
VERTEX
  5
17C9A
  8
PATH
 10
27.433960637878041
 20
-38.786910913833708
 30
0.0
  0
SEQEND
  5
17C9B
  8
PATH
  0
POLYLINE
  5
158BE
  8
PATH
 66
     1
 10
0.0
 20
0.0
 30
0.0
  0
VERTEX
  5
17C9C
  8
PATH
 10
27.4184677911543986
 20
-38.7979305041444604
 30
0.0
  0
VERTEX
  5
17C9D
  8
PATH
 10
85.196118708801805
 20
2.2975542215208402
 30
0.0
  0
VERTEX
  5
17C9E
  8
PATH
 10
89.3270010313571987
 20
29.2123678401621909
 30
0.0
  0
SEQEND
  5
17C9F
  8
PATH
  0
POLYLINE
  5
158BF
  8
PATH
 66
     1
 10
0.0
 20
0.0
 30
0.0
  0
VERTEX
  5
17CA0
  8
PATH
 10
-225.0840171177551099
 20
182.965626644021512
 30
0.0
  0
VERTEX
  5
17CA1
  8
PATH
 10
-140.6318974956083991
 20
236.4293449163014884
 30
0.0
  0
SEQEND
  5
17CA2
  8
PATH
  0
POLYLINE
  5
158C0
  8
PATH
 66
     1
 10
0.0
 20
0.0
 30
0.0
  0
VERTEX
  5
17CA3
  8
PATH
 10
-411.9954567638487788
 20
-148.5800329455595943
 30
0.0
  0
VERTEX
  5
17CA4
  8
PATH
 10
-339.143638124121992
 20
-156.1391352433201973
 30
0.0
  0
VERTEX
  5
17CA5
  8
PATH
 10
-276.3545058358141091
 20
-157.4999311025675865
 30
0.0
  0
VERTEX
  5
17CA6
  8
PATH
 10
-208.7751663303496912
 20
-153.0904195177791109
 30
0.0
  0
VERTEX
  5
17CA7
  8
PATH
 10
-156.6812646674952987
 20
-142.0778885702092964
 30
0.0
  0
VERTEX
  5
17CA8
  8
PATH
 10
-119.2993275355110967
 20
-130.8568089305844921
 30
0.0
  0
VERTEX
  5
17CA9
  8
PATH
 10
-114.4263886108674058
 20
-118.2296175606969939
 30
0.0
  0
SEQEND
  5
17CAA
  8
PATH
  0
POLYLINE
  5
158C1
  8
PATH
 66
     1
 10
0.0
 20
0.0
 30
0.0
  0
VERTEX
  5
17CAB
  8
PATH
 10
-225.0840171177551099
 20
182.965626644021512
 30
0.0
  0
VERTEX
  5
17CAC
  8
PATH
 10
-178.1607854688917882
 20
106.9665044444191011
 30
0.0
  0
SEQEND
  5
17CAD
  8
PATH
  0
POLYLINE
  5
158C2
  8
PATH
 66
     1
 10
0.0
 20
0.0
 30
0.0
  0
VERTEX
  5
17CAE
  8
PATH
 10
-178.1607854688917882
 20
106.9665044444191011
 30
0.0
  0
VERTEX
  5
17CAF
  8
PATH
 10
-163.5177576329006115
 20
83.2499524769882555
 30
0.0
  0
SEQEND
  5
17CB0
  8
PATH
  0
POLYLINE
  5
158C3
  8
PATH
 66
     1
 10
0.0
 20
0.0
 30
0.0
  0
VERTEX
  5
17CB1
  8
PATH
 10
49.4774227521702414
 20
-126.1185401118782039
 30
0.0
  0
VERTEX
  5
17CB2
  8
PATH
 10
72.266777758297394
 20
-130.6831506927919122
 30
0.0
  0
SEQEND
  5
17CB3
  8
PATH
  0
POLYLINE
  5
158C4
  8
PATH
 66
     1
 10
0.0
 20
0.0
 30
0.0
  0
VERTEX
  5
17CB4
  8
PATH
 10
72.266777758297394
 20
-130.6831506927919122
 30
0.0
  0
VERTEX
  5
17CB5
  8
PATH
 10
87.9069771800277522
 20
-122.3480280111033949
 30
0.0
  0
SEQEND
  5
17CB6
  8
PATH
  0
POLYLINE
  5
158C5
  8
PATH
 66
     1
 10
0.0
 20
0.0
 30
0.0
  0
VERTEX
  5
17CB7
  8
PATH
 10
87.9069771800277522
 20
-122.3480280111033949
 30
0.0
  0
VERTEX
  5
17CB8
  8
PATH
 10
132.2749356396234077
 20
-98.7030368623745744
 30
0.0
  0
SEQEND
  5
17CB9
  8
PATH
  0
POLYLINE
  5
158C6
  8
PATH
 66
     1
 10
0.0
 20
0.0
 30
0.0
  0
VERTEX
  5
17CBA
  8
PATH
 10
132.2749356396234077
 20
-98.7030368623745744
 30
0.0
  0
VERTEX
  5
17CBB
  8
PATH
 10
151.5599222321033892
 20
-88.4254998038013582
 30
0.0
  0
SEQEND
  5
17CBC
  8
PATH
  0
POLYLINE
  5
158C7
  8
PATH
 66
     1
 10
0.0
 20
0.0
 30
0.0
  0
VERTEX
  5
17CBD
  8
PATH
 10
72.266777758297394
 20
-130.6831506927919122
 30
0.0
  0
VERTEX
  5
17CBE
  8
PATH
 10
73.5189972293883329
 20
-139.2190008228135127
 30
0.0
  0
VERTEX
  5
17CBF
  8
PATH
 10
94.0191385650396114
 20
-197.6835769270037133
 30
0.0
  0
SEQEND
  5
17CC0
  8
PATH
  0
POLYLINE
  5
158C8
  8
PATH
 66
     1
 10
0.0
 20
0.0
 30
0.0
  0
VERTEX
  5
17CC1
  8
PATH
 10
50.5187162794609321
 20
-207.3138095722025014
 30
0.0
  0
VERTEX
  5
17CC2
  8
PATH
 10
94.0191385650396114
 20
-197.6835769270037133
 30
0.0
  0
SEQEND
  5
17CC3
  8
PATH
  0
POLYLINE
  5
158C9
  8
PATH
 66
     1
 10
0.0
 20
0.0
 30
0.0
  0
VERTEX
  5
17CC4
  8
PATH
 10
94.0191385650396114
 20
-197.6835769270037133
 30
0.0
  0
VERTEX
  5
17CC5
  8
PATH
 10
96.2765885239205232
 20
-208.7907946998674902
 30
0.0
  0
VERTEX
  5
17CC6
  8
PATH
 10
150.8461203105835011
 20
-249.7005722475659866
 30
0.0
  0
SEQEND
  5
17CC7
  8
PATH
  0
POLYLINE
  5
158CA
  8
PATH
 66
     1
 10
0.0
 20
0.0
 30
0.0
  0
VERTEX
  5
17CC8
  8
PATH
 10
-570.6781665987364249
 20
-827.5126316016030614
 30
0.0
  0
VERTEX
  5
17CC9
  8
PATH
 10
-576.2150478873080601
 20
-855.9195302491499433
 30
0.0
  0
VERTEX
  5
17CCA
  8
PATH
 10
-574.4752773270738544
 20
-869.9313866276715999
 30
0.0
  0
VERTEX
  5
17CCB
  8
PATH
 10
-441.8723959204652942
 20
-1013.6163673921910231
 30
0.0
  0
SEQEND
  5
17CCC
  8
PATH
  0
POLYLINE
  5
158CB
  8
PATH
 66
     1
 10
0.0
 20
0.0
 30
0.0
  0
VERTEX
  5
17CCD
  8
PATH
 10
-475.5201754128938774
 20
-789.5718830502081573
 30
0.0
  0
VERTEX
  5
17CCE
  8
PATH
 10
-441.7682284978945972
 20
-837.2721988087942009
 30
0.0
  0
VERTEX
  5
17CCF
  8
PATH
 10
-359.1436059340048814
 20
-946.3970417296004598
 30
0.0
  0
VERTEX
  5
17CD0
  8
PATH
 10
-319.8729148379788967
 20
-1014.9340642801910235
 30
0.0
  0
SEQEND
  5
17CD1
  8
PATH
  0
POLYLINE
  5
158CC
  8
PATH
 66
     1
 10
0.0
 20
0.0
 30
0.0
  0
VERTEX
  5
17CD2
  8
PATH
 10
429.5701962040474768
 20
-275.6372756016863264
 30
0.0
  0
VERTEX
  5
17CD3
  8
PATH
 10
284.0197334806288723
 20
-340.7741811414671247
 30
0.0
  0
SEQEND
  5
17CD4
  8
PATH
  0
POLYLINE
  5
158CD
  8
PATH
 66
     1
 10
0.0
 20
0.0
 30
0.0
  0
VERTEX
  5
17CD5
  8
PATH
 10
284.0192129796923837
 20
-340.7731603895736043
 30
0.0
  0
VERTEX
  5
17CD6
  8
PATH
 10
263.4741991042246809
 20
-342.1250357590105864
 30
0.0
  0
VERTEX
  5
17CD7
  8
PATH
 10
135.2856026212539007
 20
-293.1418900354256039
 30
0.0
  0
VERTEX
  5
17CD8
  8
PATH
 10
135.2856026212539007
 20
-293.1418900354256039
 30
0.0
  0
SEQEND
  5
17CD9
  8
PATH
  0
POLYLINE
  5
158CE
  8
PATH
 66
     1
 10
0.0
 20
0.0
 30
0.0
  0
VERTEX
  5
17CDA
  8
PATH
 10
-684.5878066003351705
 20
526.430287818940883
 30
0.0
  0
VERTEX
  5
17CDB
  8
PATH
 10
-574.5248636754839708
 20
385.7693102811973063
 30
0.0
  0
SEQEND
  5
17CDC
  8
PATH
  0
POLYLINE
  5
158CF
  8
PATH
 66
     1
 10
0.0
 20
0.0
 30
0.0
  0
VERTEX
  5
17CDD
  8
PATH
 10
-661.6668666471523466
 20
497.1372148353183889
 30
0.0
  0
VERTEX
  5
17CDE
  8
PATH
 10
-597.0988143618596951
 20
548.2491401848892565
 30
0.0
  0
SEQEND
  5
17CDF
  8
PATH
  0
POLYLINE
  5
158D0
  8
PATH
 66
     1
 10
0.0
 20
0.0
 30
0.0
  0
VERTEX
  5
17CE0
  8
PATH
 10
-614.9597719652955448
 20
575.3616626021030243
 30
0.0
  0
VERTEX
  5
17CE1
  8
PATH
 10
-597.0988143618596951
 20
548.2491401848892565
 30
0.0
  0
SEQEND
  5
17CE2
  8
PATH
  0
POLYLINE
  5
158D1
  8
PATH
 66
     1
 10
0.0
 20
0.0
 30
0.0
  0
VERTEX
  5
17CE3
  8
PATH
 10
-597.0988143618596951
 20
548.2491401848892565
 30
0.0
  0
VERTEX
  5
17CE4
  8
PATH
 10
-540.3799128090175827
 20
465.1324800081129069
 30
0.0
  0
SEQEND
  5
17CE5
  8
PATH
  0
POLYLINE
  5
158D2
  8
PATH
 66
     1
 10
0.0
 20
0.0
 30
0.0
  0
VERTEX
  5
17CE6
  8
PATH
 10
-540.3799128090175827
 20
465.1324800081129069
 30
0.0
  0
VERTEX
  5
17CE7
  8
PATH
 10
-477.0528996731299003
 20
504.1429089233787977
 30
0.0
  0
SEQEND
  5
17CE8
  8
PATH
  0
POLYLINE
  5
158D3
  8
PATH
 66
     1
 10
0.0
 20
0.0
 30
0.0
  0
VERTEX
  5
17CE9
  8
PATH
 10
-477.0528996731299003
 20
504.1429089233787977
 30
0.0
  0
VERTEX
  5
17CEA
  8
PATH
 10
-476.0877350074151195
 20
497.4506763606840991
 30
0.0
  0
VERTEX
  5
17CEB
  8
PATH
 10
-475.8283380643842975
 20
493.0709584090436124
 30
0.0
  0
VERTEX
  5
17CEC
  8
PATH
 10
-477.4285933766076937
 20
487.1854798314670916
 30
0.0
  0
VERTEX
  5
17CED
  8
PATH
 10
-480.485483724405583
 20
482.2734717848288142
 30
0.0
  0
VERTEX
  5
17CEE
  8
PATH
 10
-487.3986676592758158
 20
476.3060786673377152
 30
0.0
  0
VERTEX
  5
17CEF
  8
PATH
 10
-527.1983873506105738
 20
443.2490455969746108
 30
0.0
  0
SEQEND
  5
17CF0
  8
PATH
  0
POLYLINE
  5
158D4
  8
PATH
 66
     1
 10
0.0
 20
0.0
 30
0.0
  0
VERTEX
  5
17CF1
  8
PATH
 10
-540.3799128090175827
 20
465.1324800081129069
 30
0.0
  0
VERTEX
  5
17CF2
  8
PATH
 10
-527.1983873506105738
 20
443.2490455969746108
 30
0.0
  0
SEQEND
  5
17CF3
  8
PATH
  0
POLYLINE
  5
158D5
  8
PATH
 66
     1
 10
0.0
 20
0.0
 30
0.0
  0
VERTEX
  5
17CF4
  8
PATH
 10
-527.1983873506105738
 20
443.2490455969746108
 30
0.0
  0
VERTEX
  5
17CF5
  8
PATH
 10
-517.1470591702527599
 20
427.7151880874807262
 30
0.0
  0
SEQEND
  5
17CF6
  8
PATH
  0
POLYLINE
  5
158D6
  8
PATH
 66
     1
 10
0.0
 20
0.0
 30
0.0
  0
VERTEX
  5
17CF7
  8
PATH
 10
-477.0528996731299003
 20
504.1429089233787977
 30
0.0
  0
VERTEX
  5
17CF8
  8
PATH
 10
-476.2662758893711725
 20
513.8146380903707495
 30
0.0
  0
VERTEX
  5
17CF9
  8
PATH
 10
-474.759730392965082
 20
520.6055386839943822
 30
0.0
  0
VERTEX
  5
17CFA
  8
PATH
 10
-471.7853121129592182
 20
527.0394432084212895
 30
0.0
  0
VERTEX
  5
17CFB
  8
PATH
 10
-468.7399009854560745
 20
531.5284526041286881
 30
0.0
  0
VERTEX
  5
17CFC
  8
PATH
 10
-464.6131770300708013
 20
535.8474951210008612
 30
0.0
  0
VERTEX
  5
17CFD
  8
PATH
 10
-455.6130820185207995
 20
542.04514884720993
 30
0.0
  0
SEQEND
  5
17CFE
  8
PATH
  0
POLYLINE
  5
158D7
  8
PATH
 66
     1
 10
0.0
 20
0.0
 30
0.0
  0
VERTEX
  5
17CFF
  8
PATH
 10
-706.2494664477561628
 20
430.285528354397627
 30
0.0
  0
VERTEX
  5
17D00
  8
PATH
 10
-696.588621872549993
 20
436.7885130569848116
 30
0.0
  0
SEQEND
  5
17D01
  8
PATH
  0
POLYLINE
  5
158D8
  8
PATH
 66
     1
 10
0.0
 20
0.0
 30
0.0
  0
VERTEX
  5
17D02
  8
PATH
 10
-691.5803297117962529
 20
411.4444475737910238
 30
0.0
  0
VERTEX
  5
17D03
  8
PATH
 10
-681.9480799703887897
 20
419.2422859455036246
 30
0.0
  0
SEQEND
  5
17D04
  8
PATH
  0
POLYLINE
  5
158D9
  8
PATH
 66
     1
 10
0.0
 20
0.0
 30
0.0
  0
VERTEX
  5
17D05
  8
PATH
 10
-696.588621872549993
 20
436.7885130569848116
 30
0.0
  0
VERTEX
  5
17D06
  8
PATH
 10
-681.9480799703887897
 20
419.2422859455036246
 30
0.0
  0
SEQEND
  5
17D07
  8
PATH
  0
POLYLINE
  5
158DA
  8
PATH
 66
     1
 10
0.0
 20
0.0
 30
0.0
  0
VERTEX
  5
17D08
  8
PATH
 10
-681.9480799703887897
 20
419.2422859455036246
 30
0.0
  0
VERTEX
  5
17D09
  8
PATH
 10
-672.4235258620609557
 20
406.7670814879747923
 30
0.0
  0
VERTEX
  5
17D0A
  8
PATH
 10
-670.5580782723409357
 20
405.5636017248543226
 30
0.0
  0
VERTEX
  5
17D0B
  8
PATH
 10
-667.8376145219225464
 20
405.4859566237354898
 30
0.0
  0
VERTEX
  5
17D0C
  8
PATH
 10
-661.3575125821662368
 20
409.169616728606286
 30
0.0
  0
SEQEND
  5
17D0D
  8
PATH
  0
POLYLINE
  5
158DB
  8
PATH
 66
     1
 10
0.0
 20
0.0
 30
0.0
  0
VERTEX
  5
17D0E
  8
PATH
 10
-696.588621872549993
 20
436.7885130569848116
 30
0.0
  0
VERTEX
  5
17D0F
  8
PATH
 10
-718.230634101506439
 20
464.5077951145867132
 30
0.0
  0
VERTEX
  5
17D10
  8
PATH
 10
-718.7006277641776251
 20
467.3670638590627959
 30
0.0
  0
VERTEX
  5
17D11
  8
PATH
 10
-718.383871869489667
 20
470.5407697223636205
 30
0.0
  0
VERTEX
  5
17D12
  8
PATH
 10
-678.6971054764144355
 20
501.3084728536704802
 30
0.0
  0
VERTEX
  5
17D13
  8
PATH
 10
-676.2677644104260253
 20
502.1041247547182138
 30
0.0
  0
VERTEX
  5
17D14
  8
PATH
 10
-673.2410395216575125
 20
501.706294943629473
 30
0.0
  0
VERTEX
  5
17D15
  8
PATH
 10
-605.0739561933587538
 20
414.4283144102009828
 30
0.0
  0
VERTEX
  5
17D16
  8
PATH
 10
-574.5248636754839708
 20
385.7693102811973063
 30
0.0
  0
SEQEND
  5
17D17
  8
PATH
  0
POLYLINE
  5
158DC
  8
PATH
 66
     1
 10
0.0
 20
0.0
 30
0.0
  0
VERTEX
  5
17D18
  8
PATH
 10
-434.5965634285383885
 20
502.3014064017261262
 30
0.0
  0
VERTEX
  5
17D19
  8
PATH
 10
-424.874491051203222
 20
506.3359003440053812
 30
0.0
  0
VERTEX
  5
17D1A
  8
PATH
 10
-407.2074242650559768
 20
517.9809693056666902
 30
0.0
  0
SEQEND
  5
17D1B
  8
PATH
  0
POLYLINE
  5
158DD
  8
PATH
 66
     1
 10
0.0
 20
0.0
 30
0.0
  0
VERTEX
  5
17D1C
  8
PATH
 10
-407.2074242650559768
 20
517.9809693056666902
 30
0.0
  0
VERTEX
  5
17D1D
  8
PATH
 10
-342.1921410874492722
 20
558.0510447570632095
 30
0.0
  0
SEQEND
  5
17D1E
  8
PATH
  0
POLYLINE
  5
158DE
  8
PATH
 66
     1
 10
0.0
 20
0.0
 30
0.0
  0
VERTEX
  5
17D1F
  8
PATH
 10
-342.1921410874492722
 20
558.0510447570632095
 30
0.0
  0
VERTEX
  5
17D20
  8
PATH
 10
-338.8312000013684155
 20
555.4888722338290563
 30
0.0
  0
VERTEX
  5
17D21
  8
PATH
 10
-304.4910011757311281
 20
545.9955638959581847
 30
0.0
  0
VERTEX
  5
17D22
  8
PATH
 10
-299.9872647067094817
 20
540.9967851136387935
 30
0.0
  0
VERTEX
  5
17D23
  8
PATH
 10
-260.6399539809353882
 20
484.4694635146806263
 30
0.0
  0
SEQEND
  5
17D24
  8
PATH
  0
POLYLINE
  5
158DF
  8
PATH
 66
     1
 10
0.0
 20
0.0
 30
0.0
  0
VERTEX
  5
17D25
  8
PATH
 10
-342.1921410874492722
 20
558.0510447570632095
 30
0.0
  0
VERTEX
  5
17D26
  8
PATH
 10
-345.7867158827284015
 20
563.4706836115146871
 30
0.0
  0
VERTEX
  5
17D27
  8
PATH
 10
-385.1540083107101964
 20
607.112184704797869
 30
0.0
  0
VERTEX
  5
17D28
  8
PATH
 10
-391.6508630524767796
 20
608.4671506588855436
 30
0.0
  0
VERTEX
  5
17D29
  8
PATH
 10
-398.9803080323181916
 20
607.9769604681569035
 30
0.0
  0
VERTEX
  5
17D2A
  8
PATH
 10
-406.7096125175157226
 20
605.9215308945204015
 30
0.0
  0
VERTEX
  5
17D2B
  8
PATH
 10
-412.3552527795109199
 20
602.5065979077988914
 30
0.0
  0
VERTEX
  5
17D2C
  8
PATH
 10
-428.6320069523790153
 20
590.0625904421831365
 30
0.0
  0
VERTEX
  5
17D2D
  8
PATH
 10
-432.6446445473266067
 20
585.5837721112693544
 30
0.0
  0
VERTEX
  5
17D2E
  8
PATH
 10
-434.6497188338108231
 20
580.0330931558781913
 30
0.0
  0
VERTEX
  5
17D2F
  8
PATH
 10
-434.8827210001908838
 20
574.4935703273439458
 30
0.0
  0
VERTEX
  5
17D30
  8
PATH
 10
-432.5477027180750156
 20
567.5822684858502498
 30
0.0
  0
VERTEX
  5
17D31
  8
PATH
 10
-424.9275251243524849
 20
549.4223710168662365
 30
0.0
  0
VERTEX
  5
17D32
  8
PATH
 10
-413.3668729951168075
 20
527.9756623115899856
 30
0.0
  0
VERTEX
  5
17D33
  8
PATH
 10
-407.2074242650559768
 20
517.9809693056666902
 30
0.0
  0
SEQEND
  5
17D34
  8
PATH
  0
POLYLINE
  5
158E0
  8
PATH
 66
     1
 10
0.0
 20
0.0
 30
0.0
  0
VERTEX
  5
17D35
  8
PATH
 10
-342.1921410874492722
 20
558.0510447570632095
 30
0.0
  0
VERTEX
  5
17D36
  8
PATH
 10
-325.1546490052278955
 20
569.3511592587965424
 30
0.0
  0
VERTEX
  5
17D37
  8
PATH
 10
-306.4952258610427975
 20
589.8678817842665012
 30
0.0
  0
SEQEND
  5
17D38
  8
PATH
  0
POLYLINE
  5
158E1
  8
PATH
 66
     1
 10
0.0
 20
0.0
 30
0.0
  0
VERTEX
  5
17D39
  8
PATH
 10
-278.4976218633964891
 20
452.5399462609129273
 30
0.0
  0
VERTEX
  5
17D3A
  8
PATH
 10
-275.7304814478994217
 20
455.9806123315864852
 30
0.0
  0
VERTEX
  5
17D3B
  8
PATH
 10
-208.2308109854494091
 20
490.5196795156734879
 30
0.0
  0
VERTEX
  5
17D3C
  8
PATH
 10
-202.2186715410352917
 20
483.5494239116596873
 30
0.0
  0
VERTEX
  5
17D3D
  8
PATH
 10
-193.6629560717993002
 20
467.4521052018317278
 30
0.0
  0
VERTEX
  5
17D3E
  8
PATH
 10
-180.5139736455311947
 20
448.3393046218479867
 30
0.0
  0
VERTEX
  5
17D3F
  8
PATH
 10
-171.4450924516567909
 20
436.7926126439633094
 30
0.0
  0
VERTEX
  5
17D40
  8
PATH
 10
-170.5604123512893864
 20
430.7659801058981088
 30
0.0
  0
VERTEX
  5
17D41
  8
PATH
 10
-171.1977691222128044
 20
424.8146301946180756
 30
0.0
  0
VERTEX
  5
17D42
  8
PATH
 10
-174.065846729106795
 20
418.81325914250192
 30
0.0
  0
VERTEX
  5
17D43
  8
PATH
 10
-225.9749785739259096
 20
370.9712248715150054
 30
0.0
  0
SEQEND
  5
17D44
  8
PATH
  0
POLYLINE
  5
158E2
  8
PATH
 66
     1
 10
0.0
 20
0.0
 30
0.0
  0
VERTEX
  5
17D45
  8
PATH
 10
-181.0773155350615866
 20
378.2145036836664076
 30
0.0
  0
VERTEX
  5
17D46
  8
PATH
 10
-164.4669339012033902
 20
351.2005120767789776
 30
0.0
  0
SEQEND
  5
17D47
  8
PATH
  0
POLYLINE
  5
158E3
  8
PATH
 66
     1
 10
0.0
 20
0.0
 30
0.0
  0
VERTEX
  5
17D48
  8
PATH
 10
-164.4669339012033902
 20
351.2005120767789776
 30
0.0
  0
VERTEX
  5
17D49
  8
PATH
 10
-168.3679927323391894
 20
348.3027601601133938
 30
0.0
  0
VERTEX
  5
17D4A
  8
PATH
 10
-190.9868408144247951
 20
315.9707953455435927
 30
0.0
  0
SEQEND
  5
17D4B
  8
PATH
  0
POLYLINE
  5
158E4
  8
PATH
 66
     1
 10
0.0
 20
0.0
 30
0.0
  0
VERTEX
  5
17D4C
  8
PATH
 10
-164.4669339012033902
 20
351.2005120767789776
 30
0.0
  0
VERTEX
  5
17D4D
  8
PATH
 10
-157.7768703444307903
 20
353.5292397439989145
 30
0.0
  0
VERTEX
  5
17D4E
  8
PATH
 10
-116.7606319284677028
 20
346.2049295828256277
 30
0.0
  0
SEQEND
  5
17D4F
  8
PATH
  0
POLYLINE
  5
158E5
  8
PATH
 66
     1
 10
0.0
 20
0.0
 30
0.0
  0
VERTEX
  5
17D50
  8
PATH
 10
-116.7606319284677028
 20
346.2049295828256277
 30
0.0
  0
VERTEX
  5
17D51
  8
PATH
 10
-112.825023987868903
 20
348.5637594922955032
 30
0.0
  0
VERTEX
  5
17D52
  8
PATH
 10
-78.0274267767817946
 20
357.0191000057894257
 30
0.0
  0
SEQEND
  5
17D53
  8
PATH
  0
POLYLINE
  5
158E6
  8
PATH
 66
     1
 10
0.0
 20
0.0
 30
0.0
  0
VERTEX
  5
17D54
  8
PATH
 10
-116.7606319284677028
 20
346.2049295828256277
 30
0.0
  0
VERTEX
  5
17D55
  8
PATH
 10
-105.4134598611998967
 20
338.2672640425662962
 30
0.0
  0
VERTEX
  5
17D56
  8
PATH
 10
-98.1833528585411841
 20
326.0841478221627767
 30
0.0
  0
SEQEND
  5
17D57
  8
PATH
  0
POLYLINE
  5
158E7
  8
PATH
 66
     1
 10
0.0
 20
0.0
 30
0.0
  0
VERTEX
  5
17D58
  8
PATH
 10
-98.1833528585411841
 20
326.0841478221627767
 30
0.0
  0
VERTEX
  5
17D59
  8
PATH
 10
-69.9475965079764137
 20
340.2540475205095731
 30
0.0
  0
SEQEND
  5
17D5A
  8
PATH
  0
POLYLINE
  5
158E8
  8
PATH
 66
     1
 10
0.0
 20
0.0
 30
0.0
  0
VERTEX
  5
17D5B
  8
PATH
 10
-98.1833528585411841
 20
326.0841478221627767
 30
0.0
  0
VERTEX
  5
17D5C
  8
PATH
 10
-90.1448891004692996
 20
310.054657987835526
 30
0.0
  0
SEQEND
  5
17D5D
  8
PATH
  0
POLYLINE
  5
158E9
  8
PATH
 66
     1
 10
0.0
 20
0.0
 30
0.0
  0
VERTEX
  5
17D5E
  8
PATH
 10
-165.3070025345222973
 20
275.4065240161071983
 30
0.0
  0
VERTEX
  5
17D5F
  8
PATH
 10
-237.608661775841
 20
229.5959543632853013
 30
0.0
  0
SEQEND
  5
17D60
  8
PATH
  0
POLYLINE
  5
158EA
  8
PATH
 66
     1
 10
0.0
 20
0.0
 30
0.0
  0
VERTEX
  5
17D61
  8
PATH
 10
-237.608661775841
 20
229.5959543632853013
 30
0.0
  0
VERTEX
  5
17D62
  8
PATH
 10
-231.9722346097260015
 20
224.3677608273501107
 30
0.0
  0
VERTEX
  5
17D63
  8
PATH
 10
-215.6497864533594111
 20
212.4802395138468114
 30
0.0
  0
VERTEX
  5
17D64
  8
PATH
 10
-205.0101471146481913
 20
195.6736999913628097
 30
0.0
  0
SEQEND
  5
17D65
  8
PATH
  0
POLYLINE
  5
158EB
  8
PATH
 66
     1
 10
0.0
 20
0.0
 30
0.0
  0
VERTEX
  5
17D66
  8
PATH
 10
-237.608661775841
 20
229.5959543632853013
 30
0.0
  0
VERTEX
  5
17D67
  8
PATH
 10
-250.0083324121806072
 20
221.7394821700218017
 30
0.0
  0
SEQEND
  5
17D68
  8
PATH
  0
POLYLINE
  5
158EC
  8
PATH
 66
     1
 10
0.0
 20
0.0
 30
0.0
  0
VERTEX
  5
17D69
  8
PATH
 10
-120.9809487631573006
 20
205.3884011386471968
 30
0.0
  0
VERTEX
  5
17D6A
  8
PATH
 10
-130.8075197056313925
 20
198.5663254396567936
 30
0.0
  0
SEQEND
  5
17D6B
  8
PATH
  0
POLYLINE
  5
158ED
  8
PATH
 66
     1
 10
0.0
 20
0.0
 30
0.0
  0
VERTEX
  5
17D6C
  8
PATH
 10
-130.8075197056313925
 20
198.5663254396567936
 30
0.0
  0
VERTEX
  5
17D6D
  8
PATH
 10
-107.4080208165833028
 20
162.0546991574155982
 30
0.0
  0
VERTEX
  5
17D6E
  8
PATH
 10
-105.0780548773036003
 20
156.2645919556306922
 30
0.0
  0
VERTEX
  5
17D6F
  8
PATH
 10
-104.8367126302473054
 20
150.9902066491121957
 30
0.0
  0
VERTEX
  5
17D70
  8
PATH
 10
-106.1883258028683059
 20
144.8081449401142891
 30
0.0
  0
VERTEX
  5
17D71
  8
PATH
 10
-109.2939192501507932
 20
139.6603990477086938
 30
0.0
  0
VERTEX
  5
17D72
  8
PATH
 10
-113.9070983820857066
 20
135.4850350958803915
 30
0.0
  0
VERTEX
  5
17D73
  8
PATH
 10
-160.8647062924137003
 20
109.1582580660979005
 30
0.0
  0
VERTEX
  5
17D74
  8
PATH
 10
-164.5616467556828866
 20
107.7564462954688054
 30
0.0
  0
VERTEX
  5
17D75
  8
PATH
 10
-169.0430563270492996
 20
108.5529011288236063
 30
0.0
  0
VERTEX
  5
17D76
  8
PATH
 10
-173.111065371092991
 20
112.5086476458746034
 30
0.0
  0
VERTEX
  5
17D77
  8
PATH
 10
-194.1576770299724899
 20
156.0177829084495897
 30
0.0
  0
VERTEX
  5
17D78
  8
PATH
 10
-197.0175817292910949
 20
166.409757821871608
 30
0.0
  0
VERTEX
  5
17D79
  8
PATH
 10
-196.9209556714777136
 20
171.4641859913753876
 30
0.0
  0
VERTEX
  5
17D7A
  8
PATH
 10
-193.7890603214763985
 20
177.5126057896341081
 30
0.0
  0
VERTEX
  5
17D7B
  8
PATH
 10
-177.2291706238902123
 20
188.0618936764585953
 30
0.0
  0
VERTEX
  5
17D7C
  8
PATH
 10
-170.1687443283298933
 20
191.851186144216598
 30
0.0
  0
VERTEX
  5
17D7D
  8
PATH
 10
-161.2255215891200066
 20
192.3551342716017984
 30
0.0
  0
VERTEX
  5
17D7E
  8
PATH
 10
-153.2288330011797086
 20
190.204016780997307
 30
0.0
  0
VERTEX
  5
17D7F
  8
PATH
 10
-144.3314714185690093
 20
191.6242342312397966
 30
0.0
  0
VERTEX
  5
17D80
  8
PATH
 10
-134.4709883972099931
 20
196.2971923365766997
 30
0.0
  0
VERTEX
  5
17D81
  8
PATH
 10
-130.8075197056313925
 20
198.5663254396567936
 30
0.0
  0
SEQEND
  5
17D82
  8
PATH
  0
POLYLINE
  5
158EE
  8
PATH
 66
     1
 10
0.0
 20
0.0
 30
0.0
  0
VERTEX
  5
17D83
  8
PATH
 10
-62.8530295328382635
 20
98.8305858136664028
 30
0.0
  0
VERTEX
  5
17D84
  8
PATH
 10
-87.6329316952760564
 20
15.9733831864359601
 30
0.0
  0
SEQEND
  5
17D85
  8
PATH
  0
POLYLINE
  5
158EF
  8
PATH
 66
     1
 10
0.0
 20
0.0
 30
0.0
  0
VERTEX
  5
17D86
  8
PATH
 10
-154.4235377377044074
 20
62.6244372572327919
 30
0.0
  0
VERTEX
  5
17D87
  8
PATH
 10
-142.9475381112569892
 20
66.6247010320003028
 30
0.0
  0
SEQEND
  5
17D88
  8
PATH
  0
POLYLINE
  5
158F0
  8
PATH
 66
     1
 10
0.0
 20
0.0
 30
0.0
  0
VERTEX
  5
17D89
  8
PATH
 10
-142.9475381112569892
 20
66.6247010320003028
 30
0.0
  0
VERTEX
  5
17D8A
  8
PATH
 10
-115.2151896189460984
 20
1.4869351410816301
 30
0.0
  0
SEQEND
  5
17D8B
  8
PATH
  0
POLYLINE
  5
158F1
  8
PATH
 66
     1
 10
0.0
 20
0.0
 30
0.0
  0
VERTEX
  5
17D8C
  8
PATH
 10
-115.2151896189460984
 20
1.4869351410816301
 30
0.0
  0
VERTEX
  5
17D8D
  8
PATH
 10
-111.1388206781266064
 20
-1.5274864965540469
 30
0.0
  0
VERTEX
  5
17D8E
  8
PATH
 10
-95.6520547699910964
 20
-38.4197401268829708
 30
0.0
  0
SEQEND
  5
17D8F
  8
PATH
  0
POLYLINE
  5
158F2
  8
PATH
 66
     1
 10
0.0
 20
0.0
 30
0.0
  0
VERTEX
  5
17D90
  8
PATH
 10
-95.6520547699910964
 20
-38.4197401268829708
 30
0.0
  0
VERTEX
  5
17D91
  8
PATH
 10
-110.0122621056653003
 20
-45.6718095396136121
 30
0.0
  0
SEQEND
  5
17D92
  8
PATH
  0
POLYLINE
  5
158F3
  8
PATH
 66
     1
 10
0.0
 20
0.0
 30
0.0
  0
VERTEX
  5
17D93
  8
PATH
 10
-95.6520547699910964
 20
-38.4197401268829708
 30
0.0
  0
VERTEX
  5
17D94
  8
PATH
 10
-95.9717269066750447
 20
-45.1521810697813635
 30
0.0
  0
VERTEX
  5
17D95
  8
PATH
 10
-103.1518305745702975
 20
-62.8440461926584177
 30
0.0
  0
SEQEND
  5
17D96
  8
PATH
  0
POLYLINE
  5
158F4
  8
PATH
 66
     1
 10
0.0
 20
0.0
 30
0.0
  0
VERTEX
  5
17D97
  8
PATH
 10
-95.6520547699910964
 20
-38.4197401268829708
 30
0.0
  0
VERTEX
  5
17D98
  8
PATH
 10
-87.7870242938661249
 20
-51.694813441434242
 30
0.0
  0
VERTEX
  5
17D99
  8
PATH
 10
-84.7392727427795762
 20
-56.3648531962608104
 30
0.0
  0
VERTEX
  5
17D9A
  8
PATH
 10
-81.5643024547170938
 20
-57.9938176129435305
 30
0.0
  0
VERTEX
  5
17D9B
  8
PATH
 10
-76.7825385282776551
 20
-57.873740626448118
 30
0.0
  0
VERTEX
  5
17D9C
  8
PATH
 10
-55.7096435414423397
 20
-46.2063076984559231
 30
0.0
  0
SEQEND
  5
17D9D
  8
PATH
  0
POLYLINE
  5
158F5
  8
PATH
 66
     1
 10
0.0
 20
0.0
 30
0.0
  0
VERTEX
  5
17D9E
  8
PATH
 10
-55.7096435414423397
 20
-46.2063076984559231
 30
0.0
  0
VERTEX
  5
17D9F
  8
PATH
 10
-44.1601184174214723
 20
-65.0151910744098132
 30
0.0
  0
SEQEND
  5
17DA0
  8
PATH
  0
POLYLINE
  5
158F6
  8
PATH
 66
     1
 10
0.0
 20
0.0
 30
0.0
  0
VERTEX
  5
17DA1
  8
PATH
 10
-55.7096435414423397
 20
-46.2063076984559231
 30
0.0
  0
VERTEX
  5
17DA2
  8
PATH
 10
-21.2311554039042711
 20
-25.5351467038926785
 30
0.0
  0
VERTEX
  5
17DA3
  8
PATH
 10
-9.6030408545193495
 20
-9.6148701714773779
 30
0.0
  0
SEQEND
  5
17DA4
  8
PATH
  0
POLYLINE
  5
158F7
  8
PATH
 66
     1
 10
0.0
 20
0.0
 30
0.0
  0
VERTEX
  5
17DA5
  8
PATH
 10
-9.6030408544029342
 20
-9.6148701714773779
 30
0.0
  0
VERTEX
  5
17DA6
  8
PATH
 10
10.9661627678287896
 20
8.6410891167397494
 30
0.0
  0
SEQEND
  5
17DA7
  8
PATH
  0
POLYLINE
  5
158F8
  8
PATH
 66
     1
 10
0.0
 20
0.0
 30
0.0
  0
VERTEX
  5
17DA8
  8
PATH
 10
10.9661627678287896
 20
8.6410891167397494
 30
0.0
  0
VERTEX
  5
17DA9
  8
PATH
 10
27.6183261153491912
 20
-13.57905249339092
 30
0.0
  0
SEQEND
  5
17DAA
  8
PATH
  0
POLYLINE
  5
158F9
  8
PATH
 66
     1
 10
0.0
 20
0.0
 30
0.0
  0
VERTEX
  5
17DAB
  8
PATH
 10
10.9661627678287896
 20
8.6410891167397494
 30
0.0
  0
VERTEX
  5
17DAC
  8
PATH
 10
15.3557200024224603
 20
16.1634610682303901
 30
0.0
  0
VERTEX
  5
17DAD
  8
PATH
 10
34.8025407188542886
 20
72.2443086403000052
 30
0.0
  0
VERTEX
  5
17DAE
  8
PATH
 10
35.2634184094931697
 20
79.0923950011419947
 30
0.0
  0
VERTEX
  5
17DAF
  8
PATH
 10
33.5490395872475275
 20
87.0150055601770873
 30
0.0
  0
VERTEX
  5
17DB0
  8
PATH
 10
25.1103165644308284
 20
101.1594378902155
 30
0.0
  0
SEQEND
  5
17DB1
  8
PATH
  0
POLYLINE
  5
158FA
  8
PATH
 66
     1
 10
0.0
 20
0.0
 30
0.0
  0
VERTEX
  5
17DB2
  8
PATH
 10
25.1103165644890396
 20
101.1594378902155
 30
0.0
  0
VERTEX
  5
17DB3
  8
PATH
 10
-6.0461345161456839
 20
156.4961607293735142
 30
0.0
  0
VERTEX
  5
17DB4
  8
PATH
 10
-10.2856817462743493
 20
159.9806477297607046
 30
0.0
  0
VERTEX
  5
17DB5
  8
PATH
 10
-14.8525910761818505
 20
161.5949972337620864
 30
0.0
  0
VERTEX
  5
17DB6
  8
PATH
 10
-19.2962938237615091
 20
161.3595990902321944
 30
0.0
  0
VERTEX
  5
17DB7
  8
PATH
 10
-22.6290941029001296
 20
160.0817245580765018
 30
0.0
  0
VERTEX
  5
17DB8
  8
PATH
 10
-79.3763719391572522
 20
128.9357735389421009
 30
0.0
  0
SEQEND
  5
17DB9
  8
PATH
  0
POLYLINE
  5
158FB
  8
PATH
 66
     1
 10
0.0
 20
0.0
 30
0.0
  0
VERTEX
  5
17DBA
  8
PATH
 10
-79.3763719391572522
 20
128.9357735389421009
 30
0.0
  0
VERTEX
  5
17DBB
  8
PATH
 10
-102.2487800067901986
 20
109.902861999864399
 30
0.0
  0
VERTEX
  5
17DBC
  8
PATH
 10
-129.5526254647556925
 20
86.2984424941751058
 30
0.0
  0
VERTEX
  5
17DBD
  8
PATH
 10
-142.9475381112569892
 20
66.6247010320003028
 30
0.0
  0
SEQEND
  5
17DBE
  8
PATH
  0
POLYLINE
  5
158FC
  8
PATH
 66
     1
 10
0.0
 20
0.0
 30
0.0
  0
VERTEX
  5
17DBF
  8
PATH
 10
-24.7004774076776812
 20
252.1275525931777963
 30
0.0
  0
VERTEX
  5
17DC0
  8
PATH
 10
-55.2180245732452022
 20
234.0034506856972882
 30
0.0
  0
SEQEND
  5
17DC1
  8
PATH
  0
POLYLINE
  5
158FD
  8
PATH
 66
     1
 10
0.0
 20
0.0
 30
0.0
  0
VERTEX
  5
17DC2
  8
PATH
 10
-78.6726914501196006
 20
272.5263270494106109
 30
0.0
  0
VERTEX
  5
17DC3
  8
PATH
 10
-55.2180245732452022
 20
234.0034506856972882
 30
0.0
  0
SEQEND
  5
17DC4
  8
PATH
  0
POLYLINE
  5
158FE
  8
PATH
 66
     1
 10
0.0
 20
0.0
 30
0.0
  0
VERTEX
  5
17DC5
  8
PATH
 10
-55.2180245732452022
 20
234.0034506856972882
 30
0.0
  0
VERTEX
  5
17DC6
  8
PATH
 10
-40.5528006102103902
 20
209.3057847619566019
 30
0.0
  0
VERTEX
  5
17DC7
  8
PATH
 10
-39.1792506104830025
 20
204.935910451742501
 30
0.0
  0
VERTEX
  5
17DC8
  8
PATH
 10
-39.1797892794275029
 20
198.1663261675784895
 30
0.0
  0
VERTEX
  5
17DC9
  8
PATH
 10
-40.3882279703539098
 20
190.5372723024848085
 30
0.0
  0
VERTEX
  5
17DCA
  8
PATH
 10
-46.6215000722004334
 20
166.8293968230063911
 30
0.0
  0
SEQEND
  5
17DCB
  8
PATH
  0
POLYLINE
  5
158FF
  8
PATH
 66
     1
 10
0.0
 20
0.0
 30
0.0
  0
VERTEX
  5
17DCC
  8
PATH
 10
-59.7197811358637409
 20
-219.763359084208787
 30
0.0
  0
VERTEX
  5
17DCD
  8
PATH
 10
-20.5676453285996104
 20
-195.506140240882786
 30
0.0
  0
VERTEX
  5
17DCE
  8
PATH
 10
22.2641526528022986
 20
-160.7687252582472865
 30
0.0
  0
SEQEND
  5
17DCF
  8
PATH
  0
POLYLINE
  5
15900
  8
PATH
 66
     1
 10
0.0
 20
0.0
 30
0.0
  0
VERTEX
  5
17DD0
  8
PATH
 10
38.4889294852473469
 20
-109.6392515203405935
 30
0.0
  0
VERTEX
  5
17DD1
  8
PATH
 10
48.6375644407089567
 20
-106.6580100845966967
 30
0.0
  0
VERTEX
  5
17DD2
  8
PATH
 10
59.60025692875206
 20
-105.8009801827792984
 30
0.0
  0
VERTEX
  5
17DD3
  8
PATH
 10
72.5648288393713301
 20
-109.0386349744585033
 30
0.0
  0
VERTEX
  5
17DD4
  8
PATH
 10
83.9967025469377404
 20
-117.6793404900891034
 30
0.0
  0
VERTEX
  5
17DD5
  8
PATH
 10
87.9069771798531292
 20
-122.3480280111033949
 30
0.0
  0
SEQEND
  5
17DD6
  8
PATH
  0
POLYLINE
  5
15901
  8
PATH
 66
     1
 10
0.0
 20
0.0
 30
0.0
  0
VERTEX
  5
17DD7
  8
PATH
 10
27.4339606379362486
 20
-38.786910913833708
 30
0.0
  0
VERTEX
  5
17DD8
  8
PATH
 10
38.1945760034577688
 20
-56.0779747375709121
 30
0.0
  0
SEQEND
  5
17DD9
  8
PATH
  0
POLYLINE
  5
15902
  8
PATH
 66
     1
 10
0.0
 20
0.0
 30
0.0
  0
VERTEX
  5
17DDA
  8
PATH
 10
13.6757529523310897
 20
-72.4272801409897511
 30
0.0
  0
VERTEX
  5
17DDB
  8
PATH
 10
38.1945760034577688
 20
-56.0779747375709121
 30
0.0
  0
SEQEND
  5
17DDC
  8
PATH
  0
POLYLINE
  5
15903
  8
PATH
 66
     1
 10
0.0
 20
0.0
 30
0.0
  0
VERTEX
  5
17DDD
  8
PATH
 10
38.1945760034577688
 20
-56.0779747375709121
 30
0.0
  0
VERTEX
  5
17DDE
  8
PATH
 10
53.42995314706058
 20
-46.7316647814077371
 30
0.0
  0
VERTEX
  5
17DDF
  8
PATH
 10
103.249731881063795
 20
-57.7108611696821683
 30
0.0
  0
VERTEX
  5
17DE0
  8
PATH
 10
110.3037684488662933
 20
-66.5554233416405623
 30
0.0
  0
SEQEND
  5
17DE1
  8
PATH
  0
POLYLINE
  5
15904
  8
PATH
 66
     1
 10
0.0
 20
0.0
 30
0.0
  0
VERTEX
  5
17DE2
  8
PATH
 10
110.3037684488662933
 20
-66.5554233416405623
 30
0.0
  0
VERTEX
  5
17DE3
  8
PATH
 10
131.779304048672202
 20
-51.2316059176300698
 30
0.0
  0
SEQEND
  5
17DE4
  8
PATH
  0
POLYLINE
  5
15905
  8
PATH
 66
     1
 10
0.0
 20
0.0
 30
0.0
  0
VERTEX
  5
17DE5
  8
PATH
 10
110.3037684488662933
 20
-66.5554233416405623
 30
0.0
  0
VERTEX
  5
17DE6
  8
PATH
 10
132.2749356396234077
 20
-98.7030368623745744
 30
0.0
  0
SEQEND
  5
17DE7
  8
PATH
  0
POLYLINE
  5
15906
  8
PATH
 66
     1
 10
0.0
 20
0.0
 30
0.0
  0
VERTEX
  5
17DE8
  8
PATH
 10
-552.3559099325357238
 20
26.2470054803925485
 30
0.0
  0
VERTEX
  5
17DE9
  8
PATH
 10
-581.3914332283457043
 20
33.388737578461587
 30
0.0
  0
SEQEND
  5
17DEA
  8
PATH
  0
POLYLINE
  5
15907
  8
PATH
 66
     1
 10
0.0
 20
0.0
 30
0.0
  0
VERTEX
  5
17DEB
  8
PATH
 10
-581.3914332283457043
 20
33.388737578461587
 30
0.0
  0
VERTEX
  5
17DEC
  8
PATH
 10
-580.5462431315827416
 20
37.7184112282047934
 30
0.0
  0
VERTEX
  5
17DED
  8
PATH
 10
-556.4902925874483799
 20
100.6836238061587068
 30
0.0
  0
SEQEND
  5
17DEE
  8
PATH
  0
POLYLINE
  5
15908
  8
PATH
 66
     1
 10
0.0
 20
0.0
 30
0.0
  0
VERTEX
  5
17DEF
  8
PATH
 10
-556.4902925874483799
 20
100.6836238061587068
 30
0.0
  0
VERTEX
  5
17DF0
  8
PATH
 10
-619.8179186914494494
 20
133.571608738093289
 30
0.0
  0
SEQEND
  5
17DF1
  8
PATH
  0
POLYLINE
  5
15909
  8
PATH
 66
     1
 10
0.0
 20
0.0
 30
0.0
  0
VERTEX
  5
17DF2
  8
PATH
 10
-619.8179186914494494
 20
133.571608738093289
 30
0.0
  0
VERTEX
  5
17DF3
  8
PATH
 10
-657.093250116114973
 20
64.8270050171340699
 30
0.0
  0
SEQEND
  5
17DF4
  8
PATH
  0
POLYLINE
  5
1590A
  8
PATH
 66
     1
 10
0.0
 20
0.0
 30
0.0
  0
VERTEX
  5
17DF5
  8
PATH
 10
-657.093250116114973
 20
64.8270050171340699
 30
0.0
  0
VERTEX
  5
17DF6
  8
PATH
 10
-657.093250116114973
 20
64.8270050171340699
 30
0.0
  0
VERTEX
  5
17DF7
  8
PATH
 10
-589.9413133761408972
 20
35.4917116789656575
 30
0.0
  0
VERTEX
  5
17DF8
  8
PATH
 10
-581.3914332283457043
 20
33.388737578461587
 30
0.0
  0
SEQEND
  5
17DF9
  8
PATH
  0
POLYLINE
  5
1590B
  8
PATH
 66
     1
 10
0.0
 20
0.0
 30
0.0
  0
VERTEX
  5
17DFA
  8
PATH
 10
-657.093250116114973
 20
64.8270050171340699
 30
0.0
  0
VERTEX
  5
17DFB
  8
PATH
 10
-663.4321201174898306
 20
71.6893434273588355
 30
0.0
  0
VERTEX
  5
17DFC
  8
PATH
 10
-666.8093698691953932
 20
80.1578630488875206
 30
0.0
  0
SEQEND
  5
17DFD
  8
PATH
  0
POLYLINE
  5
1590C
  8
PATH
 66
     1
 10
0.0
 20
0.0
 30
0.0
  0
VERTEX
  5
17DFE
  8
PATH
 10
-666.8093698691953932
 20
80.1578630488875206
 30
0.0
  0
VERTEX
  5
17DFF
  8
PATH
 10
-723.5735010358183672
 20
103.1134977862748059
 30
0.0
  0
VERTEX
  5
17E00
  8
PATH
 10
-737.3694062498542507
 20
120.5082933861339995
 30
0.0
  0
SEQEND
  5
17E01
  8
PATH
  0
POLYLINE
  5
1590D
  8
PATH
 66
     1
 10
0.0
 20
0.0
 30
0.0
  0
VERTEX
  5
17E02
  8
PATH
 10
-737.3694062498542507
 20
120.5082933861339995
 30
0.0
  0
VERTEX
  5
17E03
  8
PATH
 10
-713.483859754589389
 20
139.3244122379036867
 30
0.0
  0
SEQEND
  5
17E04
  8
PATH
  0
POLYLINE
  5
1590E
  8
PATH
 66
     1
 10
0.0
 20
0.0
 30
0.0
  0
VERTEX
  5
17E05
  8
PATH
 10
-713.483859754589389
 20
139.3244122379036867
 30
0.0
  0
VERTEX
  5
17E06
  8
PATH
 10
-682.0982609829661669
 20
123.2698479053141938
 30
0.0
  0
SEQEND
  5
17E07
  8
PATH
  0
POLYLINE
  5
1590F
  8
PATH
 66
     1
 10
0.0
 20
0.0
 30
0.0
  0
VERTEX
  5
17E08
  8
PATH
 10
-682.0982609829661669
 20
123.2698479053141938
 30
0.0
  0
VERTEX
  5
17E09
  8
PATH
 10
-660.931247535001603
 20
163.9507929855535053
 30
0.0
  0
VERTEX
  5
17E0A
  8
PATH
 10
-642.1384080266143428
 20
179.6918104710566126
 30
0.0
  0
SEQEND
  5
17E0B
  8
PATH
  0
POLYLINE
  5
15910
  8
PATH
 66
     1
 10
0.0
 20
0.0
 30
0.0
  0
VERTEX
  5
17E0C
  8
PATH
 10
-682.0982609829661669
 20
123.2698479053141938
 30
0.0
  0
VERTEX
  5
17E0D
  8
PATH
 10
-653.6465863739866791
 20
108.5845243097791979
 30
0.0
  0
SEQEND
  5
17E0E
  8
PATH
  0
POLYLINE
  5
15911
  8
PATH
 66
     1
 10
0.0
 20
0.0
 30
0.0
  0
VERTEX
  5
17E0F
  8
PATH
 10
-653.6465863739866791
 20
108.5845243097791979
 30
0.0
  0
VERTEX
  5
17E10
  8
PATH
 10
-653.6465863739866791
 20
108.5845243097791979
 30
0.0
  0
VERTEX
  5
17E11
  8
PATH
 10
-665.5572618468577275
 20
88.505718925553083
 30
0.0
  0
VERTEX
  5
17E12
  8
PATH
 10
-666.8027943935156827
 20
83.0117393453183467
 30
0.0
  0
VERTEX
  5
17E13
  8
PATH
 10
-666.8093698691953932
 20
80.1578630488875206
 30
0.0
  0
SEQEND
  5
17E14
  8
PATH
  0
POLYLINE
  5
15912
  8
PATH
 66
     1
 10
0.0
 20
0.0
 30
0.0
  0
VERTEX
  5
17E15
  8
PATH
 10
-653.6465863739866791
 20
108.5845243097791979
 30
0.0
  0
VERTEX
  5
17E16
  8
PATH
 10
-637.007920991818537
 20
138.0942795277150879
 30
0.0
  0
VERTEX
  5
17E17
  8
PATH
 10
-624.5859558480005944
 20
163.8955141823315955
 30
0.0
  0
SEQEND
  5
17E18
  8
PATH
  0
POLYLINE
  5
15913
  8
PATH
 66
     1
 10
0.0
 20
0.0
 30
0.0
  0
VERTEX
  5
17E19
  8
PATH
 10
-642.1384080266143428
 20
179.6918104710566126
 30
0.0
  0
VERTEX
  5
17E1A
  8
PATH
 10
-624.5859558480005944
 20
163.8955141823315955
 30
0.0
  0
SEQEND
  5
17E1B
  8
PATH
  0
POLYLINE
  5
15914
  8
PATH
 66
     1
 10
0.0
 20
0.0
 30
0.0
  0
VERTEX
  5
17E1C
  8
PATH
 10
-624.5859558480005944
 20
163.8955141823315955
 30
0.0
  0
VERTEX
  5
17E1D
  8
PATH
 10
-611.6380826736130985
 20
151.0905809114265139
 30
0.0
  0
SEQEND
  5
17E1E
  8
PATH
  0
POLYLINE
  5
15915
  8
PATH
 66
     1
 10
0.0
 20
0.0
 30
0.0
  0
VERTEX
  5
17E1F
  8
PATH
 10
-619.8179186914494494
 20
133.571608738093289
 30
0.0
  0
VERTEX
  5
17E20
  8
PATH
 10
-611.6380826736130985
 20
151.0905809114265139
 30
0.0
  0
SEQEND
  5
17E21
  8
PATH
  0
POLYLINE
  5
15916
  8
PATH
 66
     1
 10
0.0
 20
0.0
 30
0.0
  0
VERTEX
  5
17E22
  8
PATH
 10
-611.6380826736130985
 20
151.0905809114265139
 30
0.0
  0
VERTEX
  5
17E23
  8
PATH
 10
-550.8256317404592437
 20
112.0628889510916935
 30
0.0
  0
SEQEND
  5
17E24
  8
PATH
  0
POLYLINE
  5
15917
  8
PATH
 66
     1
 10
0.0
 20
0.0
 30
0.0
  0
VERTEX
  5
17E25
  8
PATH
 10
-550.8256317404592437
 20
112.0628889510916935
 30
0.0
  0
VERTEX
  5
17E26
  8
PATH
 10
-556.4902925874483799
 20
100.6836238061587068
 30
0.0
  0
SEQEND
  5
17E27
  8
PATH
  0
POLYLINE
  5
15918
  8
PATH
 66
     1
 10
0.0
 20
0.0
 30
0.0
  0
VERTEX
  5
17E28
  8
PATH
 10
-550.8256317404592437
 20
112.0628889510916935
 30
0.0
  0
VERTEX
  5
17E29
  8
PATH
 10
-528.0481134938454488
 20
97.9681246523323352
 30
0.0
  0
SEQEND
  5
17E2A
  8
PATH
  0
POLYLINE
  5
15919
  8
PATH
 66
     1
 10
0.0
 20
0.0
 30
0.0
  0
VERTEX
  5
17E2B
  8
PATH
 10
-713.483859754589389
 20
139.3244122379036867
 30
0.0
  0
VERTEX
  5
17E2C
  8
PATH
 10
-647.8991934121148688
 20
191.147037647249789
 30
0.0
  0
VERTEX
  5
17E2D
  8
PATH
 10
-641.2036688670195872
 20
191.9247548194180126
 30
0.0
  0
SEQEND
  5
17E2E
  8
PATH
  0
POLYLINE
  5
1591A
  8
PATH
 66
     1
 10
0.0
 20
0.0
 30
0.0
  0
VERTEX
  5
17E2F
  8
PATH
 10
-641.2036688670195872
 20
191.9247548194180126
 30
0.0
  0
VERTEX
  5
17E30
  8
PATH
 10
-642.1384080266143428
 20
179.6918104710566126
 30
0.0
  0
SEQEND
  5
17E31
  8
PATH
  0
POLYLINE
  5
1591B
  8
PATH
 66
     1
 10
0.0
 20
0.0
 30
0.0
  0
VERTEX
  5
17E32
  8
PATH
 10
-641.2036688670195872
 20
191.9247548194180126
 30
0.0
  0
VERTEX
  5
17E33
  8
PATH
 10
-565.8089641662809299
 20
250.9849192295733076
 30
0.0
  0
SEQEND
  5
17E34
  8
PATH
  0
POLYLINE
  5
1591C
  8
PATH
 66
     1
 10
0.0
 20
0.0
 30
0.0
  0
VERTEX
  5
17E35
  8
PATH
 10
-712.3098073750878712
 20
283.450182492429974
 30
0.0
  0
VERTEX
  5
17E36
  8
PATH
 10
-708.9646850634162547
 20
272.7557812096129055
 30
0.0
  0
VERTEX
  5
17E37
  8
PATH
 10
-703.46326311807195
 20
256.2348636179739856
 30
0.0
  0
VERTEX
  5
17E38
  8
PATH
 10
-701.3573834459092495
 20
247.1146949218164082
 30
0.0
  0
VERTEX
  5
17E39
  8
PATH
 10
-700.9881537693581777
 20
240.8513671956534097
 30
0.0
  0
VERTEX
  5
17E3A
  8
PATH
 10
-701.8401608140702592
 20
235.3889490329239038
 30
0.0
  0
VERTEX
  5
17E3B
  8
PATH
 10
-704.9167775889071663
 20
228.8900687532076859
 30
0.0
  0
VERTEX
  5
17E3C
  8
PATH
 10
-710.5209960690845037
 20
221.9589869827541975
 30
0.0
  0
SEQEND
  5
17E3D
  8
PATH
  0
POLYLINE
  5
1591D
  8
PATH
 66
     1
 10
0.0
 20
0.0
 30
0.0
  0
VERTEX
  5
17E3E
  8
PATH
 10
-710.5209960690845037
 20
221.9589869827541975
 30
0.0
  0
VERTEX
  5
17E3F
  8
PATH
 10
-704.8634122170769842
 20
216.5207571564752129
 30
0.0
  0
SEQEND
  5
17E40
  8
PATH
  0
POLYLINE
  5
1591E
  8
PATH
 66
     1
 10
0.0
 20
0.0
 30
0.0
  0
VERTEX
  5
17E41
  8
PATH
 10
-710.5209960690845037
 20
221.9589869827541975
 30
0.0
  0
VERTEX
  5
17E42
  8
PATH
 10
-716.1875515446445206
 20
217.4161116360264998
 30
0.0
  0
VERTEX
  5
17E43
  8
PATH
 10
-721.7917514500586549
 20
215.0702058491806099
 30
0.0
  0
VERTEX
  5
17E44
  8
PATH
 10
-728.3566952210530872
 20
214.1105164159598928
 30
0.0
  0
VERTEX
  5
17E45
  8
PATH
 10
-734.4333263365697348
 20
214.244189208889992
 30
0.0
  0
VERTEX
  5
17E46
  8
PATH
 10
-742.1628351444524014
 20
216.4286978762175124
 30
0.0
  0
VERTEX
  5
17E47
  8
PATH
 10
-767.6638967000908451
 20
233.698601052681596
 30
0.0
  0
SEQEND
  5
17E48
  8
PATH
  0
POLYLINE
  5
1591F
  8
PATH
 66
     1
 10
0.0
 20
0.0
 30
0.0
  0
VERTEX
  5
17E49
  8
PATH
 10
-779.321776934681111
 20
170.7561154789800071
 30
0.0
  0
VERTEX
  5
17E4A
  8
PATH
 10
-751.3652690787712345
 20
192.5007661241616006
 30
0.0
  0
VERTEX
  5
17E4B
  8
PATH
 10
-713.2706779642176116
 20
211.3243334917860921
 30
0.0
  0
VERTEX
  5
17E4C
  8
PATH
 10
-704.8634122170769842
 20
216.5207571564752129
 30
0.0
  0
SEQEND
  5
17E4D
  8
PATH
  0
POLYLINE
  5
15920
  8
PATH
 66
     1
 10
0.0
 20
0.0
 30
0.0
  0
VERTEX
  5
17E4E
  8
PATH
 10
-704.8634122170769842
 20
216.5207571564752129
 30
0.0
  0
VERTEX
  5
17E4F
  8
PATH
 10
-696.1899511537194485
 20
226.2574697994205053
 30
0.0
  0
VERTEX
  5
17E50
  8
PATH
 10
-685.4253773763921345
 20
237.5676364405589993
 30
0.0
  0
VERTEX
  5
17E51
  8
PATH
 10
-670.8252580523985671
 20
262.7189900158481919
 30
0.0
  0
VERTEX
  5
17E52
  8
PATH
 10
-676.2417039799765917
 20
271.4422244797970052
 30
0.0
  0
VERTEX
  5
17E53
  8
PATH
 10
-649.5994553939234493
 20
295.0370165175335728
 30
0.0
  0
VERTEX
  5
17E54
  8
PATH
 10
-643.8467128925402676
 20
310.8260478131051059
 30
0.0
  0
VERTEX
  5
17E55
  8
PATH
 10
-633.9757510790514061
 20
337.4570755623789751
 30
0.0
  0
SEQEND
  5
17E56
  8
PATH
  0
POLYLINE
  5
15921
  8
PATH
 66
     1
 10
0.0
 20
0.0
 30
0.0
  0
VERTEX
  5
17E57
  8
PATH
 10
-800.9241873647114289
 20
194.5786684761332879
 30
0.0
  0
VERTEX
  5
17E58
  8
PATH
 10
-779.321776934681111
 20
170.7561154789800071
 30
0.0
  0
SEQEND
  5
17E59
  8
PATH
  0
POLYLINE
  5
15922
  8
PATH
 66
     1
 10
0.0
 20
0.0
 30
0.0
  0
VERTEX
  5
17E5A
  8
PATH
 10
-779.321776934681111
 20
170.7561154789800071
 30
0.0
  0
VERTEX
  5
17E5B
  8
PATH
 10
-737.3694062498542507
 20
120.5082933861339995
 30
0.0
  0
SEQEND
  5
17E5C
  8
PATH
  0
POLYLINE
  5
15923
  8
PATH
 66
     1
 10
0.0
 20
0.0
 30
0.0
  0
VERTEX
  5
17E5D
  8
PATH
 10
-517.1470591702527599
 20
427.7151880874807262
 30
0.0
  0
VERTEX
  5
17E5E
  8
PATH
 10
-503.6586302219220102
 20
405.1658645598727162
 30
0.0
  0
SEQEND
  5
17E5F
  8
PATH
  0
POLYLINE
  5
15924
  8
PATH
 66
     1
 10
0.0
 20
0.0
 30
0.0
  0
VERTEX
  5
17E60
  8
PATH
 10
-503.6586302219220102
 20
405.1658645598727162
 30
0.0
  0
VERTEX
  5
17E61
  8
PATH
 10
-513.1352094825850827
 20
397.7801763979296084
 30
0.0
  0
SEQEND
  5
17E62
  8
PATH
  0
POLYLINE
  5
15925
  8
PATH
 66
     1
 10
0.0
 20
0.0
 30
0.0
  0
VERTEX
  5
17E63
  8
PATH
 10
-513.1352094825850827
 20
397.7801763979296084
 30
0.0
  0
VERTEX
  5
17E64
  8
PATH
 10
-476.0311190473294118
 20
339.0806113370272215
 30
0.0
  0
VERTEX
  5
17E65
  8
PATH
 10
-481.6412628855467801
 20
334.5496178446846898
 30
0.0
  0
SEQEND
  5
17E66
  8
PATH
  0
POLYLINE
  5
15926
  8
PATH
 66
     1
 10
0.0
 20
0.0
 30
0.0
  0
VERTEX
  5
17E67
  8
PATH
 10
-481.6412628855467801
 20
334.5496178446846898
 30
0.0
  0
VERTEX
  5
17E68
  8
PATH
 10
-481.6412628855467801
 20
334.5496178446846898
 30
0.0
  0
VERTEX
  5
17E69
  8
PATH
 10
-473.2194716525992249
 20
322.7779812850566827
 30
0.0
  0
SEQEND
  5
17E6A
  8
PATH
  0
POLYLINE
  5
15927
  8
PATH
 66
     1
 10
0.0
 20
0.0
 30
0.0
  0
VERTEX
  5
17E6B
  8
PATH
 10
-473.2194716525992249
 20
322.7779812850566827
 30
0.0
  0
VERTEX
  5
17E6C
  8
PATH
 10
-467.7875998182134936
 20
326.6641096380117233
 30
0.0
  0
VERTEX
  5
17E6D
  8
PATH
 10
-464.9296543029049076
 20
332.2286647242071922
 30
0.0
  0
VERTEX
  5
17E6E
  8
PATH
 10
-464.1425661493703956
 20
338.5424768208104069
 30
0.0
  0
VERTEX
  5
17E6F
  8
PATH
 10
-464.8235736769419759
 20
343.6444864520381088
 30
0.0
  0
VERTEX
  5
17E70
  8
PATH
 10
-467.077290103028588
 20
347.623988957660913
 30
0.0
  0
VERTEX
  5
17E71
  8
PATH
 10
-503.6586302219220102
 20
405.1658645598727162
 30
0.0
  0
SEQEND
  5
17E72
  8
PATH
  0
POLYLINE
  5
15928
  8
PATH
 66
     1
 10
0.0
 20
0.0
 30
0.0
  0
VERTEX
  5
17E73
  8
PATH
 10
-513.1352094825850827
 20
397.7801763979296084
 30
0.0
  0
VERTEX
  5
17E74
  8
PATH
 10
-560.7950559054296491
 20
365.0966303912500734
 30
0.0
  0
VERTEX
  5
17E75
  8
PATH
 10
-567.1209978529514046
 20
364.6629620045932825
 30
0.0
  0
SEQEND
  5
17E76
  8
PATH
  0
POLYLINE
  5
15929
  8
PATH
 66
     1
 10
0.0
 20
0.0
 30
0.0
  0
VERTEX
  5
17E77
  8
PATH
 10
-567.1209978529514046
 20
364.6629620045932825
 30
0.0
  0
VERTEX
  5
17E78
  8
PATH
 10
-567.1209978529514046
 20
364.6629620045932825
 30
0.0
  0
VERTEX
  5
17E79
  8
PATH
 10
-563.8552897154148695
 20
359.2418948575431727
 30
0.0
  0
VERTEX
  5
17E7A
  8
PATH
 10
-521.3589005796966376
 20
305.7266399916770752
 30
0.0
  0
SEQEND
  5
17E7B
  8
PATH
  0
POLYLINE
  5
1592A
  8
PATH
 66
     1
 10
0.0
 20
0.0
 30
0.0
  0
VERTEX
  5
17E7C
  8
PATH
 10
-521.3589005796966376
 20
305.7266399916770752
 30
0.0
  0
VERTEX
  5
17E7D
  8
PATH
 10
-481.6412628855467801
 20
334.5496178446846898
 30
0.0
  0
SEQEND
  5
17E7E
  8
PATH
  0
POLYLINE
  5
1592B
  8
PATH
 66
     1
 10
0.0
 20
0.0
 30
0.0
  0
VERTEX
  5
17E7F
  8
PATH
 10
-521.3589005796966376
 20
305.7266399916770752
 30
0.0
  0
VERTEX
  5
17E80
  8
PATH
 10
-511.1198239559453214
 20
292.8326787339101998
 30
0.0
  0
SEQEND
  5
17E81
  8
PATH
  0
POLYLINE
  5
1592C
  8
PATH
 66
     1
 10
0.0
 20
0.0
 30
0.0
  0
VERTEX
  5
17E82
  8
PATH
 10
-511.1198239559453214
 20
292.8326787339101998
 30
0.0
  0
VERTEX
  5
17E83
  8
PATH
 10
-473.2194716525992249
 20
322.7779812850566827
 30
0.0
  0
SEQEND
  5
17E84
  8
PATH
  0
POLYLINE
  5
1592D
  8
PATH
 66
     1
 10
0.0
 20
0.0
 30
0.0
  0
VERTEX
  5
17E85
  8
PATH
 10
-511.1198239559453214
 20
292.8326787339101998
 30
0.0
  0
VERTEX
  5
17E86
  8
PATH
 10
-557.990280695448746
 20
254.6344248275781865
 30
0.0
  0
VERTEX
  5
17E87
  8
PATH
 10
-565.8089641663391376
 20
250.9849192295733076
 30
0.0
  0
SEQEND
  5
17E88
  8
PATH
  0
POLYLINE
  5
1592E
  8
PATH
 66
     1
 10
0.0
 20
0.0
 30
0.0
  0
VERTEX
  5
17E89
  8
PATH
 10
-618.4407480533844819
 20
317.750334624251991
 30
0.0
  0
VERTEX
  5
17E8A
  8
PATH
 10
-605.5366356386366533
 20
327.1251804768617149
 30
0.0
  0
VERTEX
  5
17E8B
  8
PATH
 10
-573.0794004297495121
 20
351.8717943910086774
 30
0.0
  0
SEQEND
  5
17E8C
  8
PATH
  0
POLYLINE
  5
1592F
  8
PATH
 66
     1
 10
0.0
 20
0.0
 30
0.0
  0
VERTEX
  5
17E8D
  8
PATH
 10
-590.2434446374098798
 20
372.9997840081850882
 30
0.0
  0
VERTEX
  5
17E8E
  8
PATH
 10
-573.0794004297495121
 20
351.8717943910086774
 30
0.0
  0
SEQEND
  5
17E8F
  8
PATH
  0
POLYLINE
  5
15930
  8
PATH
 66
     1
 10
0.0
 20
0.0
 30
0.0
  0
VERTEX
  5
17E90
  8
PATH
 10
-590.2434446374098798
 20
372.9997840081850882
 30
0.0
  0
VERTEX
  5
17E91
  8
PATH
 10
-577.396704681115807
 20
370.5403901413592962
 30
0.0
  0
VERTEX
  5
17E92
  8
PATH
 10
-567.1209978529514046
 20
364.6629620045932825
 30
0.0
  0
SEQEND
  5
17E93
  8
PATH
  0
POLYLINE
  5
15931
  8
PATH
 66
     1
 10
0.0
 20
0.0
 30
0.0
  0
VERTEX
  5
17E94
  8
PATH
 10
-573.0794004297495121
 20
351.8717943910086774
 30
0.0
  0
VERTEX
  5
17E95
  8
PATH
 10
-535.1691455316758947
 20
302.6902587190779741
 30
0.0
  0
VERTEX
  5
17E96
  8
PATH
 10
-537.1343211691854549
 20
290.0481045386331971
 30
0.0
  0
VERTEX
  5
17E97
  8
PATH
 10
-566.2956521111335633
 20
265.4073266136038001
 30
0.0
  0
VERTEX
  5
17E98
  8
PATH
 10
-569.3897970085527049
 20
262.6114511262202882
 30
0.0
  0
VERTEX
  5
17E99
  8
PATH
 10
-565.8089641662227223
 20
250.9849192295733076
 30
0.0
  0
SEQEND
  5
17E9A
  8
PATH
  0
POLYLINE
  5
15932
  8
PATH
 66
     1
 10
0.0
 20
0.0
 30
0.0
  0
VERTEX
  5
17E9B
  8
PATH
 10
-481.4942343202565098
 20
316.2400401696140761
 30
0.0
  0
VERTEX
  5
17E9C
  8
PATH
 10
-408.5367317237686962
 20
223.7694573160769949
 30
0.0
  0
SEQEND
  5
17E9D
  8
PATH
  0
POLYLINE
  5
15933
  8
PATH
 66
     1
 10
0.0
 20
0.0
 30
0.0
  0
VERTEX
  5
17E9E
  8
PATH
 10
-445.8823795170901008
 20
356.2828430072913761
 30
0.0
  0
VERTEX
  5
17E9F
  8
PATH
 10
-386.7915866536350222
 20
399.6581509779716725
 30
0.0
  0
SEQEND
  5
17EA0
  8
PATH
  0
POLYLINE
  5
15934
  8
PATH
 66
     1
 10
0.0
 20
0.0
 30
0.0
  0
VERTEX
  5
17EA1
  8
PATH
 10
-316.4448742550594034
 20
291.0254157907838817
 30
0.0
  0
VERTEX
  5
17EA2
  8
PATH
 10
-309.6362263956252718
 20
262.3353455542164738
 30
0.0
  0
SEQEND
  5
17EA3
  8
PATH
  0
POLYLINE
  5
15935
  8
PATH
 66
     1
 10
0.0
 20
0.0
 30
0.0
  0
VERTEX
  5
17EA4
  8
PATH
 10
-302.7592218416539254
 20
297.7340694559316034
 30
0.0
  0
VERTEX
  5
17EA5
  8
PATH
 10
-268.0331834106037263
 20
254.3210126325066085
 30
0.0
  0
VERTEX
  5
17EA6
  8
PATH
 10
-250.0083324121806072
 20
221.7394821700218017
 30
0.0
  0
SEQEND
  5
17EA7
  8
PATH
  0
POLYLINE
  5
15936
  8
PATH
 66
     1
 10
0.0
 20
0.0
 30
0.0
  0
VERTEX
  5
17EA8
  8
PATH
 10
-250.0083324121806072
 20
221.7394821700218017
 30
0.0
  0
VERTEX
  5
17EA9
  8
PATH
 10
-225.0840171177551099
 20
182.965626644021512
 30
0.0
  0
SEQEND
  5
17EAA
  8
PATH
  0
POLYLINE
  5
15937
  8
PATH
 66
     1
 10
0.0
 20
0.0
 30
0.0
  0
VERTEX
  5
17EAB
  8
PATH
 10
-201.6713441077299933
 20
94.2302699182691867
 30
0.0
  0
VERTEX
  5
17EAC
  8
PATH
 10
-178.1607854688917882
 20
106.9665044444191011
 30
0.0
  0
SEQEND
  5
17EAD
  8
PATH
  0
POLYLINE
  5
15938
  8
PATH
 66
     1
 10
0.0
 20
0.0
 30
0.0
  0
VERTEX
  5
17EAE
  8
PATH
 10
-201.6713441077299933
 20
94.2302699182691867
 30
0.0
  0
VERTEX
  5
17EAF
  8
PATH
 10
-186.3176667960505881
 20
81.9849896217274363
 30
0.0
  0
VERTEX
  5
17EB0
  8
PATH
 10
-170.4251878797221877
 20
49.4169732253576512
 30
0.0
  0
VERTEX
  5
17EB1
  8
PATH
 10
-151.4707105483539067
 20
8.5936003015885944
 30
0.0
  0
VERTEX
  5
17EB2
  8
PATH
 10
-138.6410659125685925
 20
-22.5371440527451306
 30
0.0
  0
VERTEX
  5
17EB3
  8
PATH
 10
-115.4204608264989957
 20
-87.8933115540494185
 30
0.0
  0
VERTEX
  5
17EB4
  8
PATH
 10
-105.2346589322114028
 20
-94.7758545209144359
 30
0.0
  0
SEQEND
  5
17EB5
  8
PATH
  0
POLYLINE
  5
15939
  8
PATH
 66
     1
 10
0.0
 20
0.0
 30
0.0
  0
VERTEX
  5
17EB6
  8
PATH
 10
-96.3274411396851065
 20
-130.932672294271498
 30
0.0
  0
VERTEX
  5
17EB7
  8
PATH
 10
-104.0153450860671001
 20
-143.0878701023248141
 30
0.0
  0
VERTEX
  5
17EB8
  8
PATH
 10
-84.5176562489505159
 20
-222.7425805008460884
 30
0.0
  0
VERTEX
  5
17EB9
  8
PATH
 10
-78.9192334260005737
 20
-276.8492628414605861
 30
0.0
  0
SEQEND
  5
17EBA
  8
PATH
  0
POLYLINE
  5
1593A
  8
PATH
 66
     1
 10
0.0
 20
0.0
 30
0.0
  0
VERTEX
  5
17EBB
  8
PATH
 10
1.7208873628260331
 20
-31.581738261920691
 30
0.0
  0
VERTEX
  5
17EBC
  8
PATH
 10
-44.1601184174214723
 20
-65.0151910744098132
 30
0.0
  0
SEQEND
  5
17EBD
  8
PATH
  0
POLYLINE
  5
1593B
  8
PATH
 66
     1
 10
0.0
 20
0.0
 30
0.0
  0
VERTEX
  5
17EBE
  8
PATH
 10
-44.1601184174214723
 20
-65.0151910744098132
 30
0.0
  0
VERTEX
  5
17EBF
  8
PATH
 10
-81.0736011302360566
 20
-91.9140168833037166
 30
0.0
  0
VERTEX
  5
17EC0
  8
PATH
 10
-87.0247215078707086
 20
-106.0678878095422988
 30
0.0
  0
SEQEND
  5
17EC1
  8
PATH
  0
POLYLINE
  5
1593C
  8
PATH
 66
     1
 10
0.0
 20
0.0
 30
0.0
  0
VERTEX
  5
17EC2
  8
PATH
 10
-125.1630551324488039
 20
-3.7377726155755222
 30
0.0
  0
VERTEX
  5
17EC3
  8
PATH
 10
-110.0122621056653003
 20
-45.6718095396136121
 30
0.0
  0
SEQEND
  5
17EC4
  8
PATH
  0
POLYLINE
  5
1593D
  8
PATH
 66
     1
 10
0.0
 20
0.0
 30
0.0
  0
VERTEX
  5
17EC5
  8
PATH
 10
-110.0122621056653003
 20
-45.6718095396136121
 30
0.0
  0
VERTEX
  5
17EC6
  8
PATH
 10
-103.1518305745702975
 20
-62.8440461926584177
 30
0.0
  0
SEQEND
  5
17EC7
  8
PATH
  0
POLYLINE
  5
1593E
  8
PATH
 66
     1
 10
0.0
 20
0.0
 30
0.0
  0
VERTEX
  5
17EC8
  8
PATH
 10
-103.1518305745702975
 20
-62.8440461926584177
 30
0.0
  0
VERTEX
  5
17EC9
  8
PATH
 10
-105.2346589322114028
 20
-94.7758545209144359
 30
0.0
  0
SEQEND
  5
17ECA
  8
PATH
  0
POLYLINE
  5
1593F
  8
PATH
 66
     1
 10
0.0
 20
0.0
 30
0.0
  0
VERTEX
  5
17ECB
  8
PATH
 10
-201.6713441077299933
 20
94.2302699182691867
 30
0.0
  0
VERTEX
  5
17ECC
  8
PATH
 10
-201.5283394688885892
 20
75.582715998920321
 30
0.0
  0
VERTEX
  5
17ECD
  8
PATH
 10
-166.3409816187486001
 20
-0.9782023922962252
 30
0.0
  0
VERTEX
  5
17ECE
  8
PATH
 10
-151.3731000266415947
 20
-35.2615910772656207
 30
0.0
  0
VERTEX
  5
17ECF
  8
PATH
 10
-137.1909692030895087
 20
-56.7619032361035281
 30
0.0
  0
VERTEX
  5
17ED0
  8
PATH
 10
-126.1698775751429054
 20
-91.6470974273470347
 30
0.0
  0
VERTEX
  5
17ED1
  8
PATH
 10
-105.2346589322114028
 20
-94.7758545209144359
 30
0.0
  0
SEQEND
  5
17ED2
  8
PATH
  0
POLYLINE
  5
15940
  8
PATH
 66
     1
 10
0.0
 20
0.0
 30
0.0
  0
VERTEX
  5
17ED3
  8
PATH
 10
-105.2346589322114028
 20
-94.7758545209144359
 30
0.0
  0
VERTEX
  5
17ED4
  8
PATH
 10
-101.2252125471276969
 20
-111.9810671731320042
 30
0.0
  0
SEQEND
  5
17ED5
  8
PATH
  0
POLYLINE
  5
15941
  8
PATH
 66
     1
 10
0.0
 20
0.0
 30
0.0
  0
VERTEX
  5
17ED6
  8
PATH
 10
-114.4263886108674058
 20
-118.2296175606969939
 30
0.0
  0
VERTEX
  5
17ED7
  8
PATH
 10
-101.2252125471276969
 20
-111.9810671731320042
 30
0.0
  0
SEQEND
  5
17ED8
  8
PATH
  0
POLYLINE
  5
15942
  8
PATH
 66
     1
 10
0.0
 20
0.0
 30
0.0
  0
VERTEX
  5
17ED9
  8
PATH
 10
-101.2252125471276969
 20
-111.9810671731320042
 30
0.0
  0
VERTEX
  5
17EDA
  8
PATH
 10
-96.3274411396851065
 20
-130.932672294271498
 30
0.0
  0
SEQEND
  5
17EDB
  8
PATH
  0
POLYLINE
  5
15943
  8
PATH
 66
     1
 10
0.0
 20
0.0
 30
0.0
  0
VERTEX
  5
17EDC
  8
PATH
 10
-101.2252125471276969
 20
-111.9810671731320042
 30
0.0
  0
VERTEX
  5
17EDD
  8
PATH
 10
-87.0247215078707086
 20
-106.0678878095422988
 30
0.0
  0
SEQEND
  5
17EDE
  8
PATH
  0
ENDSEC
  0
EOF
