  0
SECTION
  2
HEADER
  9
$ACADVER
  1
AC1009
  9
$INSBASE
 10
0.0
 20
0.0
 30
0.0
  9
$EXTMIN
 10
-1529.094805332606029
 20
-1182.8582295371379587
 30
0.0
  9
$EXTMAX
 10
4335.9197570124033518
 20
871.8574689974229841
 30
0.0
  9
$LIMMIN
 10
0.0
 20
0.0
  9
$LIMMAX
 10
420.0
 20
297.0
  9
$ORTHOMODE
 70
     0
  9
$REGENMODE
 70
     1
  9
$FILLMODE
 70
     1
  9
$QTEXTMODE
 70
     0
  9
$MIRRTEXT
 70
     0
  9
$DRAGMODE
 70
     2
  9
$LTSCALE
 40
1.0
  9
$OSMODE
 70
    63
  9
$ATTMODE
 70
     1
  9
$TEXTSIZE
 40
2.5
  9
$TRACEWID
 40
1.0
  9
$TEXTSTYLE
  7
STANDARD
  9
$CLAYER
  8
PATH
  9
$CELTYPE
  6
BYLAYER
  9
$CECOLOR
 62
   256
  9
$DIMSCALE
 40
1.0
  9
$DIMASZ
 40
2.5
  9
$DIMEXO
 40
0.625
  9
$DIMDLI
 40
3.75
  9
$DIMRND
 40
0.0
  9
$DIMDLE
 40
0.0
  9
$DIMEXE
 40
1.25
  9
$DIMTP
 40
0.0
  9
$DIMTM
 40
0.0
  9
$DIMTXT
 40
2.5
  9
$DIMCEN
 40
2.5
  9
$DIMTSZ
 40
0.0
  9
$DIMTOL
 70
     0
  9
$DIMLIM
 70
     0
  9
$DIMTIH
 70
     0
  9
$DIMTOH
 70
     0
  9
$DIMSE1
 70
     0
  9
$DIMSE2
 70
     0
  9
$DIMTAD
 70
     1
  9
$DIMZIN
 70
     8
  9
$DIMBLK
  1

  9
$DIMASO
 70
     1
  9
$DIMSHO
 70
     1
  9
$DIMPOST
  1

  9
$DIMAPOST
  1

  9
$DIMALT
 70
     0
  9
$DIMALTD
 70
     3
  9
$DIMALTF
 40
0.03937007874016
  9
$DIMLFAC
 40
1.0
  9
$DIMTOFL
 70
     1
  9
$DIMTVP
 40
0.0
  9
$DIMTIX
 70
     0
  9
$DIMSOXD
 70
     0
  9
$DIMSAH
 70
     0
  9
$DIMBLK1
  1

  9
$DIMBLK2
  1

  9
$DIMSTYLE
  2
ISO-25
  9
$DIMCLRD
 70
     0
  9
$DIMCLRE
 70
     0
  9
$DIMCLRT
 70
     0
  9
$DIMTFAC
 40
1.0
  9
$DIMGAP
 40
0.625
  9
$LUNITS
 70
     2
  9
$LUPREC
 70
     4
  9
$SKETCHINC
 40
1.0
  9
$FILLETRAD
 40
1.0
  9
$AUNITS
 70
     0
  9
$AUPREC
 70
     0
  9
$MENU
  1
.
  9
$ELEVATION
 40
0.0
  9
$PELEVATION
 40
0.0
  9
$THICKNESS
 40
0.0
  9
$LIMCHECK
 70
     0
  9
$BLIPMODE
 70
     0
  9
$CHAMFERA
 40
0.0
  9
$CHAMFERB
 40
0.0
  9
$SKPOLY
 70
     0
  9
$TDCREATE
 40
2459128.9035069448873401
  9
$TDUPDATE
 40
2459144.4168518520891666
  9
$TDINDWG
 40
1.5414823727
  9
$TDUSRTIMER
 40
1.5414823727
  9
$USRTIMER
 70
     1
  9
$ANGBASE
 50
0.0
  9
$ANGDIR
 70
     0
  9
$PDMODE
 70
     0
  9
$PDSIZE
 40
0.0
  9
$PLINEWID
 40
0.0
  9
$COORDS
 70
     1
  9
$SPLFRAME
 70
     0
  9
$SPLINETYPE
 70
     6
  9
$SPLINESEGS
 70
     8
  9
$ATTDIA
 70
     1
  9
$ATTREQ
 70
     1
  9
$HANDLING
 70
     1
  9
$HANDSEED
  5
1F927
  9
$SURFTAB1
 70
     6
  9
$SURFTAB2
 70
     6
  9
$SURFTYPE
 70
     6
  9
$SURFU
 70
     6
  9
$SURFV
 70
     6
  9
$UCSNAME
  2

  9
$UCSORG
 10
0.0
 20
0.0
 30
0.0
  9
$UCSXDIR
 10
1.0
 20
0.0
 30
0.0
  9
$UCSYDIR
 10
0.0
 20
1.0
 30
0.0
  9
$PUCSNAME
  2

  9
$PUCSORG
 10
0.0
 20
0.0
 30
0.0
  9
$PUCSXDIR
 10
1.0
 20
0.0
 30
0.0
  9
$PUCSYDIR
 10
0.0
 20
1.0
 30
0.0
  9
$USERI1
 70
     0
  9
$USERI2
 70
     0
  9
$USERI3
 70
     0
  9
$USERI4
 70
     0
  9
$USERI5
 70
     0
  9
$USERR1
 40
0.0
  9
$USERR2
 40
0.0
  9
$USERR3
 40
0.0
  9
$USERR4
 40
0.0
  9
$USERR5
 40
0.0
  9
$WORLDVIEW
 70
     1
  9
$SHADEDGE
 70
     3
  9
$SHADEDIF
 70
    70
  9
$TILEMODE
 70
     1
  9
$MAXACTVP
 70
    64
  9
$PLIMCHECK
 70
     0
  9
$PEXTMIN
 10
0.0
 20
0.0
 30
0.0
  9
$PEXTMAX
 10
0.0
 20
0.0
 30
0.0
  9
$PLIMMIN
 10
0.0
 20
0.0
  9
$PLIMMAX
 10
12.0
 20
9.0
  9
$UNITMODE
 70
     0
  9
$VISRETAIN
 70
     1
  9
$PLINEGEN
 70
     0
  9
$PSLTSCALE
 70
     1
  0
ENDSEC
  0
SECTION
  2
TABLES
  0
TABLE
  2
VPORT
 70
     1
  0
VPORT
  2
*ACTIVE
 70
     0
 10
0.0
 20
0.0
 11
1.0
 21
1.0
 12
-49.6390410937665294
 22
53.9839554569093423
 13
0.0
 23
0.0
 14
10.0
 24
10.0
 15
10.0
 25
10.0
 16
0.0
 26
0.0
 36
1.0
 17
0.0
 27
0.0
 37
0.0
 40
246.0609774198373998
 41
2.2669039145907468
 42
50.0
 43
0.0
 44
0.0
 50
0.0
 51
0.0
 71
     0
 72
  1000
 73
     1
 74
     3
 75
     0
 76
     0
 77
     0
 78
     0
  0
ENDTAB
  0
TABLE
  2
LTYPE
 70
     1
  0
LTYPE
  2
CONTINUOUS
 70
     0
  3
Solid line
 72
    65
 73
     0
 40
0.0
  0
ENDTAB
  0
TABLE
  2
LAYER
 70
    11
  0
LAYER
  2
0
 70
     0
 62
     7
  6
CONTINUOUS
  0
LAYER
  2
PATH
 70
     0
 62
    40
  6
CONTINUOUS
  0
LAYER
  2
BUILDING
 70
     2
 62
     1
  6
CONTINUOUS
  0
LAYER
  2
DINING
 70
     2
 62
    81
  6
CONTINUOUS
  0
LAYER
  2
BOUNDARY
 70
     2
 62
     6
  6
CONTINUOUS
  0
LAYER
  2
NAME
 70
     0
 62
     7
  6
CONTINUOUS
  0
ENDTAB
  0
TABLE
  2
STYLE
 70
     2
  0
STYLE
  2
STANDARD
 70
     0
 40
0.0
 41
1.0
 50
0.0
 71
     0
 42
2.5
  3
txt
  4

  0
ENDTAB
  0
TABLE
  2
VIEW
 70
     0
  0
ENDTAB
  0
TABLE
  2
UCS
 70
     0
  0
ENDTAB
  0
TABLE
  2
APPID
 70
    13
  0
APPID
  2
ACAD
 70
     0
  0
APPID
  2
ACADANNOTATIVE
 70
     0
  0
APPID
  2
ACAD_PSEXT
 70
     0
  0
APPID
  2
ACADANNOPO
 70
     0
  0
APPID
  2
ACAD_DSTYLE_DIMJAG
 70
     0
  0
APPID
  2
ACAD_DSTYLE_DIMTALN
 70
     0
  0
APPID
  2
ACAD_MLEADERVER
 70
     0
  0
APPID
  2
ACAD_NAV_VCDISPLAY
 70
     0
  0
APPID
  2
ACLAYERTOOLS
 70
     0
  0
APPID
  2
ACAECLAYERSTANDARD
 70
     0
  0
APPID
  2
ACCMTRANSPARENCY
 70
     0
  0
APPID
  2
ACAD_EXEMPT_FROM_CAD_STANDARDS
 70
     0
  0
APPID
  2
ACAD_OBJECT_CHANGE_GUID
 70
     0
  0
ENDTAB
  0
TABLE
  2
DIMSTYLE
 70
     3
  0
DIMSTYLE
  2
STANDARD
 70
     0
  3

  4

  5

  6

  7

 40
1.0
 41
0.18
 42
0.0625
 43
0.38
 44
0.18
 45
0.0
 46
0.0
 47
0.0
 48
0.0
140
0.18
141
0.09
142
0.0
143
25.3999999999999986
144
1.0
145
0.0
146
1.0
147
0.09
 71
     0
 72
     0
 73
     1
 74
     1
 75
     0
 76
     0
 77
     0
 78
     0
170
     0
171
     2
172
     0
173
     0
174
     0
175
     0
176
     0
177
     0
178
     0
  0
DIMSTYLE
  2
ISO-25
 70
     0
  3

  4

  5

  6

  7

 40
1.0
 41
2.5
 42
0.625
 43
3.75
 44
1.25
 45
0.0
 46
0.0
 47
0.0
 48
0.0
140
2.5
141
2.5
142
0.0
143
0.03937007874016
144
1.0
145
0.0
146
1.0
147
0.625
 71
     0
 72
     0
 73
     0
 74
     0
 75
     0
 76
     0
 77
     1
 78
     8
170
     0
171
     3
172
     1
173
     0
174
     0
175
     0
176
     0
177
     0
178
     0
  0
ENDTAB
  0
ENDSEC
  0
SECTION
  2
BLOCKS
  0
BLOCK
  8
0
  2
$MODEL_SPACE
 70
     0
 10
0.0
 20
0.0
 30
0.0
  3
$MODEL_SPACE
  1

  0
ENDBLK
  5
17F4F
  8
0
  0
BLOCK
 67
     1
  8
0
  2
$PAPER_SPACE
 70
     0
 10
0.0
 20
0.0
 30
0.0
  3
$PAPER_SPACE
  1

  0
ENDBLK
  5
17F4B
 67
     1
  8
0
  0
ENDSEC
  0
SECTION
  2
ENTITIES
  0
POLYLINE
  5
13563
  8
BOUNDARY
 66
     1
 10
0.0
 20
0.0
 30
0.0
 70
     1
  0
VERTEX
  5
1ECB3
  8
BOUNDARY
 10
900.3295007395136054
 20
807.4465786644792615
 30
0.0
  0
VERTEX
  5
1ECB4
  8
BOUNDARY
 10
-269.2260674206045223
 20
798.4202660837364647
 30
0.0
  0
VERTEX
  5
1ECB5
  8
BOUNDARY
 10
-1529.094805332606029
 20
220.7354167753692025
 30
0.0
  0
VERTEX
  5
1ECB6
  8
BOUNDARY
 10
-1384.5937072320809875
 20
-316.3309555745872785
 30
0.0
  0
VERTEX
  5
1ECB7
  8
BOUNDARY
 10
-413.7271323992536054
 20
-1182.8582295371379587
 30
0.0
  0
VERTEX
  5
1ECB8
  8
BOUNDARY
 10
995.1583422277471982
 20
-1061.0028267999330183
 30
0.0
  0
VERTEX
  5
1ECB9
  8
BOUNDARY
 10
995.1583422277471982
 20
-235.0940297957932046
 30
0.0
  0
SEQEND
  5
1ECBA
  8
BOUNDARY
  0
POLYLINE
  5
157E4
  8
PATH
 66
     1
 10
0.0
 20
0.0
 30
0.0
  0
VERTEX
  5
1ECBB
  8
PATH
 10
-1203.572389566586935
 20
304.1892388365741908
 30
0.0
  0
VERTEX
  5
1ECBC
  8
PATH
 10
-1298.6410415995781023
 20
221.5982035776177952
 30
0.0
  0
VERTEX
  5
1ECBD
  8
PATH
 10
-1321.0472636493070695
 20
194.2776579629208129
 30
0.0
  0
VERTEX
  5
1ECBE
  8
PATH
 10
-1344.6316909224399296
 20
85.293203965811685
 30
0.0
  0
SEQEND
  5
1ECBF
  8
PATH
  0
POLYLINE
  5
157E5
  8
PATH
 66
     1
 10
0.0
 20
0.0
 30
0.0
  0
VERTEX
  5
1ECC0
  8
PATH
 10
-1344.6316909224399296
 20
85.293203965811685
 30
0.0
  0
VERTEX
  5
1ECC1
  8
PATH
 10
-1346.7335042688789599
 20
79.1967595411042566
 30
0.0
  0
VERTEX
  5
1ECC2
  8
PATH
 10
-1346.599148941473004
 20
65.5482404777358312
 30
0.0
  0
VERTEX
  5
1ECC3
  8
PATH
 10
-1343.7458200527619283
 20
45.0492157787593825
 30
0.0
  0
VERTEX
  5
1ECC4
  8
PATH
 10
-1340.3514477919229648
 20
27.0879959739322693
 30
0.0
  0
VERTEX
  5
1ECC5
  8
PATH
 10
-1333.2135935311230241
 20
7.6351474039765881
 30
0.0
  0
VERTEX
  5
1ECC6
  8
PATH
 10
-1324.351150340705999
 20
-19.8768754233096807
 30
0.0
  0
SEQEND
  5
1ECC7
  8
PATH
  0
POLYLINE
  5
157E6
  8
PATH
 66
     1
 10
0.0
 20
0.0
 30
0.0
  0
VERTEX
  5
1ECC8
  8
PATH
 10
-1324.3511503406480188
 20
-19.8768754233096807
 30
0.0
  0
VERTEX
  5
1ECC9
  8
PATH
 10
-1311.9633625769779428
 20
-58.3327608275649183
 30
0.0
  0
VERTEX
  5
1ECCA
  8
PATH
 10
-1294.0935509134581025
 20
-106.0909415296701042
 30
0.0
  0
VERTEX
  5
1ECCB
  8
PATH
 10
-1283.3244985936460125
 20
-127.7781786368649932
 30
0.0
  0
VERTEX
  5
1ECCC
  8
PATH
 10
-1263.5852208709839033
 20
-140.6438500410368135
 30
0.0
  0
VERTEX
  5
1ECCD
  8
PATH
 10
-1248.8857488666110385
 20
-135.8891416200858089
 30
0.0
  0
VERTEX
  5
1ECCE
  8
PATH
 10
-1155.8879250841130215
 20
-89.567835207977609
 30
0.0
  0
SEQEND
  5
1ECCF
  8
PATH
  0
POLYLINE
  5
157E7
  8
PATH
 66
     1
 10
0.0
 20
0.0
 30
0.0
  0
VERTEX
  5
1ECD0
  8
PATH
 10
-1155.8879250843449427
 20
-89.5678352075119619
 30
0.0
  0
VERTEX
  5
1ECD1
  8
PATH
 10
-1018.3621790538450114
 20
-21.0676062516358797
 30
0.0
  0
VERTEX
  5
1ECD2
  8
PATH
 10
-951.0552095162124715
 20
11.7381519396367207
 30
0.0
  0
VERTEX
  5
1ECD3
  8
PATH
 10
-920.1628159382527201
 20
21.7436300511981315
 30
0.0
  0
VERTEX
  5
1ECD4
  8
PATH
 10
-892.9512276995374123
 20
30.3819882264870103
 30
0.0
  0
SEQEND
  5
1ECD5
  8
PATH
  0
POLYLINE
  5
157E8
  8
PATH
 66
     1
 10
0.0
 20
0.0
 30
0.0
  0
VERTEX
  5
1ECD6
  8
PATH
 10
-892.9512276994789772
 20
30.3819882264870103
 30
0.0
  0
VERTEX
  5
1ECD7
  8
PATH
 10
-868.0107347895536805
 20
22.6910301223906608
 30
0.0
  0
SEQEND
  5
1ECD8
  8
PATH
  0
POLYLINE
  5
157E9
  8
PATH
 66
     1
 10
0.0
 20
0.0
 30
0.0
  0
VERTEX
  5
1ECD9
  8
PATH
 10
-868.0107347895536805
 20
22.6910301223906608
 30
0.0
  0
VERTEX
  5
1ECDA
  8
PATH
 10
-868.5211958201980451
 20
-124.1155212623489064
 30
0.0
  0
VERTEX
  5
1ECDB
  8
PATH
 10
-868.0567645472037839
 20
-139.3649947270241114
 30
0.0
  0
SEQEND
  5
1ECDC
  8
PATH
  0
POLYLINE
  5
157EA
  8
PATH
 66
     1
 10
0.0
 20
0.0
 30
0.0
  0
VERTEX
  5
1ECDD
  8
PATH
 10
-868.0567645472037839
 20
-139.3649947270241114
 30
0.0
  0
VERTEX
  5
1ECDE
  8
PATH
 10
-866.1478883620728766
 20
-202.0424207024697978
 30
0.0
  0
VERTEX
  5
1ECDF
  8
PATH
 10
-863.5917291914373664
 20
-229.509736312502298
 30
0.0
  0
VERTEX
  5
1ECE0
  8
PATH
 10
-858.245105990048728
 20
-251.6552631277081957
 30
0.0
  0
SEQEND
  5
1ECE1
  8
PATH
  0
POLYLINE
  5
157EB
  8
PATH
 66
     1
 10
0.0
 20
0.0
 30
0.0
  0
VERTEX
  5
1ECE2
  8
PATH
 10
-858.245105990048728
 20
-251.6552631277081957
 30
0.0
  0
VERTEX
  5
1ECE3
  8
PATH
 10
-851.0202457347329528
 20
-281.5803823093374945
 30
0.0
  0
VERTEX
  5
1ECE4
  8
PATH
 10
-837.2239322810926296
 20
-314.5792140215125983
 30
0.0
  0
SEQEND
  5
1ECE5
  8
PATH
  0
POLYLINE
  5
157EC
  8
PATH
 66
     1
 10
0.0
 20
0.0
 30
0.0
  0
VERTEX
  5
1ECE6
  8
PATH
 10
-837.2239322810345357
 20
-314.5792140215125983
 30
0.0
  0
VERTEX
  5
1ECE7
  8
PATH
 10
-832.0076822389529525
 20
-327.0557468202388236
 30
0.0
  0
VERTEX
  5
1ECE8
  8
PATH
 10
-799.5204213386895162
 20
-373.798148792651773
 30
0.0
  0
VERTEX
  5
1ECE9
  8
PATH
 10
-789.4060322626171455
 20
-388.2207763958213036
 30
0.0
  0
SEQEND
  5
1ECEA
  8
PATH
  0
POLYLINE
  5
157ED
  8
PATH
 66
     1
 10
0.0
 20
0.0
 30
0.0
  0
VERTEX
  5
1ECEB
  8
PATH
 10
-789.4060322626171455
 20
-388.2207763958213036
 30
0.0
  0
VERTEX
  5
1ECEC
  8
PATH
 10
-774.2254883797287448
 20
-409.867494708807385
 30
0.0
  0
VERTEX
  5
1ECED
  8
PATH
 10
-649.9985812941012
 20
-586.5496373981659417
 30
0.0
  0
SEQEND
  5
1ECEE
  8
PATH
  0
POLYLINE
  5
157EE
  8
PATH
 66
     1
 10
0.0
 20
0.0
 30
0.0
  0
VERTEX
  5
1ECEF
  8
PATH
 10
-649.9985812941012
 20
-586.5496373981659417
 30
0.0
  0
VERTEX
  5
1ECF0
  8
PATH
 10
-641.2846389050971538
 20
-586.03435262427206
 30
0.0
  0
VERTEX
  5
1ECF1
  8
PATH
 10
-536.5508445126032484
 20
-578.3960870624943027
 30
0.0
  0
SEQEND
  5
1ECF2
  8
PATH
  0
POLYLINE
  5
157EF
  8
PATH
 66
     1
 10
0.0
 20
0.0
 30
0.0
  0
VERTEX
  5
1ECF3
  8
PATH
 10
-536.5508445126032484
 20
-578.3960870624943027
 30
0.0
  0
VERTEX
  5
1ECF4
  8
PATH
 10
-528.4886311094303437
 20
-577.8081075343724251
 30
0.0
  0
VERTEX
  5
1ECF5
  8
PATH
 10
-520.9250602094250553
 20
-577.2305042165753548
 30
0.0
  0
SEQEND
  5
1ECF6
  8
PATH
  0
POLYLINE
  5
157F0
  8
PATH
 66
     1
 10
0.0
 20
0.0
 30
0.0
  0
VERTEX
  5
1ECF7
  8
PATH
 10
-520.9235703718295554
 20
-577.2303904429500108
 30
0.0
  0
VERTEX
  5
1ECF8
  8
PATH
 10
-263.6426705427729189
 20
-557.5827526649881065
 30
0.0
  0
SEQEND
  5
1ECF9
  8
PATH
  0
POLYLINE
  5
157F1
  8
PATH
 66
     1
 10
0.0
 20
0.0
 30
0.0
  0
VERTEX
  5
1ECFA
  8
PATH
 10
-263.6426705427729189
 20
-557.5827526649881065
 30
0.0
  0
VERTEX
  5
1ECFB
  8
PATH
 10
-255.923602150243795
 20
-556.9932745503683691
 30
0.0
  0
VERTEX
  5
1ECFC
  8
PATH
 10
-219.9818213386024013
 20
-552.8203547573139076
 30
0.0
  0
VERTEX
  5
1ECFD
  8
PATH
 10
-105.9408410373288945
 20
-519.588946231124055
 30
0.0
  0
VERTEX
  5
1ECFE
  8
PATH
 10
-86.6854744479205692
 20
-514.9002867866729503
 30
0.0
  0
VERTEX
  5
1ECFF
  8
PATH
 10
-77.310131155551062
 20
-514.1409466149707441
 30
0.0
  0
VERTEX
  5
1ED00
  8
PATH
 10
-61.1417432572488906
 20
-516.7952108480458264
 30
0.0
  0
VERTEX
  5
1ED01
  8
PATH
 10
-46.4825600084877593
 20
-524.4686148543331683
 30
0.0
  0
VERTEX
  5
1ED02
  8
PATH
 10
-31.9730589431273984
 20
-537.6103288465601509
 30
0.0
  0
VERTEX
  5
1ED03
  8
PATH
 10
10.6802433016564393
 20
-624.432240946167326
 30
0.0
  0
VERTEX
  5
1ED04
  8
PATH
 10
32.1837688411323981
 20
-649.5507161723869558
 30
0.0
  0
VERTEX
  5
1ED05
  8
PATH
 10
59.9784781241178422
 20
-697.0033119301731404
 30
0.0
  0
VERTEX
  5
1ED06
  8
PATH
 10
135.4245078302191985
 20
-826.1495690894732888
 30
0.0
  0
VERTEX
  5
1ED07
  8
PATH
 10
169.4715752004848071
 20
-890.6743629541670089
 30
0.0
  0
VERTEX
  5
1ED08
  8
PATH
 10
199.932229620855594
 20
-964.354548669369251
 30
0.0
  0
SEQEND
  5
1ED09
  8
PATH
  0
POLYLINE
  5
157F2
  8
PATH
 66
     1
 10
0.0
 20
0.0
 30
0.0
  0
VERTEX
  5
1ED0A
  8
PATH
 10
199.932229620855594
 20
-964.354548669369251
 30
0.0
  0
VERTEX
  5
1ED0B
  8
PATH
 10
280.1015479341585888
 20
-941.5440141688521862
 30
0.0
  0
VERTEX
  5
1ED0C
  8
PATH
 10
525.4398771968408255
 20
-875.8251652027903447
 30
0.0
  0
SEQEND
  5
1ED0D
  8
PATH
  0
POLYLINE
  5
157F3
  8
PATH
 66
     1
 10
0.0
 20
0.0
 30
0.0
  0
VERTEX
  5
1ED0E
  8
PATH
 10
525.4398771967244102
 20
-875.8251652027903447
 30
0.0
  0
VERTEX
  5
1ED0F
  8
PATH
 10
471.1390743144875728
 20
-722.5380568014878691
 30
0.0
  0
VERTEX
  5
1ED10
  8
PATH
 10
448.8228685498323784
 20
-661.0309328506191378
 30
0.0
  0
VERTEX
  5
1ED11
  8
PATH
 10
394.1083654523097834
 20
-541.3433971558188205
 30
0.0
  0
VERTEX
  5
1ED12
  8
PATH
 10
382.7910145009373082
 20
-519.6213631294157267
 30
0.0
  0
SEQEND
  5
1ED13
  8
PATH
  0
POLYLINE
  5
157F4
  8
PATH
 66
     1
 10
0.0
 20
0.0
 30
0.0
  0
VERTEX
  5
1ED14
  8
PATH
 10
382.7910145008791005
 20
-519.6213631294157267
 30
0.0
  0
VERTEX
  5
1ED15
  8
PATH
 10
332.2095100882434053
 20
-422.5374108263712856
 30
0.0
  0
SEQEND
  5
1ED16
  8
PATH
  0
POLYLINE
  5
157F5
  8
PATH
 66
     1
 10
0.0
 20
0.0
 30
0.0
  0
VERTEX
  5
1ED17
  8
PATH
 10
332.2095100882434053
 20
-422.5374108263712856
 30
0.0
  0
VERTEX
  5
1ED18
  8
PATH
 10
284.0197334806288154
 20
-340.7741811414671247
 30
0.0
  0
VERTEX
  5
1ED19
  8
PATH
 10
284.0192129796923837
 20
-340.7731603895736043
 30
0.0
  0
SEQEND
  5
1ED1A
  8
PATH
  0
POLYLINE
  5
157F6
  8
PATH
 66
     1
 10
0.0
 20
0.0
 30
0.0
  0
VERTEX
  5
1ED1B
  8
PATH
 10
284.0192129796923837
 20
-340.7731603895736043
 30
0.0
  0
VERTEX
  5
1ED1C
  8
PATH
 10
240.442466259337408
 20
-255.3149969716978944
 30
0.0
  0
VERTEX
  5
1ED1D
  8
PATH
 10
218.3202889875828987
 20
-213.7707743741993909
 30
0.0
  0
SEQEND
  5
1ED1E
  8
PATH
  0
POLYLINE
  5
157F7
  8
PATH
 66
     1
 10
0.0
 20
0.0
 30
0.0
  0
VERTEX
  5
1ED1F
  8
PATH
 10
218.320288987524691
 20
-213.7707743741993909
 30
0.0
  0
VERTEX
  5
1ED20
  8
PATH
 10
169.277433673778404
 20
-121.6710107325997967
 30
0.0
  0
VERTEX
  5
1ED21
  8
PATH
 10
151.5599222321033892
 20
-88.425499803801344
 30
0.0
  0
SEQEND
  5
1ED22
  8
PATH
  0
POLYLINE
  5
157F8
  8
PATH
 66
     1
 10
0.0
 20
0.0
 30
0.0
  0
VERTEX
  5
1ED23
  8
PATH
 10
151.5599222321033892
 20
-88.425499803801344
 30
0.0
  0
VERTEX
  5
1ED24
  8
PATH
 10
135.9471554065094097
 20
-59.1293759187174288
 30
0.0
  0
VERTEX
  5
1ED25
  8
PATH
 10
131.7793040487304097
 20
-51.2316059176300698
 30
0.0
  0
SEQEND
  5
1ED26
  8
PATH
  0
POLYLINE
  5
157F9
  8
PATH
 66
     1
 10
0.0
 20
0.0
 30
0.0
  0
VERTEX
  5
1ED27
  8
PATH
 10
131.7793040487304097
 20
-51.2316059176300698
 30
0.0
  0
VERTEX
  5
1ED28
  8
PATH
 10
89.2862460739998056
 20
29.2895954694176908
 30
0.0
  0
SEQEND
  5
1ED29
  8
PATH
  0
POLYLINE
  5
157FA
  8
PATH
 66
     1
 10
0.0
 20
0.0
 30
0.0
  0
VERTEX
  5
1ED2A
  8
PATH
 10
89.2862460739998056
 20
29.2895954694176908
 30
0.0
  0
VERTEX
  5
1ED2B
  8
PATH
 10
48.2290958239900576
 20
108.4274588972837989
 30
0.0
  0
VERTEX
  5
1ED2C
  8
PATH
 10
46.4663717499206399
 20
111.9914791072296936
 30
0.0
  0
SEQEND
  5
1ED2D
  8
PATH
  0
POLYLINE
  5
157FB
  8
PATH
 66
     1
 10
0.0
 20
0.0
 30
0.0
  0
VERTEX
  5
1ED2E
  8
PATH
 10
46.3786097479023596
 20
111.949808306577296
 30
0.0
  0
VERTEX
  5
1ED2F
  8
PATH
 10
2.5159825541631999
 20
200.8505893713372927
 30
0.0
  0
SEQEND
  5
1ED30
  8
PATH
  0
POLYLINE
  5
157FC
  8
PATH
 66
     1
 10
0.0
 20
0.0
 30
0.0
  0
VERTEX
  5
1ED31
  8
PATH
 10
2.5159825541631999
 20
200.8505893713372927
 30
0.0
  0
VERTEX
  5
1ED32
  8
PATH
 10
1.8259060596901679
 20
202.2492365404540919
 30
0.0
  0
VERTEX
  5
1ED33
  8
PATH
 10
-24.7004774075612694
 20
252.1275525931777111
 30
0.0
  0
SEQEND
  5
1ED34
  8
PATH
  0
POLYLINE
  5
157FD
  8
PATH
 66
     1
 10
0.0
 20
0.0
 30
0.0
  0
VERTEX
  5
1ED35
  8
PATH
 10
-24.7004774075612694
 20
252.1275525931777111
 30
0.0
  0
VERTEX
  5
1ED36
  8
PATH
 10
-54.2894252918340499
 20
307.764495942792621
 30
0.0
  0
VERTEX
  5
1ED37
  8
PATH
 10
-69.9475965078599984
 20
340.2540475205095163
 30
0.0
  0
SEQEND
  5
1ED38
  8
PATH
  0
POLYLINE
  5
157FE
  8
PATH
 66
     1
 10
0.0
 20
0.0
 30
0.0
  0
VERTEX
  5
1ED39
  8
PATH
 10
-69.9469431034667792
 20
340.2526917546566096
 30
0.0
  0
VERTEX
  5
1ED3A
  8
PATH
 10
-78.0274267767817946
 20
357.0191000057894257
 30
0.0
  0
SEQEND
  5
1ED3B
  8
PATH
  0
POLYLINE
  5
157FF
  8
PATH
 66
     1
 10
0.0
 20
0.0
 30
0.0
  0
VERTEX
  5
1ED3C
  8
PATH
 10
-78.0274267767817946
 20
357.0191000057894257
 30
0.0
  0
VERTEX
  5
1ED3D
  8
PATH
 10
-86.2933995523635247
 20
374.1703844774093
 30
0.0
  0
VERTEX
  5
1ED3E
  8
PATH
 10
-114.7104731751169027
 20
412.9750939105214798
 30
0.0
  0
SEQEND
  5
1ED3F
  8
PATH
  0
POLYLINE
  5
15800
  8
PATH
 66
     1
 10
0.0
 20
0.0
 30
0.0
  0
VERTEX
  5
1ED40
  8
PATH
 10
-114.7104731751169027
 20
412.9750939105214798
 30
0.0
  0
VERTEX
  5
1ED41
  8
PATH
 10
-131.145490071110487
 20
428.9920137059452827
 30
0.0
  0
VERTEX
  5
1ED42
  8
PATH
 10
-150.5396191281178915
 20
465.4211220755751128
 30
0.0
  0
VERTEX
  5
1ED43
  8
PATH
 10
-180.2479015578427948
 20
516.2613611496562953
 30
0.0
  0
VERTEX
  5
1ED44
  8
PATH
 10
-188.3277634844561135
 20
530.6101994007404983
 30
0.0
  0
SEQEND
  5
1ED45
  8
PATH
  0
POLYLINE
  5
15801
  8
PATH
 66
     1
 10
0.0
 20
0.0
 30
0.0
  0
VERTEX
  5
1ED46
  8
PATH
 10
-188.3238335052882917
 20
530.6032202425921014
 30
0.0
  0
VERTEX
  5
1ED47
  8
PATH
 10
-195.4413836483873013
 20
543.2431114530697869
 30
0.0
  0
VERTEX
  5
1ED48
  8
PATH
 10
-218.3791210828493945
 20
562.1126719718374716
 30
0.0
  0
VERTEX
  5
1ED49
  8
PATH
 10
-237.9786193055479089
 20
571.067500468394428
 30
0.0
  0
VERTEX
  5
1ED4A
  8
PATH
 10
-282.1275300830748165
 20
582.4108606940645814
 30
0.0
  0
VERTEX
  5
1ED4B
  8
PATH
 10
-302.2862121710351175
 20
587.5903133368627778
 30
0.0
  0
VERTEX
  5
1ED4C
  8
PATH
 10
-306.4952258609845899
 20
589.8678817842665012
 30
0.0
  0
SEQEND
  5
1ED4D
  8
PATH
  0
POLYLINE
  5
15802
  8
PATH
 66
     1
 10
0.0
 20
0.0
 30
0.0
  0
VERTEX
  5
1ED4E
  8
PATH
 10
-306.4952258609845899
 20
589.8678817842665012
 30
0.0
  0
VERTEX
  5
1ED4F
  8
PATH
 10
-319.9392943913845215
 20
597.1426944952033864
 30
0.0
  0
VERTEX
  5
1ED50
  8
PATH
 10
-333.5669927165290005
 20
611.1600964712488349
 30
0.0
  0
VERTEX
  5
1ED51
  8
PATH
 10
-342.4905416869004853
 20
626.9841052382761291
 30
0.0
  0
VERTEX
  5
1ED52
  8
PATH
 10
-353.4196963111899095
 20
658.792796510788321
 30
0.0
  0
SEQEND
  5
1ED53
  8
PATH
  0
POLYLINE
  5
15803
  8
PATH
 66
     1
 10
0.0
 20
0.0
 30
0.0
  0
VERTEX
  5
1ED54
  8
PATH
 10
-353.4196963111899095
 20
658.792796510788321
 30
0.0
  0
VERTEX
  5
1ED55
  8
PATH
 10
-353.4196963111899095
 20
658.792796510788321
 30
0.0
  0
VERTEX
  5
1ED56
  8
PATH
 10
-405.0611736878781244
 20
643.4170409553262289
 30
0.0
  0
VERTEX
  5
1ED57
  8
PATH
 10
-499.8220217696652981
 20
613.8193174759435351
 30
0.0
  0
SEQEND
  5
1ED58
  8
PATH
  0
POLYLINE
  5
15804
  8
PATH
 66
     1
 10
0.0
 20
0.0
 30
0.0
  0
VERTEX
  5
1ED59
  8
PATH
 10
-499.8220217696652981
 20
613.8193174759435351
 30
0.0
  0
VERTEX
  5
1ED5A
  8
PATH
 10
-539.6268304900876274
 20
602.5298993126998539
 30
0.0
  0
VERTEX
  5
1ED5B
  8
PATH
 10
-586.5592517770272707
 20
587.1095823841677657
 30
0.0
  0
VERTEX
  5
1ED5C
  8
PATH
 10
-604.1508911629350678
 20
581.329598160511523
 30
0.0
  0
VERTEX
  5
1ED5D
  8
PATH
 10
-614.9597719652955448
 20
575.3616626021030243
 30
0.0
  0
SEQEND
  5
1ED5E
  8
PATH
  0
POLYLINE
  5
15805
  8
PATH
 66
     1
 10
0.0
 20
0.0
 30
0.0
  0
VERTEX
  5
1ED5F
  8
PATH
 10
-614.9597719652955448
 20
575.3616626021030243
 30
0.0
  0
VERTEX
  5
1ED60
  8
PATH
 10
-684.5878066003931508
 20
526.430287818940883
 30
0.0
  0
SEQEND
  5
1ED61
  8
PATH
  0
POLYLINE
  5
15806
  8
PATH
 66
     1
 10
0.0
 20
0.0
 30
0.0
  0
VERTEX
  5
1ED62
  8
PATH
 10
-684.5878066003931508
 20
526.430287818940883
 30
0.0
  0
VERTEX
  5
1ED63
  8
PATH
 10
-726.499995965175799
 20
496.1274150414899964
 30
0.0
  0
VERTEX
  5
1ED64
  8
PATH
 10
-740.6378519954886315
 20
476.6635252638296265
 30
0.0
  0
SEQEND
  5
1ED65
  8
PATH
  0
POLYLINE
  5
15807
  8
PATH
 66
     1
 10
0.0
 20
0.0
 30
0.0
  0
VERTEX
  5
1ED66
  8
PATH
 10
-740.6378519954886315
 20
476.6635252638296265
 30
0.0
  0
VERTEX
  5
1ED67
  8
PATH
 10
-733.5946531147491214
 20
465.4077635771171231
 30
0.0
  0
VERTEX
  5
1ED68
  8
PATH
 10
-706.2427315982785103
 20
430.2768780948172207
 30
0.0
  0
SEQEND
  5
1ED69
  8
PATH
  0
POLYLINE
  5
15808
  8
PATH
 66
     1
 10
0.0
 20
0.0
 30
0.0
  0
VERTEX
  5
1ED6A
  8
PATH
 10
-706.2427315982785103
 20
430.2768780948172207
 30
0.0
  0
VERTEX
  5
1ED6B
  8
PATH
 10
-691.5779853810817031
 20
411.4414365087212104
 30
0.0
  0
SEQEND
  5
1ED6C
  8
PATH
  0
POLYLINE
  5
15809
  8
PATH
 66
     1
 10
0.0
 20
0.0
 30
0.0
  0
VERTEX
  5
1ED6D
  8
PATH
 10
-691.5779853810817031
 20
411.4414365087212104
 30
0.0
  0
VERTEX
  5
1ED6E
  8
PATH
 10
-645.3555696391413221
 20
352.0732347840020111
 30
0.0
  0
VERTEX
  5
1ED6F
  8
PATH
 10
-633.9830361568165245
 20
337.4664324652911773
 30
0.0
  0
SEQEND
  5
1ED70
  8
PATH
  0
POLYLINE
  5
1580A
  8
PATH
 66
     1
 10
0.0
 20
0.0
 30
0.0
  0
VERTEX
  5
1ED71
  8
PATH
 10
-633.9828091688832501
 20
337.4660290172832902
 30
0.0
  0
VERTEX
  5
1ED72
  8
PATH
 10
-618.4275616684607257
 20
317.7336071944372975
 30
0.0
  0
SEQEND
  5
1ED73
  8
PATH
  0
POLYLINE
  5
1580B
  8
PATH
 66
     1
 10
0.0
 20
0.0
 30
0.0
  0
VERTEX
  5
1ED74
  8
PATH
 10
-618.4407480534428032
 20
317.7503346242521047
 30
0.0
  0
VERTEX
  5
1ED75
  8
PATH
 10
-565.8089641663391376
 20
250.9849192295733076
 30
0.0
  0
SEQEND
  5
1ED76
  8
PATH
  0
POLYLINE
  5
1580C
  8
PATH
 66
     1
 10
0.0
 20
0.0
 30
0.0
  0
VERTEX
  5
1ED77
  8
PATH
 10
-565.8089641663391376
 20
250.9849192295733076
 30
0.0
  0
VERTEX
  5
1ED78
  8
PATH
 10
-501.9140394886633771
 20
169.931782271763808
 30
0.0
  0
SEQEND
  5
1ED79
  8
PATH
  0
POLYLINE
  5
1580D
  8
PATH
 66
     1
 10
0.0
 20
0.0
 30
0.0
  0
VERTEX
  5
1ED7A
  8
PATH
 10
-501.9140394886633771
 20
169.931782271763808
 30
0.0
  0
VERTEX
  5
1ED7B
  8
PATH
 10
-489.0736847931547118
 20
164.5723229810172938
 30
0.0
  0
VERTEX
  5
1ED7C
  8
PATH
 10
-472.1002890190720223
 20
163.1677599018948968
 30
0.0
  0
VERTEX
  5
1ED7D
  8
PATH
 10
-463.1616451473234974
 20
170.3912501782687912
 30
0.0
  0
SEQEND
  5
1ED7E
  8
PATH
  0
POLYLINE
  5
1580E
  8
PATH
 66
     1
 10
0.0
 20
0.0
 30
0.0
  0
VERTEX
  5
1ED7F
  8
PATH
 10
-463.1616451473234974
 20
170.3912501782687912
 30
0.0
  0
VERTEX
  5
1ED80
  8
PATH
 10
-455.0416409535245066
 20
181.7935959813694069
 30
0.0
  0
VERTEX
  5
1ED81
  8
PATH
 10
-408.5367317237686962
 20
223.7694573160769949
 30
0.0
  0
SEQEND
  5
1ED82
  8
PATH
  0
POLYLINE
  5
1580F
  8
PATH
 66
     1
 10
0.0
 20
0.0
 30
0.0
  0
VERTEX
  5
1ED83
  8
PATH
 10
-408.536731723652224
 20
223.7694573160769949
 30
0.0
  0
VERTEX
  5
1ED84
  8
PATH
 10
-382.1157639040175127
 20
247.617324130194902
 30
0.0
  0
VERTEX
  5
1ED85
  8
PATH
 10
-345.3980230880699196
 20
276.832694671167701
 30
0.0
  0
VERTEX
  5
1ED86
  8
PATH
 10
-316.4448742550594034
 20
291.0254157907838817
 30
0.0
  0
SEQEND
  5
1ED87
  8
PATH
  0
POLYLINE
  5
15810
  8
PATH
 66
     1
 10
0.0
 20
0.0
 30
0.0
  0
VERTEX
  5
1ED88
  8
PATH
 10
-316.4448742550594034
 20
291.0254157907838817
 30
0.0
  0
VERTEX
  5
1ED89
  8
PATH
 10
-302.75922184153751
 20
297.7340694559316034
 30
0.0
  0
SEQEND
  5
1ED8A
  8
PATH
  0
POLYLINE
  5
15811
  8
PATH
 66
     1
 10
0.0
 20
0.0
 30
0.0
  0
VERTEX
  5
1ED8B
  8
PATH
 10
-302.7661724920762936
 20
297.7306622742253239
 30
0.0
  0
VERTEX
  5
1ED8C
  8
PATH
 10
-281.6531826224672841
 20
308.0801679166543181
 30
0.0
  0
VERTEX
  5
1ED8D
  8
PATH
 10
-215.9168264481268125
 20
355.3613523995081778
 30
0.0
  0
SEQEND
  5
1ED8E
  8
PATH
  0
POLYLINE
  5
15812
  8
PATH
 66
     1
 10
0.0
 20
0.0
 30
0.0
  0
VERTEX
  5
1ED8F
  8
PATH
 10
-215.9215090127690928
 20
355.3579844427804915
 30
0.0
  0
VERTEX
  5
1ED90
  8
PATH
 10
-181.0773155350615866
 20
378.2145036836664076
 30
0.0
  0
SEQEND
  5
1ED91
  8
PATH
  0
POLYLINE
  5
15813
  8
PATH
 66
     1
 10
0.0
 20
0.0
 30
0.0
  0
VERTEX
  5
1ED92
  8
PATH
 10
-181.0773155350615866
 20
378.2145036836664076
 30
0.0
  0
VERTEX
  5
1ED93
  8
PATH
 10
-114.7104731751169027
 20
412.9750939105214798
 30
0.0
  0
SEQEND
  5
1ED94
  8
PATH
  0
POLYLINE
  5
15814
  8
PATH
 66
     1
 10
0.0
 20
0.0
 30
0.0
  0
VERTEX
  5
1ED95
  8
PATH
 10
-114.7104731751169027
 20
412.9750939105214798
 30
0.0
  0
VERTEX
  5
1ED96
  8
PATH
 10
-71.393536488016224
 20
427.1356037562289885
 30
0.0
  0
VERTEX
  5
1ED97
  8
PATH
 10
-22.7992307990934897
 20
440.7960686386139741
 30
0.0
  0
VERTEX
  5
1ED98
  8
PATH
 10
27.7200851898960501
 20
453.0293551735157962
 30
0.0
  0
VERTEX
  5
1ED99
  8
PATH
 10
107.068039831807198
 20
465.1875218409622903
 30
0.0
  0
VERTEX
  5
1ED9A
  8
PATH
 10
157.2009874023933094
 20
469.7757112170148162
 30
0.0
  0
SEQEND
  5
1ED9B
  8
PATH
  0
POLYLINE
  5
15815
  8
PATH
 66
     1
 10
0.0
 20
0.0
 30
0.0
  0
VERTEX
  5
1ED9C
  8
PATH
 10
157.1793294636736107
 20
469.9702720097774886
 30
0.0
  0
VERTEX
  5
1ED9D
  8
PATH
 10
206.6473731166188088
 20
474.3010661509396186
 30
0.0
  0
VERTEX
  5
1ED9E
  8
PATH
 10
319.94663350300101
 20
475.0695391735570183
 30
0.0
  0
VERTEX
  5
1ED9F
  8
PATH
 10
451.2316293991606813
 20
462.5598878604868105
 30
0.0
  0
VERTEX
  5
1EDA0
  8
PATH
 10
631.2181297633649137
 20
431.3112621657127193
 30
0.0
  0
VERTEX
  5
1EDA1
  8
PATH
 10
695.3467839669756358
 20
423.0986853726716959
 30
0.0
  0
SEQEND
  5
1EDA2
  8
PATH
  0
POLYLINE
  5
15816
  8
PATH
 66
     1
 10
0.0
 20
0.0
 30
0.0
  0
VERTEX
  5
1EDA3
  8
PATH
 10
695.3467839669756358
 20
423.0986853726716959
 30
0.0
  0
VERTEX
  5
1EDA4
  8
PATH
 10
723.6272992715090595
 20
424.968927005356818
 30
0.0
  0
SEQEND
  5
1EDA5
  8
PATH
  0
POLYLINE
  5
15817
  8
PATH
 66
     1
 10
0.0
 20
0.0
 30
0.0
  0
VERTEX
  5
1EDA6
  8
PATH
 10
723.6272992715090595
 20
424.968927005356818
 30
0.0
  0
VERTEX
  5
1EDA7
  8
PATH
 10
731.7169316710061366
 20
425.5039090291174944
 30
0.0
  0
VERTEX
  5
1EDA8
  8
PATH
 10
810.9560995359058779
 20
434.2987825191157754
 30
0.0
  0
VERTEX
  5
1EDA9
  8
PATH
 10
876.4912916488100336
 20
438.4787161434576888
 30
0.0
  0
SEQEND
  5
1EDAA
  8
PATH
  0
POLYLINE
  5
15818
  8
PATH
 66
     1
 10
0.0
 20
0.0
 30
0.0
  0
VERTEX
  5
1EDAB
  8
PATH
 10
-1203.572389566586935
 20
304.1892388365741908
 30
0.0
  0
VERTEX
  5
1EDAC
  8
PATH
 10
-1104.1413876988369793
 20
219.0179151110860118
 30
0.0
  0
SEQEND
  5
1EDAD
  8
PATH
  0
POLYLINE
  5
15819
  8
PATH
 66
     1
 10
0.0
 20
0.0
 30
0.0
  0
VERTEX
  5
1EDAE
  8
PATH
 10
-1104.1413876988949596
 20
219.0179151110860118
 30
0.0
  0
VERTEX
  5
1EDAF
  8
PATH
 10
-1012.2938434038800324
 20
144.1296762647615992
 30
0.0
  0
SEQEND
  5
1EDB0
  8
PATH
  0
POLYLINE
  5
1581A
  8
PATH
 66
     1
 10
0.0
 20
0.0
 30
0.0
  0
VERTEX
  5
1EDB1
  8
PATH
 10
-1012.2938434036469744
 20
144.1296762647615992
 30
0.0
  0
VERTEX
  5
1EDB2
  8
PATH
 10
-977.1895867097919108
 20
115.5424330598252993
 30
0.0
  0
VERTEX
  5
1EDB3
  8
PATH
 10
-909.3988844655832509
 20
70.3565192032183262
 30
0.0
  0
SEQEND
  5
1EDB4
  8
PATH
  0
POLYLINE
  5
1581B
  8
PATH
 66
     1
 10
0.0
 20
0.0
 30
0.0
  0
VERTEX
  5
1EDB5
  8
PATH
 10
-909.3988844655832509
 20
70.3565192032183262
 30
0.0
  0
VERTEX
  5
1EDB6
  8
PATH
 10
-896.2313843614099369
 20
83.1130548976871069
 30
0.0
  0
VERTEX
  5
1EDB7
  8
PATH
 10
-882.0296337192556848
 20
90.8761516786689469
 30
0.0
  0
VERTEX
  5
1EDB8
  8
PATH
 10
-865.2480109941245701
 20
92.0308687049473235
 30
0.0
  0
VERTEX
  5
1EDB9
  8
PATH
 10
-857.4593452371918829
 20
88.5637187785978455
 30
0.0
  0
SEQEND
  5
1EDBA
  8
PATH
  0
POLYLINE
  5
1581C
  8
PATH
 66
     1
 10
0.0
 20
0.0
 30
0.0
  0
VERTEX
  5
1EDBB
  8
PATH
 10
-857.4593452371334479
 20
88.5637187785978455
 30
0.0
  0
VERTEX
  5
1EDBC
  8
PATH
 10
-849.6706794802594231
 20
85.0965688527139719
 30
0.0
  0
VERTEX
  5
1EDBD
  8
PATH
 10
-838.3298811416749459
 20
65.7998154764572831
 30
0.0
  0
SEQEND
  5
1EDBE
  8
PATH
  0
POLYLINE
  5
1581D
  8
PATH
 66
     1
 10
0.0
 20
0.0
 30
0.0
  0
VERTEX
  5
1EDBF
  8
PATH
 10
-838.2165934175280881
 20
65.6070525679315324
 30
0.0
  0
VERTEX
  5
1EDC0
  8
PATH
 10
-841.1438266576875549
 20
47.0645026369529589
 30
0.0
  0
VERTEX
  5
1EDC1
  8
PATH
 10
-852.1970057016734472
 20
30.97576511190708
 30
0.0
  0
SEQEND
  5
1EDC2
  8
PATH
  0
POLYLINE
  5
1581E
  8
PATH
 66
     1
 10
0.0
 20
0.0
 30
0.0
  0
VERTEX
  5
1EDC3
  8
PATH
 10
-852.1970057016734472
 20
30.97576511190708
 30
0.0
  0
VERTEX
  5
1EDC4
  8
PATH
 10
-868.0107347895536805
 20
22.6910301223906608
 30
0.0
  0
SEQEND
  5
1EDC5
  8
PATH
  0
POLYLINE
  5
1581F
  8
PATH
 66
     1
 10
0.0
 20
0.0
 30
0.0
  0
VERTEX
  5
1EDC6
  8
PATH
 10
-909.3988844655832509
 20
70.3565192032183262
 30
0.0
  0
VERTEX
  5
1EDC7
  8
PATH
 10
-910.620946979164728
 20
50.5346142338166686
 30
0.0
  0
VERTEX
  5
1EDC8
  8
PATH
 10
-899.4852277300815331
 20
35.3872666950846906
 30
0.0
  0
VERTEX
  5
1EDC9
  8
PATH
 10
-892.9512276994789772
 20
30.3819882264870103
 30
0.0
  0
SEQEND
  5
1EDCA
  8
PATH
  0
POLYLINE
  5
15820
  8
PATH
 66
     1
 10
0.0
 20
0.0
 30
0.0
  0
VERTEX
  5
1EDCB
  8
PATH
 10
-1344.6316909224399296
 20
85.293203965811685
 30
0.0
  0
VERTEX
  5
1EDCC
  8
PATH
 10
-1246.5951421976349138
 20
140.3761046045038086
 30
0.0
  0
SEQEND
  5
1EDCD
  8
PATH
  0
POLYLINE
  5
15821
  8
PATH
 66
     1
 10
0.0
 20
0.0
 30
0.0
  0
VERTEX
  5
1EDCE
  8
PATH
 10
-1246.5951421976349138
 20
140.3761046045038086
 30
0.0
  0
VERTEX
  5
1EDCF
  8
PATH
 10
-1162.5282823104780618
 20
186.1434848984281132
 30
0.0
  0
VERTEX
  5
1EDD0
  8
PATH
 10
-1104.1413876988949596
 20
219.0179151110860118
 30
0.0
  0
SEQEND
  5
1EDD1
  8
PATH
  0
POLYLINE
  5
15822
  8
PATH
 66
     1
 10
0.0
 20
0.0
 30
0.0
  0
VERTEX
  5
1EDD2
  8
PATH
 10
-1324.351150340705999
 20
-19.8768754233096807
 30
0.0
  0
VERTEX
  5
1EDD3
  8
PATH
 10
-1295.5930669914960163
 20
-11.51015829662356
 30
0.0
  0
VERTEX
  5
1EDD4
  8
PATH
 10
-1269.7961839569179574
 20
-2.579940169533073
 30
0.0
  0
VERTEX
  5
1EDD5
  8
PATH
 10
-1202.6219817488019999
 20
29.4032046651045711
 30
0.0
  0
VERTEX
  5
1EDD6
  8
PATH
 10
-1189.0967345593530808
 20
37.7176719480703397
 30
0.0
  0
SEQEND
  5
1EDD7
  8
PATH
  0
POLYLINE
  5
15823
  8
PATH
 66
     1
 10
0.0
 20
0.0
 30
0.0
  0
VERTEX
  5
1EDD8
  8
PATH
 10
-1189.0967345593530808
 20
37.7176719480703397
 30
0.0
  0
VERTEX
  5
1EDD9
  8
PATH
 10
-1170.4621874253059559
 20
49.1730139693754609
 30
0.0
  0
VERTEX
  5
1EDDA
  8
PATH
 10
-1118.5180626299259075
 20
80.3212402635763141
 30
0.0
  0
VERTEX
  5
1EDDB
  8
PATH
 10
-1044.1242510334850522
 20
122.6732317144559943
 30
0.0
  0
VERTEX
  5
1EDDC
  8
PATH
 10
-1021.6959040693039924
 20
138.1002650680528916
 30
0.0
  0
VERTEX
  5
1EDDD
  8
PATH
 10
-1012.2938434036469744
 20
144.1296762647615992
 30
0.0
  0
SEQEND
  5
1EDDE
  8
PATH
  0
POLYLINE
  5
15824
  8
PATH
 66
     1
 10
0.0
 20
0.0
 30
0.0
  0
VERTEX
  5
1EDDF
  8
PATH
 10
-1246.5951421976349138
 20
140.3761046045038086
 30
0.0
  0
VERTEX
  5
1EDE0
  8
PATH
 10
-1189.0967345593530808
 20
37.7176719480703397
 30
0.0
  0
SEQEND
  5
1EDE1
  8
PATH
  0
POLYLINE
  5
15825
  8
PATH
 66
     1
 10
0.0
 20
0.0
 30
0.0
  0
VERTEX
  5
1EDE2
  8
PATH
 10
-1189.0967345593530808
 20
37.7176719480703397
 30
0.0
  0
VERTEX
  5
1EDE3
  8
PATH
 10
-1196.5391869953159585
 20
19.4887003107505592
 30
0.0
  0
VERTEX
  5
1EDE4
  8
PATH
 10
-1194.9727564809870728
 20
2.2303956160831131
 30
0.0
  0
VERTEX
  5
1EDE5
  8
PATH
 10
-1192.6522990201629
 20
-13.8872770606030809
 30
0.0
  0
VERTEX
  5
1EDE6
  8
PATH
 10
-1184.1973521696199896
 20
-32.7318926285443013
 30
0.0
  0
VERTEX
  5
1EDE7
  8
PATH
 10
-1155.8879250844040598
 20
-89.5678352075119619
 30
0.0
  0
SEQEND
  5
1EDE8
  8
PATH
  0
POLYLINE
  5
15826
  8
PATH
 66
     1
 10
0.0
 20
0.0
 30
0.0
  0
VERTEX
  5
1EDE9
  8
PATH
 10
-1155.8879250843449427
 20
-89.5678352075119619
 30
0.0
  0
VERTEX
  5
1EDEA
  8
PATH
 10
-1148.3790604975210954
 20
-108.7042752252382058
 30
0.0
  0
VERTEX
  5
1EDEB
  8
PATH
 10
-1116.9450704245969064
 20
-172.386269282498688
 30
0.0
  0
VERTEX
  5
1EDEC
  8
PATH
 10
-1096.1293873412801076
 20
-213.9320656884883078
 30
0.0
  0
SEQEND
  5
1EDED
  8
PATH
  0
POLYLINE
  5
15827
  8
PATH
 66
     1
 10
0.0
 20
0.0
 30
0.0
  0
VERTEX
  5
1EDEE
  8
PATH
 10
-1096.1282730205709868
 20
-213.9342897491951021
 30
0.0
  0
VERTEX
  5
1EDEF
  8
PATH
 10
-1049.2268986459960161
 20
-307.5442348629658227
 30
0.0
  0
VERTEX
  5
1EDF0
  8
PATH
 10
-1045.516118802318033
 20
-313.8219334119422115
 30
0.0
  0
SEQEND
  5
1EDF1
  8
PATH
  0
POLYLINE
  5
15828
  8
PATH
 66
     1
 10
0.0
 20
0.0
 30
0.0
  0
VERTEX
  5
1EDF2
  8
PATH
 10
-1045.5161188022609622
 20
-313.8219334119422115
 30
0.0
  0
VERTEX
  5
1EDF3
  8
PATH
 10
-1018.1836452682180152
 20
-360.0615479046900873
 30
0.0
  0
VERTEX
  5
1EDF4
  8
PATH
 10
-968.069847747523454
 20
-424.9179575032974867
 30
0.0
  0
SEQEND
  5
1EDF5
  8
PATH
  0
POLYLINE
  5
15829
  8
PATH
 66
     1
 10
0.0
 20
0.0
 30
0.0
  0
VERTEX
  5
1EDF6
  8
PATH
 10
-968.06468317502015
 20
-424.9246414037842214
 30
0.0
  0
VERTEX
  5
1EDF7
  8
PATH
 10
-928.7789891816355521
 20
-467.0483611490998896
 30
0.0
  0
VERTEX
  5
1EDF8
  8
PATH
 10
-901.1684352259179605
 20
-492.9901603287507896
 30
0.0
  0
SEQEND
  5
1EDF9
  8
PATH
  0
POLYLINE
  5
1582A
  8
PATH
 66
     1
 10
0.0
 20
0.0
 30
0.0
  0
VERTEX
  5
1EDFA
  8
PATH
 10
-901.1684352260343758
 20
-492.9901603287507896
 30
0.0
  0
VERTEX
  5
1EDFB
  8
PATH
 10
-882.1119598123042351
 20
-510.8948810761285131
 30
0.0
  0
VERTEX
  5
1EDFC
  8
PATH
 10
-832.4487887998257065
 20
-561.8193976524706841
 30
0.0
  0
VERTEX
  5
1EDFD
  8
PATH
 10
-742.7488543184736045
 20
-650.310638764822329
 30
0.0
  0
VERTEX
  5
1EDFE
  8
PATH
 10
-729.7059476305292947
 20
-663.7832808587190812
 30
0.0
  0
SEQEND
  5
1EDFF
  8
PATH
  0
POLYLINE
  5
1582B
  8
PATH
 66
     1
 10
0.0
 20
0.0
 30
0.0
  0
VERTEX
  5
1EE00
  8
PATH
 10
-729.7059476305292947
 20
-663.7832808587190812
 30
0.0
  0
VERTEX
  5
1EE01
  8
PATH
 10
-584.2320141004310017
 20
-814.05026408000424
 30
0.0
  0
VERTEX
  5
1EE02
  8
PATH
 10
-570.6781665987364249
 20
-827.5126316016030614
 30
0.0
  0
SEQEND
  5
1EE03
  8
PATH
  0
POLYLINE
  5
1582C
  8
PATH
 66
     1
 10
0.0
 20
0.0
 30
0.0
  0
VERTEX
  5
1EE04
  8
PATH
 10
-570.6781665987364249
 20
-827.5126316016030614
 30
0.0
  0
VERTEX
  5
1EE05
  8
PATH
 10
-487.3745358695305185
 20
-794.1219217315737069
 30
0.0
  0
SEQEND
  5
1EE06
  8
PATH
  0
POLYLINE
  5
1582D
  8
PATH
 66
     1
 10
0.0
 20
0.0
 30
0.0
  0
VERTEX
  5
1EE07
  8
PATH
 10
-487.3745358695305185
 20
-794.1219217315737069
 30
0.0
  0
VERTEX
  5
1EE08
  8
PATH
 10
-475.5201754128938205
 20
-789.5718830502080436
 30
0.0
  0
VERTEX
  5
1EE09
  8
PATH
 10
-475.5201754128938205
 20
-789.5718830502080436
 30
0.0
  0
SEQEND
  5
1EE0A
  8
PATH
  0
POLYLINE
  5
1582E
  8
PATH
 66
     1
 10
0.0
 20
0.0
 30
0.0
  0
VERTEX
  5
1EE0B
  8
PATH
 10
-475.5201754129520282
 20
-789.5718830502080436
 30
0.0
  0
VERTEX
  5
1EE0C
  8
PATH
 10
-436.6851168570718755
 20
-775.1201920182865024
 30
0.0
  0
VERTEX
  5
1EE0D
  8
PATH
 10
-213.3354947948973859
 20
-728.376699902066207
 30
0.0
  0
SEQEND
  5
1EE0E
  8
PATH
  0
POLYLINE
  5
1582F
  8
PATH
 66
     1
 10
0.0
 20
0.0
 30
0.0
  0
VERTEX
  5
1EE0F
  8
PATH
 10
-213.3354947948973859
 20
-728.376699902066207
 30
0.0
  0
VERTEX
  5
1EE10
  8
PATH
 10
-193.9239892119803983
 20
-734.0882630892519956
 30
0.0
  0
VERTEX
  5
1EE11
  8
PATH
 10
-74.5061907855706664
 20
-697.7441509537819684
 30
0.0
  0
VERTEX
  5
1EE12
  8
PATH
 10
39.0294776288646972
 20
-661.2380717936391648
 30
0.0
  0
SEQEND
  5
1EE13
  8
PATH
  0
POLYLINE
  5
15830
  8
PATH
 66
     1
 10
0.0
 20
0.0
 30
0.0
  0
VERTEX
  5
1EE14
  8
PATH
 10
-213.3354947948973859
 20
-728.376699902066207
 30
0.0
  0
VERTEX
  5
1EE15
  8
PATH
 10
-218.1793637850350933
 20
-709.6889106737869497
 30
0.0
  0
SEQEND
  5
1EE16
  8
PATH
  0
POLYLINE
  5
15831
  8
PATH
 66
     1
 10
0.0
 20
0.0
 30
0.0
  0
VERTEX
  5
1EE17
  8
PATH
 10
-218.1793637850350933
 20
-709.6889106737869497
 30
0.0
  0
VERTEX
  5
1EE18
  8
PATH
 10
-220.8989168859698111
 20
-699.1967947128648575
 30
0.0
  0
VERTEX
  5
1EE19
  8
PATH
 10
-258.7186033410981167
 20
-575.0187465021807611
 30
0.0
  0
VERTEX
  5
1EE1A
  8
PATH
 10
-263.6426705427729189
 20
-557.5827526649881065
 30
0.0
  0
SEQEND
  5
1EE1B
  8
PATH
  0
POLYLINE
  5
15832
  8
PATH
 66
     1
 10
0.0
 20
0.0
 30
0.0
  0
VERTEX
  5
1EE1C
  8
PATH
 10
-263.6426705427729189
 20
-557.5827526649881065
 30
0.0
  0
VERTEX
  5
1EE1D
  8
PATH
 10
-273.4802927460551132
 20
-517.5554060632784967
 30
0.0
  0
VERTEX
  5
1EE1E
  8
PATH
 10
-293.6218513732454767
 20
-425.2622346979987924
 30
0.0
  0
VERTEX
  5
1EE1F
  8
PATH
 10
-300.1887402821012074
 20
-385.9552381443281774
 30
0.0
  0
SEQEND
  5
1EE20
  8
PATH
  0
POLYLINE
  5
15833
  8
PATH
 66
     1
 10
0.0
 20
0.0
 30
0.0
  0
VERTEX
  5
1EE21
  8
PATH
 10
-300.1887402821012074
 20
-385.9552381443281774
 30
0.0
  0
VERTEX
  5
1EE22
  8
PATH
 10
-302.6759373390377732
 20
-371.0677857291375972
 30
0.0
  0
VERTEX
  5
1EE23
  8
PATH
 10
-304.9121416981943185
 20
-238.9649508613584032
 30
0.0
  0
VERTEX
  5
1EE24
  8
PATH
 10
-293.2633191370550776
 20
-201.4428012701172861
 30
0.0
  0
SEQEND
  5
1EE25
  8
PATH
  0
POLYLINE
  5
15834
  8
PATH
 66
     1
 10
0.0
 20
0.0
 30
0.0
  0
VERTEX
  5
1EE26
  8
PATH
 10
-218.1796977462508949
 20
-709.6876222420903559
 30
0.0
  0
VERTEX
  5
1EE27
  8
PATH
 10
-153.6020641439390033
 20
-692.4455112451177001
 30
0.0
  0
VERTEX
  5
1EE28
  8
PATH
 10
-57.2387834464461704
 20
-659.5763683425683439
 30
0.0
  0
VERTEX
  5
1EE29
  8
PATH
 10
1.2623595194163491
 20
-639.6218544011426275
 30
0.0
  0
VERTEX
  5
1EE2A
  8
PATH
 10
18.5875430559244705
 20
-633.6688339234750629
 30
0.0
  0
SEQEND
  5
1EE2B
  8
PATH
  0
POLYLINE
  5
15835
  8
PATH
 66
     1
 10
0.0
 20
0.0
 30
0.0
  0
VERTEX
  5
1EE2C
  8
PATH
 10
-1096.1289604978660464
 20
-213.9329176209357115
 30
0.0
  0
VERTEX
  5
1EE2D
  8
PATH
 10
-1015.4817293022199465
 20
-173.9820893783544022
 30
0.0
  0
SEQEND
  5
1EE2E
  8
PATH
  0
POLYLINE
  5
15836
  8
PATH
 66
     1
 10
0.0
 20
0.0
 30
0.0
  0
VERTEX
  5
1EE2F
  8
PATH
 10
-1015.4817293022199465
 20
-173.9820893783544022
 30
0.0
  0
VERTEX
  5
1EE30
  8
PATH
 10
-1007.8409257760639548
 20
-188.3375307581808045
 30
0.0
  0
VERTEX
  5
1EE31
  8
PATH
 10
-972.9437442527414532
 20
-244.8961365343492105
 30
0.0
  0
VERTEX
  5
1EE32
  8
PATH
 10
-959.7554379106877604
 20
-269.9588928715747898
 30
0.0
  0
SEQEND
  5
1EE33
  8
PATH
  0
POLYLINE
  5
15837
  8
PATH
 66
     1
 10
0.0
 20
0.0
 30
0.0
  0
VERTEX
  5
1EE34
  8
PATH
 10
-959.7554379106295528
 20
-269.9588928715747898
 30
0.0
  0
VERTEX
  5
1EE35
  8
PATH
 10
-914.7391429538984085
 20
-262.650237654284922
 30
0.0
  0
VERTEX
  5
1EE36
  8
PATH
 10
-858.2451059901067083
 20
-251.6552631277081957
 30
0.0
  0
SEQEND
  5
1EE37
  8
PATH
  0
POLYLINE
  5
15838
  8
PATH
 66
     1
 10
0.0
 20
0.0
 30
0.0
  0
VERTEX
  5
1EE38
  8
PATH
 10
-1015.4817293022199465
 20
-173.9820893783544022
 30
0.0
  0
VERTEX
  5
1EE39
  8
PATH
 10
-974.8967140213502489
 20
-154.0663651218127939
 30
0.0
  0
VERTEX
  5
1EE3A
  8
PATH
 10
-957.6388441415764419
 20
-145.5976488873783978
 30
0.0
  0
VERTEX
  5
1EE3B
  8
PATH
 10
-868.0565740572202458
 20
-139.3712494139981004
 30
0.0
  0
SEQEND
  5
1EE3C
  8
PATH
  0
POLYLINE
  5
15839
  8
PATH
 66
     1
 10
0.0
 20
0.0
 30
0.0
  0
VERTEX
  5
1EE3D
  8
PATH
 10
-633.9830895259656245
 20
337.4663891089658136
 30
0.0
  0
VERTEX
  5
1EE3E
  8
PATH
 10
-664.2214306778768105
 20
318.7385643222878002
 30
0.0
  0
VERTEX
  5
1EE3F
  8
PATH
 10
-712.3098073750877575
 20
283.450182492429974
 30
0.0
  0
SEQEND
  5
1EE40
  8
PATH
  0
POLYLINE
  5
1583A
  8
PATH
 66
     1
 10
0.0
 20
0.0
 30
0.0
  0
VERTEX
  5
1EE41
  8
PATH
 10
-712.3098073750877575
 20
283.450182492429974
 30
0.0
  0
VERTEX
  5
1EE42
  8
PATH
 10
-754.5663777866429882
 20
248.4118202017197916
 30
0.0
  0
VERTEX
  5
1EE43
  8
PATH
 10
-767.6638967000908451
 20
233.698601052681596
 30
0.0
  0
SEQEND
  5
1EE44
  8
PATH
  0
POLYLINE
  5
1583B
  8
PATH
 66
     1
 10
0.0
 20
0.0
 30
0.0
  0
VERTEX
  5
1EE45
  8
PATH
 10
-767.6638967000908451
 20
233.698601052681596
 30
0.0
  0
VERTEX
  5
1EE46
  8
PATH
 10
-794.7232402872322155
 20
203.3012368758718083
 30
0.0
  0
VERTEX
  5
1EE47
  8
PATH
 10
-800.9402312185993651
 20
194.5561003727416107
 30
0.0
  0
SEQEND
  5
1EE48
  8
PATH
  0
POLYLINE
  5
1583C
  8
PATH
 66
     1
 10
0.0
 20
0.0
 30
0.0
  0
VERTEX
  5
1EE49
  8
PATH
 10
-800.9402312185993651
 20
194.5561003727416107
 30
0.0
  0
VERTEX
  5
1EE4A
  8
PATH
 10
-815.9334858112414395
 20
173.4658238254997116
 30
0.0
  0
VERTEX
  5
1EE4B
  8
PATH
 10
-833.7278943388517973
 20
141.7177042970942011
 30
0.0
  0
VERTEX
  5
1EE4C
  8
PATH
 10
-847.8589166253948406
 20
113.8235611189665946
 30
0.0
  0
VERTEX
  5
1EE4D
  8
PATH
 10
-857.4593452371918829
 20
88.5637187785978455
 30
0.0
  0
SEQEND
  5
1EE4E
  8
PATH
  0
POLYLINE
  5
1583D
  8
PATH
 66
     1
 10
0.0
 20
0.0
 30
0.0
  0
VERTEX
  5
1EE4F
  8
PATH
 10
-1203.572389566586935
 20
304.1892388365741908
 30
0.0
  0
VERTEX
  5
1EE50
  8
PATH
 10
-1182.2702007487669107
 20
322.1192929428580101
 30
0.0
  0
VERTEX
  5
1EE51
  8
PATH
 10
-1159.4637140166159952
 20
341.536861693537503
 30
0.0
  0
VERTEX
  5
1EE52
  8
PATH
 10
-1149.5649380703250699
 20
348.9541988992642132
 30
0.0
  0
VERTEX
  5
1EE53
  8
PATH
 10
-1117.8904822939800852
 20
369.1137715145524112
 30
0.0
  0
VERTEX
  5
1EE54
  8
PATH
 10
-1078.4984994977849055
 20
392.9479349307293887
 30
0.0
  0
VERTEX
  5
1EE55
  8
PATH
 10
-1061.7213195981601075
 20
402.1132403240114854
 30
0.0
  0
VERTEX
  5
1EE56
  8
PATH
 10
-1047.3072838385849082
 20
409.9875696497546187
 30
0.0
  0
VERTEX
  5
1EE57
  8
PATH
 10
-1030.9046681669560712
 20
421.278720083697408
 30
0.0
  0
VERTEX
  5
1EE58
  8
PATH
 10
-1018.0343377809180083
 20
428.7395405648783822
 30
0.0
  0
VERTEX
  5
1EE59
  8
PATH
 10
-1008.7942954775789985
 20
433.1069516679780804
 30
0.0
  0
VERTEX
  5
1EE5A
  8
PATH
 10
-989.6144033947638263
 20
439.9650039873594096
 30
0.0
  0
VERTEX
  5
1EE5B
  8
PATH
 10
-972.7118965602857088
 20
448.5041948268698206
 30
0.0
  0
VERTEX
  5
1EE5C
  8
PATH
 10
-961.0295134970945128
 20
455.2845869334922213
 30
0.0
  0
VERTEX
  5
1EE5D
  8
PATH
 10
-937.2784372046735371
 20
469.069583483091094
 30
0.0
  0
VERTEX
  5
1EE5E
  8
PATH
 10
-921.3083690701894284
 20
476.2259043264712091
 30
0.0
  0
VERTEX
  5
1EE5F
  8
PATH
 10
-898.2170240642296903
 20
476.7286324534143205
 30
0.0
  0
VERTEX
  5
1EE60
  8
PATH
 10
-818.3300065869260607
 20
507.5181124322623987
 30
0.0
  0
VERTEX
  5
1EE61
  8
PATH
 10
-805.4760200893068713
 20
510.0663513294929885
 30
0.0
  0
VERTEX
  5
1EE62
  8
PATH
 10
-794.9442396344526287
 20
510.192513548819818
 30
0.0
  0
VERTEX
  5
1EE63
  8
PATH
 10
-782.1922775408163488
 20
508.3044546149249072
 30
0.0
  0
VERTEX
  5
1EE64
  8
PATH
 10
-762.7320592231843648
 20
500.3596054264851887
 30
0.0
  0
VERTEX
  5
1EE65
  8
PATH
 10
-749.4295971407699426
 20
490.3934964701110744
 30
0.0
  0
VERTEX
  5
1EE66
  8
PATH
 10
-740.6378519954886315
 20
476.6635252638296265
 30
0.0
  0
SEQEND
  5
1EE67
  8
PATH
  0
POLYLINE
  5
1583E
  8
PATH
 66
     1
 10
0.0
 20
0.0
 30
0.0
  0
VERTEX
  5
1EE68
  8
PATH
 10
-633.9830895259656245
 20
337.4663891089658136
 30
0.0
  0
VERTEX
  5
1EE69
  8
PATH
 10
-590.2434446446859511
 20
372.9997840025970959
 30
0.0
  0
SEQEND
  5
1EE6A
  8
PATH
  0
POLYLINE
  5
1583F
  8
PATH
 66
     1
 10
0.0
 20
0.0
 30
0.0
  0
VERTEX
  5
1EE6B
  8
PATH
 10
-590.2434446374097661
 20
372.9997840081849745
 30
0.0
  0
VERTEX
  5
1EE6C
  8
PATH
 10
-574.5248636754839708
 20
385.7693102811973063
 30
0.0
  0
SEQEND
  5
1EE6D
  8
PATH
  0
POLYLINE
  5
15840
  8
PATH
 66
     1
 10
0.0
 20
0.0
 30
0.0
  0
VERTEX
  5
1EE6E
  8
PATH
 10
-574.5248636754839708
 20
385.7693102811973063
 30
0.0
  0
VERTEX
  5
1EE6F
  8
PATH
 10
-517.1470591702527599
 20
427.7151880874807262
 30
0.0
  0
SEQEND
  5
1EE70
  8
PATH
  0
POLYLINE
  5
15841
  8
PATH
 66
     1
 10
0.0
 20
0.0
 30
0.0
  0
VERTEX
  5
1EE71
  8
PATH
 10
-517.1470591702527599
 20
427.7151880874807262
 30
0.0
  0
VERTEX
  5
1EE72
  8
PATH
 10
-441.969688363038415
 20
482.6733872877011891
 30
0.0
  0
SEQEND
  5
1EE73
  8
PATH
  0
POLYLINE
  5
15842
  8
PATH
 66
     1
 10
0.0
 20
0.0
 30
0.0
  0
VERTEX
  5
1EE74
  8
PATH
 10
-441.969688363038415
 20
482.6733872877011891
 30
0.0
  0
VERTEX
  5
1EE75
  8
PATH
 10
-427.2150111285881167
 20
461.2271731803700163
 30
0.0
  0
VERTEX
  5
1EE76
  8
PATH
 10
-396.4124732517083771
 20
414.6884325445205945
 30
0.0
  0
VERTEX
  5
1EE77
  8
PATH
 10
-386.8187573215254815
 20
399.7005984993230072
 30
0.0
  0
SEQEND
  5
1EE78
  8
PATH
  0
POLYLINE
  5
15843
  8
PATH
 66
     1
 10
0.0
 20
0.0
 30
0.0
  0
VERTEX
  5
1EE79
  8
PATH
 10
-386.8187573215254815
 20
399.7005984993230072
 30
0.0
  0
VERTEX
  5
1EE7A
  8
PATH
 10
-328.9641362162220162
 20
309.3169071144001805
 30
0.0
  0
VERTEX
  5
1EE7B
  8
PATH
 10
-316.4189099209762048
 20
291.0381434062073822
 30
0.0
  0
SEQEND
  5
1EE7C
  8
PATH
  0
POLYLINE
  5
15844
  8
PATH
 66
     1
 10
0.0
 20
0.0
 30
0.0
  0
VERTEX
  5
1EE7D
  8
PATH
 10
-353.4196963111899095
 20
658.792796510788321
 30
0.0
  0
VERTEX
  5
1EE7E
  8
PATH
 10
-338.7890613391210763
 20
665.4355266895654495
 30
0.0
  0
VERTEX
  5
1EE7F
  8
PATH
 10
-269.5874318881104728
 20
680.7039061887699063
 30
0.0
  0
VERTEX
  5
1EE80
  8
PATH
 10
-241.8869367662846059
 20
686.8156361463987878
 30
0.0
  0
VERTEX
  5
1EE81
  8
PATH
 10
-128.9539816077013086
 20
711.3980054976925658
 30
0.0
  0
VERTEX
  5
1EE82
  8
PATH
 10
-121.2826314254925961
 20
714.8396776202644105
 30
0.0
  0
VERTEX
  5
1EE83
  8
PATH
 10
-116.5121251701057048
 20
721.0637836871245554
 30
0.0
  0
VERTEX
  5
1EE84
  8
PATH
 10
-102.0891610685648061
 20
741.4096317641011638
 30
0.0
  0
VERTEX
  5
1EE85
  8
PATH
 10
-78.3333192363061102
 20
746.7942094929095447
 30
0.0
  0
VERTEX
  5
1EE86
  8
PATH
 10
-71.9411816491192582
 20
744.364003709568351
 30
0.0
  0
VERTEX
  5
1EE87
  8
PATH
 10
-62.5971700904337922
 20
709.2440529652449186
 30
0.0
  0
VERTEX
  5
1EE88
  8
PATH
 10
-51.4170404283358806
 20
702.5125965821134741
 30
0.0
  0
VERTEX
  5
1EE89
  8
PATH
 10
-30.6517376398696797
 20
707.9469031184487449
 30
0.0
  0
VERTEX
  5
1EE8A
  8
PATH
 10
-24.8319394731806788
 20
713.7604398266920498
 30
0.0
  0
VERTEX
  5
1EE8B
  8
PATH
 10
-21.5391633921681205
 20
720.7213699324563549
 30
0.0
  0
VERTEX
  5
1EE8C
  8
PATH
 10
-21.3860018874547713
 20
726.4584112698720446
 30
0.0
  0
VERTEX
  5
1EE8D
  8
PATH
 10
-25.1335698595066894
 20
753.9902516487564981
 30
0.0
  0
VERTEX
  5
1EE8E
  8
PATH
 10
-24.2912172691576416
 20
759.6507852222348447
 30
0.0
  0
VERTEX
  5
1EE8F
  8
PATH
 10
-19.4376890565181384
 20
763.562693836218159
 30
0.0
  0
VERTEX
  5
1EE90
  8
PATH
 10
10.4270379297522595
 20
764.5571212741120917
 30
0.0
  0
VERTEX
  5
1EE91
  8
PATH
 10
38.3272509379749025
 20
753.3781523653814247
 30
0.0
  0
VERTEX
  5
1EE92
  8
PATH
 10
169.9293468178802868
 20
752.9395276820797562
 30
0.0
  0
VERTEX
  5
1EE93
  8
PATH
 10
181.8689498544408139
 20
753.5982330064795178
 30
0.0
  0
VERTEX
  5
1EE94
  8
PATH
 10
191.316324017578097
 20
757.3180047767745009
 30
0.0
  0
VERTEX
  5
1EE95
  8
PATH
 10
208.6068733035208993
 20
769.8787727929229732
 30
0.0
  0
VERTEX
  5
1EE96
  8
PATH
 10
216.2440726097410959
 20
771.8809613832781906
 30
0.0
  0
VERTEX
  5
1EE97
  8
PATH
 10
304.7034774109924911
 20
769.2947536185893114
 30
0.0
  0
SEQEND
  5
1EE98
  8
PATH
  0
POLYLINE
  5
15845
  8
PATH
 66
     1
 10
0.0
 20
0.0
 30
0.0
  0
VERTEX
  5
1EE99
  8
PATH
 10
304.7034774109924911
 20
769.2947536185893114
 30
0.0
  0
VERTEX
  5
1EE9A
  8
PATH
 10
304.6492178425395991
 20
754.2561452477747252
 30
0.0
  0
VERTEX
  5
1EE9B
  8
PATH
 10
306.5939621389115928
 20
730.8878563647667761
 30
0.0
  0
VERTEX
  5
1EE9C
  8
PATH
 10
300.4846309181157267
 20
702.3333721277812174
 30
0.0
  0
VERTEX
  5
1EE9D
  8
PATH
 10
162.2123015502438079
 20
490.8842044268312179
 30
0.0
  0
VERTEX
  5
1EE9E
  8
PATH
 10
157.2009874023933094
 20
469.7757112170148162
 30
0.0
  0
SEQEND
  5
1EE9F
  8
PATH
  0
POLYLINE
  5
15846
  8
PATH
 66
     1
 10
0.0
 20
0.0
 30
0.0
  0
VERTEX
  5
1EEA0
  8
PATH
 10
157.2009874023933094
 20
469.7757112170148162
 30
0.0
  0
VERTEX
  5
1EEA1
  8
PATH
 10
160.4874860407288963
 20
440.2519514724190799
 30
0.0
  0
VERTEX
  5
1EEA2
  8
PATH
 10
166.4381780562544009
 20
400.8070071940819048
 30
0.0
  0
VERTEX
  5
1EEA3
  8
PATH
 10
181.0016710499621126
 20
366.2008381761189071
 30
0.0
  0
VERTEX
  5
1EEA4
  8
PATH
 10
211.950501002473203
 20
309.5370497154581244
 30
0.0
  0
SEQEND
  5
1EEA5
  8
PATH
  0
POLYLINE
  5
15847
  8
PATH
 66
     1
 10
0.0
 20
0.0
 30
0.0
  0
VERTEX
  5
1EEA6
  8
PATH
 10
304.7034657458278843
 20
769.2915205006064525
 30
0.0
  0
VERTEX
  5
1EEA7
  8
PATH
 10
451.7014269781503231
 20
767.3662969996729544
 30
0.0
  0
VERTEX
  5
1EEA8
  8
PATH
 10
621.1325053458421053
 20
764.3769054655494983
 30
0.0
  0
VERTEX
  5
1EEA9
  8
PATH
 10
641.700914238215546
 20
758.6917739147827433
 30
0.0
  0
VERTEX
  5
1EEAA
  8
PATH
 10
803.4070965621358482
 20
757.312750599398214
 30
0.0
  0
VERTEX
  5
1EEAB
  8
PATH
 10
876.6530354791758555
 20
744.4475748721088166
 30
0.0
  0
SEQEND
  5
1EEAC
  8
PATH
  0
POLYLINE
  5
15848
  8
PATH
 66
     1
 10
0.0
 20
0.0
 30
0.0
  0
VERTEX
  5
1EEAD
  8
PATH
 10
2.51870917713677
 20
200.8484703354114913
 30
0.0
  0
VERTEX
  5
1EEAE
  8
PATH
 10
88.8197493895277148
 20
246.906585100157713
 30
0.0
  0
SEQEND
  5
1EEAF
  8
PATH
  0
POLYLINE
  5
15849
  8
PATH
 66
     1
 10
0.0
 20
0.0
 30
0.0
  0
VERTEX
  5
1EEB0
  8
PATH
 10
-44.6984889820596365
 20
65.7533888454127151
 30
0.0
  0
VERTEX
  5
1EEB1
  8
PATH
 10
25.1103165645472508
 20
101.1594378902155
 30
0.0
  0
SEQEND
  5
1EEB2
  8
PATH
  0
POLYLINE
  5
1584A
  8
PATH
 66
     1
 10
0.0
 20
0.0
 30
0.0
  0
VERTEX
  5
1EEB3
  8
PATH
 10
25.1103165644308284
 20
101.1594378902155
 30
0.0
  0
VERTEX
  5
1EEB4
  8
PATH
 10
46.4665888071031077
 20
111.9910402433524013
 30
0.0
  0
SEQEND
  5
1EEB5
  8
PATH
  0
POLYLINE
  5
1584B
  8
PATH
 66
     1
 10
0.0
 20
0.0
 30
0.0
  0
VERTEX
  5
1EEB6
  8
PATH
 10
46.4904740327474428
 20
112.0031544953161955
 30
0.0
  0
VERTEX
  5
1EEB7
  8
PATH
 10
67.8618527891085392
 20
122.1948041581127029
 30
0.0
  0
VERTEX
  5
1EEB8
  8
PATH
 10
122.833361747951102
 20
140.7247267147104139
 30
0.0
  0
VERTEX
  5
1EEB9
  8
PATH
 10
88.8197493895277148
 20
246.906585100157713
 30
0.0
  0
SEQEND
  5
1EEBA
  8
PATH
  0
POLYLINE
  5
1584C
  8
PATH
 66
     1
 10
0.0
 20
0.0
 30
0.0
  0
VERTEX
  5
1EEBB
  8
PATH
 10
88.8197493895277148
 20
246.906585100157713
 30
0.0
  0
VERTEX
  5
1EEBC
  8
PATH
 10
211.950501002473203
 20
309.5370497154581244
 30
0.0
  0
SEQEND
  5
1EEBD
  8
PATH
  0
POLYLINE
  5
1584D
  8
PATH
 66
     1
 10
0.0
 20
0.0
 30
0.0
  0
VERTEX
  5
1EEBE
  8
PATH
 10
211.950501002473203
 20
309.5370497154581244
 30
0.0
  0
VERTEX
  5
1EEBF
  8
PATH
 10
256.9502574826329919
 20
243.1266753031449923
 30
0.0
  0
SEQEND
  5
1EEC0
  8
PATH
  0
POLYLINE
  5
1584E
  8
PATH
 66
     1
 10
0.0
 20
0.0
 30
0.0
  0
VERTEX
  5
1EEC1
  8
PATH
 10
256.9502574826329919
 20
243.1266753031449923
 30
0.0
  0
VERTEX
  5
1EEC2
  8
PATH
 10
296.5426134961745106
 20
261.4965313254434136
 30
0.0
  0
VERTEX
  5
1EEC3
  8
PATH
 10
397.5227571921860203
 20
306.5116720223376205
 30
0.0
  0
VERTEX
  5
1EEC4
  8
PATH
 10
467.9689844527017044
 20
334.822419427386194
 30
0.0
  0
VERTEX
  5
1EEC5
  8
PATH
 10
539.3849253031511353
 20
361.4855360864240197
 30
0.0
  0
VERTEX
  5
1EEC6
  8
PATH
 10
633.7140342274069553
 20
392.6351626683535869
 30
0.0
  0
VERTEX
  5
1EEC7
  8
PATH
 10
679.2564587879894589
 20
407.6743116104552769
 30
0.0
  0
VERTEX
  5
1EEC8
  8
PATH
 10
695.3467839669756358
 20
423.0986853726716959
 30
0.0
  0
SEQEND
  5
1EEC9
  8
PATH
  0
POLYLINE
  5
1584F
  8
PATH
 66
     1
 10
0.0
 20
0.0
 30
0.0
  0
VERTEX
  5
1EECA
  8
PATH
 10
256.9502574826329919
 20
243.1266753031449923
 30
0.0
  0
VERTEX
  5
1EECB
  8
PATH
 10
283.2139762124716071
 20
190.0977491220037052
 30
0.0
  0
VERTEX
  5
1EECC
  8
PATH
 10
311.8829050997592276
 20
100.1373334187591979
 30
0.0
  0
SEQEND
  5
1EECD
  8
PATH
  0
POLYLINE
  5
15850
  8
PATH
 66
     1
 10
0.0
 20
0.0
 30
0.0
  0
VERTEX
  5
1EECE
  8
PATH
 10
311.8829050997592276
 20
100.1373334187591979
 30
0.0
  0
VERTEX
  5
1EECF
  8
PATH
 10
89.3270010312990053
 20
29.2123678401621909
 30
0.0
  0
SEQEND
  5
1EED0
  8
PATH
  0
POLYLINE
  5
15851
  8
PATH
 66
     1
 10
0.0
 20
0.0
 30
0.0
  0
VERTEX
  5
1EED1
  8
PATH
 10
311.8829050997592276
 20
100.1373334187591979
 30
0.0
  0
VERTEX
  5
1EED2
  8
PATH
 10
528.7209484844205463
 20
168.0280103739860067
 30
0.0
  0
SEQEND
  5
1EED3
  8
PATH
  0
POLYLINE
  5
15852
  8
PATH
 66
     1
 10
0.0
 20
0.0
 30
0.0
  0
VERTEX
  5
1EED4
  8
PATH
 10
528.7209484844205463
 20
168.0280103739860067
 30
0.0
  0
VERTEX
  5
1EED5
  8
PATH
 10
594.2583887741056969
 20
9.1727626137944771
 30
0.0
  0
SEQEND
  5
1EED6
  8
PATH
  0
POLYLINE
  5
15853
  8
PATH
 66
     1
 10
0.0
 20
0.0
 30
0.0
  0
VERTEX
  5
1EED7
  8
PATH
 10
528.7209484844205463
 20
168.0280103739860067
 30
0.0
  0
VERTEX
  5
1EED8
  8
PATH
 10
780.2990151289704954
 20
247.727550329691411
 30
0.0
  0
SEQEND
  5
1EED9
  8
PATH
  0
POLYLINE
  5
15854
  8
PATH
 66
     1
 10
0.0
 20
0.0
 30
0.0
  0
VERTEX
  5
1EEDA
  8
PATH
 10
780.2990151289704954
 20
247.727550329691411
 30
0.0
  0
VERTEX
  5
1EEDB
  8
PATH
 10
881.0008309695257367
 20
269.1376543590376968
 30
0.0
  0
SEQEND
  5
1EEDC
  8
PATH
  0
POLYLINE
  5
15855
  8
PATH
 66
     1
 10
0.0
 20
0.0
 30
0.0
  0
VERTEX
  5
1EEDD
  8
PATH
 10
780.2990151289704954
 20
247.727550329691411
 30
0.0
  0
VERTEX
  5
1EEDE
  8
PATH
 10
772.9589855408850099
 20
268.2936153593983022
 30
0.0
  0
VERTEX
  5
1EEDF
  8
PATH
 10
748.4591756169536438
 20
324.7543125120500918
 30
0.0
  0
VERTEX
  5
1EEE0
  8
PATH
 10
724.5773645136358709
 20
410.6026899642819217
 30
0.0
  0
VERTEX
  5
1EEE1
  8
PATH
 10
723.6272992715090595
 20
424.968927005356818
 30
0.0
  0
SEQEND
  5
1EEE2
  8
PATH
  0
POLYLINE
  5
15856
  8
PATH
 66
     1
 10
0.0
 20
0.0
 30
0.0
  0
VERTEX
  5
1EEE3
  8
PATH
 10
311.8829050997592276
 20
100.1373334187591979
 30
0.0
  0
VERTEX
  5
1EEE4
  8
PATH
 10
429.57019620404742
 20
-275.6372756016863264
 30
0.0
  0
SEQEND
  5
1EEE5
  8
PATH
  0
POLYLINE
  5
15857
  8
PATH
 66
     1
 10
0.0
 20
0.0
 30
0.0
  0
VERTEX
  5
1EEE6
  8
PATH
 10
429.57019620404742
 20
-275.6372756016863264
 30
0.0
  0
VERTEX
  5
1EEE7
  8
PATH
 10
620.5665179169591283
 20
-196.3224306581030874
 30
0.0
  0
SEQEND
  5
1EEE8
  8
PATH
  0
POLYLINE
  5
15858
  8
PATH
 66
     1
 10
0.0
 20
0.0
 30
0.0
  0
VERTEX
  5
1EEE9
  8
PATH
 10
594.2583887741056969
 20
9.1727626137944771
 30
0.0
  0
VERTEX
  5
1EEEA
  8
PATH
 10
558.2019152606808348
 20
-7.7896058349360819
 30
0.0
  0
VERTEX
  5
1EEEB
  8
PATH
 10
550.0113968233780497
 20
-14.4582599270579504
 30
0.0
  0
VERTEX
  5
1EEEC
  8
PATH
 10
549.0544407446141122
 20
-24.4515319894489984
 30
0.0
  0
VERTEX
  5
1EEED
  8
PATH
 10
552.5267854863050161
 20
-35.2281349962067907
 30
0.0
  0
VERTEX
  5
1EEEE
  8
PATH
 10
620.5665179169591283
 20
-196.3224306581030874
 30
0.0
  0
SEQEND
  5
1EEEF
  8
PATH
  0
POLYLINE
  5
15859
  8
PATH
 66
     1
 10
0.0
 20
0.0
 30
0.0
  0
VERTEX
  5
1EEF0
  8
PATH
 10
594.2583887741056969
 20
9.1727626137944771
 30
0.0
  0
VERTEX
  5
1EEF1
  8
PATH
 10
732.1606611048190416
 20
71.6256013331512804
 30
0.0
  0
VERTEX
  5
1EEF2
  8
PATH
 10
758.4380830075097037
 20
80.178695915783436
 30
0.0
  0
VERTEX
  5
1EEF3
  8
PATH
 10
772.1673061417385497
 20
77.0818911497990342
 30
0.0
  0
VERTEX
  5
1EEF4
  8
PATH
 10
780.1390912512288196
 20
67.9389284025455567
 30
0.0
  0
VERTEX
  5
1EEF5
  8
PATH
 10
849.3636663796931998
 20
-100.1627299193715004
 30
0.0
  0
SEQEND
  5
1EEF6
  8
PATH
  0
POLYLINE
  5
1585A
  8
PATH
 66
     1
 10
0.0
 20
0.0
 30
0.0
  0
VERTEX
  5
1EEF7
  8
PATH
 10
620.5665179169591283
 20
-196.3224306581030874
 30
0.0
  0
VERTEX
  5
1EEF8
  8
PATH
 10
849.3636663796931998
 20
-100.1627299193715004
 30
0.0
  0
SEQEND
  5
1EEF9
  8
PATH
  0
POLYLINE
  5
1585B
  8
PATH
 66
     1
 10
0.0
 20
0.0
 30
0.0
  0
VERTEX
  5
1EEFA
  8
PATH
 10
849.3636663796931998
 20
-100.1627299193715004
 30
0.0
  0
VERTEX
  5
1EEFB
  8
PATH
 10
881.0194822312769247
 20
-86.8583080796015423
 30
0.0
  0
SEQEND
  5
1EEFC
  8
PATH
  0
POLYLINE
  5
1585C
  8
PATH
 66
     1
 10
0.0
 20
0.0
 30
0.0
  0
VERTEX
  5
1EEFD
  8
PATH
 10
849.3636663796931998
 20
-100.1627299193715004
 30
0.0
  0
VERTEX
  5
1EEFE
  8
PATH
 10
886.932971807822355
 20
-189.5530866463159043
 30
0.0
  0
SEQEND
  5
1EEFF
  8
PATH
  0
POLYLINE
  5
1585D
  8
PATH
 66
     1
 10
0.0
 20
0.0
 30
0.0
  0
VERTEX
  5
1EF00
  8
PATH
 10
620.5665179169591283
 20
-196.3224306581030874
 30
0.0
  0
VERTEX
  5
1EF01
  8
PATH
 10
661.2566443842224544
 20
-295.5987508561884169
 30
0.0
  0
VERTEX
  5
1EF02
  8
PATH
 10
698.067752723392914
 20
-457.9005929496560725
 30
0.0
  0
SEQEND
  5
1EF03
  8
PATH
  0
POLYLINE
  5
1585E
  8
PATH
 66
     1
 10
0.0
 20
0.0
 30
0.0
  0
VERTEX
  5
1EF04
  8
PATH
 10
698.067752723392914
 20
-457.9005929496560725
 30
0.0
  0
VERTEX
  5
1EF05
  8
PATH
 10
751.8514959704332341
 20
-432.890209895973328
 30
0.0
  0
VERTEX
  5
1EF06
  8
PATH
 10
877.8952602132193306
 20
-376.4942233911206131
 30
0.0
  0
SEQEND
  5
1EF07
  8
PATH
  0
POLYLINE
  5
1585F
  8
PATH
 66
     1
 10
0.0
 20
0.0
 30
0.0
  0
VERTEX
  5
1EF08
  8
PATH
 10
698.067752723392914
 20
-457.9005929496560725
 30
0.0
  0
VERTEX
  5
1EF09
  8
PATH
 10
724.1086910230659441
 20
-579.7837650072251563
 30
0.0
  0
SEQEND
  5
1EF0A
  8
PATH
  0
POLYLINE
  5
15860
  8
PATH
 66
     1
 10
0.0
 20
0.0
 30
0.0
  0
VERTEX
  5
1EF0B
  8
PATH
 10
698.067752723392914
 20
-457.9005929496560725
 30
0.0
  0
VERTEX
  5
1EF0C
  8
PATH
 10
587.4517857874598121
 20
-524.7158506554040969
 30
0.0
  0
SEQEND
  5
1EF0D
  8
PATH
  0
POLYLINE
  5
15861
  8
PATH
 66
     1
 10
0.0
 20
0.0
 30
0.0
  0
VERTEX
  5
1EF0E
  8
PATH
 10
-53.3477578716847418
 20
-284.3628327743572868
 30
0.0
  0
VERTEX
  5
1EF0F
  8
PATH
 10
332.2095100882434053
 20
-422.5374108263712856
 30
0.0
  0
SEQEND
  5
1EF10
  8
PATH
  0
POLYLINE
  5
15862
  8
PATH
 66
     1
 10
0.0
 20
0.0
 30
0.0
  0
VERTEX
  5
1EF11
  8
PATH
 10
332.2095100882434053
 20
-422.5374108263712856
 30
0.0
  0
VERTEX
  5
1EF12
  8
PATH
 10
587.4517857874598121
 20
-524.7158506554040969
 30
0.0
  0
SEQEND
  5
1EF13
  8
PATH
  0
POLYLINE
  5
15863
  8
PATH
 66
     1
 10
0.0
 20
0.0
 30
0.0
  0
VERTEX
  5
1EF14
  8
PATH
 10
587.4517857874598121
 20
-524.7158506554040969
 30
0.0
  0
VERTEX
  5
1EF15
  8
PATH
 10
724.1086910230659441
 20
-579.7837650072251563
 30
0.0
  0
SEQEND
  5
1EF16
  8
PATH
  0
POLYLINE
  5
15864
  8
PATH
 66
     1
 10
0.0
 20
0.0
 30
0.0
  0
VERTEX
  5
1EF17
  8
PATH
 10
724.1086910230659441
 20
-579.7837650072251563
 30
0.0
  0
VERTEX
  5
1EF18
  8
PATH
 10
886.6417384971717865
 20
-647.6176001885396545
 30
0.0
  0
SEQEND
  5
1EF19
  8
PATH
  0
POLYLINE
  5
15865
  8
PATH
 66
     1
 10
0.0
 20
0.0
 30
0.0
  0
VERTEX
  5
1EF1A
  8
PATH
 10
-441.969688363038415
 20
482.6733872877011891
 30
0.0
  0
VERTEX
  5
1EF1B
  8
PATH
 10
-434.5965634285382748
 20
502.3014064017260125
 30
0.0
  0
SEQEND
  5
1EF1C
  8
PATH
  0
POLYLINE
  5
15866
  8
PATH
 66
     1
 10
0.0
 20
0.0
 30
0.0
  0
VERTEX
  5
1EF1D
  8
PATH
 10
-434.5965634285382748
 20
502.3014064017260125
 30
0.0
  0
VERTEX
  5
1EF1E
  8
PATH
 10
-446.9659579594297725
 20
528.0063561536881025
 30
0.0
  0
VERTEX
  5
1EF1F
  8
PATH
 10
-455.6130820184043273
 20
542.04514884720993
 30
0.0
  0
SEQEND
  5
1EF20
  8
PATH
  0
POLYLINE
  5
15867
  8
PATH
 66
     1
 10
0.0
 20
0.0
 30
0.0
  0
VERTEX
  5
1EF21
  8
PATH
 10
-455.6130820184625918
 20
542.04514884720993
 30
0.0
  0
VERTEX
  5
1EF22
  8
PATH
 10
-499.8220217696652981
 20
613.8193174759435351
 30
0.0
  0
SEQEND
  5
1EF23
  8
PATH
  0
POLYLINE
  5
15868
  8
PATH
 66
     1
 10
0.0
 20
0.0
 30
0.0
  0
VERTEX
  5
1EF24
  8
PATH
 10
-281.5312504756875001
 20
471.1419511442579733
 30
0.0
  0
VERTEX
  5
1EF25
  8
PATH
 10
-260.6399539809353882
 20
484.4694635146806263
 30
0.0
  0
SEQEND
  5
1EF26
  8
PATH
  0
POLYLINE
  5
15869
  8
PATH
 66
     1
 10
0.0
 20
0.0
 30
0.0
  0
VERTEX
  5
1EF27
  8
PATH
 10
-260.635968585862372
 20
484.4720059801401248
 30
0.0
  0
VERTEX
  5
1EF28
  8
PATH
 10
-188.3238335052882917
 20
530.6032202425921014
 30
0.0
  0
SEQEND
  5
1EF29
  8
PATH
  0
POLYLINE
  5
1586A
  8
PATH
 66
     1
 10
0.0
 20
0.0
 30
0.0
  0
VERTEX
  5
1EF2A
  8
PATH
 10
32.1837688411323981
 20
-649.5507161723869558
 30
0.0
  0
VERTEX
  5
1EF2B
  8
PATH
 10
382.7910145009955158
 20
-519.6213631294157267
 30
0.0
  0
SEQEND
  5
1EF2C
  8
PATH
  0
POLYLINE
  5
1586B
  8
PATH
 66
     1
 10
0.0
 20
0.0
 30
0.0
  0
VERTEX
  5
1EF2D
  8
PATH
 10
32.1837688411323981
 20
-649.5507161723869558
 30
0.0
  0
VERTEX
  5
1EF2E
  8
PATH
 10
31.3208614915347496
 20
-619.0663502448660438
 30
0.0
  0
VERTEX
  5
1EF2F
  8
PATH
 10
-19.4304806166474009
 20
-509.7328156362709137
 30
0.0
  0
VERTEX
  5
1EF30
  8
PATH
 10
-36.8512457298493175
 20
-477.1171496207314817
 30
0.0
  0
VERTEX
  5
1EF31
  8
PATH
 10
-46.3849249020131396
 20
-442.8668519909916199
 30
0.0
  0
VERTEX
  5
1EF32
  8
PATH
 10
-53.3477578716847418
 20
-284.3628327743572868
 30
0.0
  0
SEQEND
  5
1EF33
  8
PATH
  0
POLYLINE
  5
1586C
  8
PATH
 66
     1
 10
0.0
 20
0.0
 30
0.0
  0
VERTEX
  5
1EF34
  8
PATH
 10
-53.3477578716847418
 20
-284.3628327743572868
 30
0.0
  0
VERTEX
  5
1EF35
  8
PATH
 10
-54.2795047656545577
 20
-243.8351148752917084
 30
0.0
  0
VERTEX
  5
1EF36
  8
PATH
 10
-59.7197811359219486
 20
-219.763359084208787
 30
0.0
  0
SEQEND
  5
1EF37
  8
PATH
  0
POLYLINE
  5
1586D
  8
PATH
 66
     1
 10
0.0
 20
0.0
 30
0.0
  0
VERTEX
  5
1EF38
  8
PATH
 10
-59.7197811358637409
 20
-219.763359084208787
 30
0.0
  0
VERTEX
  5
1EF39
  8
PATH
 10
-78.8266032660758214
 20
-135.2208239337851126
 30
0.0
  0
VERTEX
  5
1EF3A
  8
PATH
 10
-96.3274411396851065
 20
-130.932672294271498
 30
0.0
  0
SEQEND
  5
1EF3B
  8
PATH
  0
POLYLINE
  5
1586E
  8
PATH
 66
     1
 10
0.0
 20
0.0
 30
0.0
  0
VERTEX
  5
1EF3C
  8
PATH
 10
-87.0247215078707086
 20
-106.0678878095422988
 30
0.0
  0
VERTEX
  5
1EF3D
  8
PATH
 10
-73.6658871201361762
 20
-107.8618428776461968
 30
0.0
  0
VERTEX
  5
1EF3E
  8
PATH
 10
-42.7795987188146469
 20
-88.3740285853345995
 30
0.0
  0
VERTEX
  5
1EF3F
  8
PATH
 10
2.8864923829532909
 20
-56.2467780201186471
 30
0.0
  0
SEQEND
  5
1EF40
  8
PATH
  0
POLYLINE
  5
1586F
  8
PATH
 66
     1
 10
0.0
 20
0.0
 30
0.0
  0
VERTEX
  5
1EF41
  8
PATH
 10
2.8864923829532909
 20
-56.2467780201186471
 30
0.0
  0
VERTEX
  5
1EF42
  8
PATH
 10
13.6757529523893009
 20
-72.4272801409897511
 30
0.0
  0
SEQEND
  5
1EF43
  8
PATH
  0
POLYLINE
  5
15870
  8
PATH
 66
     1
 10
0.0
 20
0.0
 30
0.0
  0
VERTEX
  5
1EF44
  8
PATH
 10
13.6757529523310897
 20
-72.4272801409897511
 30
0.0
  0
VERTEX
  5
1EF45
  8
PATH
 10
38.4889294851309387
 20
-109.6392515203405935
 30
0.0
  0
SEQEND
  5
1EF46
  8
PATH
  0
POLYLINE
  5
15871
  8
PATH
 66
     1
 10
0.0
 20
0.0
 30
0.0
  0
VERTEX
  5
1EF47
  8
PATH
 10
38.4889294851309387
 20
-109.6392515203405935
 30
0.0
  0
VERTEX
  5
1EF48
  8
PATH
 10
49.4774227521702414
 20
-126.1185401118782039
 30
0.0
  0
SEQEND
  5
1EF49
  8
PATH
  0
POLYLINE
  5
15872
  8
PATH
 66
     1
 10
0.0
 20
0.0
 30
0.0
  0
VERTEX
  5
1EF4A
  8
PATH
 10
49.4774227521702414
 20
-126.1185401118782039
 30
0.0
  0
VERTEX
  5
1EF4B
  8
PATH
 10
30.3360530002828384
 20
-137.3697663531129081
 30
0.0
  0
VERTEX
  5
1EF4C
  8
PATH
 10
22.4540343784465186
 20
-144.7783300736410013
 30
0.0
  0
VERTEX
  5
1EF4D
  8
PATH
 10
20.2527302875969291
 20
-151.3751605511133107
 30
0.0
  0
VERTEX
  5
1EF4E
  8
PATH
 10
22.2641526528022986
 20
-160.7687252582472865
 30
0.0
  0
SEQEND
  5
1EF4F
  8
PATH
  0
POLYLINE
  5
15873
  8
PATH
 66
     1
 10
0.0
 20
0.0
 30
0.0
  0
VERTEX
  5
1EF50
  8
PATH
 10
22.2641526528022986
 20
-160.7687252582472865
 30
0.0
  0
VERTEX
  5
1EF51
  8
PATH
 10
37.4317271822219482
 20
-185.7549910041925045
 30
0.0
  0
VERTEX
  5
1EF52
  8
PATH
 10
50.5187162794609179
 20
-207.3138095722025014
 30
0.0
  0
SEQEND
  5
1EF53
  8
PATH
  0
POLYLINE
  5
15874
  8
PATH
 66
     1
 10
0.0
 20
0.0
 30
0.0
  0
VERTEX
  5
1EF54
  8
PATH
 10
50.5187162794609179
 20
-207.3138095722025014
 30
0.0
  0
VERTEX
  5
1EF55
  8
PATH
 10
34.9952031337743392
 20
-257.1986072030341006
 30
0.0
  0
SEQEND
  5
1EF56
  8
PATH
  0
POLYLINE
  5
15875
  8
PATH
 66
     1
 10
0.0
 20
0.0
 30
0.0
  0
VERTEX
  5
1EF57
  8
PATH
 10
34.9952031337743392
 20
-257.1986072030341006
 30
0.0
  0
VERTEX
  5
1EF58
  8
PATH
 10
12.5868756486306594
 20
-250.8705452521753898
 30
0.0
  0
VERTEX
  5
1EF59
  8
PATH
 10
-0.0549614675255725
 20
-248.7987264184702951
 30
0.0
  0
VERTEX
  5
1EF5A
  8
PATH
 10
-11.5116347177681693
 20
-249.0946952267040899
 30
0.0
  0
VERTEX
  5
1EF5B
  8
PATH
 10
-20.8174451136874303
 20
-250.4788240161215072
 30
0.0
  0
VERTEX
  5
1EF5C
  8
PATH
 10
-38.6937871955014998
 20
-258.7661117431197795
 30
0.0
  0
VERTEX
  5
1EF5D
  8
PATH
 10
-53.3477578716847418
 20
-284.3628327743572868
 30
0.0
  0
SEQEND
  5
1EF5E
  8
PATH
  0
POLYLINE
  5
15876
  8
PATH
 66
     1
 10
0.0
 20
0.0
 30
0.0
  0
VERTEX
  5
1EF5F
  8
PATH
 10
34.9952031337743392
 20
-257.1986072030341006
 30
0.0
  0
VERTEX
  5
1EF60
  8
PATH
 10
135.2856026212539007
 20
-293.1418900354256039
 30
0.0
  0
SEQEND
  5
1EF61
  8
PATH
  0
POLYLINE
  5
15877
  8
PATH
 66
     1
 10
0.0
 20
0.0
 30
0.0
  0
VERTEX
  5
1EF62
  8
PATH
 10
-901.1684352259179605
 20
-492.9901603287507896
 30
0.0
  0
VERTEX
  5
1EF63
  8
PATH
 10
-789.4060322626171455
 20
-388.2207763958213036
 30
0.0
  0
SEQEND
  5
1EF64
  8
PATH
  0
POLYLINE
  5
15878
  8
PATH
 66
     1
 10
0.0
 20
0.0
 30
0.0
  0
VERTEX
  5
1EF65
  8
PATH
 10
-968.06468317502015
 20
-424.9246414037842214
 30
0.0
  0
VERTEX
  5
1EF66
  8
PATH
 10
-915.0513580321128302
 20
-378.6621278891761904
 30
0.0
  0
VERTEX
  5
1EF67
  8
PATH
 10
-908.9118049453390995
 20
-359.9508163853969904
 30
0.0
  0
SEQEND
  5
1EF68
  8
PATH
  0
POLYLINE
  5
15879
  8
PATH
 66
     1
 10
0.0
 20
0.0
 30
0.0
  0
VERTEX
  5
1EF69
  8
PATH
 10
-908.9118049453390995
 20
-359.9508163853969904
 30
0.0
  0
VERTEX
  5
1EF6A
  8
PATH
 10
-897.4943831084091244
 20
-356.3730851131912232
 30
0.0
  0
VERTEX
  5
1EF6B
  8
PATH
 10
-837.2239322810926296
 20
-314.5792140215125983
 30
0.0
  0
SEQEND
  5
1EF6C
  8
PATH
  0
POLYLINE
  5
1587A
  8
PATH
 66
     1
 10
0.0
 20
0.0
 30
0.0
  0
VERTEX
  5
1EF6D
  8
PATH
 10
-908.9118049453390995
 20
-359.9508163853969904
 30
0.0
  0
VERTEX
  5
1EF6E
  8
PATH
 10
-915.5524415840189931
 20
-353.890618685116408
 30
0.0
  0
VERTEX
  5
1EF6F
  8
PATH
 10
-959.7554379106877604
 20
-269.9588928715747898
 30
0.0
  0
SEQEND
  5
1EF70
  8
PATH
  0
POLYLINE
  5
1587B
  8
PATH
 66
     1
 10
0.0
 20
0.0
 30
0.0
  0
VERTEX
  5
1EF71
  8
PATH
 10
-1045.516118802318033
 20
-313.8219334119422115
 30
0.0
  0
VERTEX
  5
1EF72
  8
PATH
 10
-959.7554379106877604
 20
-269.9588928715747898
 30
0.0
  0
SEQEND
  5
1EF73
  8
PATH
  0
POLYLINE
  5
1587C
  8
PATH
 66
     1
 10
0.0
 20
0.0
 30
0.0
  0
VERTEX
  5
1EF74
  8
PATH
 10
-729.7059476305292947
 20
-663.7832808587190812
 30
0.0
  0
VERTEX
  5
1EF75
  8
PATH
 10
-649.9985812941012
 20
-586.5496373981659417
 30
0.0
  0
SEQEND
  5
1EF76
  8
PATH
  0
POLYLINE
  5
1587D
  8
PATH
 66
     1
 10
0.0
 20
0.0
 30
0.0
  0
VERTEX
  5
1EF77
  8
PATH
 10
-789.4060322626171455
 20
-388.2207763958213036
 30
0.0
  0
VERTEX
  5
1EF78
  8
PATH
 10
-755.2098491043577724
 20
-375.7244872543452061
 30
0.0
  0
VERTEX
  5
1EF79
  8
PATH
 10
-714.3781810504877967
 20
-352.086011175015301
 30
0.0
  0
VERTEX
  5
1EF7A
  8
PATH
 10
-689.8851417866096654
 20
-337.9063768288542065
 30
0.0
  0
VERTEX
  5
1EF7B
  8
PATH
 10
-667.9308980053899631
 20
-334.7347853704778231
 30
0.0
  0
VERTEX
  5
1EF7C
  8
PATH
 10
-635.3248245591676096
 20
-334.6795379975300762
 30
0.0
  0
VERTEX
  5
1EF7D
  8
PATH
 10
-563.0548141680917524
 20
-344.9426442537878756
 30
0.0
  0
SEQEND
  5
1EF7E
  8
PATH
  0
POLYLINE
  5
1587E
  8
PATH
 66
     1
 10
0.0
 20
0.0
 30
0.0
  0
VERTEX
  5
1EF7F
  8
PATH
 10
-563.0548141680917524
 20
-344.9426442537878756
 30
0.0
  0
VERTEX
  5
1EF80
  8
PATH
 10
-557.6708990979968803
 20
-377.1120171909643091
 30
0.0
  0
VERTEX
  5
1EF81
  8
PATH
 10
-551.5277276328561129
 20
-416.0496323531913845
 30
0.0
  0
VERTEX
  5
1EF82
  8
PATH
 10
-543.3193899066098993
 20
-485.5876561584373121
 30
0.0
  0
VERTEX
  5
1EF83
  8
PATH
 10
-536.5508445126032484
 20
-578.3960870624943027
 30
0.0
  0
SEQEND
  5
1EF84
  8
PATH
  0
POLYLINE
  5
1587F
  8
PATH
 66
     1
 10
0.0
 20
0.0
 30
0.0
  0
VERTEX
  5
1EF85
  8
PATH
 10
-536.5508445126032484
 20
-578.3960870624943027
 30
0.0
  0
VERTEX
  5
1EF86
  8
PATH
 10
-533.7183476229690768
 20
-612.769268977870297
 30
0.0
  0
VERTEX
  5
1EF87
  8
PATH
 10
-530.2152934642655282
 20
-647.2446909206410055
 30
0.0
  0
VERTEX
  5
1EF88
  8
PATH
 10
-524.5756178032751222
 20
-684.5107198897237595
 30
0.0
  0
VERTEX
  5
1EF89
  8
PATH
 10
-501.565561115174205
 20
-758.7179446573791211
 30
0.0
  0
VERTEX
  5
1EF8A
  8
PATH
 10
-487.3745358695305185
 20
-794.1219217315737069
 30
0.0
  0
SEQEND
  5
1EF8B
  8
PATH
  0
POLYLINE
  5
15880
  8
PATH
 66
     1
 10
0.0
 20
0.0
 30
0.0
  0
VERTEX
  5
1EF8C
  8
PATH
 10
-520.9250602094250553
 20
-577.2305042165753548
 30
0.0
  0
VERTEX
  5
1EF8D
  8
PATH
 10
-520.3422542764601531
 20
-609.483810433135659
 30
0.0
  0
VERTEX
  5
1EF8E
  8
PATH
 10
-516.4146282589789507
 20
-656.1903821504164398
 30
0.0
  0
VERTEX
  5
1EF8F
  8
PATH
 10
-510.2840901918387999
 20
-687.7513314652677536
 30
0.0
  0
VERTEX
  5
1EF90
  8
PATH
 10
-494.986993582409923
 20
-737.2600102144715493
 30
0.0
  0
VERTEX
  5
1EF91
  8
PATH
 10
-475.5201754128938205
 20
-789.5718830502080436
 30
0.0
  0
SEQEND
  5
1EF92
  8
PATH
  0
POLYLINE
  5
15881
  8
PATH
 66
     1
 10
0.0
 20
0.0
 30
0.0
  0
VERTEX
  5
1EF93
  8
PATH
 10
-520.9250602094250553
 20
-577.2305042165753548
 30
0.0
  0
VERTEX
  5
1EF94
  8
PATH
 10
-526.8156259628159432
 20
-512.675912580867589
 30
0.0
  0
VERTEX
  5
1EF95
  8
PATH
 10
-538.5966793629486347
 20
-408.298070893106285
 30
0.0
  0
VERTEX
  5
1EF96
  8
PATH
 10
-545.0131772994209314
 20
-348.9380730404009228
 30
0.0
  0
SEQEND
  5
1EF97
  8
PATH
  0
POLYLINE
  5
15882
  8
PATH
 66
     1
 10
0.0
 20
0.0
 30
0.0
  0
VERTEX
  5
1EF98
  8
PATH
 10
-545.0131772994209314
 20
-348.9380730404009228
 30
0.0
  0
VERTEX
  5
1EF99
  8
PATH
 10
-563.0548141680917524
 20
-344.9426442537878756
 30
0.0
  0
SEQEND
  5
1EF9A
  8
PATH
  0
POLYLINE
  5
15883
  8
PATH
 66
     1
 10
0.0
 20
0.0
 30
0.0
  0
VERTEX
  5
1EF9B
  8
PATH
 10
-545.0131772994209314
 20
-348.9380730404009228
 30
0.0
  0
VERTEX
  5
1EF9C
  8
PATH
 10
-300.1887402821012074
 20
-385.9552381443281774
 30
0.0
  0
SEQEND
  5
1EF9D
  8
PATH
  0
POLYLINE
  5
15884
  8
PATH
 66
     1
 10
0.0
 20
0.0
 30
0.0
  0
VERTEX
  5
1EF9E
  8
PATH
 10
199.932229620855594
 20
-964.354548669369251
 30
0.0
  0
VERTEX
  5
1EF9F
  8
PATH
 10
159.0899459784704106
 20
-963.8406875691794085
 30
0.0
  0
VERTEX
  5
1EFA0
  8
PATH
 10
114.2123587680252967
 20
-968.2893953890959438
 30
0.0
  0
VERTEX
  5
1EFA1
  8
PATH
 10
69.3347870206780357
 20
-978.5556400929998517
 30
0.0
  0
VERTEX
  5
1EFA2
  8
PATH
 10
33.633484677222441
 20
-991.6050160554657396
 30
0.0
  0
VERTEX
  5
1EFA3
  8
PATH
 10
-6.7905900625191853
 20
-1012.4797260923729709
 30
0.0
  0
SEQEND
  5
1EFA4
  8
PATH
  0
POLYLINE
  5
15885
  8
PATH
 66
     1
 10
0.0
 20
0.0
 30
0.0
  0
VERTEX
  5
1EFA5
  8
PATH
 10
199.932229620855594
 20
-964.354548669369251
 30
0.0
  0
VERTEX
  5
1EFA6
  8
PATH
 10
221.4528982398188077
 20
-1014.146532070305966
 30
0.0
  0
SEQEND
  5
1EFA7
  8
PATH
  0
POLYLINE
  5
15886
  8
PATH
 66
     1
 10
0.0
 20
0.0
 30
0.0
  0
VERTEX
  5
1EFA8
  8
PATH
 10
525.4398771968408255
 20
-875.8251652027903447
 30
0.0
  0
VERTEX
  5
1EFA9
  8
PATH
 10
571.5575868889427511
 20
-1014.6079373564059551
 30
0.0
  0
SEQEND
  5
1EFAA
  8
PATH
  0
POLYLINE
  5
15887
  8
PATH
 66
     1
 10
0.0
 20
0.0
 30
0.0
  0
VERTEX
  5
1EFAB
  8
PATH
 10
525.4398771985870553
 20
-875.8251652079123915
 30
0.0
  0
VERTEX
  5
1EFAC
  8
PATH
 10
754.0342637643186663
 20
-789.1438067298803389
 30
0.0
  0
SEQEND
  5
1EFAD
  8
PATH
  0
POLYLINE
  5
15888
  8
PATH
 66
     1
 10
0.0
 20
0.0
 30
0.0
  0
VERTEX
  5
1EFAE
  8
PATH
 10
754.0342637643186663
 20
-789.1438067298803389
 30
0.0
  0
VERTEX
  5
1EFAF
  8
PATH
 10
781.593364297397784
 20
-1012.4139561382539796
 30
0.0
  0
SEQEND
  5
1EFB0
  8
PATH
  0
POLYLINE
  5
15889
  8
PATH
 66
     1
 10
0.0
 20
0.0
 30
0.0
  0
VERTEX
  5
1EFB1
  8
PATH
 10
754.0342637643186663
 20
-789.1438067298803389
 30
0.0
  0
VERTEX
  5
1EFB2
  8
PATH
 10
880.4263387484096484
 20
-748.0555148212658878
 30
0.0
  0
SEQEND
  5
1EFB3
  8
PATH
  0
POLYLINE
  5
1588A
  8
PATH
 66
     1
 10
0.0
 20
0.0
 30
0.0
  0
VERTEX
  5
1EFB4
  8
PATH
 10
754.0342637643186663
 20
-789.1438067298803389
 30
0.0
  0
VERTEX
  5
1EFB5
  8
PATH
 10
733.4662104353044469
 20
-614.1282474384132684
 30
0.0
  0
SEQEND
  5
1EFB6
  8
PATH
  0
POLYLINE
  5
1588B
  8
PATH
 66
     1
 10
0.0
 20
0.0
 30
0.0
  0
VERTEX
  5
1EFB7
  8
PATH
 10
135.2856026212539007
 20
-293.1418900354256039
 30
0.0
  0
VERTEX
  5
1EFB8
  8
PATH
 10
150.8461203105835011
 20
-249.7005722475659866
 30
0.0
  0
SEQEND
  5
1EFB9
  8
PATH
  0
POLYLINE
  5
1588C
  8
PATH
 66
     1
 10
0.0
 20
0.0
 30
0.0
  0
VERTEX
  5
1EFBA
  8
PATH
 10
150.8461203105835011
 20
-249.7005722475659866
 30
0.0
  0
VERTEX
  5
1EFBB
  8
PATH
 10
218.3202889874665118
 20
-213.7707743741993909
 30
0.0
  0
SEQEND
  5
1EFBC
  8
PATH
  0
POLYLINE
  5
1588D
  8
PATH
 66
     1
 10
0.0
 20
0.0
 30
0.0
  0
VERTEX
  5
1EFBD
  8
PATH
 10
-263.6426705427729189
 20
-557.5827526649881065
 30
0.0
  0
VERTEX
  5
1EFBE
  8
PATH
 10
-226.4461974885344091
 20
-534.3876947657624896
 30
0.0
  0
VERTEX
  5
1EFBF
  8
PATH
 10
-95.1283343404793413
 20
-495.6722832382146748
 30
0.0
  0
VERTEX
  5
1EFC0
  8
PATH
 10
-83.6544874493411044
 20
-487.5216120094481767
 30
0.0
  0
VERTEX
  5
1EFC1
  8
PATH
 10
-73.6717990263859832
 20
-474.743937051338321
 30
0.0
  0
VERTEX
  5
1EFC2
  8
PATH
 10
-71.8379306443530368
 20
-459.3102952432308257
 30
0.0
  0
VERTEX
  5
1EFC3
  8
PATH
 10
-78.9192334260005737
 20
-276.8492628414604724
 30
0.0
  0
SEQEND
  5
1EFC4
  8
PATH
  0
POLYLINE
  5
1588E
  8
PATH
 66
     1
 10
0.0
 20
0.0
 30
0.0
  0
VERTEX
  5
1EFC5
  8
PATH
 10
-53.3477578716847418
 20
-284.3628327743572868
 30
0.0
  0
VERTEX
  5
1EFC6
  8
PATH
 10
-78.9192334260005737
 20
-276.8492628414604724
 30
0.0
  0
SEQEND
  5
1EFC7
  8
PATH
  0
POLYLINE
  5
1588F
  8
PATH
 66
     1
 10
0.0
 20
0.0
 30
0.0
  0
VERTEX
  5
1EFC8
  8
PATH
 10
-78.9192334260005737
 20
-276.8492628414604724
 30
0.0
  0
VERTEX
  5
1EFC9
  8
PATH
 10
-293.2633191370550776
 20
-201.4428012701172861
 30
0.0
  0
SEQEND
  5
1EFCA
  8
PATH
  0
POLYLINE
  5
15890
  8
PATH
 66
     1
 10
0.0
 20
0.0
 30
0.0
  0
VERTEX
  5
1EFCB
  8
PATH
 10
-563.0548141680917524
 20
-344.9426442537878756
 30
0.0
  0
VERTEX
  5
1EFCC
  8
PATH
 10
-572.4388465283700498
 20
-302.3461792515082038
 30
0.0
  0
VERTEX
  5
1EFCD
  8
PATH
 10
-581.8420377382572042
 20
-249.2844033729707007
 30
0.0
  0
VERTEX
  5
1EFCE
  8
PATH
 10
-587.2952277447475353
 20
-208.7855364046482123
 30
0.0
  0
VERTEX
  5
1EFCF
  8
PATH
 10
-587.1679041228635469
 20
-168.1608871668067877
 30
0.0
  0
VERTEX
  5
1EFD0
  8
PATH
 10
-570.1596604645746993
 20
-80.2850611246612971
 30
0.0
  0
SEQEND
  5
1EFD1
  8
PATH
  0
POLYLINE
  5
15891
  8
PATH
 66
     1
 10
0.0
 20
0.0
 30
0.0
  0
VERTEX
  5
1EFD2
  8
PATH
 10
-538.0381037991171524
 20
-91.9160155909557943
 30
0.0
  0
VERTEX
  5
1EFD3
  8
PATH
 10
-546.64662798804045
 20
-126.7225857800295046
 30
0.0
  0
VERTEX
  5
1EFD4
  8
PATH
 10
-552.2417852245416725
 20
-161.3331595193085093
 30
0.0
  0
VERTEX
  5
1EFD5
  8
PATH
 10
-554.0277487510611536
 20
-196.7083080252122897
 30
0.0
  0
VERTEX
  5
1EFD6
  8
PATH
 10
-551.3717043944780016
 20
-223.3120293355968897
 30
0.0
  0
VERTEX
  5
1EFD7
  8
PATH
 10
-544.7449072799208807
 20
-263.8585151861843769
 30
0.0
  0
VERTEX
  5
1EFD8
  8
PATH
 10
-537.582760261036924
 20
-306.3195916721087997
 30
0.0
  0
VERTEX
  5
1EFD9
  8
PATH
 10
-545.0131772994209314
 20
-348.9380730404009228
 30
0.0
  0
SEQEND
  5
1EFDA
  8
PATH
  0
POLYLINE
  5
15892
  8
PATH
 66
     1
 10
0.0
 20
0.0
 30
0.0
  0
VERTEX
  5
1EFDB
  8
PATH
 10
-852.1970057016734472
 20
30.97576511190708
 30
0.0
  0
VERTEX
  5
1EFDC
  8
PATH
 10
-828.3928196555496015
 20
30.7902011471378501
 30
0.0
  0
VERTEX
  5
1EFDD
  8
PATH
 10
-795.6512658687570365
 20
23.840647983881361
 30
0.0
  0
SEQEND
  5
1EFDE
  8
PATH
  0
POLYLINE
  5
15893
  8
PATH
 66
     1
 10
0.0
 20
0.0
 30
0.0
  0
VERTEX
  5
1EFDF
  8
PATH
 10
-795.6512658687570365
 20
23.840647983881361
 30
0.0
  0
VERTEX
  5
1EFE0
  8
PATH
 10
-772.0427308484941022
 20
18.8296222305434604
 30
0.0
  0
VERTEX
  5
1EFE1
  8
PATH
 10
-742.1671659678246442
 20
12.4883890753189899
 30
0.0
  0
VERTEX
  5
1EFE2
  8
PATH
 10
-611.2006939114214674
 20
-49.5133325615388316
 30
0.0
  0
VERTEX
  5
1EFE3
  8
PATH
 10
-588.7291725377581315
 20
-69.4938369551164214
 30
0.0
  0
VERTEX
  5
1EFE4
  8
PATH
 10
-570.1596604645746993
 20
-80.2850611246612971
 30
0.0
  0
SEQEND
  5
1EFE5
  8
PATH
  0
POLYLINE
  5
15894
  8
PATH
 66
     1
 10
0.0
 20
0.0
 30
0.0
  0
VERTEX
  5
1EFE6
  8
PATH
 10
-795.6512658687570365
 20
23.840647983881361
 30
0.0
  0
VERTEX
  5
1EFE7
  8
PATH
 10
-777.6833497620099251
 20
10.7261575335214694
 30
0.0
  0
VERTEX
  5
1EFE8
  8
PATH
 10
-624.3882759300322505
 20
-60.6271490863946312
 30
0.0
  0
VERTEX
  5
1EFE9
  8
PATH
 10
-588.7291725377581315
 20
-69.4938369551164214
 30
0.0
  0
SEQEND
  5
1EFEA
  8
PATH
  0
POLYLINE
  5
15895
  8
PATH
 66
     1
 10
0.0
 20
0.0
 30
0.0
  0
VERTEX
  5
1EFEB
  8
PATH
 10
-838.2165934175280881
 20
65.6070525679315324
 30
0.0
  0
VERTEX
  5
1EFEC
  8
PATH
 10
-793.3297435895218541
 20
55.3750528842720087
 30
0.0
  0
VERTEX
  5
1EFED
  8
PATH
 10
-778.1834492935596472
 20
48.5620691949079628
 30
0.0
  0
SEQEND
  5
1EFEE
  8
PATH
  0
POLYLINE
  5
15896
  8
PATH
 66
     1
 10
0.0
 20
0.0
 30
0.0
  0
VERTEX
  5
1EFEF
  8
PATH
 10
-778.1834492933849106
 20
48.5620691949079628
 30
0.0
  0
VERTEX
  5
1EFF0
  8
PATH
 10
-599.3161301488432855
 20
-31.8945827134375612
 30
0.0
  0
VERTEX
  5
1EFF1
  8
PATH
 10
-531.3949621293138534
 20
-58.3799669774671202
 30
0.0
  0
SEQEND
  5
1EFF2
  8
PATH
  0
POLYLINE
  5
15897
  8
PATH
 66
     1
 10
0.0
 20
0.0
 30
0.0
  0
VERTEX
  5
1EFF3
  8
PATH
 10
-570.1596604645746993
 20
-80.2850611246612971
 30
0.0
  0
VERTEX
  5
1EFF4
  8
PATH
 10
-538.0381037991171524
 20
-91.9160155909557943
 30
0.0
  0
SEQEND
  5
1EFF5
  8
PATH
  0
POLYLINE
  5
15898
  8
PATH
 66
     1
 10
0.0
 20
0.0
 30
0.0
  0
VERTEX
  5
1EFF6
  8
PATH
 10
-538.0381037991171524
 20
-91.9160155909557943
 30
0.0
  0
VERTEX
  5
1EFF7
  8
PATH
 10
-531.3949621293138534
 20
-58.3799669774671202
 30
0.0
  0
SEQEND
  5
1EFF8
  8
PATH
  0
POLYLINE
  5
15899
  8
PATH
 66
     1
 10
0.0
 20
0.0
 30
0.0
  0
VERTEX
  5
1EFF9
  8
PATH
 10
-538.0381037991171524
 20
-91.9160155909557943
 30
0.0
  0
VERTEX
  5
1EFFA
  8
PATH
 10
-369.1605608242243761
 20
-167.836985604320887
 30
0.0
  0
VERTEX
  5
1EFFB
  8
PATH
 10
-293.2633191370550776
 20
-201.4428012701172861
 30
0.0
  0
SEQEND
  5
1EFFC
  8
PATH
  0
POLYLINE
  5
1589A
  8
PATH
 66
     1
 10
0.0
 20
0.0
 30
0.0
  0
VERTEX
  5
1EFFD
  8
PATH
 10
-463.1616451473234974
 20
170.3912501782687912
 30
0.0
  0
VERTEX
  5
1EFFE
  8
PATH
 10
-444.8784654213959016
 20
155.8965213173578093
 30
0.0
  0
SEQEND
  5
1EFFF
  8
PATH
  0
POLYLINE
  5
1589B
  8
PATH
 66
     1
 10
0.0
 20
0.0
 30
0.0
  0
VERTEX
  5
1F000
  8
PATH
 10
-444.8784654213959016
 20
155.8965213173578093
 30
0.0
  0
VERTEX
  5
1F001
  8
PATH
 10
-379.0756907210599138
 20
216.7076668269509128
 30
0.0
  0
VERTEX
  5
1F002
  8
PATH
 10
-309.6362263956252718
 20
262.3353455542164738
 30
0.0
  0
SEQEND
  5
1F003
  8
PATH
  0
POLYLINE
  5
1589C
  8
PATH
 66
     1
 10
0.0
 20
0.0
 30
0.0
  0
VERTEX
  5
1F004
  8
PATH
 10
-501.9140394886633771
 20
169.931782271763808
 30
0.0
  0
VERTEX
  5
1F005
  8
PATH
 10
-501.9140394886633771
 20
169.931782271763808
 30
0.0
  0
VERTEX
  5
1F006
  8
PATH
 10
-501.2664109101315262
 20
156.0096197207967066
 30
0.0
  0
VERTEX
  5
1F007
  8
PATH
 10
-500.8744199198117144
 20
149.5490446547553915
 30
0.0
  0
VERTEX
  5
1F008
  8
PATH
 10
-501.8882926322547746
 20
144.4391475804659137
 30
0.0
  0
VERTEX
  5
1F009
  8
PATH
 10
-504.9704397000168115
 20
135.0166871790351877
 30
0.0
  0
VERTEX
  5
1F00A
  8
PATH
 10
-508.8946096364671234
 20
129.1827518712306926
 30
0.0
  0
SEQEND
  5
1F00B
  8
PATH
  0
POLYLINE
  5
1589D
  8
PATH
 66
     1
 10
0.0
 20
0.0
 30
0.0
  0
VERTEX
  5
1F00C
  8
PATH
 10
-508.8946096364089158
 20
129.1827518712306926
 30
0.0
  0
VERTEX
  5
1F00D
  8
PATH
 10
-524.511832287083962
 20
105.9651369089770014
 30
0.0
  0
VERTEX
  5
1F00E
  8
PATH
 10
-540.8160596731612486
 20
69.0944530987689944
 30
0.0
  0
VERTEX
  5
1F00F
  8
PATH
 10
-550.9290097174962284
 20
33.0288537038068171
 30
0.0
  0
VERTEX
  5
1F010
  8
PATH
 10
-558.9373624544966788
 20
-5.033676674538583
 30
0.0
  0
SEQEND
  5
1F011
  8
PATH
  0
POLYLINE
  5
1589E
  8
PATH
 66
     1
 10
0.0
 20
0.0
 30
0.0
  0
VERTEX
  5
1F012
  8
PATH
 10
-444.8784654213959016
 20
155.8965213173578093
 30
0.0
  0
VERTEX
  5
1F013
  8
PATH
 10
-465.7947054985705222
 20
149.5978853176856944
 30
0.0
  0
VERTEX
  5
1F014
  8
PATH
 10
-488.9518322579822893
 20
136.635874274237608
 30
0.0
  0
VERTEX
  5
1F015
  8
PATH
 10
-508.8946096364089158
 20
129.1827518712306926
 30
0.0
  0
SEQEND
  5
1F016
  8
PATH
  0
POLYLINE
  5
1589F
  8
PATH
 66
     1
 10
0.0
 20
0.0
 30
0.0
  0
VERTEX
  5
1F017
  8
PATH
 10
-778.1834492935596472
 20
48.5620691949079628
 30
0.0
  0
VERTEX
  5
1F018
  8
PATH
 10
-726.8913993973543484
 20
61.2407202711838181
 30
0.0
  0
VERTEX
  5
1F019
  8
PATH
 10
-647.670669711616938
 20
29.0598549638452788
 30
0.0
  0
VERTEX
  5
1F01A
  8
PATH
 10
-628.4676109654974425
 20
25.6569833439352806
 30
0.0
  0
VERTEX
  5
1F01B
  8
PATH
 10
-558.9373624544966788
 20
-5.033676674538583
 30
0.0
  0
SEQEND
  5
1F01C
  8
PATH
  0
POLYLINE
  5
158A0
  8
PATH
 66
     1
 10
0.0
 20
0.0
 30
0.0
  0
VERTEX
  5
1F01D
  8
PATH
 10
-444.8784654213959016
 20
155.8965213173578093
 30
0.0
  0
VERTEX
  5
1F01E
  8
PATH
 10
-449.7366979365032762
 20
138.4321507709609023
 30
0.0
  0
VERTEX
  5
1F01F
  8
PATH
 10
-453.8471757670195075
 20
133.7931506876410879
 30
0.0
  0
VERTEX
  5
1F020
  8
PATH
 10
-475.0124934747727252
 20
112.6080015781844992
 30
0.0
  0
VERTEX
  5
1F021
  8
PATH
 10
-489.2841973209431785
 20
94.615005188206851
 30
0.0
  0
VERTEX
  5
1F022
  8
PATH
 10
-495.8593784226248999
 20
83.8129029684278066
 30
0.0
  0
VERTEX
  5
1F023
  8
PATH
 10
-504.1827465621316833
 20
66.0942954989659341
 30
0.0
  0
VERTEX
  5
1F024
  8
PATH
 10
-507.4820272585055818
 20
54.3865563553335889
 30
0.0
  0
VERTEX
  5
1F025
  8
PATH
 10
-531.3949621293138534
 20
-58.3799669774671202
 30
0.0
  0
SEQEND
  5
1F026
  8
PATH
  0
POLYLINE
  5
158A1
  8
PATH
 66
     1
 10
0.0
 20
0.0
 30
0.0
  0
VERTEX
  5
1F027
  8
PATH
 10
-558.9373624544966788
 20
-5.033676674538583
 30
0.0
  0
VERTEX
  5
1F028
  8
PATH
 10
-557.2933506948902505
 20
-29.6230031814848083
 30
0.0
  0
VERTEX
  5
1F029
  8
PATH
 10
-531.3949621293138534
 20
-58.3799669774671202
 30
0.0
  0
SEQEND
  5
1F02A
  8
PATH
  0
POLYLINE
  5
158A2
  8
PATH
 66
     1
 10
0.0
 20
0.0
 30
0.0
  0
VERTEX
  5
1F02B
  8
PATH
 10
-309.6362263956252718
 20
262.3353455542164738
 30
0.0
  0
VERTEX
  5
1F02C
  8
PATH
 10
-266.2174332689755829
 20
198.824309936309902
 30
0.0
  0
VERTEX
  5
1F02D
  8
PATH
 10
-234.2436018590379092
 20
148.9196522301571974
 30
0.0
  0
VERTEX
  5
1F02E
  8
PATH
 10
-201.6713441077299933
 20
94.2302699182691867
 30
0.0
  0
SEQEND
  5
1F02F
  8
PATH
  0
POLYLINE
  5
158A3
  8
PATH
 66
     1
 10
0.0
 20
0.0
 30
0.0
  0
VERTEX
  5
1F030
  8
PATH
 10
2.5173784622893431
 20
200.8477601446720087
 30
0.0
  0
VERTEX
  5
1F031
  8
PATH
 10
-46.6215000722004334
 20
166.8293968230063911
 30
0.0
  0
SEQEND
  5
1F032
  8
PATH
  0
POLYLINE
  5
158A4
  8
PATH
 66
     1
 10
0.0
 20
0.0
 30
0.0
  0
VERTEX
  5
1F033
  8
PATH
 10
-46.6215000722004334
 20
166.8293968230063911
 30
0.0
  0
VERTEX
  5
1F034
  8
PATH
 10
-85.4289240228390554
 20
139.963398108775408
 30
0.0
  0
SEQEND
  5
1F035
  8
PATH
  0
POLYLINE
  5
158A5
  8
PATH
 66
     1
 10
0.0
 20
0.0
 30
0.0
  0
VERTEX
  5
1F036
  8
PATH
 10
-85.4289240228390554
 20
139.963398108775408
 30
0.0
  0
VERTEX
  5
1F037
  8
PATH
 10
-62.8530295328382493
 20
98.8305858136664028
 30
0.0
  0
SEQEND
  5
1F038
  8
PATH
  0
POLYLINE
  5
158A6
  8
PATH
 66
     1
 10
0.0
 20
0.0
 30
0.0
  0
VERTEX
  5
1F039
  8
PATH
 10
-62.8530295328382493
 20
98.8305858136664028
 30
0.0
  0
VERTEX
  5
1F03A
  8
PATH
 10
-44.6984889820596365
 20
65.7533888454127151
 30
0.0
  0
SEQEND
  5
1F03B
  8
PATH
  0
POLYLINE
  5
158A7
  8
PATH
 66
     1
 10
0.0
 20
0.0
 30
0.0
  0
VERTEX
  5
1F03C
  8
PATH
 10
-85.4289240228390554
 20
139.963398108775408
 30
0.0
  0
VERTEX
  5
1F03D
  8
PATH
 10
-87.9100406041979738
 20
153.1490810518662045
 30
0.0
  0
VERTEX
  5
1F03E
  8
PATH
 10
-120.9809487631573006
 20
205.3884011386471968
 30
0.0
  0
SEQEND
  5
1F03F
  8
PATH
  0
POLYLINE
  5
158A8
  8
PATH
 66
     1
 10
0.0
 20
0.0
 30
0.0
  0
VERTEX
  5
1F040
  8
PATH
 10
-120.9809487632154941
 20
205.3884011386471968
 30
0.0
  0
VERTEX
  5
1F041
  8
PATH
 10
-140.6318974956083991
 20
236.4293449163014884
 30
0.0
  0
SEQEND
  5
1F042
  8
PATH
  0
POLYLINE
  5
158A9
  8
PATH
 66
     1
 10
0.0
 20
0.0
 30
0.0
  0
VERTEX
  5
1F043
  8
PATH
 10
-140.6318974956666068
 20
236.4293449163014884
 30
0.0
  0
VERTEX
  5
1F044
  8
PATH
 10
-165.3070025346968919
 20
275.4065240161071983
 30
0.0
  0
SEQEND
  5
1F045
  8
PATH
  0
POLYLINE
  5
158AA
  8
PATH
 66
     1
 10
0.0
 20
0.0
 30
0.0
  0
VERTEX
  5
1F046
  8
PATH
 10
-165.3070025346968919
 20
275.4065240161071983
 30
0.0
  0
VERTEX
  5
1F047
  8
PATH
 10
-190.9868408143665022
 20
315.9707953455435927
 30
0.0
  0
SEQEND
  5
1F048
  8
PATH
  0
POLYLINE
  5
158AB
  8
PATH
 66
     1
 10
0.0
 20
0.0
 30
0.0
  0
VERTEX
  5
1F049
  8
PATH
 10
-190.9868408143665022
 20
315.9707953455435927
 30
0.0
  0
VERTEX
  5
1F04A
  8
PATH
 10
-215.9215090127690928
 20
355.3579844427804915
 30
0.0
  0
SEQEND
  5
1F04B
  8
PATH
  0
POLYLINE
  5
158AC
  8
PATH
 66
     1
 10
0.0
 20
0.0
 30
0.0
  0
VERTEX
  5
1F04C
  8
PATH
 10
-369.7702421167196007
 20
412.0939518302255919
 30
0.0
  0
VERTEX
  5
1F04D
  8
PATH
 10
-299.2443055640470106
 20
456.2656732942484723
 30
0.0
  0
VERTEX
  5
1F04E
  8
PATH
 10
-289.2206243160326267
 20
458.0121011594819151
 30
0.0
  0
VERTEX
  5
1F04F
  8
PATH
 10
-278.4976218633963754
 20
452.5399462609128136
 30
0.0
  0
SEQEND
  5
1F050
  8
PATH
  0
POLYLINE
  5
158AD
  8
PATH
 66
     1
 10
0.0
 20
0.0
 30
0.0
  0
VERTEX
  5
1F051
  8
PATH
 10
-278.4976218633963754
 20
452.5399462609128136
 30
0.0
  0
VERTEX
  5
1F052
  8
PATH
 10
-225.9749785739259096
 20
370.9712248715150054
 30
0.0
  0
SEQEND
  5
1F053
  8
PATH
  0
POLYLINE
  5
158AE
  8
PATH
 66
     1
 10
0.0
 20
0.0
 30
0.0
  0
VERTEX
  5
1F054
  8
PATH
 10
-225.9749785739259096
 20
370.9712248715150054
 30
0.0
  0
VERTEX
  5
1F055
  8
PATH
 10
-215.9215090127690928
 20
355.3579844427804915
 30
0.0
  0
SEQEND
  5
1F056
  8
PATH
  0
POLYLINE
  5
158AF
  8
PATH
 66
     1
 10
0.0
 20
0.0
 30
0.0
  0
VERTEX
  5
1F057
  8
PATH
 10
-434.5965634285382748
 20
502.3014064017260125
 30
0.0
  0
VERTEX
  5
1F058
  8
PATH
 10
-409.4094177932274761
 20
473.2282205676237936
 30
0.0
  0
VERTEX
  5
1F059
  8
PATH
 10
-369.7702421167196007
 20
412.0939518302255919
 30
0.0
  0
SEQEND
  5
1F05A
  8
PATH
  0
POLYLINE
  5
158B0
  8
PATH
 66
     1
 10
0.0
 20
0.0
 30
0.0
  0
VERTEX
  5
1F05B
  8
PATH
 10
-369.7702421167196007
 20
412.0939518302255919
 30
0.0
  0
VERTEX
  5
1F05C
  8
PATH
 10
-302.75922184153751
 20
297.7340694559316034
 30
0.0
  0
SEQEND
  5
1F05D
  8
PATH
  0
POLYLINE
  5
158B1
  8
PATH
 66
     1
 10
0.0
 20
0.0
 30
0.0
  0
VERTEX
  5
1F05E
  8
PATH
 10
-85.4289240228390554
 20
139.963398108775408
 30
0.0
  0
VERTEX
  5
1F05F
  8
PATH
 10
-163.5177576329006115
 20
83.2499524769882555
 30
0.0
  0
SEQEND
  5
1F060
  8
PATH
  0
POLYLINE
  5
158B2
  8
PATH
 66
     1
 10
0.0
 20
0.0
 30
0.0
  0
VERTEX
  5
1F061
  8
PATH
 10
-163.5177576329006115
 20
83.2499524769882555
 30
0.0
  0
VERTEX
  5
1F062
  8
PATH
 10
-154.4235377377044074
 20
62.6244372572327919
 30
0.0
  0
SEQEND
  5
1F063
  8
PATH
  0
POLYLINE
  5
158B3
  8
PATH
 66
     1
 10
0.0
 20
0.0
 30
0.0
  0
VERTEX
  5
1F064
  8
PATH
 10
-154.4235377377044074
 20
62.6244372572327919
 30
0.0
  0
VERTEX
  5
1F065
  8
PATH
 10
-125.1630551324488039
 20
-3.7377726155755209
 30
0.0
  0
SEQEND
  5
1F066
  8
PATH
  0
POLYLINE
  5
158B4
  8
PATH
 66
     1
 10
0.0
 20
0.0
 30
0.0
  0
VERTEX
  5
1F067
  8
PATH
 10
-125.1630551324488039
 20
-3.7377726155755209
 30
0.0
  0
VERTEX
  5
1F068
  8
PATH
 10
-115.2151896190044056
 20
1.4869351410816301
 30
0.0
  0
SEQEND
  5
1F069
  8
PATH
  0
POLYLINE
  5
158B5
  8
PATH
 66
     1
 10
0.0
 20
0.0
 30
0.0
  0
VERTEX
  5
1F06A
  8
PATH
 10
-115.2151896189460984
 20
1.4869351410816301
 30
0.0
  0
VERTEX
  5
1F06B
  8
PATH
 10
-87.6329316952760564
 20
15.9733831864359601
 30
0.0
  0
SEQEND
  5
1F06C
  8
PATH
  0
POLYLINE
  5
158B6
  8
PATH
 66
     1
 10
0.0
 20
0.0
 30
0.0
  0
VERTEX
  5
1F06D
  8
PATH
 10
-87.6329316953924433
 20
15.9733831864359601
 30
0.0
  0
VERTEX
  5
1F06E
  8
PATH
 10
-36.6084400995314425
 20
42.7719015889379008
 30
0.0
  0
SEQEND
  5
1F06F
  8
PATH
  0
POLYLINE
  5
158B7
  8
PATH
 66
     1
 10
0.0
 20
0.0
 30
0.0
  0
VERTEX
  5
1F070
  8
PATH
 10
-36.6084400995314425
 20
42.7719015889379008
 30
0.0
  0
VERTEX
  5
1F071
  8
PATH
 10
-9.6030408545193477
 20
-9.6148701714773779
 30
0.0
  0
SEQEND
  5
1F072
  8
PATH
  0
POLYLINE
  5
158B8
  8
PATH
 66
     1
 10
0.0
 20
0.0
 30
0.0
  0
VERTEX
  5
1F073
  8
PATH
 10
-9.6030408544029342
 20
-9.6148701714773779
 30
0.0
  0
VERTEX
  5
1F074
  8
PATH
 10
1.7208873628260331
 20
-31.581738261920691
 30
0.0
  0
SEQEND
  5
1F075
  8
PATH
  0
POLYLINE
  5
158B9
  8
PATH
 66
     1
 10
0.0
 20
0.0
 30
0.0
  0
VERTEX
  5
1F076
  8
PATH
 10
-44.6984889820596365
 20
65.7533888454127151
 30
0.0
  0
VERTEX
  5
1F077
  8
PATH
 10
-36.6084400995314425
 20
42.7719015889379008
 30
0.0
  0
SEQEND
  5
1F078
  8
PATH
  0
POLYLINE
  5
158BA
  8
PATH
 66
     1
 10
0.0
 20
0.0
 30
0.0
  0
VERTEX
  5
1F079
  8
PATH
 10
-531.3949621293138534
 20
-58.3799669774671202
 30
0.0
  0
VERTEX
  5
1F07A
  8
PATH
 10
-446.378626323144772
 20
-99.6268535898489347
 30
0.0
  0
VERTEX
  5
1F07B
  8
PATH
 10
-385.7955914945487166
 20
-123.7325231390496043
 30
0.0
  0
VERTEX
  5
1F07C
  8
PATH
 10
-331.5261630302555886
 20
-136.5045626363207987
 30
0.0
  0
VERTEX
  5
1F07D
  8
PATH
 10
-286.1206482300913194
 20
-141.363246432920306
 30
0.0
  0
VERTEX
  5
1F07E
  8
PATH
 10
-242.8216327054105079
 20
-139.913443887555303
 30
0.0
  0
VERTEX
  5
1F07F
  8
PATH
 10
-193.0028714912623116
 20
-133.2934875967403059
 30
0.0
  0
VERTEX
  5
1F080
  8
PATH
 10
-125.279536212576204
 20
-113.0287462244232017
 30
0.0
  0
VERTEX
  5
1F081
  8
PATH
 10
-114.4263886108674058
 20
-118.2296175606969939
 30
0.0
  0
SEQEND
  5
1F082
  8
PATH
  0
POLYLINE
  5
158BB
  8
PATH
 66
     1
 10
0.0
 20
0.0
 30
0.0
  0
VERTEX
  5
1F083
  8
PATH
 10
1.7208873628260331
 20
-31.581738261920691
 30
0.0
  0
VERTEX
  5
1F084
  8
PATH
 10
27.6183261153491912
 20
-13.57905249339092
 30
0.0
  0
SEQEND
  5
1F085
  8
PATH
  0
POLYLINE
  5
158BC
  8
PATH
 66
     1
 10
0.0
 20
0.0
 30
0.0
  0
VERTEX
  5
1F086
  8
PATH
 10
27.61832611529098
 20
-13.57905249339092
 30
0.0
  0
VERTEX
  5
1F087
  8
PATH
 10
89.2862460739998056
 20
29.2895954694176908
 30
0.0
  0
SEQEND
  5
1F088
  8
PATH
  0
POLYLINE
  5
158BD
  8
PATH
 66
     1
 10
0.0
 20
0.0
 30
0.0
  0
VERTEX
  5
1F089
  8
PATH
 10
2.8864923829532909
 20
-56.2467780201186471
 30
0.0
  0
VERTEX
  5
1F08A
  8
PATH
 10
27.433960637878041
 20
-38.7869109138337009
 30
0.0
  0
SEQEND
  5
1F08B
  8
PATH
  0
POLYLINE
  5
158BE
  8
PATH
 66
     1
 10
0.0
 20
0.0
 30
0.0
  0
VERTEX
  5
1F08C
  8
PATH
 10
27.4184677911543986
 20
-38.7979305041444604
 30
0.0
  0
VERTEX
  5
1F08D
  8
PATH
 10
85.1961187088017908
 20
2.2975542215208402
 30
0.0
  0
VERTEX
  5
1F08E
  8
PATH
 10
89.3270010313571845
 20
29.2123678401621909
 30
0.0
  0
SEQEND
  5
1F08F
  8
PATH
  0
POLYLINE
  5
158BF
  8
PATH
 66
     1
 10
0.0
 20
0.0
 30
0.0
  0
VERTEX
  5
1F090
  8
PATH
 10
-225.0840171177551099
 20
182.965626644021512
 30
0.0
  0
VERTEX
  5
1F091
  8
PATH
 10
-140.6318974956083991
 20
236.4293449163014884
 30
0.0
  0
SEQEND
  5
1F092
  8
PATH
  0
POLYLINE
  5
158C0
  8
PATH
 66
     1
 10
0.0
 20
0.0
 30
0.0
  0
VERTEX
  5
1F093
  8
PATH
 10
-411.9954567638487788
 20
-148.5800329455595943
 30
0.0
  0
VERTEX
  5
1F094
  8
PATH
 10
-339.143638124121992
 20
-156.1391352433201973
 30
0.0
  0
VERTEX
  5
1F095
  8
PATH
 10
-276.3545058358141091
 20
-157.4999311025675865
 30
0.0
  0
VERTEX
  5
1F096
  8
PATH
 10
-208.7751663303496912
 20
-153.0904195177791109
 30
0.0
  0
VERTEX
  5
1F097
  8
PATH
 10
-156.6812646674952987
 20
-142.0778885702092111
 30
0.0
  0
VERTEX
  5
1F098
  8
PATH
 10
-119.2993275355109972
 20
-130.8568089305844069
 30
0.0
  0
VERTEX
  5
1F099
  8
PATH
 10
-114.4263886108674058
 20
-118.2296175606969939
 30
0.0
  0
SEQEND
  5
1F09A
  8
PATH
  0
POLYLINE
  5
158C1
  8
PATH
 66
     1
 10
0.0
 20
0.0
 30
0.0
  0
VERTEX
  5
1F09B
  8
PATH
 10
-225.0840171177551099
 20
182.965626644021512
 30
0.0
  0
VERTEX
  5
1F09C
  8
PATH
 10
-178.1607854688917882
 20
106.9665044444191011
 30
0.0
  0
SEQEND
  5
1F09D
  8
PATH
  0
POLYLINE
  5
158C2
  8
PATH
 66
     1
 10
0.0
 20
0.0
 30
0.0
  0
VERTEX
  5
1F09E
  8
PATH
 10
-178.1607854688917882
 20
106.9665044444191011
 30
0.0
  0
VERTEX
  5
1F09F
  8
PATH
 10
-163.5177576329006115
 20
83.2499524769882555
 30
0.0
  0
SEQEND
  5
1F0A0
  8
PATH
  0
POLYLINE
  5
158C3
  8
PATH
 66
     1
 10
0.0
 20
0.0
 30
0.0
  0
VERTEX
  5
1F0A1
  8
PATH
 10
49.4774227521702414
 20
-126.1185401118782039
 30
0.0
  0
VERTEX
  5
1F0A2
  8
PATH
 10
72.2667777582973798
 20
-130.6831506927919122
 30
0.0
  0
SEQEND
  5
1F0A3
  8
PATH
  0
POLYLINE
  5
158C4
  8
PATH
 66
     1
 10
0.0
 20
0.0
 30
0.0
  0
VERTEX
  5
1F0A4
  8
PATH
 10
72.2667777582973798
 20
-130.6831506927919122
 30
0.0
  0
VERTEX
  5
1F0A5
  8
PATH
 10
87.9069771800277522
 20
-122.3480280111033949
 30
0.0
  0
SEQEND
  5
1F0A6
  8
PATH
  0
POLYLINE
  5
158C5
  8
PATH
 66
     1
 10
0.0
 20
0.0
 30
0.0
  0
VERTEX
  5
1F0A7
  8
PATH
 10
87.9069771800277522
 20
-122.3480280111033949
 30
0.0
  0
VERTEX
  5
1F0A8
  8
PATH
 10
132.2749356396234077
 20
-98.7030368623745602
 30
0.0
  0
SEQEND
  5
1F0A9
  8
PATH
  0
POLYLINE
  5
158C6
  8
PATH
 66
     1
 10
0.0
 20
0.0
 30
0.0
  0
VERTEX
  5
1F0AA
  8
PATH
 10
132.2749356396234077
 20
-98.7030368623745602
 30
0.0
  0
VERTEX
  5
1F0AB
  8
PATH
 10
151.5599222321033892
 20
-88.425499803801344
 30
0.0
  0
SEQEND
  5
1F0AC
  8
PATH
  0
POLYLINE
  5
158C7
  8
PATH
 66
     1
 10
0.0
 20
0.0
 30
0.0
  0
VERTEX
  5
1F0AD
  8
PATH
 10
72.2667777582973798
 20
-130.6831506927919122
 30
0.0
  0
VERTEX
  5
1F0AE
  8
PATH
 10
73.5189972293883329
 20
-139.2190008228135127
 30
0.0
  0
VERTEX
  5
1F0AF
  8
PATH
 10
94.019138565039583
 20
-197.6835769270037133
 30
0.0
  0
SEQEND
  5
1F0B0
  8
PATH
  0
POLYLINE
  5
158C8
  8
PATH
 66
     1
 10
0.0
 20
0.0
 30
0.0
  0
VERTEX
  5
1F0B1
  8
PATH
 10
50.5187162794609179
 20
-207.3138095722025014
 30
0.0
  0
VERTEX
  5
1F0B2
  8
PATH
 10
94.019138565039583
 20
-197.6835769270037133
 30
0.0
  0
SEQEND
  5
1F0B3
  8
PATH
  0
POLYLINE
  5
158C9
  8
PATH
 66
     1
 10
0.0
 20
0.0
 30
0.0
  0
VERTEX
  5
1F0B4
  8
PATH
 10
94.019138565039583
 20
-197.6835769270037133
 30
0.0
  0
VERTEX
  5
1F0B5
  8
PATH
 10
96.2765885239205232
 20
-208.7907946998674902
 30
0.0
  0
VERTEX
  5
1F0B6
  8
PATH
 10
150.8461203105835011
 20
-249.7005722475659866
 30
0.0
  0
SEQEND
  5
1F0B7
  8
PATH
  0
POLYLINE
  5
158CA
  8
PATH
 66
     1
 10
0.0
 20
0.0
 30
0.0
  0
VERTEX
  5
1F0B8
  8
PATH
 10
-570.6781665987364249
 20
-827.5126316016030614
 30
0.0
  0
VERTEX
  5
1F0B9
  8
PATH
 10
-576.2150478873079464
 20
-855.9195302491499433
 30
0.0
  0
VERTEX
  5
1F0BA
  8
PATH
 10
-574.4752773270738544
 20
-869.9313866276715999
 30
0.0
  0
VERTEX
  5
1F0BB
  8
PATH
 10
-441.8723959204652942
 20
-1013.6163673921910231
 30
0.0
  0
SEQEND
  5
1F0BC
  8
PATH
  0
POLYLINE
  5
158CB
  8
PATH
 66
     1
 10
0.0
 20
0.0
 30
0.0
  0
VERTEX
  5
1F0BD
  8
PATH
 10
-475.5201754128938205
 20
-789.5718830502080436
 30
0.0
  0
VERTEX
  5
1F0BE
  8
PATH
 10
-441.7682284978944267
 20
-837.2721988087942009
 30
0.0
  0
VERTEX
  5
1F0BF
  8
PATH
 10
-359.1436059340048246
 20
-946.3970417296003461
 30
0.0
  0
VERTEX
  5
1F0C0
  8
PATH
 10
-319.8729148379788967
 20
-1014.9340642801910235
 30
0.0
  0
SEQEND
  5
1F0C1
  8
PATH
  0
POLYLINE
  5
158CC
  8
PATH
 66
     1
 10
0.0
 20
0.0
 30
0.0
  0
VERTEX
  5
1F0C2
  8
PATH
 10
429.57019620404742
 20
-275.6372756016863264
 30
0.0
  0
VERTEX
  5
1F0C3
  8
PATH
 10
284.0197334806288154
 20
-340.7741811414671247
 30
0.0
  0
SEQEND
  5
1F0C4
  8
PATH
  0
POLYLINE
  5
158CD
  8
PATH
 66
     1
 10
0.0
 20
0.0
 30
0.0
  0
VERTEX
  5
1F0C5
  8
PATH
 10
284.0192129796923837
 20
-340.7731603895736043
 30
0.0
  0
VERTEX
  5
1F0C6
  8
PATH
 10
263.4741991042246809
 20
-342.1250357590105864
 30
0.0
  0
VERTEX
  5
1F0C7
  8
PATH
 10
135.2856026212539007
 20
-293.1418900354256039
 30
0.0
  0
VERTEX
  5
1F0C8
  8
PATH
 10
135.2856026212539007
 20
-293.1418900354256039
 30
0.0
  0
SEQEND
  5
1F0C9
  8
PATH
  0
POLYLINE
  5
158CE
  8
PATH
 66
     1
 10
0.0
 20
0.0
 30
0.0
  0
VERTEX
  5
1F0CA
  8
PATH
 10
-684.5878066003351705
 20
526.430287818940883
 30
0.0
  0
VERTEX
  5
1F0CB
  8
PATH
 10
-574.5248636754839708
 20
385.7693102811973063
 30
0.0
  0
SEQEND
  5
1F0CC
  8
PATH
  0
POLYLINE
  5
158CF
  8
PATH
 66
     1
 10
0.0
 20
0.0
 30
0.0
  0
VERTEX
  5
1F0CD
  8
PATH
 10
-661.6668666471523466
 20
497.1372148353182752
 30
0.0
  0
VERTEX
  5
1F0CE
  8
PATH
 10
-597.0988143618596951
 20
548.2491401848892565
 30
0.0
  0
SEQEND
  5
1F0CF
  8
PATH
  0
POLYLINE
  5
158D0
  8
PATH
 66
     1
 10
0.0
 20
0.0
 30
0.0
  0
VERTEX
  5
1F0D0
  8
PATH
 10
-614.9597719652955448
 20
575.3616626021030243
 30
0.0
  0
VERTEX
  5
1F0D1
  8
PATH
 10
-597.0988143618596951
 20
548.2491401848892565
 30
0.0
  0
SEQEND
  5
1F0D2
  8
PATH
  0
POLYLINE
  5
158D1
  8
PATH
 66
     1
 10
0.0
 20
0.0
 30
0.0
  0
VERTEX
  5
1F0D3
  8
PATH
 10
-597.0988143618596951
 20
548.2491401848892565
 30
0.0
  0
VERTEX
  5
1F0D4
  8
PATH
 10
-540.3799128090175827
 20
465.1324800081130206
 30
0.0
  0
SEQEND
  5
1F0D5
  8
PATH
  0
POLYLINE
  5
158D2
  8
PATH
 66
     1
 10
0.0
 20
0.0
 30
0.0
  0
VERTEX
  5
1F0D6
  8
PATH
 10
-540.3799128090175827
 20
465.1324800081130206
 30
0.0
  0
VERTEX
  5
1F0D7
  8
PATH
 10
-477.0528996731297866
 20
504.1429089233787977
 30
0.0
  0
SEQEND
  5
1F0D8
  8
PATH
  0
POLYLINE
  5
158D3
  8
PATH
 66
     1
 10
0.0
 20
0.0
 30
0.0
  0
VERTEX
  5
1F0D9
  8
PATH
 10
-477.0528996731297866
 20
504.1429089233787977
 30
0.0
  0
VERTEX
  5
1F0DA
  8
PATH
 10
-476.0877350074151195
 20
497.4506763606840991
 30
0.0
  0
VERTEX
  5
1F0DB
  8
PATH
 10
-475.8283380643841838
 20
493.0709584090434987
 30
0.0
  0
VERTEX
  5
1F0DC
  8
PATH
 10
-477.42859337660758
 20
487.1854798314670916
 30
0.0
  0
VERTEX
  5
1F0DD
  8
PATH
 10
-480.485483724405583
 20
482.2734717848287005
 30
0.0
  0
VERTEX
  5
1F0DE
  8
PATH
 10
-487.3986676592758727
 20
476.3060786673376015
 30
0.0
  0
VERTEX
  5
1F0DF
  8
PATH
 10
-527.1983873506105738
 20
443.2490455969746108
 30
0.0
  0
SEQEND
  5
1F0E0
  8
PATH
  0
POLYLINE
  5
158D4
  8
PATH
 66
     1
 10
0.0
 20
0.0
 30
0.0
  0
VERTEX
  5
1F0E1
  8
PATH
 10
-540.3799128090175827
 20
465.1324800081130206
 30
0.0
  0
VERTEX
  5
1F0E2
  8
PATH
 10
-527.1983873506105738
 20
443.2490455969746108
 30
0.0
  0
SEQEND
  5
1F0E3
  8
PATH
  0
POLYLINE
  5
158D5
  8
PATH
 66
     1
 10
0.0
 20
0.0
 30
0.0
  0
VERTEX
  5
1F0E4
  8
PATH
 10
-527.1983873506105738
 20
443.2490455969746108
 30
0.0
  0
VERTEX
  5
1F0E5
  8
PATH
 10
-517.1470591702527599
 20
427.7151880874807262
 30
0.0
  0
SEQEND
  5
1F0E6
  8
PATH
  0
POLYLINE
  5
158D6
  8
PATH
 66
     1
 10
0.0
 20
0.0
 30
0.0
  0
VERTEX
  5
1F0E7
  8
PATH
 10
-477.0528996731297866
 20
504.1429089233787977
 30
0.0
  0
VERTEX
  5
1F0E8
  8
PATH
 10
-476.2662758893711725
 20
513.8146380903706358
 30
0.0
  0
VERTEX
  5
1F0E9
  8
PATH
 10
-474.759730392965082
 20
520.6055386839941548
 30
0.0
  0
VERTEX
  5
1F0EA
  8
PATH
 10
-471.7853121129592182
 20
527.0394432084212895
 30
0.0
  0
VERTEX
  5
1F0EB
  8
PATH
 10
-468.739900985455904
 20
531.5284526041286881
 30
0.0
  0
VERTEX
  5
1F0EC
  8
PATH
 10
-464.6131770300708013
 20
535.8474951210007475
 30
0.0
  0
VERTEX
  5
1F0ED
  8
PATH
 10
-455.6130820185209132
 20
542.04514884720993
 30
0.0
  0
SEQEND
  5
1F0EE
  8
PATH
  0
POLYLINE
  5
158D7
  8
PATH
 66
     1
 10
0.0
 20
0.0
 30
0.0
  0
VERTEX
  5
1F0EF
  8
PATH
 10
-706.2494664477560491
 20
430.285528354397627
 30
0.0
  0
VERTEX
  5
1F0F0
  8
PATH
 10
-696.588621872549993
 20
436.7885130569848116
 30
0.0
  0
SEQEND
  5
1F0F1
  8
PATH
  0
POLYLINE
  5
158D8
  8
PATH
 66
     1
 10
0.0
 20
0.0
 30
0.0
  0
VERTEX
  5
1F0F2
  8
PATH
 10
-691.5803297117962529
 20
411.4444475737910238
 30
0.0
  0
VERTEX
  5
1F0F3
  8
PATH
 10
-681.9480799703887897
 20
419.2422859455036246
 30
0.0
  0
SEQEND
  5
1F0F4
  8
PATH
  0
POLYLINE
  5
158D9
  8
PATH
 66
     1
 10
0.0
 20
0.0
 30
0.0
  0
VERTEX
  5
1F0F5
  8
PATH
 10
-696.588621872549993
 20
436.7885130569848116
 30
0.0
  0
VERTEX
  5
1F0F6
  8
PATH
 10
-681.9480799703887897
 20
419.2422859455036246
 30
0.0
  0
SEQEND
  5
1F0F7
  8
PATH
  0
POLYLINE
  5
158DA
  8
PATH
 66
     1
 10
0.0
 20
0.0
 30
0.0
  0
VERTEX
  5
1F0F8
  8
PATH
 10
-681.9480799703887897
 20
419.2422859455036246
 30
0.0
  0
VERTEX
  5
1F0F9
  8
PATH
 10
-672.4235258620609557
 20
406.7670814879747923
 30
0.0
  0
VERTEX
  5
1F0FA
  8
PATH
 10
-670.5580782723409357
 20
405.5636017248543226
 30
0.0
  0
VERTEX
  5
1F0FB
  8
PATH
 10
-667.8376145219225464
 20
405.4859566237353192
 30
0.0
  0
VERTEX
  5
1F0FC
  8
PATH
 10
-661.3575125821663505
 20
409.169616728606286
 30
0.0
  0
SEQEND
  5
1F0FD
  8
PATH
  0
POLYLINE
  5
158DB
  8
PATH
 66
     1
 10
0.0
 20
0.0
 30
0.0
  0
VERTEX
  5
1F0FE
  8
PATH
 10
-696.588621872549993
 20
436.7885130569848116
 30
0.0
  0
VERTEX
  5
1F0FF
  8
PATH
 10
-718.2306341015063254
 20
464.5077951145867132
 30
0.0
  0
VERTEX
  5
1F100
  8
PATH
 10
-718.7006277641777388
 20
467.3670638590626822
 30
0.0
  0
VERTEX
  5
1F101
  8
PATH
 10
-718.3838718694895533
 20
470.5407697223636205
 30
0.0
  0
VERTEX
  5
1F102
  8
PATH
 10
-678.6971054764144355
 20
501.3084728536704233
 30
0.0
  0
VERTEX
  5
1F103
  8
PATH
 10
-676.2677644104257979
 20
502.1041247547182138
 30
0.0
  0
VERTEX
  5
1F104
  8
PATH
 10
-673.2410395216572851
 20
501.706294943629473
 30
0.0
  0
VERTEX
  5
1F105
  8
PATH
 10
-605.0739561933587538
 20
414.4283144102009828
 30
0.0
  0
VERTEX
  5
1F106
  8
PATH
 10
-574.5248636754839708
 20
385.7693102811973063
 30
0.0
  0
SEQEND
  5
1F107
  8
PATH
  0
POLYLINE
  5
158DC
  8
PATH
 66
     1
 10
0.0
 20
0.0
 30
0.0
  0
VERTEX
  5
1F108
  8
PATH
 10
-434.5965634285382748
 20
502.3014064017260125
 30
0.0
  0
VERTEX
  5
1F109
  8
PATH
 10
-424.8744910512031083
 20
506.3359003440053812
 30
0.0
  0
VERTEX
  5
1F10A
  8
PATH
 10
-407.2074242650559199
 20
517.9809693056665765
 30
0.0
  0
SEQEND
  5
1F10B
  8
PATH
  0
POLYLINE
  5
158DD
  8
PATH
 66
     1
 10
0.0
 20
0.0
 30
0.0
  0
VERTEX
  5
1F10C
  8
PATH
 10
-407.2074242650559199
 20
517.9809693056665765
 30
0.0
  0
VERTEX
  5
1F10D
  8
PATH
 10
-342.1921410874492722
 20
558.0510447570632095
 30
0.0
  0
SEQEND
  5
1F10E
  8
PATH
  0
POLYLINE
  5
158DE
  8
PATH
 66
     1
 10
0.0
 20
0.0
 30
0.0
  0
VERTEX
  5
1F10F
  8
PATH
 10
-342.1921410874492722
 20
558.0510447570632095
 30
0.0
  0
VERTEX
  5
1F110
  8
PATH
 10
-338.8312000013684155
 20
555.4888722338290563
 30
0.0
  0
VERTEX
  5
1F111
  8
PATH
 10
-304.4910011757311281
 20
545.995563895958071
 30
0.0
  0
VERTEX
  5
1F112
  8
PATH
 10
-299.9872647067094817
 20
540.9967851136387935
 30
0.0
  0
VERTEX
  5
1F113
  8
PATH
 10
-260.6399539809353882
 20
484.4694635146806263
 30
0.0
  0
SEQEND
  5
1F114
  8
PATH
  0
POLYLINE
  5
158DF
  8
PATH
 66
     1
 10
0.0
 20
0.0
 30
0.0
  0
VERTEX
  5
1F115
  8
PATH
 10
-342.1921410874492722
 20
558.0510447570632095
 30
0.0
  0
VERTEX
  5
1F116
  8
PATH
 10
-345.7867158827284015
 20
563.4706836115146871
 30
0.0
  0
VERTEX
  5
1F117
  8
PATH
 10
-385.1540083107101964
 20
607.112184704797869
 30
0.0
  0
VERTEX
  5
1F118
  8
PATH
 10
-391.6508630524767796
 20
608.4671506588855436
 30
0.0
  0
VERTEX
  5
1F119
  8
PATH
 10
-398.9803080323181916
 20
607.9769604681569035
 30
0.0
  0
VERTEX
  5
1F11A
  8
PATH
 10
-406.7096125175156089
 20
605.9215308945204015
 30
0.0
  0
VERTEX
  5
1F11B
  8
PATH
 10
-412.3552527795109199
 20
602.5065979077988914
 30
0.0
  0
VERTEX
  5
1F11C
  8
PATH
 10
-428.6320069523789016
 20
590.0625904421831365
 30
0.0
  0
VERTEX
  5
1F11D
  8
PATH
 10
-432.644644547326493
 20
585.5837721112693544
 30
0.0
  0
VERTEX
  5
1F11E
  8
PATH
 10
-434.6497188338108231
 20
580.0330931558779639
 30
0.0
  0
VERTEX
  5
1F11F
  8
PATH
 10
-434.8827210001908838
 20
574.4935703273439458
 30
0.0
  0
VERTEX
  5
1F120
  8
PATH
 10
-432.5477027180749019
 20
567.5822684858502498
 30
0.0
  0
VERTEX
  5
1F121
  8
PATH
 10
-424.9275251243524281
 20
549.4223710168662365
 30
0.0
  0
VERTEX
  5
1F122
  8
PATH
 10
-413.3668729951168075
 20
527.9756623115899856
 30
0.0
  0
VERTEX
  5
1F123
  8
PATH
 10
-407.2074242650559199
 20
517.9809693056665765
 30
0.0
  0
SEQEND
  5
1F124
  8
PATH
  0
POLYLINE
  5
158E0
  8
PATH
 66
     1
 10
0.0
 20
0.0
 30
0.0
  0
VERTEX
  5
1F125
  8
PATH
 10
-342.1921410874492722
 20
558.0510447570632095
 30
0.0
  0
VERTEX
  5
1F126
  8
PATH
 10
-325.1546490052278955
 20
569.3511592587964287
 30
0.0
  0
VERTEX
  5
1F127
  8
PATH
 10
-306.4952258610427975
 20
589.8678817842665012
 30
0.0
  0
SEQEND
  5
1F128
  8
PATH
  0
POLYLINE
  5
158E1
  8
PATH
 66
     1
 10
0.0
 20
0.0
 30
0.0
  0
VERTEX
  5
1F129
  8
PATH
 10
-278.4976218633963754
 20
452.5399462609128136
 30
0.0
  0
VERTEX
  5
1F12A
  8
PATH
 10
-275.7304814478994217
 20
455.9806123315864852
 30
0.0
  0
VERTEX
  5
1F12B
  8
PATH
 10
-208.2308109854494091
 20
490.5196795156734879
 30
0.0
  0
VERTEX
  5
1F12C
  8
PATH
 10
-202.2186715410352917
 20
483.5494239116595736
 30
0.0
  0
VERTEX
  5
1F12D
  8
PATH
 10
-193.6629560717993002
 20
467.4521052018317278
 30
0.0
  0
VERTEX
  5
1F12E
  8
PATH
 10
-180.5139736455311947
 20
448.3393046218479867
 30
0.0
  0
VERTEX
  5
1F12F
  8
PATH
 10
-171.4450924516567909
 20
436.7926126439633094
 30
0.0
  0
VERTEX
  5
1F130
  8
PATH
 10
-170.5604123512893011
 20
430.7659801058981088
 30
0.0
  0
VERTEX
  5
1F131
  8
PATH
 10
-171.1977691222128044
 20
424.8146301946180756
 30
0.0
  0
VERTEX
  5
1F132
  8
PATH
 10
-174.065846729106795
 20
418.81325914250192
 30
0.0
  0
VERTEX
  5
1F133
  8
PATH
 10
-225.9749785739259096
 20
370.9712248715150054
 30
0.0
  0
SEQEND
  5
1F134
  8
PATH
  0
POLYLINE
  5
158E2
  8
PATH
 66
     1
 10
0.0
 20
0.0
 30
0.0
  0
VERTEX
  5
1F135
  8
PATH
 10
-181.0773155350615866
 20
378.2145036836664076
 30
0.0
  0
VERTEX
  5
1F136
  8
PATH
 10
-164.4669339012033902
 20
351.2005120767789776
 30
0.0
  0
SEQEND
  5
1F137
  8
PATH
  0
POLYLINE
  5
158E3
  8
PATH
 66
     1
 10
0.0
 20
0.0
 30
0.0
  0
VERTEX
  5
1F138
  8
PATH
 10
-164.4669339012033902
 20
351.2005120767789776
 30
0.0
  0
VERTEX
  5
1F139
  8
PATH
 10
-168.3679927323391041
 20
348.3027601601132801
 30
0.0
  0
VERTEX
  5
1F13A
  8
PATH
 10
-190.9868408144247951
 20
315.9707953455435927
 30
0.0
  0
SEQEND
  5
1F13B
  8
PATH
  0
POLYLINE
  5
158E4
  8
PATH
 66
     1
 10
0.0
 20
0.0
 30
0.0
  0
VERTEX
  5
1F13C
  8
PATH
 10
-164.4669339012033902
 20
351.2005120767789776
 30
0.0
  0
VERTEX
  5
1F13D
  8
PATH
 10
-157.7768703444307903
 20
353.5292397439989145
 30
0.0
  0
VERTEX
  5
1F13E
  8
PATH
 10
-116.7606319284677028
 20
346.2049295828256277
 30
0.0
  0
SEQEND
  5
1F13F
  8
PATH
  0
POLYLINE
  5
158E5
  8
PATH
 66
     1
 10
0.0
 20
0.0
 30
0.0
  0
VERTEX
  5
1F140
  8
PATH
 10
-116.7606319284677028
 20
346.2049295828256277
 30
0.0
  0
VERTEX
  5
1F141
  8
PATH
 10
-112.825023987868903
 20
348.5637594922956168
 30
0.0
  0
VERTEX
  5
1F142
  8
PATH
 10
-78.0274267767817946
 20
357.0191000057894257
 30
0.0
  0
SEQEND
  5
1F143
  8
PATH
  0
POLYLINE
  5
158E6
  8
PATH
 66
     1
 10
0.0
 20
0.0
 30
0.0
  0
VERTEX
  5
1F144
  8
PATH
 10
-116.7606319284677028
 20
346.2049295828256277
 30
0.0
  0
VERTEX
  5
1F145
  8
PATH
 10
-105.4134598611997973
 20
338.2672640425662962
 30
0.0
  0
VERTEX
  5
1F146
  8
PATH
 10
-98.1833528585411841
 20
326.0841478221628904
 30
0.0
  0
SEQEND
  5
1F147
  8
PATH
  0
POLYLINE
  5
158E7
  8
PATH
 66
     1
 10
0.0
 20
0.0
 30
0.0
  0
VERTEX
  5
1F148
  8
PATH
 10
-98.1833528585411841
 20
326.0841478221628904
 30
0.0
  0
VERTEX
  5
1F149
  8
PATH
 10
-69.9475965079764137
 20
340.2540475205095163
 30
0.0
  0
SEQEND
  5
1F14A
  8
PATH
  0
POLYLINE
  5
158E8
  8
PATH
 66
     1
 10
0.0
 20
0.0
 30
0.0
  0
VERTEX
  5
1F14B
  8
PATH
 10
-98.1833528585411841
 20
326.0841478221628904
 30
0.0
  0
VERTEX
  5
1F14C
  8
PATH
 10
-90.1448891004692996
 20
310.054657987835526
 30
0.0
  0
SEQEND
  5
1F14D
  8
PATH
  0
POLYLINE
  5
158E9
  8
PATH
 66
     1
 10
0.0
 20
0.0
 30
0.0
  0
VERTEX
  5
1F14E
  8
PATH
 10
-165.307002534522212
 20
275.4065240161071983
 30
0.0
  0
VERTEX
  5
1F14F
  8
PATH
 10
-237.608661775841
 20
229.5959543632853013
 30
0.0
  0
SEQEND
  5
1F150
  8
PATH
  0
POLYLINE
  5
158EA
  8
PATH
 66
     1
 10
0.0
 20
0.0
 30
0.0
  0
VERTEX
  5
1F151
  8
PATH
 10
-237.608661775841
 20
229.5959543632853013
 30
0.0
  0
VERTEX
  5
1F152
  8
PATH
 10
-231.9722346097260015
 20
224.367760827349997
 30
0.0
  0
VERTEX
  5
1F153
  8
PATH
 10
-215.6497864533594111
 20
212.4802395138468114
 30
0.0
  0
VERTEX
  5
1F154
  8
PATH
 10
-205.0101471146481913
 20
195.6736999913628097
 30
0.0
  0
SEQEND
  5
1F155
  8
PATH
  0
POLYLINE
  5
158EB
  8
PATH
 66
     1
 10
0.0
 20
0.0
 30
0.0
  0
VERTEX
  5
1F156
  8
PATH
 10
-237.608661775841
 20
229.5959543632853013
 30
0.0
  0
VERTEX
  5
1F157
  8
PATH
 10
-250.0083324121806072
 20
221.7394821700218017
 30
0.0
  0
SEQEND
  5
1F158
  8
PATH
  0
POLYLINE
  5
158EC
  8
PATH
 66
     1
 10
0.0
 20
0.0
 30
0.0
  0
VERTEX
  5
1F159
  8
PATH
 10
-120.9809487631573006
 20
205.3884011386471968
 30
0.0
  0
VERTEX
  5
1F15A
  8
PATH
 10
-130.8075197056313925
 20
198.5663254396567936
 30
0.0
  0
SEQEND
  5
1F15B
  8
PATH
  0
POLYLINE
  5
158ED
  8
PATH
 66
     1
 10
0.0
 20
0.0
 30
0.0
  0
VERTEX
  5
1F15C
  8
PATH
 10
-130.8075197056313925
 20
198.5663254396567936
 30
0.0
  0
VERTEX
  5
1F15D
  8
PATH
 10
-107.4080208165833028
 20
162.0546991574155982
 30
0.0
  0
VERTEX
  5
1F15E
  8
PATH
 10
-105.0780548773036003
 20
156.2645919556306922
 30
0.0
  0
VERTEX
  5
1F15F
  8
PATH
 10
-104.8367126302473054
 20
150.9902066491121957
 30
0.0
  0
VERTEX
  5
1F160
  8
PATH
 10
-106.1883258028683059
 20
144.8081449401142891
 30
0.0
  0
VERTEX
  5
1F161
  8
PATH
 10
-109.2939192501507932
 20
139.6603990477086086
 30
0.0
  0
VERTEX
  5
1F162
  8
PATH
 10
-113.9070983820857066
 20
135.4850350958803915
 30
0.0
  0
VERTEX
  5
1F163
  8
PATH
 10
-160.8647062924137003
 20
109.1582580660979005
 30
0.0
  0
VERTEX
  5
1F164
  8
PATH
 10
-164.5616467556828013
 20
107.7564462954688054
 30
0.0
  0
VERTEX
  5
1F165
  8
PATH
 10
-169.0430563270492996
 20
108.5529011288236063
 30
0.0
  0
VERTEX
  5
1F166
  8
PATH
 10
-173.111065371092991
 20
112.5086476458746034
 30
0.0
  0
VERTEX
  5
1F167
  8
PATH
 10
-194.1576770299724899
 20
156.0177829084495045
 30
0.0
  0
VERTEX
  5
1F168
  8
PATH
 10
-197.0175817292910097
 20
166.409757821871608
 30
0.0
  0
VERTEX
  5
1F169
  8
PATH
 10
-196.9209556714777136
 20
171.4641859913753876
 30
0.0
  0
VERTEX
  5
1F16A
  8
PATH
 10
-193.7890603214763985
 20
177.5126057896341081
 30
0.0
  0
VERTEX
  5
1F16B
  8
PATH
 10
-177.2291706238902123
 20
188.0618936764585101
 30
0.0
  0
VERTEX
  5
1F16C
  8
PATH
 10
-170.1687443283298933
 20
191.8511861442165127
 30
0.0
  0
VERTEX
  5
1F16D
  8
PATH
 10
-161.2255215891200066
 20
192.3551342716017984
 30
0.0
  0
VERTEX
  5
1F16E
  8
PATH
 10
-153.2288330011797086
 20
190.204016780997307
 30
0.0
  0
VERTEX
  5
1F16F
  8
PATH
 10
-144.3314714185690093
 20
191.6242342312397113
 30
0.0
  0
VERTEX
  5
1F170
  8
PATH
 10
-134.4709883972099931
 20
196.2971923365766997
 30
0.0
  0
VERTEX
  5
1F171
  8
PATH
 10
-130.8075197056313925
 20
198.5663254396567936
 30
0.0
  0
SEQEND
  5
1F172
  8
PATH
  0
POLYLINE
  5
158EE
  8
PATH
 66
     1
 10
0.0
 20
0.0
 30
0.0
  0
VERTEX
  5
1F173
  8
PATH
 10
-62.8530295328382493
 20
98.8305858136664028
 30
0.0
  0
VERTEX
  5
1F174
  8
PATH
 10
-87.6329316952760564
 20
15.9733831864359601
 30
0.0
  0
SEQEND
  5
1F175
  8
PATH
  0
POLYLINE
  5
158EF
  8
PATH
 66
     1
 10
0.0
 20
0.0
 30
0.0
  0
VERTEX
  5
1F176
  8
PATH
 10
-154.4235377377044074
 20
62.6244372572327919
 30
0.0
  0
VERTEX
  5
1F177
  8
PATH
 10
-142.9475381112569892
 20
66.6247010320003028
 30
0.0
  0
SEQEND
  5
1F178
  8
PATH
  0
POLYLINE
  5
158F0
  8
PATH
 66
     1
 10
0.0
 20
0.0
 30
0.0
  0
VERTEX
  5
1F179
  8
PATH
 10
-142.9475381112569892
 20
66.6247010320003028
 30
0.0
  0
VERTEX
  5
1F17A
  8
PATH
 10
-115.2151896189460984
 20
1.4869351410816301
 30
0.0
  0
SEQEND
  5
1F17B
  8
PATH
  0
POLYLINE
  5
158F1
  8
PATH
 66
     1
 10
0.0
 20
0.0
 30
0.0
  0
VERTEX
  5
1F17C
  8
PATH
 10
-115.2151896189460984
 20
1.4869351410816301
 30
0.0
  0
VERTEX
  5
1F17D
  8
PATH
 10
-111.1388206781266064
 20
-1.527486496554046
 30
0.0
  0
VERTEX
  5
1F17E
  8
PATH
 10
-95.6520547699910679
 20
-38.4197401268829708
 30
0.0
  0
SEQEND
  5
1F17F
  8
PATH
  0
POLYLINE
  5
158F2
  8
PATH
 66
     1
 10
0.0
 20
0.0
 30
0.0
  0
VERTEX
  5
1F180
  8
PATH
 10
-95.6520547699910679
 20
-38.4197401268829708
 30
0.0
  0
VERTEX
  5
1F181
  8
PATH
 10
-110.0122621056653003
 20
-45.6718095396136121
 30
0.0
  0
SEQEND
  5
1F182
  8
PATH
  0
POLYLINE
  5
158F3
  8
PATH
 66
     1
 10
0.0
 20
0.0
 30
0.0
  0
VERTEX
  5
1F183
  8
PATH
 10
-95.6520547699910679
 20
-38.4197401268829708
 30
0.0
  0
VERTEX
  5
1F184
  8
PATH
 10
-95.9717269066750447
 20
-45.1521810697813635
 30
0.0
  0
VERTEX
  5
1F185
  8
PATH
 10
-103.151830574570198
 20
-62.8440461926584177
 30
0.0
  0
SEQEND
  5
1F186
  8
PATH
  0
POLYLINE
  5
158F4
  8
PATH
 66
     1
 10
0.0
 20
0.0
 30
0.0
  0
VERTEX
  5
1F187
  8
PATH
 10
-95.6520547699910679
 20
-38.4197401268829708
 30
0.0
  0
VERTEX
  5
1F188
  8
PATH
 10
-87.7870242938660965
 20
-51.694813441434242
 30
0.0
  0
VERTEX
  5
1F189
  8
PATH
 10
-84.7392727427795762
 20
-56.3648531962608033
 30
0.0
  0
VERTEX
  5
1F18A
  8
PATH
 10
-81.5643024547170938
 20
-57.9938176129435234
 30
0.0
  0
VERTEX
  5
1F18B
  8
PATH
 10
-76.7825385282776409
 20
-57.8737406264481109
 30
0.0
  0
VERTEX
  5
1F18C
  8
PATH
 10
-55.7096435414423325
 20
-46.2063076984559231
 30
0.0
  0
SEQEND
  5
1F18D
  8
PATH
  0
POLYLINE
  5
158F5
  8
PATH
 66
     1
 10
0.0
 20
0.0
 30
0.0
  0
VERTEX
  5
1F18E
  8
PATH
 10
-55.7096435414423325
 20
-46.2063076984559231
 30
0.0
  0
VERTEX
  5
1F18F
  8
PATH
 10
-44.1601184174214723
 20
-65.0151910744097989
 30
0.0
  0
SEQEND
  5
1F190
  8
PATH
  0
POLYLINE
  5
158F6
  8
PATH
 66
     1
 10
0.0
 20
0.0
 30
0.0
  0
VERTEX
  5
1F191
  8
PATH
 10
-55.7096435414423325
 20
-46.2063076984559231
 30
0.0
  0
VERTEX
  5
1F192
  8
PATH
 10
-21.2311554039042711
 20
-25.5351467038926785
 30
0.0
  0
VERTEX
  5
1F193
  8
PATH
 10
-9.6030408545193477
 20
-9.6148701714773779
 30
0.0
  0
SEQEND
  5
1F194
  8
PATH
  0
POLYLINE
  5
158F7
  8
PATH
 66
     1
 10
0.0
 20
0.0
 30
0.0
  0
VERTEX
  5
1F195
  8
PATH
 10
-9.6030408544029342
 20
-9.6148701714773779
 30
0.0
  0
VERTEX
  5
1F196
  8
PATH
 10
10.9661627678287896
 20
8.6410891167397494
 30
0.0
  0
SEQEND
  5
1F197
  8
PATH
  0
POLYLINE
  5
158F8
  8
PATH
 66
     1
 10
0.0
 20
0.0
 30
0.0
  0
VERTEX
  5
1F198
  8
PATH
 10
10.9661627678287896
 20
8.6410891167397494
 30
0.0
  0
VERTEX
  5
1F199
  8
PATH
 10
27.6183261153491912
 20
-13.57905249339092
 30
0.0
  0
SEQEND
  5
1F19A
  8
PATH
  0
POLYLINE
  5
158F9
  8
PATH
 66
     1
 10
0.0
 20
0.0
 30
0.0
  0
VERTEX
  5
1F19B
  8
PATH
 10
10.9661627678287896
 20
8.6410891167397494
 30
0.0
  0
VERTEX
  5
1F19C
  8
PATH
 10
15.3557200024224603
 20
16.1634610682303901
 30
0.0
  0
VERTEX
  5
1F19D
  8
PATH
 10
34.8025407188542815
 20
72.2443086403000052
 30
0.0
  0
VERTEX
  5
1F19E
  8
PATH
 10
35.2634184094931697
 20
79.0923950011419947
 30
0.0
  0
VERTEX
  5
1F19F
  8
PATH
 10
33.5490395872475275
 20
87.0150055601770873
 30
0.0
  0
VERTEX
  5
1F1A0
  8
PATH
 10
25.1103165644308284
 20
101.1594378902155
 30
0.0
  0
SEQEND
  5
1F1A1
  8
PATH
  0
POLYLINE
  5
158FA
  8
PATH
 66
     1
 10
0.0
 20
0.0
 30
0.0
  0
VERTEX
  5
1F1A2
  8
PATH
 10
25.1103165644890396
 20
101.1594378902155
 30
0.0
  0
VERTEX
  5
1F1A3
  8
PATH
 10
-6.046134516145683
 20
156.4961607293735142
 30
0.0
  0
VERTEX
  5
1F1A4
  8
PATH
 10
-10.2856817462743493
 20
159.9806477297607046
 30
0.0
  0
VERTEX
  5
1F1A5
  8
PATH
 10
-14.8525910761818505
 20
161.5949972337620864
 30
0.0
  0
VERTEX
  5
1F1A6
  8
PATH
 10
-19.2962938237614985
 20
161.3595990902321944
 30
0.0
  0
VERTEX
  5
1F1A7
  8
PATH
 10
-22.6290941029001296
 20
160.0817245580765018
 30
0.0
  0
VERTEX
  5
1F1A8
  8
PATH
 10
-79.3763719391572522
 20
128.9357735389421009
 30
0.0
  0
SEQEND
  5
1F1A9
  8
PATH
  0
POLYLINE
  5
158FB
  8
PATH
 66
     1
 10
0.0
 20
0.0
 30
0.0
  0
VERTEX
  5
1F1AA
  8
PATH
 10
-79.3763719391572522
 20
128.9357735389421009
 30
0.0
  0
VERTEX
  5
1F1AB
  8
PATH
 10
-102.2487800067901986
 20
109.902861999864399
 30
0.0
  0
VERTEX
  5
1F1AC
  8
PATH
 10
-129.5526254647556925
 20
86.2984424941751058
 30
0.0
  0
VERTEX
  5
1F1AD
  8
PATH
 10
-142.9475381112569892
 20
66.6247010320003028
 30
0.0
  0
SEQEND
  5
1F1AE
  8
PATH
  0
POLYLINE
  5
158FC
  8
PATH
 66
     1
 10
0.0
 20
0.0
 30
0.0
  0
VERTEX
  5
1F1AF
  8
PATH
 10
-24.7004774076776812
 20
252.1275525931777111
 30
0.0
  0
VERTEX
  5
1F1B0
  8
PATH
 10
-55.218024573245188
 20
234.0034506856972882
 30
0.0
  0
SEQEND
  5
1F1B1
  8
PATH
  0
POLYLINE
  5
158FD
  8
PATH
 66
     1
 10
0.0
 20
0.0
 30
0.0
  0
VERTEX
  5
1F1B2
  8
PATH
 10
-78.6726914501196006
 20
272.5263270494106109
 30
0.0
  0
VERTEX
  5
1F1B3
  8
PATH
 10
-55.218024573245188
 20
234.0034506856972882
 30
0.0
  0
SEQEND
  5
1F1B4
  8
PATH
  0
POLYLINE
  5
158FE
  8
PATH
 66
     1
 10
0.0
 20
0.0
 30
0.0
  0
VERTEX
  5
1F1B5
  8
PATH
 10
-55.218024573245188
 20
234.0034506856972882
 30
0.0
  0
VERTEX
  5
1F1B6
  8
PATH
 10
-40.5528006102103902
 20
209.3057847619566019
 30
0.0
  0
VERTEX
  5
1F1B7
  8
PATH
 10
-39.1792506104830025
 20
204.935910451742501
 30
0.0
  0
VERTEX
  5
1F1B8
  8
PATH
 10
-39.17978927942751
 20
198.1663261675784895
 30
0.0
  0
VERTEX
  5
1F1B9
  8
PATH
 10
-40.3882279703539169
 20
190.5372723024848085
 30
0.0
  0
VERTEX
  5
1F1BA
  8
PATH
 10
-46.6215000722004334
 20
166.8293968230063911
 30
0.0
  0
SEQEND
  5
1F1BB
  8
PATH
  0
POLYLINE
  5
158FF
  8
PATH
 66
     1
 10
0.0
 20
0.0
 30
0.0
  0
VERTEX
  5
1F1BC
  8
PATH
 10
-59.7197811358637409
 20
-219.763359084208787
 30
0.0
  0
VERTEX
  5
1F1BD
  8
PATH
 10
-20.5676453285996104
 20
-195.506140240882786
 30
0.0
  0
VERTEX
  5
1F1BE
  8
PATH
 10
22.2641526528022986
 20
-160.7687252582472865
 30
0.0
  0
SEQEND
  5
1F1BF
  8
PATH
  0
POLYLINE
  5
15900
  8
PATH
 66
     1
 10
0.0
 20
0.0
 30
0.0
  0
VERTEX
  5
1F1C0
  8
PATH
 10
38.4889294852473469
 20
-109.6392515203405935
 30
0.0
  0
VERTEX
  5
1F1C1
  8
PATH
 10
48.6375644407089567
 20
-106.6580100845965973
 30
0.0
  0
VERTEX
  5
1F1C2
  8
PATH
 10
59.60025692875206
 20
-105.8009801827792984
 30
0.0
  0
VERTEX
  5
1F1C3
  8
PATH
 10
72.5648288393713301
 20
-109.0386349744585033
 30
0.0
  0
VERTEX
  5
1F1C4
  8
PATH
 10
83.9967025469377404
 20
-117.6793404900891034
 30
0.0
  0
VERTEX
  5
1F1C5
  8
PATH
 10
87.9069771798531292
 20
-122.3480280111033949
 30
0.0
  0
SEQEND
  5
1F1C6
  8
PATH
  0
POLYLINE
  5
15901
  8
PATH
 66
     1
 10
0.0
 20
0.0
 30
0.0
  0
VERTEX
  5
1F1C7
  8
PATH
 10
27.4339606379362486
 20
-38.7869109138337009
 30
0.0
  0
VERTEX
  5
1F1C8
  8
PATH
 10
38.1945760034577688
 20
-56.0779747375709121
 30
0.0
  0
SEQEND
  5
1F1C9
  8
PATH
  0
POLYLINE
  5
15902
  8
PATH
 66
     1
 10
0.0
 20
0.0
 30
0.0
  0
VERTEX
  5
1F1CA
  8
PATH
 10
13.6757529523310897
 20
-72.4272801409897511
 30
0.0
  0
VERTEX
  5
1F1CB
  8
PATH
 10
38.1945760034577688
 20
-56.0779747375709121
 30
0.0
  0
SEQEND
  5
1F1CC
  8
PATH
  0
POLYLINE
  5
15903
  8
PATH
 66
     1
 10
0.0
 20
0.0
 30
0.0
  0
VERTEX
  5
1F1CD
  8
PATH
 10
38.1945760034577688
 20
-56.0779747375709121
 30
0.0
  0
VERTEX
  5
1F1CE
  8
PATH
 10
53.4299531470605729
 20
-46.7316647814077371
 30
0.0
  0
VERTEX
  5
1F1CF
  8
PATH
 10
103.249731881063795
 20
-57.7108611696821612
 30
0.0
  0
VERTEX
  5
1F1D0
  8
PATH
 10
110.3037684488662933
 20
-66.5554233416405623
 30
0.0
  0
SEQEND
  5
1F1D1
  8
PATH
  0
POLYLINE
  5
15904
  8
PATH
 66
     1
 10
0.0
 20
0.0
 30
0.0
  0
VERTEX
  5
1F1D2
  8
PATH
 10
110.3037684488662933
 20
-66.5554233416405623
 30
0.0
  0
VERTEX
  5
1F1D3
  8
PATH
 10
131.779304048672202
 20
-51.2316059176300698
 30
0.0
  0
SEQEND
  5
1F1D4
  8
PATH
  0
POLYLINE
  5
15905
  8
PATH
 66
     1
 10
0.0
 20
0.0
 30
0.0
  0
VERTEX
  5
1F1D5
  8
PATH
 10
110.3037684488662933
 20
-66.5554233416405623
 30
0.0
  0
VERTEX
  5
1F1D6
  8
PATH
 10
132.2749356396234077
 20
-98.7030368623745602
 30
0.0
  0
SEQEND
  5
1F1D7
  8
PATH
  0
POLYLINE
  5
15906
  8
PATH
 66
     1
 10
0.0
 20
0.0
 30
0.0
  0
VERTEX
  5
1F1D8
  8
PATH
 10
-552.3559099325357238
 20
26.2470054803925485
 30
0.0
  0
VERTEX
  5
1F1D9
  8
PATH
 10
-581.3914332283457043
 20
33.388737578461587
 30
0.0
  0
SEQEND
  5
1F1DA
  8
PATH
  0
POLYLINE
  5
15907
  8
PATH
 66
     1
 10
0.0
 20
0.0
 30
0.0
  0
VERTEX
  5
1F1DB
  8
PATH
 10
-581.3914332283457043
 20
33.388737578461587
 30
0.0
  0
VERTEX
  5
1F1DC
  8
PATH
 10
-580.5462431315826279
 20
37.7184112282047934
 30
0.0
  0
VERTEX
  5
1F1DD
  8
PATH
 10
-556.4902925874482662
 20
100.6836238061587068
 30
0.0
  0
SEQEND
  5
1F1DE
  8
PATH
  0
POLYLINE
  5
15908
  8
PATH
 66
     1
 10
0.0
 20
0.0
 30
0.0
  0
VERTEX
  5
1F1DF
  8
PATH
 10
-556.4902925874482662
 20
100.6836238061587068
 30
0.0
  0
VERTEX
  5
1F1E0
  8
PATH
 10
-619.8179186914494494
 20
133.571608738093289
 30
0.0
  0
SEQEND
  5
1F1E1
  8
PATH
  0
POLYLINE
  5
15909
  8
PATH
 66
     1
 10
0.0
 20
0.0
 30
0.0
  0
VERTEX
  5
1F1E2
  8
PATH
 10
-619.8179186914494494
 20
133.571608738093289
 30
0.0
  0
VERTEX
  5
1F1E3
  8
PATH
 10
-657.093250116114973
 20
64.8270050171340699
 30
0.0
  0
SEQEND
  5
1F1E4
  8
PATH
  0
POLYLINE
  5
1590A
  8
PATH
 66
     1
 10
0.0
 20
0.0
 30
0.0
  0
VERTEX
  5
1F1E5
  8
PATH
 10
-657.093250116114973
 20
64.8270050171340699
 30
0.0
  0
VERTEX
  5
1F1E6
  8
PATH
 10
-657.093250116114973
 20
64.8270050171340699
 30
0.0
  0
VERTEX
  5
1F1E7
  8
PATH
 10
-589.9413133761408972
 20
35.4917116789656575
 30
0.0
  0
VERTEX
  5
1F1E8
  8
PATH
 10
-581.3914332283457043
 20
33.388737578461587
 30
0.0
  0
SEQEND
  5
1F1E9
  8
PATH
  0
POLYLINE
  5
1590B
  8
PATH
 66
     1
 10
0.0
 20
0.0
 30
0.0
  0
VERTEX
  5
1F1EA
  8
PATH
 10
-657.093250116114973
 20
64.8270050171340699
 30
0.0
  0
VERTEX
  5
1F1EB
  8
PATH
 10
-663.4321201174897169
 20
71.6893434273588355
 30
0.0
  0
VERTEX
  5
1F1EC
  8
PATH
 10
-666.8093698691952795
 20
80.1578630488875206
 30
0.0
  0
SEQEND
  5
1F1ED
  8
PATH
  0
POLYLINE
  5
1590C
  8
PATH
 66
     1
 10
0.0
 20
0.0
 30
0.0
  0
VERTEX
  5
1F1EE
  8
PATH
 10
-666.8093698691952795
 20
80.1578630488875206
 30
0.0
  0
VERTEX
  5
1F1EF
  8
PATH
 10
-723.5735010358181398
 20
103.1134977862748059
 30
0.0
  0
VERTEX
  5
1F1F0
  8
PATH
 10
-737.3694062498541371
 20
120.5082933861339995
 30
0.0
  0
SEQEND
  5
1F1F1
  8
PATH
  0
POLYLINE
  5
1590D
  8
PATH
 66
     1
 10
0.0
 20
0.0
 30
0.0
  0
VERTEX
  5
1F1F2
  8
PATH
 10
-737.3694062498541371
 20
120.5082933861339995
 30
0.0
  0
VERTEX
  5
1F1F3
  8
PATH
 10
-713.4838597545892753
 20
139.3244122379036014
 30
0.0
  0
SEQEND
  5
1F1F4
  8
PATH
  0
POLYLINE
  5
1590E
  8
PATH
 66
     1
 10
0.0
 20
0.0
 30
0.0
  0
VERTEX
  5
1F1F5
  8
PATH
 10
-713.4838597545892753
 20
139.3244122379036014
 30
0.0
  0
VERTEX
  5
1F1F6
  8
PATH
 10
-682.0982609829661669
 20
123.2698479053141938
 30
0.0
  0
SEQEND
  5
1F1F7
  8
PATH
  0
POLYLINE
  5
1590F
  8
PATH
 66
     1
 10
0.0
 20
0.0
 30
0.0
  0
VERTEX
  5
1F1F8
  8
PATH
 10
-682.0982609829661669
 20
123.2698479053141938
 30
0.0
  0
VERTEX
  5
1F1F9
  8
PATH
 10
-660.931247535001603
 20
163.9507929855535053
 30
0.0
  0
VERTEX
  5
1F1FA
  8
PATH
 10
-642.1384080266143428
 20
179.6918104710566126
 30
0.0
  0
SEQEND
  5
1F1FB
  8
PATH
  0
POLYLINE
  5
15910
  8
PATH
 66
     1
 10
0.0
 20
0.0
 30
0.0
  0
VERTEX
  5
1F1FC
  8
PATH
 10
-682.0982609829661669
 20
123.2698479053141938
 30
0.0
  0
VERTEX
  5
1F1FD
  8
PATH
 10
-653.6465863739865654
 20
108.5845243097791979
 30
0.0
  0
SEQEND
  5
1F1FE
  8
PATH
  0
POLYLINE
  5
15911
  8
PATH
 66
     1
 10
0.0
 20
0.0
 30
0.0
  0
VERTEX
  5
1F1FF
  8
PATH
 10
-653.6465863739865654
 20
108.5845243097791979
 30
0.0
  0
VERTEX
  5
1F200
  8
PATH
 10
-653.6465863739865654
 20
108.5845243097791979
 30
0.0
  0
VERTEX
  5
1F201
  8
PATH
 10
-665.5572618468577275
 20
88.5057189255530972
 30
0.0
  0
VERTEX
  5
1F202
  8
PATH
 10
-666.802794393515569
 20
83.0117393453183325
 30
0.0
  0
VERTEX
  5
1F203
  8
PATH
 10
-666.8093698691952795
 20
80.1578630488875206
 30
0.0
  0
SEQEND
  5
1F204
  8
PATH
  0
POLYLINE
  5
15912
  8
PATH
 66
     1
 10
0.0
 20
0.0
 30
0.0
  0
VERTEX
  5
1F205
  8
PATH
 10
-653.6465863739865654
 20
108.5845243097791979
 30
0.0
  0
VERTEX
  5
1F206
  8
PATH
 10
-637.0079209918184233
 20
138.0942795277150026
 30
0.0
  0
VERTEX
  5
1F207
  8
PATH
 10
-624.585955848000367
 20
163.8955141823315955
 30
0.0
  0
SEQEND
  5
1F208
  8
PATH
  0
POLYLINE
  5
15913
  8
PATH
 66
     1
 10
0.0
 20
0.0
 30
0.0
  0
VERTEX
  5
1F209
  8
PATH
 10
-642.1384080266143428
 20
179.6918104710566126
 30
0.0
  0
VERTEX
  5
1F20A
  8
PATH
 10
-624.585955848000367
 20
163.8955141823315955
 30
0.0
  0
SEQEND
  5
1F20B
  8
PATH
  0
POLYLINE
  5
15914
  8
PATH
 66
     1
 10
0.0
 20
0.0
 30
0.0
  0
VERTEX
  5
1F20C
  8
PATH
 10
-624.585955848000367
 20
163.8955141823315955
 30
0.0
  0
VERTEX
  5
1F20D
  8
PATH
 10
-611.6380826736128711
 20
151.0905809114265139
 30
0.0
  0
SEQEND
  5
1F20E
  8
PATH
  0
POLYLINE
  5
15915
  8
PATH
 66
     1
 10
0.0
 20
0.0
 30
0.0
  0
VERTEX
  5
1F20F
  8
PATH
 10
-619.8179186914494494
 20
133.571608738093289
 30
0.0
  0
VERTEX
  5
1F210
  8
PATH
 10
-611.6380826736128711
 20
151.0905809114265139
 30
0.0
  0
SEQEND
  5
1F211
  8
PATH
  0
POLYLINE
  5
15916
  8
PATH
 66
     1
 10
0.0
 20
0.0
 30
0.0
  0
VERTEX
  5
1F212
  8
PATH
 10
-611.6380826736128711
 20
151.0905809114265139
 30
0.0
  0
VERTEX
  5
1F213
  8
PATH
 10
-550.8256317404592437
 20
112.0628889510916935
 30
0.0
  0
SEQEND
  5
1F214
  8
PATH
  0
POLYLINE
  5
15917
  8
PATH
 66
     1
 10
0.0
 20
0.0
 30
0.0
  0
VERTEX
  5
1F215
  8
PATH
 10
-550.8256317404592437
 20
112.0628889510916935
 30
0.0
  0
VERTEX
  5
1F216
  8
PATH
 10
-556.4902925874482662
 20
100.6836238061587068
 30
0.0
  0
SEQEND
  5
1F217
  8
PATH
  0
POLYLINE
  5
15918
  8
PATH
 66
     1
 10
0.0
 20
0.0
 30
0.0
  0
VERTEX
  5
1F218
  8
PATH
 10
-550.8256317404592437
 20
112.0628889510916935
 30
0.0
  0
VERTEX
  5
1F219
  8
PATH
 10
-528.0481134938454488
 20
97.9681246523323068
 30
0.0
  0
SEQEND
  5
1F21A
  8
PATH
  0
POLYLINE
  5
15919
  8
PATH
 66
     1
 10
0.0
 20
0.0
 30
0.0
  0
VERTEX
  5
1F21B
  8
PATH
 10
-713.4838597545892753
 20
139.3244122379036014
 30
0.0
  0
VERTEX
  5
1F21C
  8
PATH
 10
-647.8991934121148688
 20
191.1470376472497037
 30
0.0
  0
VERTEX
  5
1F21D
  8
PATH
 10
-641.2036688670195872
 20
191.9247548194180126
 30
0.0
  0
SEQEND
  5
1F21E
  8
PATH
  0
POLYLINE
  5
1591A
  8
PATH
 66
     1
 10
0.0
 20
0.0
 30
0.0
  0
VERTEX
  5
1F21F
  8
PATH
 10
-641.2036688670195872
 20
191.9247548194180126
 30
0.0
  0
VERTEX
  5
1F220
  8
PATH
 10
-642.1384080266143428
 20
179.6918104710566126
 30
0.0
  0
SEQEND
  5
1F221
  8
PATH
  0
POLYLINE
  5
1591B
  8
PATH
 66
     1
 10
0.0
 20
0.0
 30
0.0
  0
VERTEX
  5
1F222
  8
PATH
 10
-641.2036688670195872
 20
191.9247548194180126
 30
0.0
  0
VERTEX
  5
1F223
  8
PATH
 10
-565.8089641662809299
 20
250.9849192295733076
 30
0.0
  0
SEQEND
  5
1F224
  8
PATH
  0
POLYLINE
  5
1591C
  8
PATH
 66
     1
 10
0.0
 20
0.0
 30
0.0
  0
VERTEX
  5
1F225
  8
PATH
 10
-712.3098073750877575
 20
283.450182492429974
 30
0.0
  0
VERTEX
  5
1F226
  8
PATH
 10
-708.9646850634162547
 20
272.7557812096129055
 30
0.0
  0
VERTEX
  5
1F227
  8
PATH
 10
-703.46326311807195
 20
256.2348636179739856
 30
0.0
  0
VERTEX
  5
1F228
  8
PATH
 10
-701.3573834459092495
 20
247.1146949218164082
 30
0.0
  0
VERTEX
  5
1F229
  8
PATH
 10
-700.9881537693581777
 20
240.8513671956534097
 30
0.0
  0
VERTEX
  5
1F22A
  8
PATH
 10
-701.8401608140702592
 20
235.3889490329239038
 30
0.0
  0
VERTEX
  5
1F22B
  8
PATH
 10
-704.9167775889070526
 20
228.8900687532076859
 30
0.0
  0
VERTEX
  5
1F22C
  8
PATH
 10
-710.5209960690842763
 20
221.9589869827541975
 30
0.0
  0
SEQEND
  5
1F22D
  8
PATH
  0
POLYLINE
  5
1591D
  8
PATH
 66
     1
 10
0.0
 20
0.0
 30
0.0
  0
VERTEX
  5
1F22E
  8
PATH
 10
-710.5209960690842763
 20
221.9589869827541975
 30
0.0
  0
VERTEX
  5
1F22F
  8
PATH
 10
-704.8634122170769842
 20
216.5207571564752129
 30
0.0
  0
SEQEND
  5
1F230
  8
PATH
  0
POLYLINE
  5
1591E
  8
PATH
 66
     1
 10
0.0
 20
0.0
 30
0.0
  0
VERTEX
  5
1F231
  8
PATH
 10
-710.5209960690842763
 20
221.9589869827541975
 30
0.0
  0
VERTEX
  5
1F232
  8
PATH
 10
-716.1875515446445206
 20
217.4161116360264998
 30
0.0
  0
VERTEX
  5
1F233
  8
PATH
 10
-721.7917514500585412
 20
215.0702058491806099
 30
0.0
  0
VERTEX
  5
1F234
  8
PATH
 10
-728.3566952210532008
 20
214.1105164159598928
 30
0.0
  0
VERTEX
  5
1F235
  8
PATH
 10
-734.4333263365697348
 20
214.244189208889992
 30
0.0
  0
VERTEX
  5
1F236
  8
PATH
 10
-742.1628351444525151
 20
216.4286978762175124
 30
0.0
  0
VERTEX
  5
1F237
  8
PATH
 10
-767.6638967000908451
 20
233.698601052681596
 30
0.0
  0
SEQEND
  5
1F238
  8
PATH
  0
POLYLINE
  5
1591F
  8
PATH
 66
     1
 10
0.0
 20
0.0
 30
0.0
  0
VERTEX
  5
1F239
  8
PATH
 10
-779.321776934681111
 20
170.7561154789800071
 30
0.0
  0
VERTEX
  5
1F23A
  8
PATH
 10
-751.3652690787712345
 20
192.5007661241616006
 30
0.0
  0
VERTEX
  5
1F23B
  8
PATH
 10
-713.2706779642174979
 20
211.3243334917860921
 30
0.0
  0
VERTEX
  5
1F23C
  8
PATH
 10
-704.8634122170769842
 20
216.5207571564752129
 30
0.0
  0
SEQEND
  5
1F23D
  8
PATH
  0
POLYLINE
  5
15920
  8
PATH
 66
     1
 10
0.0
 20
0.0
 30
0.0
  0
VERTEX
  5
1F23E
  8
PATH
 10
-704.8634122170769842
 20
216.5207571564752129
 30
0.0
  0
VERTEX
  5
1F23F
  8
PATH
 10
-696.1899511537193348
 20
226.2574697994205053
 30
0.0
  0
VERTEX
  5
1F240
  8
PATH
 10
-685.4253773763921345
 20
237.5676364405589993
 30
0.0
  0
VERTEX
  5
1F241
  8
PATH
 10
-670.8252580523985671
 20
262.7189900158480782
 30
0.0
  0
VERTEX
  5
1F242
  8
PATH
 10
-676.2417039799765917
 20
271.4422244797970052
 30
0.0
  0
VERTEX
  5
1F243
  8
PATH
 10
-649.5994553939232219
 20
295.0370165175335728
 30
0.0
  0
VERTEX
  5
1F244
  8
PATH
 10
-643.8467128925401539
 20
310.8260478131052196
 30
0.0
  0
VERTEX
  5
1F245
  8
PATH
 10
-633.9757510790514061
 20
337.4570755623789751
 30
0.0
  0
SEQEND
  5
1F246
  8
PATH
  0
POLYLINE
  5
15921
  8
PATH
 66
     1
 10
0.0
 20
0.0
 30
0.0
  0
VERTEX
  5
1F247
  8
PATH
 10
-800.9241873647114289
 20
194.5786684761332026
 30
0.0
  0
VERTEX
  5
1F248
  8
PATH
 10
-779.321776934681111
 20
170.7561154789800071
 30
0.0
  0
SEQEND
  5
1F249
  8
PATH
  0
POLYLINE
  5
15922
  8
PATH
 66
     1
 10
0.0
 20
0.0
 30
0.0
  0
VERTEX
  5
1F24A
  8
PATH
 10
-779.321776934681111
 20
170.7561154789800071
 30
0.0
  0
VERTEX
  5
1F24B
  8
PATH
 10
-737.3694062498541371
 20
120.5082933861339995
 30
0.0
  0
SEQEND
  5
1F24C
  8
PATH
  0
POLYLINE
  5
15923
  8
PATH
 66
     1
 10
0.0
 20
0.0
 30
0.0
  0
VERTEX
  5
1F24D
  8
PATH
 10
-517.1470591702527599
 20
427.7151880874807262
 30
0.0
  0
VERTEX
  5
1F24E
  8
PATH
 10
-503.6586302219220102
 20
405.1658645598727162
 30
0.0
  0
SEQEND
  5
1F24F
  8
PATH
  0
POLYLINE
  5
15924
  8
PATH
 66
     1
 10
0.0
 20
0.0
 30
0.0
  0
VERTEX
  5
1F250
  8
PATH
 10
-503.6586302219220102
 20
405.1658645598727162
 30
0.0
  0
VERTEX
  5
1F251
  8
PATH
 10
-513.1352094825848553
 20
397.7801763979296084
 30
0.0
  0
SEQEND
  5
1F252
  8
PATH
  0
POLYLINE
  5
15925
  8
PATH
 66
     1
 10
0.0
 20
0.0
 30
0.0
  0
VERTEX
  5
1F253
  8
PATH
 10
-513.1352094825848553
 20
397.7801763979296084
 30
0.0
  0
VERTEX
  5
1F254
  8
PATH
 10
-476.0311190473292982
 20
339.0806113370272215
 30
0.0
  0
VERTEX
  5
1F255
  8
PATH
 10
-481.6412628855467233
 20
334.5496178446846898
 30
0.0
  0
SEQEND
  5
1F256
  8
PATH
  0
POLYLINE
  5
15926
  8
PATH
 66
     1
 10
0.0
 20
0.0
 30
0.0
  0
VERTEX
  5
1F257
  8
PATH
 10
-481.6412628855467233
 20
334.5496178446846898
 30
0.0
  0
VERTEX
  5
1F258
  8
PATH
 10
-481.6412628855467233
 20
334.5496178446846898
 30
0.0
  0
VERTEX
  5
1F259
  8
PATH
 10
-473.2194716525992249
 20
322.7779812850566827
 30
0.0
  0
SEQEND
  5
1F25A
  8
PATH
  0
POLYLINE
  5
15927
  8
PATH
 66
     1
 10
0.0
 20
0.0
 30
0.0
  0
VERTEX
  5
1F25B
  8
PATH
 10
-473.2194716525992249
 20
322.7779812850566827
 30
0.0
  0
VERTEX
  5
1F25C
  8
PATH
 10
-467.7875998182134936
 20
326.6641096380117233
 30
0.0
  0
VERTEX
  5
1F25D
  8
PATH
 10
-464.9296543029047939
 20
332.2286647242071922
 30
0.0
  0
VERTEX
  5
1F25E
  8
PATH
 10
-464.1425661493703956
 20
338.5424768208104069
 30
0.0
  0
VERTEX
  5
1F25F
  8
PATH
 10
-464.8235736769419759
 20
343.6444864520381088
 30
0.0
  0
VERTEX
  5
1F260
  8
PATH
 10
-467.077290103028588
 20
347.623988957660913
 30
0.0
  0
VERTEX
  5
1F261
  8
PATH
 10
-503.6586302219220102
 20
405.1658645598727162
 30
0.0
  0
SEQEND
  5
1F262
  8
PATH
  0
POLYLINE
  5
15928
  8
PATH
 66
     1
 10
0.0
 20
0.0
 30
0.0
  0
VERTEX
  5
1F263
  8
PATH
 10
-513.1352094825848553
 20
397.7801763979296084
 30
0.0
  0
VERTEX
  5
1F264
  8
PATH
 10
-560.7950559054296491
 20
365.0966303912500166
 30
0.0
  0
VERTEX
  5
1F265
  8
PATH
 10
-567.1209978529511773
 20
364.6629620045932825
 30
0.0
  0
SEQEND
  5
1F266
  8
PATH
  0
POLYLINE
  5
15929
  8
PATH
 66
     1
 10
0.0
 20
0.0
 30
0.0
  0
VERTEX
  5
1F267
  8
PATH
 10
-567.1209978529511773
 20
364.6629620045932825
 30
0.0
  0
VERTEX
  5
1F268
  8
PATH
 10
-567.1209978529511773
 20
364.6629620045932825
 30
0.0
  0
VERTEX
  5
1F269
  8
PATH
 10
-563.8552897154148695
 20
359.2418948575431727
 30
0.0
  0
VERTEX
  5
1F26A
  8
PATH
 10
-521.3589005796966376
 20
305.7266399916770183
 30
0.0
  0
SEQEND
  5
1F26B
  8
PATH
  0
POLYLINE
  5
1592A
  8
PATH
 66
     1
 10
0.0
 20
0.0
 30
0.0
  0
VERTEX
  5
1F26C
  8
PATH
 10
-521.3589005796966376
 20
305.7266399916770183
 30
0.0
  0
VERTEX
  5
1F26D
  8
PATH
 10
-481.6412628855467233
 20
334.5496178446846898
 30
0.0
  0
SEQEND
  5
1F26E
  8
PATH
  0
POLYLINE
  5
1592B
  8
PATH
 66
     1
 10
0.0
 20
0.0
 30
0.0
  0
VERTEX
  5
1F26F
  8
PATH
 10
-521.3589005796966376
 20
305.7266399916770183
 30
0.0
  0
VERTEX
  5
1F270
  8
PATH
 10
-511.1198239559453214
 20
292.8326787339101998
 30
0.0
  0
SEQEND
  5
1F271
  8
PATH
  0
POLYLINE
  5
1592C
  8
PATH
 66
     1
 10
0.0
 20
0.0
 30
0.0
  0
VERTEX
  5
1F272
  8
PATH
 10
-511.1198239559453214
 20
292.8326787339101998
 30
0.0
  0
VERTEX
  5
1F273
  8
PATH
 10
-473.2194716525992249
 20
322.7779812850566827
 30
0.0
  0
SEQEND
  5
1F274
  8
PATH
  0
POLYLINE
  5
1592D
  8
PATH
 66
     1
 10
0.0
 20
0.0
 30
0.0
  0
VERTEX
  5
1F275
  8
PATH
 10
-511.1198239559453214
 20
292.8326787339101998
 30
0.0
  0
VERTEX
  5
1F276
  8
PATH
 10
-557.990280695448746
 20
254.6344248275781865
 30
0.0
  0
VERTEX
  5
1F277
  8
PATH
 10
-565.8089641663391376
 20
250.9849192295733076
 30
0.0
  0
SEQEND
  5
1F278
  8
PATH
  0
POLYLINE
  5
1592E
  8
PATH
 66
     1
 10
0.0
 20
0.0
 30
0.0
  0
VERTEX
  5
1F279
  8
PATH
 10
-618.4407480533843682
 20
317.7503346242521047
 30
0.0
  0
VERTEX
  5
1F27A
  8
PATH
 10
-605.5366356386366533
 20
327.1251804768617149
 30
0.0
  0
VERTEX
  5
1F27B
  8
PATH
 10
-573.0794004297493984
 20
351.8717943910086774
 30
0.0
  0
SEQEND
  5
1F27C
  8
PATH
  0
POLYLINE
  5
1592F
  8
PATH
 66
     1
 10
0.0
 20
0.0
 30
0.0
  0
VERTEX
  5
1F27D
  8
PATH
 10
-590.2434446374097661
 20
372.9997840081849745
 30
0.0
  0
VERTEX
  5
1F27E
  8
PATH
 10
-573.0794004297493984
 20
351.8717943910086774
 30
0.0
  0
SEQEND
  5
1F27F
  8
PATH
  0
POLYLINE
  5
15930
  8
PATH
 66
     1
 10
0.0
 20
0.0
 30
0.0
  0
VERTEX
  5
1F280
  8
PATH
 10
-590.2434446374097661
 20
372.9997840081849745
 30
0.0
  0
VERTEX
  5
1F281
  8
PATH
 10
-577.3967046811159207
 20
370.5403901413592962
 30
0.0
  0
VERTEX
  5
1F282
  8
PATH
 10
-567.1209978529511773
 20
364.6629620045932825
 30
0.0
  0
SEQEND
  5
1F283
  8
PATH
  0
POLYLINE
  5
15931
  8
PATH
 66
     1
 10
0.0
 20
0.0
 30
0.0
  0
VERTEX
  5
1F284
  8
PATH
 10
-573.0794004297493984
 20
351.8717943910086774
 30
0.0
  0
VERTEX
  5
1F285
  8
PATH
 10
-535.1691455316758947
 20
302.6902587190779741
 30
0.0
  0
VERTEX
  5
1F286
  8
PATH
 10
-537.1343211691854549
 20
290.0481045386331971
 30
0.0
  0
VERTEX
  5
1F287
  8
PATH
 10
-566.2956521111334496
 20
265.4073266136038001
 30
0.0
  0
VERTEX
  5
1F288
  8
PATH
 10
-569.3897970085527049
 20
262.6114511262202882
 30
0.0
  0
VERTEX
  5
1F289
  8
PATH
 10
-565.8089641662227223
 20
250.9849192295733076
 30
0.0
  0
SEQEND
  5
1F28A
  8
PATH
  0
POLYLINE
  5
15932
  8
PATH
 66
     1
 10
0.0
 20
0.0
 30
0.0
  0
VERTEX
  5
1F28B
  8
PATH
 10
-481.4942343202565098
 20
316.2400401696140761
 30
0.0
  0
VERTEX
  5
1F28C
  8
PATH
 10
-408.5367317237686962
 20
223.7694573160769949
 30
0.0
  0
SEQEND
  5
1F28D
  8
PATH
  0
POLYLINE
  5
15933
  8
PATH
 66
     1
 10
0.0
 20
0.0
 30
0.0
  0
VERTEX
  5
1F28E
  8
PATH
 10
-445.8823795170899871
 20
356.2828430072913761
 30
0.0
  0
VERTEX
  5
1F28F
  8
PATH
 10
-386.7915866536350791
 20
399.6581509779716725
 30
0.0
  0
SEQEND
  5
1F290
  8
PATH
  0
POLYLINE
  5
15934
  8
PATH
 66
     1
 10
0.0
 20
0.0
 30
0.0
  0
VERTEX
  5
1F291
  8
PATH
 10
-316.4448742550594034
 20
291.0254157907838817
 30
0.0
  0
VERTEX
  5
1F292
  8
PATH
 10
-309.6362263956252718
 20
262.3353455542164738
 30
0.0
  0
SEQEND
  5
1F293
  8
PATH
  0
POLYLINE
  5
15935
  8
PATH
 66
     1
 10
0.0
 20
0.0
 30
0.0
  0
VERTEX
  5
1F294
  8
PATH
 10
-302.7592218416539254
 20
297.7340694559316034
 30
0.0
  0
VERTEX
  5
1F295
  8
PATH
 10
-268.0331834106037263
 20
254.3210126325066085
 30
0.0
  0
VERTEX
  5
1F296
  8
PATH
 10
-250.0083324121806072
 20
221.7394821700218017
 30
0.0
  0
SEQEND
  5
1F297
  8
PATH
  0
POLYLINE
  5
15936
  8
PATH
 66
     1
 10
0.0
 20
0.0
 30
0.0
  0
VERTEX
  5
1F298
  8
PATH
 10
-250.0083324121806072
 20
221.7394821700218017
 30
0.0
  0
VERTEX
  5
1F299
  8
PATH
 10
-225.0840171177551099
 20
182.965626644021512
 30
0.0
  0
SEQEND
  5
1F29A
  8
PATH
  0
POLYLINE
  5
15937
  8
PATH
 66
     1
 10
0.0
 20
0.0
 30
0.0
  0
VERTEX
  5
1F29B
  8
PATH
 10
-201.6713441077299933
 20
94.2302699182691867
 30
0.0
  0
VERTEX
  5
1F29C
  8
PATH
 10
-178.1607854688917882
 20
106.9665044444191011
 30
0.0
  0
SEQEND
  5
1F29D
  8
PATH
  0
POLYLINE
  5
15938
  8
PATH
 66
     1
 10
0.0
 20
0.0
 30
0.0
  0
VERTEX
  5
1F29E
  8
PATH
 10
-201.6713441077299933
 20
94.2302699182691867
 30
0.0
  0
VERTEX
  5
1F29F
  8
PATH
 10
-186.3176667960505029
 20
81.9849896217274221
 30
0.0
  0
VERTEX
  5
1F2A0
  8
PATH
 10
-170.4251878797221877
 20
49.416973225357637
 30
0.0
  0
VERTEX
  5
1F2A1
  8
PATH
 10
-151.4707105483539067
 20
8.5936003015885944
 30
0.0
  0
VERTEX
  5
1F2A2
  8
PATH
 10
-138.6410659125685925
 20
-22.5371440527451306
 30
0.0
  0
VERTEX
  5
1F2A3
  8
PATH
 10
-115.4204608264989957
 20
-87.8933115540494043
 30
0.0
  0
VERTEX
  5
1F2A4
  8
PATH
 10
-105.2346589322114028
 20
-94.7758545209144359
 30
0.0
  0
SEQEND
  5
1F2A5
  8
PATH
  0
POLYLINE
  5
15939
  8
PATH
 66
     1
 10
0.0
 20
0.0
 30
0.0
  0
VERTEX
  5
1F2A6
  8
PATH
 10
-96.3274411396851065
 20
-130.932672294271498
 30
0.0
  0
VERTEX
  5
1F2A7
  8
PATH
 10
-104.0153450860671001
 20
-143.0878701023248141
 30
0.0
  0
VERTEX
  5
1F2A8
  8
PATH
 10
-84.5176562489505159
 20
-222.7425805008460884
 30
0.0
  0
VERTEX
  5
1F2A9
  8
PATH
 10
-78.9192334260005737
 20
-276.8492628414604724
 30
0.0
  0
SEQEND
  5
1F2AA
  8
PATH
  0
POLYLINE
  5
1593A
  8
PATH
 66
     1
 10
0.0
 20
0.0
 30
0.0
  0
VERTEX
  5
1F2AB
  8
PATH
 10
1.7208873628260331
 20
-31.581738261920691
 30
0.0
  0
VERTEX
  5
1F2AC
  8
PATH
 10
-44.1601184174214723
 20
-65.0151910744097989
 30
0.0
  0
SEQEND
  5
1F2AD
  8
PATH
  0
POLYLINE
  5
1593B
  8
PATH
 66
     1
 10
0.0
 20
0.0
 30
0.0
  0
VERTEX
  5
1F2AE
  8
PATH
 10
-44.1601184174214723
 20
-65.0151910744097989
 30
0.0
  0
VERTEX
  5
1F2AF
  8
PATH
 10
-81.0736011302360424
 20
-91.9140168833037166
 30
0.0
  0
VERTEX
  5
1F2B0
  8
PATH
 10
-87.0247215078707086
 20
-106.0678878095422988
 30
0.0
  0
SEQEND
  5
1F2B1
  8
PATH
  0
POLYLINE
  5
1593C
  8
PATH
 66
     1
 10
0.0
 20
0.0
 30
0.0
  0
VERTEX
  5
1F2B2
  8
PATH
 10
-125.1630551324488039
 20
-3.7377726155755209
 30
0.0
  0
VERTEX
  5
1F2B3
  8
PATH
 10
-110.0122621056653003
 20
-45.6718095396136121
 30
0.0
  0
SEQEND
  5
1F2B4
  8
PATH
  0
POLYLINE
  5
1593D
  8
PATH
 66
     1
 10
0.0
 20
0.0
 30
0.0
  0
VERTEX
  5
1F2B5
  8
PATH
 10
-110.0122621056653003
 20
-45.6718095396136121
 30
0.0
  0
VERTEX
  5
1F2B6
  8
PATH
 10
-103.151830574570198
 20
-62.8440461926584177
 30
0.0
  0
SEQEND
  5
1F2B7
  8
PATH
  0
POLYLINE
  5
1593E
  8
PATH
 66
     1
 10
0.0
 20
0.0
 30
0.0
  0
VERTEX
  5
1F2B8
  8
PATH
 10
-103.151830574570198
 20
-62.8440461926584177
 30
0.0
  0
VERTEX
  5
1F2B9
  8
PATH
 10
-105.2346589322114028
 20
-94.7758545209144359
 30
0.0
  0
SEQEND
  5
1F2BA
  8
PATH
  0
POLYLINE
  5
1593F
  8
PATH
 66
     1
 10
0.0
 20
0.0
 30
0.0
  0
VERTEX
  5
1F2BB
  8
PATH
 10
-201.6713441077299933
 20
94.2302699182691867
 30
0.0
  0
VERTEX
  5
1F2BC
  8
PATH
 10
-201.5283394688885892
 20
75.582715998920321
 30
0.0
  0
VERTEX
  5
1F2BD
  8
PATH
 10
-166.3409816187486001
 20
-0.9782023922962251
 30
0.0
  0
VERTEX
  5
1F2BE
  8
PATH
 10
-151.3731000266415947
 20
-35.2615910772656207
 30
0.0
  0
VERTEX
  5
1F2BF
  8
PATH
 10
-137.1909692030895087
 20
-56.761903236103521
 30
0.0
  0
VERTEX
  5
1F2C0
  8
PATH
 10
-126.1698775751429054
 20
-91.6470974273470489
 30
0.0
  0
VERTEX
  5
1F2C1
  8
PATH
 10
-105.2346589322114028
 20
-94.7758545209144359
 30
0.0
  0
SEQEND
  5
1F2C2
  8
PATH
  0
POLYLINE
  5
15940
  8
PATH
 66
     1
 10
0.0
 20
0.0
 30
0.0
  0
VERTEX
  5
1F2C3
  8
PATH
 10
-105.2346589322114028
 20
-94.7758545209144359
 30
0.0
  0
VERTEX
  5
1F2C4
  8
PATH
 10
-101.2252125471276969
 20
-111.9810671731320042
 30
0.0
  0
SEQEND
  5
1F2C5
  8
PATH
  0
POLYLINE
  5
15941
  8
PATH
 66
     1
 10
0.0
 20
0.0
 30
0.0
  0
VERTEX
  5
1F2C6
  8
PATH
 10
-114.4263886108674058
 20
-118.2296175606969939
 30
0.0
  0
VERTEX
  5
1F2C7
  8
PATH
 10
-101.2252125471276969
 20
-111.9810671731320042
 30
0.0
  0
SEQEND
  5
1F2C8
  8
PATH
  0
POLYLINE
  5
15942
  8
PATH
 66
     1
 10
0.0
 20
0.0
 30
0.0
  0
VERTEX
  5
1F2C9
  8
PATH
 10
-101.2252125471276969
 20
-111.9810671731320042
 30
0.0
  0
VERTEX
  5
1F2CA
  8
PATH
 10
-96.3274411396851065
 20
-130.932672294271498
 30
0.0
  0
SEQEND
  5
1F2CB
  8
PATH
  0
POLYLINE
  5
15943
  8
PATH
 66
     1
 10
0.0
 20
0.0
 30
0.0
  0
VERTEX
  5
1F2CC
  8
PATH
 10
-101.2252125471276969
 20
-111.9810671731320042
 30
0.0
  0
VERTEX
  5
1F2CD
  8
PATH
 10
-87.0247215078707086
 20
-106.0678878095422988
 30
0.0
  0
SEQEND
  5
1F2CE
  8
PATH
  0
TEXT
  5
182A1
  8
BUILDING
 10
192.6094792668444882
 20
-267.5644111996003858
 30
0.0
 40
5.0
  1
2432 
  0
TEXT
  5
182A2
  8
NAME
 10
179.0734538673858935
 20
-282.4405409655951757
 30
0.0
 40
4.0
  1

  0
TEXT
  5
182A3
  8
DINING
 10
194.989243793694186
 20
-295.3058313079596928
 30
0.0
 40
5.0
  1
0.8
  0
CIRCLE
  5
182A4
  8
BUILDING
 10
201.0381442597573027
 20
-279.8890806110063068
 30
0.0
 40
27.4635907490736599
  0
TEXT
  5
182A5
  8
BUILDING
 10
86.239710418842165
 20
-232.3228032681577986
 30
0.0
 40
5.0
  1
3048
  0
TEXT
  5
182A6
  8
NAME
 10
72.7036850193835562
 20
-247.1989330341527022
 30
0.0
 40
4.0
  1

  0
TEXT
  5
182A7
  8
DINING
 10
88.6194749456917634
 20
-260.0642233765170772
 30
0.0
 40
5.0
  1
0.8
  0
CIRCLE
  5
182A8
  8
BUILDING
 10
94.6683754117548233
 20
-244.6474726795638048
 30
0.0
 40
27.4635907490736599
  0
TEXT
  5
182A9
  8
BUILDING
 10
0.7317391849210253
 20
-200.9791399226010924
 30
0.0
 40
5.0
  1
1433
  0
TEXT
  5
182AA
  8
NAME
 10
-12.8042862145375693
 20
-215.8552696885959961
 30
0.0
 40
4.0
  1

  0
TEXT
  5
182AB
  8
DINING
 10
3.111503711770637
 20
-228.7205600309603994
 30
0.0
 40
5.0
  1
0.8
  0
CIRCLE
  5
182AC
  8
BUILDING
 10
9.1604041778336978
 20
-213.3038093340070134
 30
0.0
 40
27.4635907490736599
  0
TEXT
  5
182AD
  8
BUILDING
 10
-23.7000397735537298
 20
-120.7851311708288051
 30
0.0
 40
5.0
  1
2433
  0
TEXT
  5
182AE
  8
NAME
 10
-37.2360651730123209
 20
-135.6612609368235951
 30
0.0
 40
4.0
  1

  0
TEXT
  5
182AF
  8
DINING
 10
-21.3202752467041101
 20
-148.5265512791881122
 30
0.0
 40
5.0
  1
0.7
  0
CIRCLE
  5
182B0
  8
BUILDING
 10
-15.2713747806410503
 20
-133.1098005822346977
 30
0.0
 40
27.4635907490736599
  0
TEXT
  5
182B1
  8
BUILDING
 10
63.0619486445066286
 20
-67.5207383213052026
 30
0.0
 40
5.0
  1
2700
  0
TEXT
  5
182B2
  8
NAME
 10
49.5259232450480269
 20
-82.3968680873000352
 30
0.0
 40
4.0
  1

  0
TEXT
  5
182B3
  8
DINING
 10
65.4417131713562412
 20
-95.2621584296644954
 30
0.0
 40
5.0
  1
0.7
  0
CIRCLE
  5
182B4
  8
BUILDING
 10
71.4906136374193011
 20
-79.8454077327111236
 30
0.0
 40
27.4635907490736599
  0
TEXT
  5
182B5
  8
BUILDING
 10
117.2970706518827058
 20
-164.7803741236635915
 30
0.0
 40
5.0
  1
3467
  0
TEXT
  5
182B6
  8
NAME
 10
103.7610452524240969
 20
-179.6565038896584099
 30
0.0
 40
4.0
  1

  0
TEXT
  5
182B7
  8
DINING
 10
119.6768351787323041
 20
-192.5217942320228985
 30
0.0
 40
5.0
  1
0.7
  0
CIRCLE
  5
182B8
  8
BUILDING
 10
125.725735644795293
 20
-177.1050435350695125
 30
0.0
 40
27.4635907490736599
  0
TEXT
  5
182B9
  8
BUILDING
 10
-70.6190608916367637
 20
4.6036337721674272
 30
0.0
 40
5.0
  1
2488
  0
TEXT
  5
182BA
  8
NAME
 10
-84.1550862910953583
 20
-10.2724959938274196
 30
0.0
 40
4.0
  1

  0
TEXT
  5
182BB
  8
DINING
 10
-68.2392963647871511
 20
-23.1377863361918799
 30
0.0
 40
5.0
  1
0.7
  0
CIRCLE
  5
182BC
  8
BUILDING
 10
-62.1903958987240912
 20
-7.7210356392384929
 30
0.0
 40
27.4635907490736599
  0
TEXT
  5
182BD
  8
BUILDING
 10
-13.5371006981149495
 20
64.93144330247776
 30
0.0
 40
5.0
  1
933
  0
TEXT
  5
182BE
  8
NAME
 10
-27.0731260975735495
 20
50.0553135364829132
 30
0.0
 40
4.0
  1

  0
TEXT
  5
182BF
  8
DINING
 10
-11.1573361712653405
 20
37.19002319411846
 30
0.0
 40
5.0
  1
0.8
  0
CIRCLE
  5
182C0
  8
BUILDING
 10
-5.1084357052022824
 20
52.606773891071839
 30
0.0
 40
27.4635907490736599
  0
TEXT
  5
182C1
  8
BUILDING
 10
-35.5444114714191528
 20
130.9539091745903931
 30
0.0
 40
5.0
  1
2700
  0
TEXT
  5
182C2
  8
NAME
 10
-49.0804368708777474
 20
116.0777794085956032
 30
0.0
 40
4.0
  1

  0
TEXT
  5
182C3
  8
DINING
 10
-33.1646469445695402
 20
103.2124890662311003
 30
0.0
 40
5.0
  1
0.7
  0
CIRCLE
  5
182C4
  8
BUILDING
 10
-27.1157464785064803
 20
118.6292397631845006
 30
0.0
 40
27.4635907490736599
  0
TEXT
  5
182C5
  8
BUILDING
 10
-113.6714325772044987
 20
79.6548795626080164
 30
0.0
 40
5.0
  1
2925
  0
TEXT
  5
182C6
  8
NAME
 10
-127.2074579766630933
 20
64.7787497966131696
 30
0.0
 40
4.0
  1

  0
TEXT
  5
182C7
  8
DINING
 10
-111.2916680503549003
 20
51.9134594542487022
 30
0.0
 40
5.0
  1
0.8
  0
CIRCLE
  5
182C8
  8
BUILDING
 10
-105.2427675842917978
 20
67.3302101512020954
 30
0.0
 40
27.4635907490736599
  0
TEXT
  5
182C9
  8
BUILDING
 10
-155.1631366200890056
 20
173.0961697577079974
 30
0.0
 40
5.0
  1
2433 
  0
TEXT
  5
182CA
  8
NAME
 10
-168.6991620195476003
 20
158.2200399917132074
 30
0.0
 40
4.0
  1

  0
TEXT
  5
182CB
  8
DINING
 10
-152.7833720932393931
 20
145.3547496493486904
 30
0.0
 40
5.0
  1
0.7
  0
CIRCLE
  5
182CC
  8
BUILDING
 10
-146.73447162717639
 20
160.7715003463021048
 30
0.0
 40
27.4635907490736599
  0
TEXT
  5
182CD
  8
BUILDING
 10
-98.7398139418946954
 20
232.4559933939530083
 30
0.0
 40
5.0
  1
2149
  0
TEXT
  5
182CE
  8
NAME
 10
-112.2758393413533042
 20
217.5798636279581899
 30
0.0
 40
4.0
  1

  0
TEXT
  5
182CF
  8
DINING
 10
-96.3600494150450686
 20
204.7145732855937013
 30
0.0
 40
5.0
  1
0.7
  0
CIRCLE
  5
182D0
  8
BUILDING
 10
-90.3111489489819945
 20
220.1313239825470873
 30
0.0
 40
27.4635907490736599
  0
TEXT
  5
182D1
  8
BUILDING
 10
-217.7214577081176969
 20
295.3090392943053075
 30
0.0
 40
5.0
  1
3894
  0
TEXT
  5
182D2
  8
NAME
 10
-231.2574831075762916
 20
280.4329095283105175
 30
0.0
 40
4.0
  1

  0
TEXT
  5
182D3
  8
DINING
 10
-215.3416931812681128
 20
267.5676191859460005
 30
0.0
 40
5.0
  1
0.8
  0
CIRCLE
  5
182D4
  8
BUILDING
 10
-209.2927927152049961
 20
282.9843698828993865
 30
0.0
 40
27.4635907490736599
  0
TEXT
  5
182D5
  8
BUILDING
 10
-151.0739816003624014
 20
332.6252070675184882
 30
0.0
 40
5.0
  1
3192
  0
TEXT
  5
182D6
  8
NAME
 10
-164.610006999820996
 20
317.7490773015236982
 30
0.0
 40
4.0
  1

  0
TEXT
  5
182D7
  8
DINING
 10
-148.6942170735127888
 20
304.8837869591591812
 30
0.0
 40
5.0
  1
0.8
  0
CIRCLE
  5
182D8
  8
BUILDING
 10
-142.6453166074497858
 20
320.3005376561126241
 30
0.0
 40
27.4635907490736599
  0
TEXT
  5
182D9
  8
BUILDING
 10
-225.3961282317904988
 20
440.4276451543486246
 30
0.0
 40
5.0
  1
3366
  0
TEXT
  5
182DA
  8
NAME
 10
-238.9321536312490935
 20
425.5515153883537209
 30
0.0
 40
4.0
  1

  0
TEXT
  5
182DB
  8
DINING
 10
-223.0163637049408862
 20
412.6862250459892039
 30
0.0
 40
5.0
  1
0.8
  0
CIRCLE
  5
182DC
  8
BUILDING
 10
-216.9674632388777979
 20
428.1029757429425899
 30
0.0
 40
27.4635907490736599
  0
TEXT
  5
182DD
  8
BUILDING
 10
-292.0432788274047198
 20
402.1923474222933805
 30
0.0
 40
5.0
  1
3701
  0
TEXT
  5
182DE
  8
NAME
 10
-305.5793042268633144
 20
387.3162176562985906
 30
0.0
 40
4.0
  1

  0
TEXT
  5
182DF
  8
DINING
 10
-289.6635143005551072
 20
374.4509273139340735
 30
0.0
 40
5.0
  1
0.7
  0
CIRCLE
  5
182E0
  8
BUILDING
 10
-283.6146138344921042
 20
389.8676780108875164
 30
0.0
 40
27.4635907490736599
  0
TEXT
  5
182E1
  8
BUILDING
 10
-334.8259818430087762
 20
520.537580157215757
 30
0.0
 40
5.0
  1
3267
  0
TEXT
  5
182E2
  8
NAME
 10
-348.3620072424674277
 20
505.6614503912209102
 30
0.0
 40
4.0
  1

  0
TEXT
  5
182E3
  8
DINING
 10
-332.4462173161592204
 20
492.7961600488563931
 30
0.0
 40
5.0
  1
0.8
  0
CIRCLE
  5
182E4
  8
BUILDING
 10
-326.3973168500961037
 20
508.2129107458097792
 30
0.0
 40
27.4635907490736599
  0
TEXT
  5
182E5
  8
BUILDING
 10
-410.8010064542322084
 20
322.6196062570019194
 30
0.0
 40
5.0
  1
3285
  0
TEXT
  5
182E6
  8
NAME
 10
-424.337031853690803
 20
307.7434764910070726
 30
0.0
 40
4.0
  1

  0
TEXT
  5
182E7
  8
DINING
 10
-408.4212419273825958
 20
294.8781861486426124
 30
0.0
 40
5.0
  1
0.1
  0
CIRCLE
  5
182E8
  8
BUILDING
 10
-402.3723414613194791
 20
310.2949368455959984
 30
0.0
 40
27.4635907490736599
  0
TEXT
  5
182E9
  8
BUILDING
 10
-484.2990831002388745
 20
245.5637322683400043
 30
0.0
 40
5.0
  1
3600
  0
TEXT
  5
182EA
  8
NAME
 10
-497.835108499697526
 20
230.6876025023451859
 30
0.0
 40
4.0
  1

  0
TEXT
  5
182EB
  8
DINING
 10
-481.9193185733893188
 20
217.8223121599806973
 30
0.0
 40
5.0
  1
0.8
  0
CIRCLE
  5
182EC
  8
BUILDING
 10
-475.8704181073262021
 20
233.2390628569341118
 30
0.0
 40
27.4635907490736599
  0
TEXT
  5
182ED
  8
BUILDING
 10
-527.3123029167909408
 20
364.1371935415594976
 30
0.0
 40
5.0
  1
2629
  0
TEXT
  5
182EE
  8
NAME
 10
-540.8483283162495354
 20
349.2610637755645939
 30
0.0
 40
4.0
  1

  0
TEXT
  5
182EF
  8
DINING
 10
-524.9325383899413282
 20
336.3957734332000769
 30
0.0
 40
5.0
  1
0.1
  0
CIRCLE
  5
182F0
  8
BUILDING
 10
-518.8836379238781547
 20
351.8125241301535198
 30
0.0
 40
27.4635907490736599
  0
TEXT
  5
182F1
  8
BUILDING
 10
-564.0273523539799498
 20
181.5131432498386062
 30
0.0
 40
5.0
  1
3600
  0
TEXT
  5
182F2
  8
NAME
 10
-577.5633777534385445
 20
166.6370134838437878
 30
0.0
 40
4.0
  1

  0
TEXT
  5
182F3
  8
DINING
 10
-561.6475878271303372
 20
153.7717231414792991
 30
0.0
 40
5.0
  1
0.8
  0
CIRCLE
  5
182F4
  8
BUILDING
 10
-555.5986873610671637
 20
169.1884738384327136
 30
0.0
 40
27.4635907490736599
  0
TEXT
  5
182F5
  8
BUILDING
 10
-612.331789030416985
 20
93.8254373819148668
 30
0.0
 40
5.0
  1
4100
  0
TEXT
  5
182F6
  8
NAME
 10
-625.867814429875466
 20
78.94930761592002
 30
0.0
 40
4.0
  1

  0
TEXT
  5
182F7
  8
DINING
 10
-609.9520245035672588
 20
66.0840172735555456
 30
0.0
 40
5.0
  1
0.8
  0
CIRCLE
  5
182F8
  8
BUILDING
 10
-603.9031240375043126
 20
81.5007679705089458
 30
0.0
 40
27.4635907490736599
  0
TEXT
  5
182F9
  8
BUILDING
 10
-685.8621817918756278
 20
217.2537185717887098
 30
0.0
 40
5.0
  1
5500
  0
TEXT
  5
182FA
  8
NAME
 10
-699.3982071913342224
 20
202.3775888057938062
 30
0.0
 40
4.0
  1

  0
TEXT
  5
182FB
  8
DINING
 10
-683.4824172650260152
 20
189.5122984634294028
 30
0.0
 40
5.0
  1
0.1
  0
CIRCLE
  5
182FC
  8
BUILDING
 10
-677.4335167989629554
 20
204.9290491603827036
 30
0.0
 40
27.4635907490736599
  0
TEXT
  5
182FD
  8
BUILDING
 10
-606.6265569793322356
 20
494.8859081455087221
 30
0.0
 40
5.0
  1
1533
  0
TEXT
  5
182FE
  8
NAME
 10
-620.1625823787908303
 20
480.0097783795138753
 30
0.0
 40
4.0
  1

  0
TEXT
  5
182FF
  8
DINING
 10
-604.246792452482623
 20
467.144488037149415
 30
0.0
 40
5.0
  1
0.7
  0
CIRCLE
  5
18300
  8
BUILDING
 10
-598.1978919864195632
 20
482.5612387341029148
 30
0.0
 40
27.4635907490736599
  0
TEXT
  5
18301
  8
BUILDING
 10
-671.1627617699122084
 20
453.6669086656115155
 30
0.0
 40
5.0
  1
2691
  0
TEXT
  5
18302
  8
NAME
 10
-684.6987871693709167
 20
438.7907788996166119
 30
0.0
 40
4.0
  1

  0
TEXT
  5
18303
  8
DINING
 10
-668.7829972430627095
 20
425.9254885572520948
 30
0.0
 40
5.0
  1
0.1
  0
CIRCLE
  5
18304
  8
BUILDING
 10
-662.7340967769996496
 20
441.3422392542054808
 30
0.0
 40
27.4635907490736599
  0
TEXT
  5
18305
  8
BUILDING
 10
-779.9849747574335197
 20
452.2987286728388199
 30
0.0
 40
5.0
  1
2302
  0
TEXT
  5
18306
  8
NAME
 10
-793.5210001568921143
 20
437.4225989068439162
 30
0.0
 40
4.0
  1

  0
TEXT
  5
18307
  8
DINING
 10
-777.6052102305839071
 20
424.5573085644795128
 30
0.0
 40
5.0
  1
0.7
  0
CIRCLE
  5
18308
  8
BUILDING
 10
-771.5563097645208472
 20
439.9740592614327852
 30
0.0
 40
27.4635907490736599
  0
ENDSEC
  0
EOF
