  0
SECTION
  2
HEADER
  9
$ACADVER
  1
AC1009
  9
$INSBASE
 10
0.0
 20
0.0
 30
0.0
  9
$EXTMIN
 10
-1529.0948053326048921
 20
-1182.8582295371379587
 30
0.0
  9
$EXTMAX
 10
995.1583422277471982
 20
807.4465786644790342
 30
0.0
  9
$LIMMIN
 10
0.0
 20
0.0
  9
$LIMMAX
 10
420.0
 20
297.0
  9
$ORTHOMODE
 70
     0
  9
$REGENMODE
 70
     1
  9
$FILLMODE
 70
     1
  9
$QTEXTMODE
 70
     0
  9
$MIRRTEXT
 70
     0
  9
$DRAGMODE
 70
     2
  9
$LTSCALE
 40
1.0
  9
$OSMODE
 70
    63
  9
$ATTMODE
 70
     1
  9
$TEXTSIZE
 40
2.5
  9
$TRACEWID
 40
1.0
  9
$TEXTSTYLE
  7
STANDARD
  9
$CLAYER
  8
PATH
  9
$CELTYPE
  6
BYLAYER
  9
$CECOLOR
 62
   256
  9
$DIMSCALE
 40
1.0
  9
$DIMASZ
 40
2.5
  9
$DIMEXO
 40
0.625
  9
$DIMDLI
 40
3.75
  9
$DIMRND
 40
0.0
  9
$DIMDLE
 40
0.0
  9
$DIMEXE
 40
1.25
  9
$DIMTP
 40
0.0
  9
$DIMTM
 40
0.0
  9
$DIMTXT
 40
2.5
  9
$DIMCEN
 40
2.5
  9
$DIMTSZ
 40
0.0
  9
$DIMTOL
 70
     0
  9
$DIMLIM
 70
     0
  9
$DIMTIH
 70
     0
  9
$DIMTOH
 70
     0
  9
$DIMSE1
 70
     0
  9
$DIMSE2
 70
     0
  9
$DIMTAD
 70
     1
  9
$DIMZIN
 70
     8
  9
$DIMBLK
  1

  9
$DIMASO
 70
     1
  9
$DIMSHO
 70
     1
  9
$DIMPOST
  1

  9
$DIMAPOST
  1

  9
$DIMALT
 70
     0
  9
$DIMALTD
 70
     3
  9
$DIMALTF
 40
0.03937007874016
  9
$DIMLFAC
 40
1.0
  9
$DIMTOFL
 70
     1
  9
$DIMTVP
 40
0.0
  9
$DIMTIX
 70
     0
  9
$DIMSOXD
 70
     0
  9
$DIMSAH
 70
     0
  9
$DIMBLK1
  1

  9
$DIMBLK2
  1

  9
$DIMSTYLE
  2
ISO-25
  9
$DIMCLRD
 70
     0
  9
$DIMCLRE
 70
     0
  9
$DIMCLRT
 70
     0
  9
$DIMTFAC
 40
1.0
  9
$DIMGAP
 40
0.625
  9
$LUNITS
 70
     2
  9
$LUPREC
 70
     4
  9
$SKETCHINC
 40
1.0
  9
$FILLETRAD
 40
1.0
  9
$AUNITS
 70
     0
  9
$AUPREC
 70
     0
  9
$MENU
  1
.
  9
$ELEVATION
 40
0.0
  9
$PELEVATION
 40
0.0
  9
$THICKNESS
 40
0.0
  9
$LIMCHECK
 70
     0
  9
$BLIPMODE
 70
     0
  9
$CHAMFERA
 40
0.0
  9
$CHAMFERB
 40
0.0
  9
$SKPOLY
 70
     0
  9
$TDCREATE
 40
2459128.9035069448873401
  9
$TDUPDATE
 40
2459146.8872106480412185
  9
$TDINDWG
 40
1.6611127315000001
  9
$TDUSRTIMER
 40
1.6611004976999999
  9
$USRTIMER
 70
     1
  9
$ANGBASE
 50
0.0
  9
$ANGDIR
 70
     0
  9
$PDMODE
 70
     0
  9
$PDSIZE
 40
0.0
  9
$PLINEWID
 40
0.0
  9
$COORDS
 70
     1
  9
$SPLFRAME
 70
     0
  9
$SPLINETYPE
 70
     6
  9
$SPLINESEGS
 70
     8
  9
$ATTDIA
 70
     1
  9
$ATTREQ
 70
     1
  9
$HANDLING
 70
     1
  9
$HANDSEED
  5
22D31
  9
$SURFTAB1
 70
     6
  9
$SURFTAB2
 70
     6
  9
$SURFTYPE
 70
     6
  9
$SURFU
 70
     6
  9
$SURFV
 70
     6
  9
$UCSNAME
  2

  9
$UCSORG
 10
0.0
 20
0.0
 30
0.0
  9
$UCSXDIR
 10
1.0
 20
0.0
 30
0.0
  9
$UCSYDIR
 10
0.0
 20
1.0
 30
0.0
  9
$PUCSNAME
  2

  9
$PUCSORG
 10
0.0
 20
0.0
 30
0.0
  9
$PUCSXDIR
 10
1.0
 20
0.0
 30
0.0
  9
$PUCSYDIR
 10
0.0
 20
1.0
 30
0.0
  9
$USERI1
 70
     0
  9
$USERI2
 70
     0
  9
$USERI3
 70
     0
  9
$USERI4
 70
     0
  9
$USERI5
 70
     0
  9
$USERR1
 40
0.0
  9
$USERR2
 40
0.0
  9
$USERR3
 40
0.0
  9
$USERR4
 40
0.0
  9
$USERR5
 40
0.0
  9
$WORLDVIEW
 70
     1
  9
$SHADEDGE
 70
     3
  9
$SHADEDIF
 70
    70
  9
$TILEMODE
 70
     1
  9
$MAXACTVP
 70
    64
  9
$PLIMCHECK
 70
     0
  9
$PEXTMIN
 10
0.0
 20
0.0
 30
0.0
  9
$PEXTMAX
 10
0.0
 20
0.0
 30
0.0
  9
$PLIMMIN
 10
0.0
 20
0.0
  9
$PLIMMAX
 10
12.0
 20
9.0
  9
$UNITMODE
 70
     0
  9
$VISRETAIN
 70
     1
  9
$PLINEGEN
 70
     0
  9
$PSLTSCALE
 70
     1
  0
ENDSEC
  0
SECTION
  2
TABLES
  0
TABLE
  2
VPORT
 70
     1
  0
VPORT
  2
*ACTIVE
 70
     0
 10
0.0
 20
0.0
 11
1.0
 21
1.0
 12
-417.0213178423209115
 22
281.4924465102943145
 13
0.0
 23
0.0
 14
10.0
 24
10.0
 15
10.0
 25
10.0
 16
0.0
 26
0.0
 36
1.0
 17
0.0
 27
0.0
 37
0.0
 40
473.7218484113993782
 41
1.874258600237247
 42
50.0
 43
0.0
 44
0.0
 50
0.0
 51
0.0
 71
     0
 72
  1000
 73
     1
 74
     3
 75
     0
 76
     0
 77
     0
 78
     0
  0
ENDTAB
  0
TABLE
  2
LTYPE
 70
     1
  0
LTYPE
  2
CONTINUOUS
 70
     0
  3
Solid line
 72
    65
 73
     0
 40
0.0
  0
ENDTAB
  0
TABLE
  2
LAYER
 70
     6
  0
LAYER
  2
0
 70
     0
 62
     7
  6
CONTINUOUS
  0
LAYER
  2
PATH
 70
     0
 62
    40
  6
CONTINUOUS
  0
LAYER
  2
BUILDING
 70
     2
 62
     1
  6
CONTINUOUS
  0
LAYER
  2
DINING
 70
     2
 62
    81
  6
CONTINUOUS
  0
LAYER
  2
BOUNDARY
 70
     2
 62
     6
  6
CONTINUOUS
  0
LAYER
  2
NAME
 70
     0
 62
     7
  6
CONTINUOUS
  0
ENDTAB
  0
TABLE
  2
STYLE
 70
     2
  0
STYLE
  2
STANDARD
 70
     0
 40
0.0
 41
1.0
 50
0.0
 71
     0
 42
2.5
  3
txt
  4

  0
STYLE
  2
ANNOTATIVE
 70
     0
 40
0.0
 41
1.0
 50
0.0
 71
     0
 42
0.2
  3
txt
  4

  0
ENDTAB
  0
TABLE
  2
VIEW
 70
     0
  0
ENDTAB
  0
TABLE
  2
UCS
 70
     0
  0
ENDTAB
  0
TABLE
  2
APPID
 70
    13
  0
APPID
  2
ACAD
 70
     0
  0
APPID
  2
ACADANNOTATIVE
 70
     0
  0
APPID
  2
ACAD_PSEXT
 70
     0
  0
APPID
  2
ACADANNOPO
 70
     0
  0
APPID
  2
ACAD_DSTYLE_DIMJAG
 70
     0
  0
APPID
  2
ACAD_DSTYLE_DIMTALN
 70
     0
  0
APPID
  2
ACAD_MLEADERVER
 70
     0
  0
APPID
  2
ACAD_NAV_VCDISPLAY
 70
     0
  0
APPID
  2
ACLAYERTOOLS
 70
     0
  0
APPID
  2
ACAECLAYERSTANDARD
 70
     0
  0
APPID
  2
ACCMTRANSPARENCY
 70
     0
  0
APPID
  2
ACAD_EXEMPT_FROM_CAD_STANDARDS
 70
     0
  0
APPID
  2
ACAD_OBJECT_CHANGE_GUID
 70
     0
  0
ENDTAB
  0
TABLE
  2
DIMSTYLE
 70
     3
  0
DIMSTYLE
  2
STANDARD
 70
     0
  3

  4

  5

  6

  7

 40
1.0
 41
0.18
 42
0.0625
 43
0.38
 44
0.18
 45
0.0
 46
0.0
 47
0.0
 48
0.0
140
0.18
141
0.09
142
0.0
143
25.3999999999999986
144
1.0
145
0.0
146
1.0
147
0.09
 71
     0
 72
     0
 73
     1
 74
     1
 75
     0
 76
     0
 77
     0
 78
     0
170
     0
171
     2
172
     0
173
     0
174
     0
175
     0
176
     0
177
     0
178
     0
  0
DIMSTYLE
  2
ANNOTATIVE
 70
     0
  3

  4

  5

  6

  7

 40
1.0
 41
0.18
 42
0.0625
 43
0.38
 44
0.18
 45
0.0
 46
0.0
 47
0.0
 48
0.0
140
0.18
141
0.09
142
0.0
143
25.3999999999999986
144
1.0
145
0.0
146
1.0
147
0.09
 71
     0
 72
     0
 73
     1
 74
     1
 75
     0
 76
     0
 77
     0
 78
     0
170
     0
171
     2
172
     0
173
     0
174
     0
175
     0
176
     0
177
     0
178
     0
  0
DIMSTYLE
  2
ISO-25
 70
     0
  3

  4

  5

  6

  7

 40
1.0
 41
2.5
 42
0.625
 43
3.75
 44
1.25
 45
0.0
 46
0.0
 47
0.0
 48
0.0
140
2.5
141
2.5
142
0.0
143
0.03937007874016
144
1.0
145
0.0
146
1.0
147
0.625
 71
     0
 72
     0
 73
     0
 74
     0
 75
     0
 76
     0
 77
     1
 78
     8
170
     0
171
     3
172
     1
173
     0
174
     0
175
     0
176
     0
177
     0
178
     0
  0
ENDTAB
  0
ENDSEC
  0
SECTION
  2
BLOCKS
  0
BLOCK
  8
0
  2
$MODEL_SPACE
 70
     0
 10
0.0
 20
0.0
 30
0.0
  3
$MODEL_SPACE
  1

  0
ENDBLK
  5
2263F
  8
0
  0
BLOCK
 67
     1
  8
0
  2
$PAPER_SPACE
 70
     0
 10
0.0
 20
0.0
 30
0.0
  3
$PAPER_SPACE
  1

  0
ENDBLK
  5
2263B
 67
     1
  8
0
  0
ENDSEC
  0
SECTION
  2
ENTITIES
  0
POLYLINE
  5
20957
  8
PATH
 66
     1
 10
0.0
 20
0.0
 30
0.0
  0
VERTEX
  5
22675
  8
PATH
 10
-1203.5794476564190063
 20
304.1981922914782785
 30
0.0
  0
VERTEX
  5
22676
  8
PATH
 10
-1298.6480996894099462
 20
221.6071570325221103
 30
0.0
  0
VERTEX
  5
22677
  8
PATH
 10
-1321.0543217391389135
 20
194.2866114178249859
 30
0.0
  0
VERTEX
  5
22678
  8
PATH
 10
-1344.638749012272001
 20
85.302157420715929
 30
0.0
  0
SEQEND
  5
22679
  8
PATH
  0
POLYLINE
  5
20958
  8
PATH
 66
     1
 10
0.0
 20
0.0
 30
0.0
  0
VERTEX
  5
2267A
  8
PATH
 10
-1344.638749012272001
 20
85.302157420715929
 30
0.0
  0
VERTEX
  5
2267B
  8
PATH
 10
-1346.7405623587110313
 20
79.2057129960085149
 30
0.0
  0
VERTEX
  5
2267C
  8
PATH
 10
-1346.6062070313050754
 20
65.5571939326400752
 30
0.0
  0
VERTEX
  5
2267D
  8
PATH
 10
-1343.7528781425930902
 20
45.0581692336636408
 30
0.0
  0
VERTEX
  5
2267E
  8
PATH
 10
-1340.3585058817550362
 20
27.0969494288365311
 30
0.0
  0
VERTEX
  5
2267F
  8
PATH
 10
-1333.2206516209550955
 20
7.6441008588808463
 30
0.0
  0
VERTEX
  5
22680
  8
PATH
 10
-1324.3582084305380704
 20
-19.8679219684054083
 30
0.0
  0
SEQEND
  5
22681
  8
PATH
  0
POLYLINE
  5
20959
  8
PATH
 66
     1
 10
0.0
 20
0.0
 30
0.0
  0
VERTEX
  5
22682
  8
PATH
 10
-1324.3582084304800901
 20
-19.8679219684054083
 30
0.0
  0
VERTEX
  5
22683
  8
PATH
 10
-1311.9704206668100142
 20
-58.3238073726606601
 30
0.0
  0
VERTEX
  5
22684
  8
PATH
 10
-1294.1006090032899465
 20
-106.0819880747658033
 30
0.0
  0
VERTEX
  5
22685
  8
PATH
 10
-1283.3315566834789934
 20
-127.769225181960806
 30
0.0
  0
VERTEX
  5
22686
  8
PATH
 10
-1263.5922789608159746
 20
-140.6348965861324132
 30
0.0
  0
VERTEX
  5
22687
  8
PATH
 10
-1248.8928069564419729
 20
-135.8801881651816075
 30
0.0
  0
VERTEX
  5
22688
  8
PATH
 10
-1155.894983173943956
 20
-89.558881753073365
 30
0.0
  0
SEQEND
  5
22689
  8
PATH
  0
POLYLINE
  5
2095A
  8
PATH
 66
     1
 10
0.0
 20
0.0
 30
0.0
  0
VERTEX
  5
2268A
  8
PATH
 10
-1155.894983174177014
 20
-89.5588817526076895
 30
0.0
  0
VERTEX
  5
2268B
  8
PATH
 10
-1018.3692371436759458
 20
-21.0586527967316215
 30
0.0
  0
VERTEX
  5
2268C
  8
PATH
 10
-951.0622676060447702
 20
11.7471053945409896
 30
0.0
  0
VERTEX
  5
2268D
  8
PATH
 10
-920.1698740280844504
 20
21.7525835061023791
 30
0.0
  0
VERTEX
  5
2268E
  8
PATH
 10
-892.9582857893691425
 20
30.3909416813912685
 30
0.0
  0
SEQEND
  5
2268F
  8
PATH
  0
POLYLINE
  5
2095B
  8
PATH
 66
     1
 10
0.0
 20
0.0
 30
0.0
  0
VERTEX
  5
22690
  8
PATH
 10
-892.9582857893109349
 20
30.3909416813912685
 30
0.0
  0
VERTEX
  5
22691
  8
PATH
 10
-868.0177928793854107
 20
22.6999835772949083
 30
0.0
  0
SEQEND
  5
22692
  8
PATH
  0
POLYLINE
  5
2095C
  8
PATH
 66
     1
 10
0.0
 20
0.0
 30
0.0
  0
VERTEX
  5
22693
  8
PATH
 10
-868.0177928793854107
 20
22.6999835772949083
 30
0.0
  0
VERTEX
  5
22694
  8
PATH
 10
-868.5282539100296617
 20
-124.1065678074446055
 30
0.0
  0
VERTEX
  5
22695
  8
PATH
 10
-868.0638226370357415
 20
-139.35604127211991
 30
0.0
  0
SEQEND
  5
22696
  8
PATH
  0
POLYLINE
  5
2095D
  8
PATH
 66
     1
 10
0.0
 20
0.0
 30
0.0
  0
VERTEX
  5
22697
  8
PATH
 10
-868.0638226370357415
 20
-139.35604127211991
 30
0.0
  0
VERTEX
  5
22698
  8
PATH
 10
-866.1549464519048342
 20
-202.0334672475655964
 30
0.0
  0
VERTEX
  5
22699
  8
PATH
 10
-863.5987872812690966
 20
-229.5007828575980966
 30
0.0
  0
VERTEX
  5
2269A
  8
PATH
 10
-858.2521640798803446
 20
-251.6463096728039091
 30
0.0
  0
SEQEND
  5
2269B
  8
PATH
  0
POLYLINE
  5
2095E
  8
PATH
 66
     1
 10
0.0
 20
0.0
 30
0.0
  0
VERTEX
  5
2269C
  8
PATH
 10
-858.2521640798803446
 20
-251.6463096728039091
 30
0.0
  0
VERTEX
  5
2269D
  8
PATH
 10
-851.0273038245649104
 20
-281.5714288544331794
 30
0.0
  0
VERTEX
  5
2269E
  8
PATH
 10
-837.230990370924701
 20
-314.5702605666082832
 30
0.0
  0
SEQEND
  5
2269F
  8
PATH
  0
POLYLINE
  5
2095F
  8
PATH
 66
     1
 10
0.0
 20
0.0
 30
0.0
  0
VERTEX
  5
226A0
  8
PATH
 10
-837.2309903708661523
 20
-314.5702605666082832
 30
0.0
  0
VERTEX
  5
226A1
  8
PATH
 10
-832.0147403287844554
 20
-327.0467933653343948
 30
0.0
  0
VERTEX
  5
226A2
  8
PATH
 10
-799.5274794285211328
 20
-373.7891953377475147
 30
0.0
  0
VERTEX
  5
226A3
  8
PATH
 10
-789.4130903524493306
 20
-388.2118229409169885
 30
0.0
  0
SEQEND
  5
226A4
  8
PATH
  0
POLYLINE
  5
20960
  8
PATH
 66
     1
 10
0.0
 20
0.0
 30
0.0
  0
VERTEX
  5
226A5
  8
PATH
 10
-789.4130903524493306
 20
-388.2118229409169885
 30
0.0
  0
VERTEX
  5
226A6
  8
PATH
 10
-774.2325464695602477
 20
-409.8585412539031836
 30
0.0
  0
VERTEX
  5
226A7
  8
PATH
 10
-650.005639383933044
 20
-586.5406839432614561
 30
0.0
  0
SEQEND
  5
226A8
  8
PATH
  0
POLYLINE
  5
20961
  8
PATH
 66
     1
 10
0.0
 20
0.0
 30
0.0
  0
VERTEX
  5
226A9
  8
PATH
 10
-650.005639383933044
 20
-586.5406839432614561
 30
0.0
  0
VERTEX
  5
226AA
  8
PATH
 10
-641.2916969949291115
 20
-586.0253991693680291
 30
0.0
  0
VERTEX
  5
226AB
  8
PATH
 10
-536.5579026024350924
 20
-578.3871336075899308
 30
0.0
  0
SEQEND
  5
226AC
  8
PATH
  0
POLYLINE
  5
20962
  8
PATH
 66
     1
 10
0.0
 20
0.0
 30
0.0
  0
VERTEX
  5
226AD
  8
PATH
 10
-536.5579026024350924
 20
-578.3871336075899308
 30
0.0
  0
VERTEX
  5
226AE
  8
PATH
 10
-528.4956891992623014
 20
-577.7991540794681669
 30
0.0
  0
VERTEX
  5
226AF
  8
PATH
 10
-520.9321182992570129
 20
-577.2215507616712102
 30
0.0
  0
SEQEND
  5
226B0
  8
PATH
  0
POLYLINE
  5
20963
  8
PATH
 66
     1
 10
0.0
 20
0.0
 30
0.0
  0
VERTEX
  5
226B1
  8
PATH
 10
-520.9306284616613993
 20
-577.2214369880457525
 30
0.0
  0
VERTEX
  5
226B2
  8
PATH
 10
-263.6497286326048197
 20
-557.5737992100838483
 30
0.0
  0
SEQEND
  5
226B3
  8
PATH
  0
POLYLINE
  5
20964
  8
PATH
 66
     1
 10
0.0
 20
0.0
 30
0.0
  0
VERTEX
  5
226B4
  8
PATH
 10
-263.6497286326048197
 20
-557.5737992100838483
 30
0.0
  0
VERTEX
  5
226B5
  8
PATH
 10
-255.9306602400756958
 20
-556.9843210954639972
 30
0.0
  0
VERTEX
  5
226B6
  8
PATH
 10
-219.9888794284343021
 20
-552.8114013024096494
 30
0.0
  0
VERTEX
  5
226B7
  8
PATH
 10
-105.9478991271607953
 20
-519.5799927762200241
 30
0.0
  0
VERTEX
  5
226B8
  8
PATH
 10
-86.6925325377524274
 20
-514.8913333317684646
 30
0.0
  0
VERTEX
  5
226B9
  8
PATH
 10
-77.3171892453829059
 20
-514.1319931600664859
 30
0.0
  0
VERTEX
  5
226BA
  8
PATH
 10
-61.1488013470807275
 20
-516.7862573931414545
 30
0.0
  0
VERTEX
  5
226BB
  8
PATH
 10
-46.4896180983196174
 20
-524.4596613994290237
 30
0.0
  0
VERTEX
  5
226BC
  8
PATH
 10
-31.9801170329592388
 20
-537.6013753916557789
 30
0.0
  0
VERTEX
  5
226BD
  8
PATH
 10
10.6731852118246007
 20
-624.4232874912632951
 30
0.0
  0
VERTEX
  5
226BE
  8
PATH
 10
32.1767107513005612
 20
-649.5417627174829249
 30
0.0
  0
VERTEX
  5
226BF
  8
PATH
 10
59.9714200342859769
 20
-696.9943584752691095
 30
0.0
  0
VERTEX
  5
226C0
  8
PATH
 10
135.4174497403874113
 20
-826.1406156345691443
 30
0.0
  0
VERTEX
  5
226C1
  8
PATH
 10
169.4645171106531052
 20
-890.6654094992627506
 30
0.0
  0
VERTEX
  5
226C2
  8
PATH
 10
199.9251715310238069
 20
-964.3455952144649928
 30
0.0
  0
SEQEND
  5
226C3
  8
PATH
  0
POLYLINE
  5
20965
  8
PATH
 66
     1
 10
0.0
 20
0.0
 30
0.0
  0
VERTEX
  5
226C4
  8
PATH
 10
199.9251715310238069
 20
-964.3455952144649928
 30
0.0
  0
VERTEX
  5
226C5
  8
PATH
 10
280.0944898443268016
 20
-941.5350607139480417
 30
0.0
  0
VERTEX
  5
226C6
  8
PATH
 10
525.4328191070087541
 20
-875.8162117478857454
 30
0.0
  0
SEQEND
  5
226C7
  8
PATH
  0
POLYLINE
  5
20966
  8
PATH
 66
     1
 10
0.0
 20
0.0
 30
0.0
  0
VERTEX
  5
226C8
  8
PATH
 10
525.4328191068925662
 20
-875.8162117478857454
 30
0.0
  0
VERTEX
  5
226C9
  8
PATH
 10
471.132016224655672
 20
-722.5291033465836108
 30
0.0
  0
VERTEX
  5
226CA
  8
PATH
 10
448.8158104600005913
 20
-661.0219793957147658
 30
0.0
  0
VERTEX
  5
226CB
  8
PATH
 10
394.10130736247811
 20
-541.3344437009143348
 30
0.0
  0
VERTEX
  5
226CC
  8
PATH
 10
382.7839564111055211
 20
-519.6124096745115821
 30
0.0
  0
SEQEND
  5
226CD
  8
PATH
  0
POLYLINE
  5
20967
  8
PATH
 66
     1
 10
0.0
 20
0.0
 30
0.0
  0
VERTEX
  5
226CE
  8
PATH
 10
382.7839564110471997
 20
-519.6124096745115821
 30
0.0
  0
VERTEX
  5
226CF
  8
PATH
 10
332.2024519984116182
 20
-422.5284573714670273
 30
0.0
  0
SEQEND
  5
226D0
  8
PATH
  0
POLYLINE
  5
20968
  8
PATH
 66
     1
 10
0.0
 20
0.0
 30
0.0
  0
VERTEX
  5
226D1
  8
PATH
 10
332.2024519984116182
 20
-422.5284573714670273
 30
0.0
  0
VERTEX
  5
226D2
  8
PATH
 10
284.0126753907970851
 20
-340.7652276865629233
 30
0.0
  0
VERTEX
  5
226D3
  8
PATH
 10
284.0121548898605965
 20
-340.7642069346692892
 30
0.0
  0
SEQEND
  5
226D4
  8
PATH
  0
POLYLINE
  5
20969
  8
PATH
 66
     1
 10
0.0
 20
0.0
 30
0.0
  0
VERTEX
  5
226D5
  8
PATH
 10
284.0121548898605965
 20
-340.7642069346692892
 30
0.0
  0
VERTEX
  5
226D6
  8
PATH
 10
240.4354081695055072
 20
-255.3060435167936078
 30
0.0
  0
VERTEX
  5
226D7
  8
PATH
 10
218.3132308977511116
 20
-213.7618209192951042
 30
0.0
  0
SEQEND
  5
226D8
  8
PATH
  0
POLYLINE
  5
2096A
  8
PATH
 66
     1
 10
0.0
 20
0.0
 30
0.0
  0
VERTEX
  5
226D9
  8
PATH
 10
218.3132308976929039
 20
-213.7618209192951042
 30
0.0
  0
VERTEX
  5
226DA
  8
PATH
 10
169.2703755839465884
 20
-121.6620572776954958
 30
0.0
  0
VERTEX
  5
226DB
  8
PATH
 10
151.5528641422716021
 20
-88.4165463488971
 30
0.0
  0
SEQEND
  5
226DC
  8
PATH
  0
POLYLINE
  5
2096B
  8
PATH
 66
     1
 10
0.0
 20
0.0
 30
0.0
  0
VERTEX
  5
226DD
  8
PATH
 10
151.5528641422716021
 20
-88.4165463488971
 30
0.0
  0
VERTEX
  5
226DE
  8
PATH
 10
135.9400973166775088
 20
-59.1204224638131421
 30
0.0
  0
VERTEX
  5
226DF
  8
PATH
 10
131.7722459588985089
 20
-51.2226524627258186
 30
0.0
  0
SEQEND
  5
226E0
  8
PATH
  0
POLYLINE
  5
2096C
  8
PATH
 66
     1
 10
0.0
 20
0.0
 30
0.0
  0
VERTEX
  5
226E1
  8
PATH
 10
131.7722459588985089
 20
-51.2226524627258186
 30
0.0
  0
VERTEX
  5
226E2
  8
PATH
 10
89.2791879841679332
 20
29.2985489243219384
 30
0.0
  0
SEQEND
  5
226E3
  8
PATH
  0
POLYLINE
  5
2096D
  8
PATH
 66
     1
 10
0.0
 20
0.0
 30
0.0
  0
VERTEX
  5
226E4
  8
PATH
 10
89.2791879841679332
 20
29.2985489243219384
 30
0.0
  0
VERTEX
  5
226E5
  8
PATH
 10
48.2220377341582207
 20
108.4364123521881993
 30
0.0
  0
VERTEX
  5
226E6
  8
PATH
 10
46.459313660088803
 20
112.000432562133895
 30
0.0
  0
SEQEND
  5
226E7
  8
PATH
  0
POLYLINE
  5
2096E
  8
PATH
 66
     1
 10
0.0
 20
0.0
 30
0.0
  0
VERTEX
  5
226E8
  8
PATH
 10
46.3715516580705298
 20
111.9587617614815969
 30
0.0
  0
VERTEX
  5
226E9
  8
PATH
 10
2.508924464331356
 20
200.8595428262414941
 30
0.0
  0
SEQEND
  5
226EA
  8
PATH
  0
POLYLINE
  5
2096F
  8
PATH
 66
     1
 10
0.0
 20
0.0
 30
0.0
  0
VERTEX
  5
226EB
  8
PATH
 10
2.508924464331356
 20
200.8595428262414941
 30
0.0
  0
VERTEX
  5
226EC
  8
PATH
 10
1.818847969858324
 20
202.258189995358407
 30
0.0
  0
VERTEX
  5
226ED
  8
PATH
 10
-24.7075354973931098
 20
252.1365060480821114
 30
0.0
  0
SEQEND
  5
226EE
  8
PATH
  0
POLYLINE
  5
20970
  8
PATH
 66
     1
 10
0.0
 20
0.0
 30
0.0
  0
VERTEX
  5
226EF
  8
PATH
 10
-24.7075354973931098
 20
252.1365060480821114
 30
0.0
  0
VERTEX
  5
226F0
  8
PATH
 10
-54.2964833816659009
 20
307.7734493976968224
 30
0.0
  0
VERTEX
  5
226F1
  8
PATH
 10
-69.9546545976918424
 20
340.2630009754138882
 30
0.0
  0
SEQEND
  5
226F2
  8
PATH
  0
POLYLINE
  5
20971
  8
PATH
 66
     1
 10
0.0
 20
0.0
 30
0.0
  0
VERTEX
  5
226F3
  8
PATH
 10
-69.954001193298609
 20
340.2616452095608111
 30
0.0
  0
VERTEX
  5
226F4
  8
PATH
 10
-78.0344848666136386
 20
357.0280534606936271
 30
0.0
  0
SEQEND
  5
226F5
  8
PATH
  0
POLYLINE
  5
20972
  8
PATH
 66
     1
 10
0.0
 20
0.0
 30
0.0
  0
VERTEX
  5
226F6
  8
PATH
 10
-78.0344848666136386
 20
357.0280534606936271
 30
0.0
  0
VERTEX
  5
226F7
  8
PATH
 10
-86.3004576421953971
 20
374.1793379323135014
 30
0.0
  0
VERTEX
  5
226F8
  8
PATH
 10
-114.717531264948704
 20
412.9840473654256243
 30
0.0
  0
SEQEND
  5
226F9
  8
PATH
  0
POLYLINE
  5
20973
  8
PATH
 66
     1
 10
0.0
 20
0.0
 30
0.0
  0
VERTEX
  5
226FA
  8
PATH
 10
-114.717531264948704
 20
412.9840473654256243
 30
0.0
  0
VERTEX
  5
226FB
  8
PATH
 10
-131.1525481609423878
 20
429.0009671608494273
 30
0.0
  0
VERTEX
  5
226FC
  8
PATH
 10
-150.546677217949707
 20
465.4300755304793142
 30
0.0
  0
VERTEX
  5
226FD
  8
PATH
 10
-180.2549596476746103
 20
516.2703146045605536
 30
0.0
  0
VERTEX
  5
226FE
  8
PATH
 10
-188.3348215742879859
 20
530.6191528556446428
 30
0.0
  0
SEQEND
  5
226FF
  8
PATH
  0
POLYLINE
  5
20974
  8
PATH
 66
     1
 10
0.0
 20
0.0
 30
0.0
  0
VERTEX
  5
22700
  8
PATH
 10
-188.3308915951201925
 20
530.6121736974962459
 30
0.0
  0
VERTEX
  5
22701
  8
PATH
 10
-195.4484417382190031
 20
543.2520649079742725
 30
0.0
  0
VERTEX
  5
22702
  8
PATH
 10
-218.3861791726812953
 20
562.1216254267417298
 30
0.0
  0
VERTEX
  5
22703
  8
PATH
 10
-237.9856773953798097
 20
571.0764539232984589
 30
0.0
  0
VERTEX
  5
22704
  8
PATH
 10
-282.1345881729067173
 20
582.4198141489686122
 30
0.0
  0
VERTEX
  5
22705
  8
PATH
 10
-302.293270260866791
 20
587.5992667917671497
 30
0.0
  0
VERTEX
  5
22706
  8
PATH
 10
-306.5022839508164907
 20
589.8768352391705321
 30
0.0
  0
SEQEND
  5
22707
  8
PATH
  0
POLYLINE
  5
20975
  8
PATH
 66
     1
 10
0.0
 20
0.0
 30
0.0
  0
VERTEX
  5
22708
  8
PATH
 10
-306.5022839508164907
 20
589.8768352391705321
 30
0.0
  0
VERTEX
  5
22709
  8
PATH
 10
-319.9463524812163087
 20
597.151647950107872
 30
0.0
  0
VERTEX
  5
2270A
  8
PATH
 10
-333.5740508063609013
 20
611.1690499261530931
 30
0.0
  0
VERTEX
  5
2270B
  8
PATH
 10
-342.4975997767324998
 20
626.9930586931803873
 30
0.0
  0
VERTEX
  5
2270C
  8
PATH
 10
-353.426754401021924
 20
658.8017499656923519
 30
0.0
  0
SEQEND
  5
2270D
  8
PATH
  0
POLYLINE
  5
20976
  8
PATH
 66
     1
 10
0.0
 20
0.0
 30
0.0
  0
VERTEX
  5
2270E
  8
PATH
 10
-353.426754401021924
 20
658.8017499656923519
 30
0.0
  0
VERTEX
  5
2270F
  8
PATH
 10
-353.426754401021924
 20
658.8017499656923519
 30
0.0
  0
VERTEX
  5
22710
  8
PATH
 10
-405.0682317777100252
 20
643.4259944102302597
 30
0.0
  0
VERTEX
  5
22711
  8
PATH
 10
-499.8290798594970852
 20
613.8282709308476797
 30
0.0
  0
SEQEND
  5
22712
  8
PATH
  0
POLYLINE
  5
20977
  8
PATH
 66
     1
 10
0.0
 20
0.0
 30
0.0
  0
VERTEX
  5
22713
  8
PATH
 10
-499.8290798594970852
 20
613.8282709308476797
 30
0.0
  0
VERTEX
  5
22714
  8
PATH
 10
-539.6338885799193577
 20
602.5388527676041122
 30
0.0
  0
VERTEX
  5
22715
  8
PATH
 10
-586.566309866859342
 20
587.1185358390721376
 30
0.0
  0
VERTEX
  5
22716
  8
PATH
 10
-604.1579492527671391
 20
581.3385516154155539
 30
0.0
  0
VERTEX
  5
22717
  8
PATH
 10
-614.9668300551275024
 20
575.3706160570072825
 30
0.0
  0
SEQEND
  5
22718
  8
PATH
  0
POLYLINE
  5
20978
  8
PATH
 66
     1
 10
0.0
 20
0.0
 30
0.0
  0
VERTEX
  5
22719
  8
PATH
 10
-614.9668300551275024
 20
575.3706160570072825
 30
0.0
  0
VERTEX
  5
2271A
  8
PATH
 10
-684.5948646902249948
 20
526.4392412738452549
 30
0.0
  0
SEQEND
  5
2271B
  8
PATH
  0
POLYLINE
  5
20979
  8
PATH
 66
     1
 10
0.0
 20
0.0
 30
0.0
  0
VERTEX
  5
2271C
  8
PATH
 10
-684.5948646902249948
 20
526.4392412738452549
 30
0.0
  0
VERTEX
  5
2271D
  8
PATH
 10
-726.5070540550077567
 20
496.1363684963943115
 30
0.0
  0
VERTEX
  5
2271E
  8
PATH
 10
-740.6449100853205891
 20
476.6724787187341121
 30
0.0
  0
SEQEND
  5
2271F
  8
PATH
  0
POLYLINE
  5
2097A
  8
PATH
 66
     1
 10
0.0
 20
0.0
 30
0.0
  0
VERTEX
  5
22720
  8
PATH
 10
-740.6449100853205891
 20
476.6724787187341121
 30
0.0
  0
VERTEX
  5
22721
  8
PATH
 10
-733.6017112045808517
 20
465.4167170320213813
 30
0.0
  0
VERTEX
  5
22722
  8
PATH
 10
-706.2497896881102406
 20
430.2858315497214221
 30
0.0
  0
SEQEND
  5
22723
  8
PATH
  0
POLYLINE
  5
2097B
  8
PATH
 66
     1
 10
0.0
 20
0.0
 30
0.0
  0
VERTEX
  5
22724
  8
PATH
 10
-706.2497896881102406
 20
430.2858315497214221
 30
0.0
  0
VERTEX
  5
22725
  8
PATH
 10
-691.585043470913547
 20
411.4503899636255824
 30
0.0
  0
SEQEND
  5
22726
  8
PATH
  0
POLYLINE
  5
2097C
  8
PATH
 66
     1
 10
0.0
 20
0.0
 30
0.0
  0
VERTEX
  5
22727
  8
PATH
 10
-691.585043470913547
 20
411.4503899636255824
 30
0.0
  0
VERTEX
  5
22728
  8
PATH
 10
-645.3626277289730524
 20
352.082188238906383
 30
0.0
  0
VERTEX
  5
22729
  8
PATH
 10
-633.9900942466482547
 20
337.4753859201954924
 30
0.0
  0
SEQEND
  5
2272A
  8
PATH
  0
POLYLINE
  5
2097D
  8
PATH
 66
     1
 10
0.0
 20
0.0
 30
0.0
  0
VERTEX
  5
2272B
  8
PATH
 10
-633.9898672587150941
 20
337.4749824721876053
 30
0.0
  0
VERTEX
  5
2272C
  8
PATH
 10
-618.434619758292456
 20
317.7425606493414989
 30
0.0
  0
SEQEND
  5
2272D
  8
PATH
  0
POLYLINE
  5
2097E
  8
PATH
 66
     1
 10
0.0
 20
0.0
 30
0.0
  0
VERTEX
  5
2272E
  8
PATH
 10
-618.4478061432745335
 20
317.7592880791561925
 30
0.0
  0
VERTEX
  5
2272F
  8
PATH
 10
-565.8160222561708679
 20
250.993872684477509
 30
0.0
  0
SEQEND
  5
22730
  8
PATH
  0
POLYLINE
  5
2097F
  8
PATH
 66
     1
 10
0.0
 20
0.0
 30
0.0
  0
VERTEX
  5
22731
  8
PATH
 10
-565.8160222561708679
 20
250.993872684477509
 30
0.0
  0
VERTEX
  5
22732
  8
PATH
 10
-548.3482631656370359
 20
228.8353573242712002
 30
0.0
  0
SEQEND
  5
22733
  8
PATH
  0
POLYLINE
  5
20980
  8
PATH
 66
     1
 10
0.0
 20
0.0
 30
0.0
  0
VERTEX
  5
22734
  8
PATH
 10
-548.3482631656370359
 20
228.8353573242712002
 30
0.0
  0
VERTEX
  5
22735
  8
PATH
 10
-527.8301634975504157
 20
202.8073691716926987
 30
0.0
  0
SEQEND
  5
22736
  8
PATH
  0
POLYLINE
  5
20981
  8
PATH
 66
     1
 10
0.0
 20
0.0
 30
0.0
  0
VERTEX
  5
22737
  8
PATH
 10
-527.8301634976087371
 20
202.8073691716926987
 30
0.0
  0
VERTEX
  5
22738
  8
PATH
 10
-501.9210975784953916
 20
169.9407357266682084
 30
0.0
  0
SEQEND
  5
22739
  8
PATH
  0
POLYLINE
  5
20982
  8
PATH
 66
     1
 10
0.0
 20
0.0
 30
0.0
  0
VERTEX
  5
2273A
  8
PATH
 10
-501.9210975784953916
 20
169.9407357266682084
 30
0.0
  0
VERTEX
  5
2273B
  8
PATH
 10
-489.0807428829866126
 20
164.5812764359216089
 30
0.0
  0
VERTEX
  5
2273C
  8
PATH
 10
-472.1073471089039231
 20
163.1767133567990129
 30
0.0
  0
VERTEX
  5
2273D
  8
PATH
 10
-463.1687032371555119
 20
170.4002036331729926
 30
0.0
  0
SEQEND
  5
2273E
  8
PATH
  0
POLYLINE
  5
20983
  8
PATH
 66
     1
 10
0.0
 20
0.0
 30
0.0
  0
VERTEX
  5
2273F
  8
PATH
 10
-463.1687032371555119
 20
170.4002036331729926
 30
0.0
  0
VERTEX
  5
22740
  8
PATH
 10
-455.0486990433562937
 20
181.8025494362736083
 30
0.0
  0
VERTEX
  5
22741
  8
PATH
 10
-408.5437898136004833
 20
223.77841077098131
 30
0.0
  0
SEQEND
  5
22742
  8
PATH
  0
POLYLINE
  5
20984
  8
PATH
 66
     1
 10
0.0
 20
0.0
 30
0.0
  0
VERTEX
  5
22743
  8
PATH
 10
-408.5437898134840111
 20
223.77841077098131
 30
0.0
  0
VERTEX
  5
22744
  8
PATH
 10
-382.1228219938495272
 20
247.6262775850991886
 30
0.0
  0
VERTEX
  5
22745
  8
PATH
 10
-345.405081177901593
 20
276.8416481260719024
 30
0.0
  0
VERTEX
  5
22746
  8
PATH
 10
-316.4519323448911905
 20
291.0343692456880831
 30
0.0
  0
SEQEND
  5
22747
  8
PATH
  0
POLYLINE
  5
20985
  8
PATH
 66
     1
 10
0.0
 20
0.0
 30
0.0
  0
VERTEX
  5
22748
  8
PATH
 10
-316.4519323448911905
 20
291.0343692456880831
 30
0.0
  0
VERTEX
  5
22749
  8
PATH
 10
-302.7662799313694109
 20
297.7430229108358049
 30
0.0
  0
SEQEND
  5
2274A
  8
PATH
  0
POLYLINE
  5
20986
  8
PATH
 66
     1
 10
0.0
 20
0.0
 30
0.0
  0
VERTEX
  5
2274B
  8
PATH
 10
-302.7732305819080807
 20
297.7396157291295822
 30
0.0
  0
VERTEX
  5
2274C
  8
PATH
 10
-281.6602407122991281
 20
308.0891213715585195
 30
0.0
  0
VERTEX
  5
2274D
  8
PATH
 10
-215.9238845379585996
 20
355.3703058544123792
 30
0.0
  0
SEQEND
  5
2274E
  8
PATH
  0
POLYLINE
  5
20987
  8
PATH
 66
     1
 10
0.0
 20
0.0
 30
0.0
  0
VERTEX
  5
2274F
  8
PATH
 10
-215.9285671026009084
 20
355.3669378976846929
 30
0.0
  0
VERTEX
  5
22750
  8
PATH
 10
-181.0843736248934022
 20
378.2234571385707795
 30
0.0
  0
SEQEND
  5
22751
  8
PATH
  0
POLYLINE
  5
20988
  8
PATH
 66
     1
 10
0.0
 20
0.0
 30
0.0
  0
VERTEX
  5
22752
  8
PATH
 10
-181.0843736248934022
 20
378.2234571385707795
 30
0.0
  0
VERTEX
  5
22753
  8
PATH
 10
-114.717531264948704
 20
412.9840473654256243
 30
0.0
  0
SEQEND
  5
22754
  8
PATH
  0
POLYLINE
  5
20989
  8
PATH
 66
     1
 10
0.0
 20
0.0
 30
0.0
  0
VERTEX
  5
22755
  8
PATH
 10
-114.717531264948704
 20
412.9840473654256243
 30
0.0
  0
VERTEX
  5
22756
  8
PATH
 10
-71.4005945778480964
 20
427.1445572111333036
 30
0.0
  0
VERTEX
  5
22757
  8
PATH
 10
-22.8062888889253408
 20
440.8050220935182892
 30
0.0
  0
VERTEX
  5
22758
  8
PATH
 10
27.7130271000642097
 20
453.0383086284198839
 30
0.0
  0
VERTEX
  5
22759
  8
PATH
 10
107.0609817419753966
 20
465.196475295866378
 30
0.0
  0
VERTEX
  5
2275A
  8
PATH
 10
157.1939293125614086
 20
469.7846646719190176
 30
0.0
  0
SEQEND
  5
2275B
  8
PATH
  0
POLYLINE
  5
2098A
  8
PATH
 66
     1
 10
0.0
 20
0.0
 30
0.0
  0
VERTEX
  5
2275C
  8
PATH
 10
157.1722713738417951
 20
469.9792254646815763
 30
0.0
  0
VERTEX
  5
2275D
  8
PATH
 10
206.640315026786908
 20
474.31001960584382
 30
0.0
  0
VERTEX
  5
2275E
  8
PATH
 10
319.9395754131692229
 20
475.0784926284612766
 30
0.0
  0
VERTEX
  5
2275F
  8
PATH
 10
451.2245713093288941
 20
462.5688413153912961
 30
0.0
  0
VERTEX
  5
22760
  8
PATH
 10
631.2110716735331835
 20
431.3202156206169775
 30
0.0
  0
VERTEX
  5
22761
  8
PATH
 10
695.3397258771435645
 20
423.1076388275757836
 30
0.0
  0
SEQEND
  5
22762
  8
PATH
  0
POLYLINE
  5
2098B
  8
PATH
 66
     1
 10
0.0
 20
0.0
 30
0.0
  0
VERTEX
  5
22763
  8
PATH
 10
695.3397258771435645
 20
423.1076388275757836
 30
0.0
  0
VERTEX
  5
22764
  8
PATH
 10
723.6202411816774429
 20
424.9778804602610762
 30
0.0
  0
SEQEND
  5
22765
  8
PATH
  0
POLYLINE
  5
2098C
  8
PATH
 66
     1
 10
0.0
 20
0.0
 30
0.0
  0
VERTEX
  5
22766
  8
PATH
 10
723.6202411816774429
 20
424.9778804602610762
 30
0.0
  0
VERTEX
  5
22767
  8
PATH
 10
731.7098735811739516
 20
425.5128624840215821
 30
0.0
  0
VERTEX
  5
22768
  8
PATH
 10
810.9490414460741476
 20
434.3077359740199199
 30
0.0
  0
VERTEX
  5
22769
  8
PATH
 10
876.4842335589783033
 20
438.4876695983621175
 30
0.0
  0
SEQEND
  5
2276A
  8
PATH
  0
POLYLINE
  5
2098D
  8
PATH
 66
     1
 10
0.0
 20
0.0
 30
0.0
  0
VERTEX
  5
2276B
  8
PATH
 10
-1203.5794476564190063
 20
304.1981922914782785
 30
0.0
  0
VERTEX
  5
2276C
  8
PATH
 10
-1104.1484457886690507
 20
219.0268685659902985
 30
0.0
  0
SEQEND
  5
2276D
  8
PATH
  0
POLYLINE
  5
2098E
  8
PATH
 66
     1
 10
0.0
 20
0.0
 30
0.0
  0
VERTEX
  5
2276E
  8
PATH
 10
-1104.148445788727031
 20
219.0268685659902985
 30
0.0
  0
VERTEX
  5
2276F
  8
PATH
 10
-1012.30090149371199
 20
144.1386297196658859
 30
0.0
  0
SEQEND
  5
22770
  8
PATH
  0
POLYLINE
  5
2098F
  8
PATH
 66
     1
 10
0.0
 20
0.0
 30
0.0
  0
VERTEX
  5
22771
  8
PATH
 10
-1012.3009014934790457
 20
144.1386297196658859
 30
0.0
  0
VERTEX
  5
22772
  8
PATH
 10
-977.1966447996234137
 20
115.5513865147295007
 30
0.0
  0
VERTEX
  5
22773
  8
PATH
 10
-909.4059425554150948
 20
70.3654726581225702
 30
0.0
  0
SEQEND
  5
22774
  8
PATH
  0
POLYLINE
  5
20990
  8
PATH
 66
     1
 10
0.0
 20
0.0
 30
0.0
  0
VERTEX
  5
22775
  8
PATH
 10
-909.4059425554150948
 20
70.3654726581225702
 30
0.0
  0
VERTEX
  5
22776
  8
PATH
 10
-896.2384424512420082
 20
83.1220083525913651
 30
0.0
  0
VERTEX
  5
22777
  8
PATH
 10
-882.0366918090876425
 20
90.8851051335732478
 30
0.0
  0
VERTEX
  5
22778
  8
PATH
 10
-865.2550690839558456
 20
92.0398221598516244
 30
0.0
  0
VERTEX
  5
22779
  8
PATH
 10
-857.4664033270236132
 20
88.5726722335020895
 30
0.0
  0
SEQEND
  5
2277A
  8
PATH
  0
POLYLINE
  5
20991
  8
PATH
 66
     1
 10
0.0
 20
0.0
 30
0.0
  0
VERTEX
  5
2277B
  8
PATH
 10
-857.4664033269655192
 20
88.5726722335020895
 30
0.0
  0
VERTEX
  5
2277C
  8
PATH
 10
-849.6777375700910397
 20
85.1055223076182017
 30
0.0
  0
VERTEX
  5
2277D
  8
PATH
 10
-838.3369392315071309
 20
65.8087689313615556
 30
0.0
  0
SEQEND
  5
2277E
  8
PATH
  0
POLYLINE
  5
20992
  8
PATH
 66
     1
 10
0.0
 20
0.0
 30
0.0
  0
VERTEX
  5
2277F
  8
PATH
 10
-838.2236515073598184
 20
65.6160060228357906
 30
0.0
  0
VERTEX
  5
22780
  8
PATH
 10
-841.1508847475197399
 20
47.07345609185721
 30
0.0
  0
VERTEX
  5
22781
  8
PATH
 10
-852.2040637915049501
 20
30.9847185668113489
 30
0.0
  0
SEQEND
  5
22782
  8
PATH
  0
POLYLINE
  5
20993
  8
PATH
 66
     1
 10
0.0
 20
0.0
 30
0.0
  0
VERTEX
  5
22783
  8
PATH
 10
-852.2040637915049501
 20
30.9847185668113489
 30
0.0
  0
VERTEX
  5
22784
  8
PATH
 10
-868.0177928793854107
 20
22.6999835772949083
 30
0.0
  0
SEQEND
  5
22785
  8
PATH
  0
POLYLINE
  5
20994
  8
PATH
 66
     1
 10
0.0
 20
0.0
 30
0.0
  0
VERTEX
  5
22786
  8
PATH
 10
-909.4059425554150948
 20
70.3654726581225702
 30
0.0
  0
VERTEX
  5
22787
  8
PATH
 10
-910.6280050689963446
 20
50.5435676887209482
 30
0.0
  0
VERTEX
  5
22788
  8
PATH
 10
-899.4922858199131497
 20
35.3962201499889488
 30
0.0
  0
VERTEX
  5
22789
  8
PATH
 10
-892.9582857893109349
 20
30.3909416813912685
 30
0.0
  0
SEQEND
  5
2278A
  8
PATH
  0
POLYLINE
  5
20995
  8
PATH
 66
     1
 10
0.0
 20
0.0
 30
0.0
  0
VERTEX
  5
2278B
  8
PATH
 10
-1344.638749012272001
 20
85.302157420715929
 30
0.0
  0
VERTEX
  5
2278C
  8
PATH
 10
-1246.6022002874669852
 20
140.38505805940801
 30
0.0
  0
SEQEND
  5
2278D
  8
PATH
  0
POLYLINE
  5
20996
  8
PATH
 66
     1
 10
0.0
 20
0.0
 30
0.0
  0
VERTEX
  5
2278E
  8
PATH
 10
-1246.6022002874669852
 20
140.38505805940801
 30
0.0
  0
VERTEX
  5
2278F
  8
PATH
 10
-1162.5353404003110427
 20
186.1524383533323999
 30
0.0
  0
VERTEX
  5
22790
  8
PATH
 10
-1104.148445788727031
 20
219.0268685659902985
 30
0.0
  0
SEQEND
  5
22791
  8
PATH
  0
POLYLINE
  5
20997
  8
PATH
 66
     1
 10
0.0
 20
0.0
 30
0.0
  0
VERTEX
  5
22792
  8
PATH
 10
-1324.3582084305380704
 20
-19.8679219684054083
 30
0.0
  0
VERTEX
  5
22793
  8
PATH
 10
-1295.6001250813280876
 20
-11.5012048417193
 30
0.0
  0
VERTEX
  5
22794
  8
PATH
 10
-1269.8032420467500287
 20
-2.5709867146288161
 30
0.0
  0
VERTEX
  5
22795
  8
PATH
 10
-1202.6290398386329343
 20
29.4121581200088293
 30
0.0
  0
VERTEX
  5
22796
  8
PATH
 10
-1189.1037926491840153
 20
37.726625402974598
 30
0.0
  0
SEQEND
  5
22797
  8
PATH
  0
POLYLINE
  5
20998
  8
PATH
 66
     1
 10
0.0
 20
0.0
 30
0.0
  0
VERTEX
  5
22798
  8
PATH
 10
-1189.1037926491840153
 20
37.726625402974598
 30
0.0
  0
VERTEX
  5
22799
  8
PATH
 10
-1170.4692455151380273
 20
49.1819674242797191
 30
0.0
  0
VERTEX
  5
2279A
  8
PATH
 10
-1118.5251207197579788
 20
80.3301937184805723
 30
0.0
  0
VERTEX
  5
2279B
  8
PATH
 10
-1044.1313091233168961
 20
122.6821851693602952
 30
0.0
  0
VERTEX
  5
2279C
  8
PATH
 10
-1021.7029621591350406
 20
138.1092185229572067
 30
0.0
  0
VERTEX
  5
2279D
  8
PATH
 10
-1012.3009014934790457
 20
144.1386297196658859
 30
0.0
  0
SEQEND
  5
2279E
  8
PATH
  0
POLYLINE
  5
20999
  8
PATH
 66
     1
 10
0.0
 20
0.0
 30
0.0
  0
VERTEX
  5
2279F
  8
PATH
 10
-1246.6022002874669852
 20
140.38505805940801
 30
0.0
  0
VERTEX
  5
227A0
  8
PATH
 10
-1189.1037926491840153
 20
37.726625402974598
 30
0.0
  0
SEQEND
  5
227A1
  8
PATH
  0
POLYLINE
  5
2099A
  8
PATH
 66
     1
 10
0.0
 20
0.0
 30
0.0
  0
VERTEX
  5
227A2
  8
PATH
 10
-1189.1037926491840153
 20
37.726625402974598
 30
0.0
  0
VERTEX
  5
227A3
  8
PATH
 10
-1196.5462450851480298
 20
19.4976537656548317
 30
0.0
  0
VERTEX
  5
227A4
  8
PATH
 10
-1194.9798145708180073
 20
2.2393490709873718
 30
0.0
  0
VERTEX
  5
227A5
  8
PATH
 10
-1192.6593571099949713
 20
-13.8783236056988208
 30
0.0
  0
VERTEX
  5
227A6
  8
PATH
 10
-1184.2044102594520609
 20
-32.7229391736400501
 30
0.0
  0
VERTEX
  5
227A7
  8
PATH
 10
-1155.8949831742359038
 20
-89.5588817526076895
 30
0.0
  0
SEQEND
  5
227A8
  8
PATH
  0
POLYLINE
  5
2099B
  8
PATH
 66
     1
 10
0.0
 20
0.0
 30
0.0
  0
VERTEX
  5
227A9
  8
PATH
 10
-1155.894983174177014
 20
-89.5588817526076895
 30
0.0
  0
VERTEX
  5
227AA
  8
PATH
 10
-1148.3861185873540762
 20
-108.6953217703340044
 30
0.0
  0
VERTEX
  5
227AB
  8
PATH
 10
-1116.9521285144289777
 20
-172.3773158275944013
 30
0.0
  0
VERTEX
  5
227AC
  8
PATH
 10
-1096.1364454311110421
 20
-213.9231122335841064
 30
0.0
  0
SEQEND
  5
227AD
  8
PATH
  0
POLYLINE
  5
2099C
  8
PATH
 66
     1
 10
0.0
 20
0.0
 30
0.0
  0
VERTEX
  5
227AE
  8
PATH
 10
-1096.1353311104030581
 20
-213.9253362942909007
 30
0.0
  0
VERTEX
  5
227AF
  8
PATH
 10
-1049.2339567358280874
 20
-307.5352814080616213
 30
0.0
  0
VERTEX
  5
227B0
  8
PATH
 10
-1045.5231768921510138
 20
-313.8129799570378964
 30
0.0
  0
SEQEND
  5
227B1
  8
PATH
  0
POLYLINE
  5
2099D
  8
PATH
 66
     1
 10
0.0
 20
0.0
 30
0.0
  0
VERTEX
  5
227B2
  8
PATH
 10
-1045.5231768920930335
 20
-313.8129799570378964
 30
0.0
  0
VERTEX
  5
227B3
  8
PATH
 10
-1018.1907033580499728
 20
-360.0525944497857722
 30
0.0
  0
VERTEX
  5
227B4
  8
PATH
 10
-968.0769058373551843
 20
-424.909004048393399
 30
0.0
  0
SEQEND
  5
227B5
  8
PATH
  0
POLYLINE
  5
2099E
  8
PATH
 66
     1
 10
0.0
 20
0.0
 30
0.0
  0
VERTEX
  5
227B6
  8
PATH
 10
-968.0717412648516529
 20
-424.9156879488800769
 30
0.0
  0
VERTEX
  5
227B7
  8
PATH
 10
-928.7860472714673961
 20
-467.0394076941955745
 30
0.0
  0
VERTEX
  5
227B8
  8
PATH
 10
-901.1754933157501455
 20
-492.9812068738464177
 30
0.0
  0
SEQEND
  5
227B9
  8
PATH
  0
POLYLINE
  5
2099F
  8
PATH
 66
     1
 10
0.0
 20
0.0
 30
0.0
  0
VERTEX
  5
227BA
  8
PATH
 10
-901.1754933158664471
 20
-492.9812068738464177
 30
0.0
  0
VERTEX
  5
227BB
  8
PATH
 10
-882.1190179021358517
 20
-510.885927621224198
 30
0.0
  0
VERTEX
  5
227BC
  8
PATH
 10
-832.4558468896574368
 20
-561.8104441975664258
 30
0.0
  0
VERTEX
  5
227BD
  8
PATH
 10
-742.7559124083054485
 20
-650.3016853099177297
 30
0.0
  0
VERTEX
  5
227BE
  8
PATH
 10
-729.7130057203611386
 20
-663.7743274038148229
 30
0.0
  0
SEQEND
  5
227BF
  8
PATH
  0
POLYLINE
  5
209A0
  8
PATH
 66
     1
 10
0.0
 20
0.0
 30
0.0
  0
VERTEX
  5
227C0
  8
PATH
 10
-729.7130057203611386
 20
-663.7743274038148229
 30
0.0
  0
VERTEX
  5
227C1
  8
PATH
 10
-584.2390721902628457
 20
-814.041310625099868
 30
0.0
  0
VERTEX
  5
227C2
  8
PATH
 10
-570.6852246885682689
 20
-827.5036781466988032
 30
0.0
  0
SEQEND
  5
227C3
  8
PATH
  0
POLYLINE
  5
209A1
  8
PATH
 66
     1
 10
0.0
 20
0.0
 30
0.0
  0
VERTEX
  5
227C4
  8
PATH
 10
-570.6852246885682689
 20
-827.5036781466988032
 30
0.0
  0
VERTEX
  5
227C5
  8
PATH
 10
-487.3815939593623057
 20
-794.1129682766694486
 30
0.0
  0
SEQEND
  5
227C6
  8
PATH
  0
POLYLINE
  5
209A2
  8
PATH
 66
     1
 10
0.0
 20
0.0
 30
0.0
  0
VERTEX
  5
227C7
  8
PATH
 10
-487.3815939593623057
 20
-794.1129682766694486
 30
0.0
  0
VERTEX
  5
227C8
  8
PATH
 10
-475.5272335027257213
 20
-789.5629295953038991
 30
0.0
  0
VERTEX
  5
227C9
  8
PATH
 10
-475.5272335027257213
 20
-789.5629295953038991
 30
0.0
  0
SEQEND
  5
227CA
  8
PATH
  0
POLYLINE
  5
209A3
  8
PATH
 66
     1
 10
0.0
 20
0.0
 30
0.0
  0
VERTEX
  5
227CB
  8
PATH
 10
-475.5272335027838153
 20
-789.5629295953038991
 30
0.0
  0
VERTEX
  5
227CC
  8
PATH
 10
-436.6921749469037195
 20
-775.1112385633822441
 30
0.0
  0
VERTEX
  5
227CD
  8
PATH
 10
-213.3425528847292014
 20
-728.367746447161835
 30
0.0
  0
SEQEND
  5
227CE
  8
PATH
  0
POLYLINE
  5
209A4
  8
PATH
 66
     1
 10
0.0
 20
0.0
 30
0.0
  0
VERTEX
  5
227CF
  8
PATH
 10
-213.3425528847292014
 20
-728.367746447161835
 30
0.0
  0
VERTEX
  5
227D0
  8
PATH
 10
-193.9310473018122138
 20
-734.0793096343475099
 30
0.0
  0
VERTEX
  5
227D1
  8
PATH
 10
-74.5132488754024962
 20
-697.7351974988777101
 30
0.0
  0
VERTEX
  5
227D2
  8
PATH
 10
39.0224195390328532
 20
-661.2291183387351339
 30
0.0
  0
SEQEND
  5
227D3
  8
PATH
  0
POLYLINE
  5
209A5
  8
PATH
 66
     1
 10
0.0
 20
0.0
 30
0.0
  0
VERTEX
  5
227D4
  8
PATH
 10
-213.3425528847292014
 20
-728.367746447161835
 30
0.0
  0
VERTEX
  5
227D5
  8
PATH
 10
-218.1864218748669089
 20
-709.6799572188828051
 30
0.0
  0
SEQEND
  5
227D6
  8
PATH
  0
POLYLINE
  5
209A6
  8
PATH
 66
     1
 10
0.0
 20
0.0
 30
0.0
  0
VERTEX
  5
227D7
  8
PATH
 10
-218.1864218748669089
 20
-709.6799572188828051
 30
0.0
  0
VERTEX
  5
227D8
  8
PATH
 10
-220.9059749758015982
 20
-699.1878412579608266
 30
0.0
  0
VERTEX
  5
227D9
  8
PATH
 10
-258.7256614309299039
 20
-575.0097930472766166
 30
0.0
  0
VERTEX
  5
227DA
  8
PATH
 10
-263.6497286326048197
 20
-557.5737992100838483
 30
0.0
  0
SEQEND
  5
227DB
  8
PATH
  0
POLYLINE
  5
209A7
  8
PATH
 66
     1
 10
0.0
 20
0.0
 30
0.0
  0
VERTEX
  5
227DC
  8
PATH
 10
-263.6497286326048197
 20
-557.5737992100838483
 30
0.0
  0
VERTEX
  5
227DD
  8
PATH
 10
-273.4873508358869003
 20
-517.5464526083742385
 30
0.0
  0
VERTEX
  5
227DE
  8
PATH
 10
-293.6289094630773775
 20
-425.2532812430944773
 30
0.0
  0
VERTEX
  5
227DF
  8
PATH
 10
-300.1957983719328809
 20
-385.9462846894239192
 30
0.0
  0
SEQEND
  5
227E0
  8
PATH
  0
POLYLINE
  5
209A8
  8
PATH
 66
     1
 10
0.0
 20
0.0
 30
0.0
  0
VERTEX
  5
227E1
  8
PATH
 10
-300.1957983719328809
 20
-385.9462846894239192
 30
0.0
  0
VERTEX
  5
227E2
  8
PATH
 10
-302.6829954288696172
 20
-371.0588322742332821
 30
0.0
  0
VERTEX
  5
227E3
  8
PATH
 10
-304.9191997880261056
 20
-238.9559974064540881
 30
0.0
  0
VERTEX
  5
227E4
  8
PATH
 10
-293.2703772268869216
 20
-201.4338478152131131
 30
0.0
  0
SEQEND
  5
227E5
  8
PATH
  0
POLYLINE
  5
209A9
  8
PATH
 66
     1
 10
0.0
 20
0.0
 30
0.0
  0
VERTEX
  5
227E6
  8
PATH
 10
-218.1867558360827104
 20
-709.6786687871863251
 30
0.0
  0
VERTEX
  5
227E7
  8
PATH
 10
-153.6091222337709041
 20
-692.4365577902135556
 30
0.0
  0
VERTEX
  5
227E8
  8
PATH
 10
-57.2458415362780215
 20
-659.567414887663972
 30
0.0
  0
VERTEX
  5
227E9
  8
PATH
 10
1.2553014295845051
 20
-639.6129009462382555
 30
0.0
  0
VERTEX
  5
227EA
  8
PATH
 10
18.5804849660926301
 20
-633.6598804685709183
 30
0.0
  0
SEQEND
  5
227EB
  8
PATH
  0
POLYLINE
  5
209AA
  8
PATH
 66
     1
 10
0.0
 20
0.0
 30
0.0
  0
VERTEX
  5
227EC
  8
PATH
 10
-1096.1360185876978903
 20
-213.9239641660315101
 30
0.0
  0
VERTEX
  5
227ED
  8
PATH
 10
-1015.4887873920520178
 20
-173.9731359234502008
 30
0.0
  0
SEQEND
  5
227EE
  8
PATH
  0
POLYLINE
  5
209AB
  8
PATH
 66
     1
 10
0.0
 20
0.0
 30
0.0
  0
VERTEX
  5
227EF
  8
PATH
 10
-1015.4887873920520178
 20
-173.9731359234502008
 30
0.0
  0
VERTEX
  5
227F0
  8
PATH
 10
-1007.8479838658970493
 20
-188.3285773032766031
 30
0.0
  0
VERTEX
  5
227F1
  8
PATH
 10
-972.9508023425732972
 20
-244.8871830794450943
 30
0.0
  0
VERTEX
  5
227F2
  8
PATH
 10
-959.7624960005198318
 20
-269.9499394166704747
 30
0.0
  0
SEQEND
  5
227F3
  8
PATH
  0
POLYLINE
  5
209AC
  8
PATH
 66
     1
 10
0.0
 20
0.0
 30
0.0
  0
VERTEX
  5
227F4
  8
PATH
 10
-959.7624960004611694
 20
-269.9499394166704747
 30
0.0
  0
VERTEX
  5
227F5
  8
PATH
 10
-914.7462010437302524
 20
-262.6412841993806069
 30
0.0
  0
VERTEX
  5
227F6
  8
PATH
 10
-858.2521640799384386
 20
-251.6463096728039091
 30
0.0
  0
SEQEND
  5
227F7
  8
PATH
  0
POLYLINE
  5
209AD
  8
PATH
 66
     1
 10
0.0
 20
0.0
 30
0.0
  0
VERTEX
  5
227F8
  8
PATH
 10
-1015.4887873920520178
 20
-173.9731359234502008
 30
0.0
  0
VERTEX
  5
227F9
  8
PATH
 10
-974.9037721111816381
 20
-154.0574116669085925
 30
0.0
  0
VERTEX
  5
227FA
  8
PATH
 10
-957.6459022314083995
 20
-145.5886954324741964
 30
0.0
  0
VERTEX
  5
227FB
  8
PATH
 10
-868.0636321470517487
 20
-139.362295959093899
 30
0.0
  0
SEQEND
  5
227FC
  8
PATH
  0
POLYLINE
  5
209AE
  8
PATH
 66
     1
 10
0.0
 20
0.0
 30
0.0
  0
VERTEX
  5
227FD
  8
PATH
 10
-633.9901476157973548
 20
337.4753425638700719
 30
0.0
  0
VERTEX
  5
227FE
  8
PATH
 10
-664.2284887677086544
 20
318.7475177771921153
 30
0.0
  0
VERTEX
  5
227FF
  8
PATH
 10
-712.3168654649198288
 20
283.4591359473341754
 30
0.0
  0
SEQEND
  5
22800
  8
PATH
  0
POLYLINE
  5
209AF
  8
PATH
 66
     1
 10
0.0
 20
0.0
 30
0.0
  0
VERTEX
  5
22801
  8
PATH
 10
-712.3168654649198288
 20
283.4591359473341754
 30
0.0
  0
VERTEX
  5
22802
  8
PATH
 10
-754.5734358764748322
 20
248.4207736566241067
 30
0.0
  0
VERTEX
  5
22803
  8
PATH
 10
-767.6709547899225754
 20
233.7075545075859964
 30
0.0
  0
SEQEND
  5
22804
  8
PATH
  0
POLYLINE
  5
209B0
  8
PATH
 66
     1
 10
0.0
 20
0.0
 30
0.0
  0
VERTEX
  5
22805
  8
PATH
 10
-767.6709547899225754
 20
233.7075545075859964
 30
0.0
  0
VERTEX
  5
22806
  8
PATH
 10
-794.7302983770639457
 20
203.3101903307760949
 30
0.0
  0
VERTEX
  5
22807
  8
PATH
 10
-800.9472893084312091
 20
194.5650538276458974
 30
0.0
  0
SEQEND
  5
22808
  8
PATH
  0
POLYLINE
  5
209B1
  8
PATH
 66
     1
 10
0.0
 20
0.0
 30
0.0
  0
VERTEX
  5
22809
  8
PATH
 10
-800.9472893084312091
 20
194.5650538276458974
 30
0.0
  0
VERTEX
  5
2280A
  8
PATH
 10
-815.9405439010733971
 20
173.474777280403913
 30
0.0
  0
VERTEX
  5
2280B
  8
PATH
 10
-833.7349524286835276
 20
141.7266577519986015
 30
0.0
  0
VERTEX
  5
2280C
  8
PATH
 10
-847.8659747152269119
 20
113.832514573870796
 30
0.0
  0
VERTEX
  5
2280D
  8
PATH
 10
-857.4664033270236132
 20
88.5726722335020895
 30
0.0
  0
SEQEND
  5
2280E
  8
PATH
  0
POLYLINE
  5
209B2
  8
PATH
 66
     1
 10
0.0
 20
0.0
 30
0.0
  0
VERTEX
  5
2280F
  8
PATH
 10
-1203.5794476564190063
 20
304.1981922914782785
 30
0.0
  0
VERTEX
  5
22810
  8
PATH
 10
-1182.277258838598982
 20
322.1282463977623252
 30
0.0
  0
VERTEX
  5
22811
  8
PATH
 10
-1159.4707721064480666
 20
341.5458151484418181
 30
0.0
  0
VERTEX
  5
22812
  8
PATH
 10
-1149.5719961601569139
 20
348.9631523541683009
 30
0.0
  0
VERTEX
  5
22813
  8
PATH
 10
-1117.8975403838119291
 20
369.1227249694566126
 30
0.0
  0
VERTEX
  5
22814
  8
PATH
 10
-1078.5055575876169769
 20
392.9568883856337038
 30
0.0
  0
VERTEX
  5
22815
  8
PATH
 10
-1061.7283776879919515
 20
402.1221937789158005
 30
0.0
  0
VERTEX
  5
22816
  8
PATH
 10
-1047.3143419284169795
 20
409.9965231046588769
 30
0.0
  0
VERTEX
  5
22817
  8
PATH
 10
-1030.9117262567890521
 20
421.2876735386014957
 30
0.0
  0
VERTEX
  5
22818
  8
PATH
 10
-1018.041395870749966
 20
428.7484940197826973
 30
0.0
  0
VERTEX
  5
22819
  8
PATH
 10
-1008.8013535674100467
 20
433.1159051228823955
 30
0.0
  0
VERTEX
  5
2281A
  8
PATH
 10
-989.6214614845954429
 20
439.973957442263611
 30
0.0
  0
VERTEX
  5
2281B
  8
PATH
 10
-972.7189546501176665
 20
448.5131482817740789
 30
0.0
  0
VERTEX
  5
2281C
  8
PATH
 10
-961.0365715869263568
 20
455.2935403883964796
 30
0.0
  0
VERTEX
  5
2281D
  8
PATH
 10
-937.2854952945051537
 20
469.0785369379955227
 30
0.0
  0
VERTEX
  5
2281E
  8
PATH
 10
-921.3154271600214997
 20
476.2348577813754105
 30
0.0
  0
VERTEX
  5
2281F
  8
PATH
 10
-898.2240821540615343
 20
476.7375859083185787
 30
0.0
  0
VERTEX
  5
22820
  8
PATH
 10
-818.3370646767579046
 20
507.5270658871668275
 30
0.0
  0
VERTEX
  5
22821
  8
PATH
 10
-805.4830781791389427
 20
510.0753047843973036
 30
0.0
  0
VERTEX
  5
22822
  8
PATH
 10
-794.9512977242847001
 20
510.2014670037241899
 30
0.0
  0
VERTEX
  5
22823
  8
PATH
 10
-782.1993356306481928
 20
508.3134080698289949
 30
0.0
  0
VERTEX
  5
22824
  8
PATH
 10
-762.7391173130163224
 20
500.3685588813895038
 30
0.0
  0
VERTEX
  5
22825
  8
PATH
 10
-749.4366552306019003
 20
490.4024499250152758
 30
0.0
  0
VERTEX
  5
22826
  8
PATH
 10
-740.6449100853205891
 20
476.6724787187341121
 30
0.0
  0
SEQEND
  5
22827
  8
PATH
  0
POLYLINE
  5
209B3
  8
PATH
 66
     1
 10
0.0
 20
0.0
 30
0.0
  0
VERTEX
  5
22828
  8
PATH
 10
-633.9901476157973548
 20
337.4753425638700719
 30
0.0
  0
VERTEX
  5
22829
  8
PATH
 10
-590.250502734517795
 20
373.0087374575015247
 30
0.0
  0
SEQEND
  5
2282A
  8
PATH
  0
POLYLINE
  5
209B4
  8
PATH
 66
     1
 10
0.0
 20
0.0
 30
0.0
  0
VERTEX
  5
2282B
  8
PATH
 10
-590.2505027272417237
 20
373.0087374630894033
 30
0.0
  0
VERTEX
  5
2282C
  8
PATH
 10
-574.5319217653159285
 20
385.778263736101394
 30
0.0
  0
SEQEND
  5
2282D
  8
PATH
  0
POLYLINE
  5
209B5
  8
PATH
 66
     1
 10
0.0
 20
0.0
 30
0.0
  0
VERTEX
  5
2282E
  8
PATH
 10
-574.5319217653159285
 20
385.778263736101394
 30
0.0
  0
VERTEX
  5
2282F
  8
PATH
 10
-517.1541172600846039
 20
427.7241415423849276
 30
0.0
  0
SEQEND
  5
22830
  8
PATH
  0
POLYLINE
  5
209B6
  8
PATH
 66
     1
 10
0.0
 20
0.0
 30
0.0
  0
VERTEX
  5
22831
  8
PATH
 10
-517.1541172600846039
 20
427.7241415423849276
 30
0.0
  0
VERTEX
  5
22832
  8
PATH
 10
-441.9767464528703158
 20
482.6823407426052768
 30
0.0
  0
SEQEND
  5
22833
  8
PATH
  0
POLYLINE
  5
209B7
  8
PATH
 66
     1
 10
0.0
 20
0.0
 30
0.0
  0
VERTEX
  5
22834
  8
PATH
 10
-441.9767464528703158
 20
482.6823407426052768
 30
0.0
  0
VERTEX
  5
22835
  8
PATH
 10
-427.2220692184199038
 20
461.2361266352746156
 30
0.0
  0
VERTEX
  5
22836
  8
PATH
 10
-396.4195313415402779
 20
414.6973859994250233
 30
0.0
  0
VERTEX
  5
22837
  8
PATH
 10
-386.8258154113573255
 20
399.7095519542272086
 30
0.0
  0
SEQEND
  5
22838
  8
PATH
  0
POLYLINE
  5
209B8
  8
PATH
 66
     1
 10
0.0
 20
0.0
 30
0.0
  0
VERTEX
  5
22839
  8
PATH
 10
-386.8258154113573255
 20
399.7095519542272086
 30
0.0
  0
VERTEX
  5
2283A
  8
PATH
 10
-328.971194306053917
 20
309.3258605693044956
 30
0.0
  0
VERTEX
  5
2283B
  8
PATH
 10
-316.425968010807992
 20
291.0470968611115836
 30
0.0
  0
SEQEND
  5
2283C
  8
PATH
  0
POLYLINE
  5
209B9
  8
PATH
 66
     1
 10
0.0
 20
0.0
 30
0.0
  0
VERTEX
  5
2283D
  8
PATH
 10
-353.426754401021924
 20
658.8017499656923519
 30
0.0
  0
VERTEX
  5
2283E
  8
PATH
 10
-338.7961194289528066
 20
665.4444801444695941
 30
0.0
  0
VERTEX
  5
2283F
  8
PATH
 10
-269.5944899779423736
 20
680.7128596436740509
 30
0.0
  0
VERTEX
  5
22840
  8
PATH
 10
-241.8939948561165068
 20
686.824589601303046
 30
0.0
  0
VERTEX
  5
22841
  8
PATH
 10
-128.9610396975330957
 20
711.4069589525969377
 30
0.0
  0
VERTEX
  5
22842
  8
PATH
 10
-121.2896895153243975
 20
714.8486310751684414
 30
0.0
  0
VERTEX
  5
22843
  8
PATH
 10
-116.5191832599375061
 20
721.0727371420289273
 30
0.0
  0
VERTEX
  5
22844
  8
PATH
 10
-102.0962191583967069
 20
741.4185852190055357
 30
0.0
  0
VERTEX
  5
22845
  8
PATH
 10
-78.3403773261379541
 20
746.8031629478136892
 30
0.0
  0
VERTEX
  5
22846
  8
PATH
 10
-71.9482397389510595
 20
744.3729571644723819
 30
0.0
  0
VERTEX
  5
22847
  8
PATH
 10
-62.6042281802656291
 20
709.2530064201492905
 30
0.0
  0
VERTEX
  5
22848
  8
PATH
 10
-51.4240985181677388
 20
702.5215500370177324
 30
0.0
  0
VERTEX
  5
22849
  8
PATH
 10
-30.6587957297015201
 20
707.9558565733531168
 30
0.0
  0
VERTEX
  5
2284A
  8
PATH
 10
-24.8389975630125299
 20
713.7693932815964217
 30
0.0
  0
VERTEX
  5
2284B
  8
PATH
 10
-21.5462214819999609
 20
720.7303233873607269
 30
0.0
  0
VERTEX
  5
2284C
  8
PATH
 10
-21.3930599772866117
 20
726.4673647247763029
 30
0.0
  0
VERTEX
  5
2284D
  8
PATH
 10
-25.1406279493385192
 20
753.9992051036606426
 30
0.0
  0
VERTEX
  5
2284E
  8
PATH
 10
-24.2982753589894891
 20
759.6597386771389893
 30
0.0
  0
VERTEX
  5
2284F
  8
PATH
 10
-19.4447471463499788
 20
763.571647291122531
 30
0.0
  0
VERTEX
  5
22850
  8
PATH
 10
10.4199798399204102
 20
764.5660747290164636
 30
0.0
  0
VERTEX
  5
22851
  8
PATH
 10
38.3201928481430372
 20
753.3871058202857967
 30
0.0
  0
VERTEX
  5
22852
  8
PATH
 10
169.922288728048386
 20
752.9484811369836734
 30
0.0
  0
VERTEX
  5
22853
  8
PATH
 10
181.861891764608913
 20
753.6071864613842308
 30
0.0
  0
VERTEX
  5
22854
  8
PATH
 10
191.3092659277463099
 20
757.3269582316786455
 30
0.0
  0
VERTEX
  5
22855
  8
PATH
 10
208.5998152136889985
 20
769.8877262478272314
 30
0.0
  0
VERTEX
  5
22856
  8
PATH
 10
216.2370145199093088
 20
771.8899148381824489
 30
0.0
  0
VERTEX
  5
22857
  8
PATH
 10
304.6964193211607039
 20
769.3037070734934559
 30
0.0
  0
SEQEND
  5
22858
  8
PATH
  0
POLYLINE
  5
209BA
  8
PATH
 66
     1
 10
0.0
 20
0.0
 30
0.0
  0
VERTEX
  5
22859
  8
PATH
 10
304.6964193211607039
 20
769.3037070734934559
 30
0.0
  0
VERTEX
  5
2285A
  8
PATH
 10
304.642159752707812
 20
754.2650987026790972
 30
0.0
  0
VERTEX
  5
2285B
  8
PATH
 10
306.5869040490798056
 20
730.8968098196710343
 30
0.0
  0
VERTEX
  5
2285C
  8
PATH
 10
300.4775728282838827
 20
702.3423255826854756
 30
0.0
  0
VERTEX
  5
2285D
  8
PATH
 10
162.2052434604119924
 20
490.8931578817353056
 30
0.0
  0
VERTEX
  5
2285E
  8
PATH
 10
157.1939293125614086
 20
469.7846646719190176
 30
0.0
  0
SEQEND
  5
2285F
  8
PATH
  0
POLYLINE
  5
209BB
  8
PATH
 66
     1
 10
0.0
 20
0.0
 30
0.0
  0
VERTEX
  5
22860
  8
PATH
 10
157.1939293125614086
 20
469.7846646719190176
 30
0.0
  0
VERTEX
  5
22861
  8
PATH
 10
160.4804279508971092
 20
440.2609049273231108
 30
0.0
  0
VERTEX
  5
22862
  8
PATH
 10
166.4311199664225001
 20
400.8159606489861062
 30
0.0
  0
VERTEX
  5
22863
  8
PATH
 10
180.9946129601302118
 20
366.2097916310231085
 30
0.0
  0
VERTEX
  5
22864
  8
PATH
 10
211.9434429126413022
 20
309.5460031703623827
 30
0.0
  0
SEQEND
  5
22865
  8
PATH
  0
POLYLINE
  5
209BC
  8
PATH
 66
     1
 10
0.0
 20
0.0
 30
0.0
  0
VERTEX
  5
22866
  8
PATH
 10
304.6964076559960972
 20
769.3004739555107108
 30
0.0
  0
VERTEX
  5
22867
  8
PATH
 10
451.6943688883184223
 20
767.3752504545772126
 30
0.0
  0
VERTEX
  5
22868
  8
PATH
 10
621.125447256010375
 20
764.3858589204537566
 30
0.0
  0
VERTEX
  5
22869
  8
PATH
 10
641.6938561483838157
 20
758.7007273696871152
 30
0.0
  0
VERTEX
  5
2286A
  8
PATH
 10
803.4000384723038906
 20
757.3217040543022449
 30
0.0
  0
VERTEX
  5
2286B
  8
PATH
 10
876.6459773893438978
 20
744.4565283270128475
 30
0.0
  0
SEQEND
  5
2286C
  8
PATH
  0
POLYLINE
  5
209BD
  8
PATH
 66
     1
 10
0.0
 20
0.0
 30
0.0
  0
VERTEX
  5
2286D
  8
PATH
 10
2.511651087304926
 20
200.8574237903158064
 30
0.0
  0
VERTEX
  5
2286E
  8
PATH
 10
88.8126912996958566
 20
246.9155385550619997
 30
0.0
  0
SEQEND
  5
2286F
  8
PATH
  0
POLYLINE
  5
209BE
  8
PATH
 66
     1
 10
0.0
 20
0.0
 30
0.0
  0
VERTEX
  5
22870
  8
PATH
 10
-44.7055470718914805
 20
65.7623423003169592
 30
0.0
  0
VERTEX
  5
22871
  8
PATH
 10
25.1032584747153997
 20
101.1683913451197014
 30
0.0
  0
SEQEND
  5
22872
  8
PATH
  0
POLYLINE
  5
209BF
  8
PATH
 66
     1
 10
0.0
 20
0.0
 30
0.0
  0
VERTEX
  5
22873
  8
PATH
 10
25.1032584745989915
 20
101.1683913451197014
 30
0.0
  0
VERTEX
  5
22874
  8
PATH
 10
46.4595307172712566
 20
111.9999936982567021
 30
0.0
  0
SEQEND
  5
22875
  8
PATH
  0
POLYLINE
  5
209C0
  8
PATH
 66
     1
 10
0.0
 20
0.0
 30
0.0
  0
VERTEX
  5
22876
  8
PATH
 10
46.4834159429155989
 20
112.0121079502203969
 30
0.0
  0
VERTEX
  5
22877
  8
PATH
 10
67.8547946992766811
 20
122.2037576130169043
 30
0.0
  0
VERTEX
  5
22878
  8
PATH
 10
122.8263036581193006
 20
140.7336801696145017
 30
0.0
  0
VERTEX
  5
22879
  8
PATH
 10
88.8126912996958566
 20
246.9155385550619997
 30
0.0
  0
SEQEND
  5
2287A
  8
PATH
  0
POLYLINE
  5
209C1
  8
PATH
 66
     1
 10
0.0
 20
0.0
 30
0.0
  0
VERTEX
  5
2287B
  8
PATH
 10
88.8126912996958566
 20
246.9155385550619997
 30
0.0
  0
VERTEX
  5
2287C
  8
PATH
 10
211.9434429126413022
 20
309.5460031703623827
 30
0.0
  0
SEQEND
  5
2287D
  8
PATH
  0
POLYLINE
  5
209C2
  8
PATH
 66
     1
 10
0.0
 20
0.0
 30
0.0
  0
VERTEX
  5
2287E
  8
PATH
 10
211.9434429126413022
 20
309.5460031703623827
 30
0.0
  0
VERTEX
  5
2287F
  8
PATH
 10
256.9431993928009774
 20
243.1356287580493074
 30
0.0
  0
SEQEND
  5
22880
  8
PATH
  0
POLYLINE
  5
209C3
  8
PATH
 66
     1
 10
0.0
 20
0.0
 30
0.0
  0
VERTEX
  5
22881
  8
PATH
 10
256.9431993928009774
 20
243.1356287580493074
 30
0.0
  0
VERTEX
  5
22882
  8
PATH
 10
296.5355554063426098
 20
261.505484780347615
 30
0.0
  0
VERTEX
  5
22883
  8
PATH
 10
397.5156991023540058
 20
306.5206254772418788
 30
0.0
  0
VERTEX
  5
22884
  8
PATH
 10
467.9619263628699741
 20
334.8313728822905091
 30
0.0
  0
VERTEX
  5
22885
  8
PATH
 10
539.3778672133191776
 20
361.4944895413281074
 30
0.0
  0
VERTEX
  5
22886
  8
PATH
 10
633.706976137575225
 20
392.6441161232577883
 30
0.0
  0
VERTEX
  5
22887
  8
PATH
 10
679.2494006981578423
 20
407.683265065359592
 30
0.0
  0
VERTEX
  5
22888
  8
PATH
 10
695.3397258771435645
 20
423.1076388275757836
 30
0.0
  0
SEQEND
  5
22889
  8
PATH
  0
POLYLINE
  5
209C4
  8
PATH
 66
     1
 10
0.0
 20
0.0
 30
0.0
  0
VERTEX
  5
2288A
  8
PATH
 10
256.9431993928009774
 20
243.1356287580493074
 30
0.0
  0
VERTEX
  5
2288B
  8
PATH
 10
283.20691812263982
 20
190.1067025769079919
 30
0.0
  0
VERTEX
  5
2288C
  8
PATH
 10
311.8758470099273836
 20
100.1462868736634988
 30
0.0
  0
SEQEND
  5
2288D
  8
PATH
  0
POLYLINE
  5
209C5
  8
PATH
 66
     1
 10
0.0
 20
0.0
 30
0.0
  0
VERTEX
  5
2288E
  8
PATH
 10
311.8758470099273836
 20
100.1462868736634988
 30
0.0
  0
VERTEX
  5
2288F
  8
PATH
 10
89.3199429414671755
 20
29.2213212950664492
 30
0.0
  0
SEQEND
  5
22890
  8
PATH
  0
POLYLINE
  5
209C6
  8
PATH
 66
     1
 10
0.0
 20
0.0
 30
0.0
  0
VERTEX
  5
22891
  8
PATH
 10
311.8758470099273836
 20
100.1462868736634988
 30
0.0
  0
VERTEX
  5
22892
  8
PATH
 10
528.713890394588816
 20
168.0369638288902081
 30
0.0
  0
SEQEND
  5
22893
  8
PATH
  0
POLYLINE
  5
209C7
  8
PATH
 66
     1
 10
0.0
 20
0.0
 30
0.0
  0
VERTEX
  5
22894
  8
PATH
 10
528.713890394588816
 20
168.0369638288902081
 30
0.0
  0
VERTEX
  5
22895
  8
PATH
 10
594.2513306842737393
 20
9.1817160686987336
 30
0.0
  0
SEQEND
  5
22896
  8
PATH
  0
POLYLINE
  5
209C8
  8
PATH
 66
     1
 10
0.0
 20
0.0
 30
0.0
  0
VERTEX
  5
22897
  8
PATH
 10
528.713890394588816
 20
168.0369638288902081
 30
0.0
  0
VERTEX
  5
22898
  8
PATH
 10
780.2919570391386515
 20
247.7365037845956977
 30
0.0
  0
SEQEND
  5
22899
  8
PATH
  0
POLYLINE
  5
209C9
  8
PATH
 66
     1
 10
0.0
 20
0.0
 30
0.0
  0
VERTEX
  5
2289A
  8
PATH
 10
780.2919570391386515
 20
247.7365037845956977
 30
0.0
  0
VERTEX
  5
2289B
  8
PATH
 10
880.9937728796940064
 20
269.1466078139418983
 30
0.0
  0
SEQEND
  5
2289C
  8
PATH
  0
POLYLINE
  5
209CA
  8
PATH
 66
     1
 10
0.0
 20
0.0
 30
0.0
  0
VERTEX
  5
2289D
  8
PATH
 10
780.2919570391386515
 20
247.7365037845956977
 30
0.0
  0
VERTEX
  5
2289E
  8
PATH
 10
772.9519274510529385
 20
268.3025688143025036
 30
0.0
  0
VERTEX
  5
2289F
  8
PATH
 10
748.4521175271217999
 20
324.7632659669544068
 30
0.0
  0
VERTEX
  5
228A0
  8
PATH
 10
724.5703064238041406
 20
410.6116434191862936
 30
0.0
  0
VERTEX
  5
228A1
  8
PATH
 10
723.6202411816774429
 20
424.9778804602610762
 30
0.0
  0
SEQEND
  5
228A2
  8
PATH
  0
POLYLINE
  5
209CB
  8
PATH
 66
     1
 10
0.0
 20
0.0
 30
0.0
  0
VERTEX
  5
228A3
  8
PATH
 10
311.8758470099273836
 20
100.1462868736634988
 30
0.0
  0
VERTEX
  5
228A4
  8
PATH
 10
429.5631381142156897
 20
-275.6283221467820113
 30
0.0
  0
SEQEND
  5
228A5
  8
PATH
  0
POLYLINE
  5
209CC
  8
PATH
 66
     1
 10
0.0
 20
0.0
 30
0.0
  0
VERTEX
  5
228A6
  8
PATH
 10
429.5631381142156897
 20
-275.6283221467820113
 30
0.0
  0
VERTEX
  5
228A7
  8
PATH
 10
620.5594598271272844
 20
-196.3134772031989996
 30
0.0
  0
SEQEND
  5
228A8
  8
PATH
  0
POLYLINE
  5
209CD
  8
PATH
 66
     1
 10
0.0
 20
0.0
 30
0.0
  0
VERTEX
  5
228A9
  8
PATH
 10
594.2513306842737393
 20
9.1817160686987336
 30
0.0
  0
VERTEX
  5
228AA
  8
PATH
 10
558.1948571708489908
 20
-7.7806523800318219
 30
0.0
  0
VERTEX
  5
228AB
  8
PATH
 10
550.0043387335463194
 20
-14.4493064721536904
 30
0.0
  0
VERTEX
  5
228AC
  8
PATH
 10
549.0473826547821545
 20
-24.4425785345447402
 30
0.0
  0
VERTEX
  5
228AD
  8
PATH
 10
552.5197273964732858
 20
-35.2191815413025324
 30
0.0
  0
VERTEX
  5
228AE
  8
PATH
 10
620.5594598271272844
 20
-196.3134772031989996
 30
0.0
  0
SEQEND
  5
228AF
  8
PATH
  0
POLYLINE
  5
209CE
  8
PATH
 66
     1
 10
0.0
 20
0.0
 30
0.0
  0
VERTEX
  5
228B0
  8
PATH
 10
594.2513306842737393
 20
9.1817160686987336
 30
0.0
  0
VERTEX
  5
228B1
  8
PATH
 10
732.1536030149871976
 20
71.6345547880555387
 30
0.0
  0
VERTEX
  5
228B2
  8
PATH
 10
758.4310249176778598
 20
80.1876493706877085
 30
0.0
  0
VERTEX
  5
228B3
  8
PATH
 10
772.1602480519067058
 20
77.0908446047032925
 30
0.0
  0
VERTEX
  5
228B4
  8
PATH
 10
780.1320331613967483
 20
67.9478818574498291
 30
0.0
  0
VERTEX
  5
228B5
  8
PATH
 10
849.3566082898614695
 20
-100.1537764644671995
 30
0.0
  0
SEQEND
  5
228B6
  8
PATH
  0
POLYLINE
  5
209CF
  8
PATH
 66
     1
 10
0.0
 20
0.0
 30
0.0
  0
VERTEX
  5
228B7
  8
PATH
 10
620.5594598271272844
 20
-196.3134772031989996
 30
0.0
  0
VERTEX
  5
228B8
  8
PATH
 10
849.3566082898614695
 20
-100.1537764644671995
 30
0.0
  0
SEQEND
  5
228B9
  8
PATH
  0
POLYLINE
  5
209D0
  8
PATH
 66
     1
 10
0.0
 20
0.0
 30
0.0
  0
VERTEX
  5
228BA
  8
PATH
 10
849.3566082898614695
 20
-100.1537764644671995
 30
0.0
  0
VERTEX
  5
228BB
  8
PATH
 10
881.0124241414450807
 20
-86.8493546246972841
 30
0.0
  0
SEQEND
  5
228BC
  8
PATH
  0
POLYLINE
  5
209D1
  8
PATH
 66
     1
 10
0.0
 20
0.0
 30
0.0
  0
VERTEX
  5
228BD
  8
PATH
 10
849.3566082898614695
 20
-100.1537764644671995
 30
0.0
  0
VERTEX
  5
228BE
  8
PATH
 10
886.9259137179906247
 20
-189.5441331914117029
 30
0.0
  0
SEQEND
  5
228BF
  8
PATH
  0
POLYLINE
  5
209D2
  8
PATH
 66
     1
 10
0.0
 20
0.0
 30
0.0
  0
VERTEX
  5
228C0
  8
PATH
 10
620.5594598271272844
 20
-196.3134772031989996
 30
0.0
  0
VERTEX
  5
228C1
  8
PATH
 10
661.2495862943906104
 20
-295.5897974012842155
 30
0.0
  0
VERTEX
  5
228C2
  8
PATH
 10
698.0606946335609564
 20
-457.8916394947518143
 30
0.0
  0
SEQEND
  5
228C3
  8
PATH
  0
POLYLINE
  5
209D3
  8
PATH
 66
     1
 10
0.0
 20
0.0
 30
0.0
  0
VERTEX
  5
228C4
  8
PATH
 10
698.0606946335609564
 20
-457.8916394947518143
 30
0.0
  0
VERTEX
  5
228C5
  8
PATH
 10
751.8444378806016175
 20
-432.8812564410691266
 30
0.0
  0
VERTEX
  5
228C6
  8
PATH
 10
877.8882021233873729
 20
-376.4852699362164117
 30
0.0
  0
SEQEND
  5
228C7
  8
PATH
  0
POLYLINE
  5
209D4
  8
PATH
 66
     1
 10
0.0
 20
0.0
 30
0.0
  0
VERTEX
  5
228C8
  8
PATH
 10
698.0606946335609564
 20
-457.8916394947518143
 30
0.0
  0
VERTEX
  5
228C9
  8
PATH
 10
724.1016329332341002
 20
-579.774811552320898
 30
0.0
  0
SEQEND
  5
228CA
  8
PATH
  0
POLYLINE
  5
209D5
  8
PATH
 66
     1
 10
0.0
 20
0.0
 30
0.0
  0
VERTEX
  5
228CB
  8
PATH
 10
698.0606946335609564
 20
-457.8916394947518143
 30
0.0
  0
VERTEX
  5
228CC
  8
PATH
 10
587.4447276976279682
 20
-524.7068972004999523
 30
0.0
  0
SEQEND
  5
228CD
  8
PATH
  0
POLYLINE
  5
209D6
  8
PATH
 66
     1
 10
0.0
 20
0.0
 30
0.0
  0
VERTEX
  5
228CE
  8
PATH
 10
-53.3548159615165787
 20
-284.3538793194529717
 30
0.0
  0
VERTEX
  5
228CF
  8
PATH
 10
332.2024519984116182
 20
-422.5284573714670273
 30
0.0
  0
SEQEND
  5
228D0
  8
PATH
  0
POLYLINE
  5
209D7
  8
PATH
 66
     1
 10
0.0
 20
0.0
 30
0.0
  0
VERTEX
  5
228D1
  8
PATH
 10
332.2024519984116182
 20
-422.5284573714670273
 30
0.0
  0
VERTEX
  5
228D2
  8
PATH
 10
587.4447276976279682
 20
-524.7068972004999523
 30
0.0
  0
SEQEND
  5
228D3
  8
PATH
  0
POLYLINE
  5
209D8
  8
PATH
 66
     1
 10
0.0
 20
0.0
 30
0.0
  0
VERTEX
  5
228D4
  8
PATH
 10
587.4447276976279682
 20
-524.7068972004999523
 30
0.0
  0
VERTEX
  5
228D5
  8
PATH
 10
724.1016329332341002
 20
-579.774811552320898
 30
0.0
  0
SEQEND
  5
228D6
  8
PATH
  0
POLYLINE
  5
209D9
  8
PATH
 66
     1
 10
0.0
 20
0.0
 30
0.0
  0
VERTEX
  5
228D7
  8
PATH
 10
724.1016329332341002
 20
-579.774811552320898
 30
0.0
  0
VERTEX
  5
228D8
  8
PATH
 10
886.6346804073398289
 20
-647.6086467336353962
 30
0.0
  0
SEQEND
  5
228D9
  8
PATH
  0
POLYLINE
  5
209DA
  8
PATH
 66
     1
 10
0.0
 20
0.0
 30
0.0
  0
VERTEX
  5
228DA
  8
PATH
 10
-441.9767464528703158
 20
482.6823407426052768
 30
0.0
  0
VERTEX
  5
228DB
  8
PATH
 10
-434.6036215183701756
 20
502.3103598566303276
 30
0.0
  0
SEQEND
  5
228DC
  8
PATH
  0
POLYLINE
  5
209DB
  8
PATH
 66
     1
 10
0.0
 20
0.0
 30
0.0
  0
VERTEX
  5
228DD
  8
PATH
 10
-434.6036215183701756
 20
502.3103598566303276
 30
0.0
  0
VERTEX
  5
228DE
  8
PATH
 10
-446.9730160492616164
 20
528.0153096085921334
 30
0.0
  0
VERTEX
  5
228DF
  8
PATH
 10
-455.6201401082361144
 20
542.0541023021141882
 30
0.0
  0
SEQEND
  5
228E0
  8
PATH
  0
POLYLINE
  5
209DC
  8
PATH
 66
     1
 10
0.0
 20
0.0
 30
0.0
  0
VERTEX
  5
228E1
  8
PATH
 10
-455.6201401082943221
 20
542.0541023021141882
 30
0.0
  0
VERTEX
  5
228E2
  8
PATH
 10
-499.8290798594970852
 20
613.8282709308476797
 30
0.0
  0
SEQEND
  5
228E3
  8
PATH
  0
POLYLINE
  5
209DD
  8
PATH
 66
     1
 10
0.0
 20
0.0
 30
0.0
  0
VERTEX
  5
228E4
  8
PATH
 10
-299.2513636538787978
 20
456.2746267491530148
 30
0.0
  0
VERTEX
  5
228E5
  8
PATH
 10
-260.6470120707672891
 20
484.4784169695848277
 30
0.0
  0
SEQEND
  5
228E6
  8
PATH
  0
POLYLINE
  5
209DE
  8
PATH
 66
     1
 10
0.0
 20
0.0
 30
0.0
  0
VERTEX
  5
228E7
  8
PATH
 10
-260.6430266756942729
 20
484.4809594350443831
 30
0.0
  0
VERTEX
  5
228E8
  8
PATH
 10
-188.3308915951201925
 20
530.6121736974962459
 30
0.0
  0
SEQEND
  5
228E9
  8
PATH
  0
POLYLINE
  5
209DF
  8
PATH
 66
     1
 10
0.0
 20
0.0
 30
0.0
  0
VERTEX
  5
228EA
  8
PATH
 10
32.1767107513005612
 20
-649.5417627174829249
 30
0.0
  0
VERTEX
  5
228EB
  8
PATH
 10
382.7839564111636719
 20
-519.6124096745115821
 30
0.0
  0
SEQEND
  5
228EC
  8
PATH
  0
POLYLINE
  5
209E0
  8
PATH
 66
     1
 10
0.0
 20
0.0
 30
0.0
  0
VERTEX
  5
228ED
  8
PATH
 10
32.1767107513005612
 20
-649.5417627174829249
 30
0.0
  0
VERTEX
  5
228EE
  8
PATH
 10
31.3138034017028986
 20
-619.0573967899616719
 30
0.0
  0
VERTEX
  5
228EF
  8
PATH
 10
-19.4375387064792413
 20
-509.7238621813665986
 30
0.0
  0
VERTEX
  5
228F0
  8
PATH
 10
-36.8583038196811614
 20
-477.108196165827394
 30
0.0
  0
VERTEX
  5
228F1
  8
PATH
 10
-46.3919829918449835
 20
-442.8578985360870774
 30
0.0
  0
VERTEX
  5
228F2
  8
PATH
 10
-53.3548159615165787
 20
-284.3538793194529717
 30
0.0
  0
SEQEND
  5
228F3
  8
PATH
  0
POLYLINE
  5
209E1
  8
PATH
 66
     1
 10
0.0
 20
0.0
 30
0.0
  0
VERTEX
  5
228F4
  8
PATH
 10
-53.3548159615165787
 20
-284.3538793194529717
 30
0.0
  0
VERTEX
  5
228F5
  8
PATH
 10
-54.2865628554864017
 20
-243.826161420387507
 30
0.0
  0
VERTEX
  5
228F6
  8
PATH
 10
-59.7268392257537926
 20
-219.7544056293045003
 30
0.0
  0
SEQEND
  5
228F7
  8
PATH
  0
POLYLINE
  5
209E2
  8
PATH
 66
     1
 10
0.0
 20
0.0
 30
0.0
  0
VERTEX
  5
228F8
  8
PATH
 10
-59.7268392256955778
 20
-219.7544056293045003
 30
0.0
  0
VERTEX
  5
228F9
  8
PATH
 10
-78.8336613559076795
 20
-135.2118704788809112
 30
0.0
  0
VERTEX
  5
228FA
  8
PATH
 10
-96.3344992295169646
 20
-130.9237188393670976
 30
0.0
  0
SEQEND
  5
228FB
  8
PATH
  0
POLYLINE
  5
209E3
  8
PATH
 66
     1
 10
0.0
 20
0.0
 30
0.0
  0
VERTEX
  5
228FC
  8
PATH
 10
-87.0317795977025668
 20
-106.0589343546379979
 30
0.0
  0
VERTEX
  5
228FD
  8
PATH
 10
-73.672945209968006
 20
-107.8528894227419954
 30
0.0
  0
VERTEX
  5
228FE
  8
PATH
 10
-42.7866568086465122
 20
-88.3650751304303412
 30
0.0
  0
VERTEX
  5
228FF
  8
PATH
 10
2.8794342931214469
 20
-56.2378245652143889
 30
0.0
  0
SEQEND
  5
22900
  8
PATH
  0
POLYLINE
  5
209E4
  8
PATH
 66
     1
 10
0.0
 20
0.0
 30
0.0
  0
VERTEX
  5
22901
  8
PATH
 10
2.8794342931214469
 20
-56.2378245652143889
 30
0.0
  0
VERTEX
  5
22902
  8
PATH
 10
13.6686948625574605
 20
-72.4183266860854928
 30
0.0
  0
SEQEND
  5
22903
  8
PATH
  0
POLYLINE
  5
209E5
  8
PATH
 66
     1
 10
0.0
 20
0.0
 30
0.0
  0
VERTEX
  5
22904
  8
PATH
 10
13.6686948624992493
 20
-72.4183266860854928
 30
0.0
  0
VERTEX
  5
22905
  8
PATH
 10
38.4818713952991018
 20
-109.6302980654363068
 30
0.0
  0
SEQEND
  5
22906
  8
PATH
  0
POLYLINE
  5
209E6
  8
PATH
 66
     1
 10
0.0
 20
0.0
 30
0.0
  0
VERTEX
  5
22907
  8
PATH
 10
38.4818713952991018
 20
-109.6302980654363068
 30
0.0
  0
VERTEX
  5
22908
  8
PATH
 10
49.4703646623383904
 20
-126.1095866569740025
 30
0.0
  0
SEQEND
  5
22909
  8
PATH
  0
POLYLINE
  5
209E7
  8
PATH
 66
     1
 10
0.0
 20
0.0
 30
0.0
  0
VERTEX
  5
2290A
  8
PATH
 10
49.4703646623383904
 20
-126.1095866569740025
 30
0.0
  0
VERTEX
  5
2290B
  8
PATH
 10
30.3289949104510015
 20
-137.360812898208593
 30
0.0
  0
VERTEX
  5
2290C
  8
PATH
 10
22.4469762886146817
 20
-144.7693766187366009
 30
0.0
  0
VERTEX
  5
2290D
  8
PATH
 10
20.2456721977650886
 20
-151.3662070962091093
 30
0.0
  0
VERTEX
  5
2290E
  8
PATH
 10
22.2570945629704511
 20
-160.7597718033429999
 30
0.0
  0
SEQEND
  5
2290F
  8
PATH
  0
POLYLINE
  5
209E8
  8
PATH
 66
     1
 10
0.0
 20
0.0
 30
0.0
  0
VERTEX
  5
22910
  8
PATH
 10
22.2570945629704511
 20
-160.7597718033429999
 30
0.0
  0
VERTEX
  5
22911
  8
PATH
 10
37.4246690923901113
 20
-185.7460375492883031
 30
0.0
  0
VERTEX
  5
22912
  8
PATH
 10
50.5116581896290882
 20
-207.3048561172981863
 30
0.0
  0
SEQEND
  5
22913
  8
PATH
  0
POLYLINE
  5
209E9
  8
PATH
 66
     1
 10
0.0
 20
0.0
 30
0.0
  0
VERTEX
  5
22914
  8
PATH
 10
50.5116581896290882
 20
-207.3048561172981863
 30
0.0
  0
VERTEX
  5
22915
  8
PATH
 10
34.9881450439425024
 20
-257.1896537481296718
 30
0.0
  0
SEQEND
  5
22916
  8
PATH
  0
POLYLINE
  5
209EA
  8
PATH
 66
     1
 10
0.0
 20
0.0
 30
0.0
  0
VERTEX
  5
22917
  8
PATH
 10
34.9881450439425024
 20
-257.1896537481296718
 30
0.0
  0
VERTEX
  5
22918
  8
PATH
 10
12.5798175587988208
 20
-250.8615917972711031
 30
0.0
  0
VERTEX
  5
22919
  8
PATH
 10
-0.0620195573574165
 20
-248.7897729635660937
 30
0.0
  0
VERTEX
  5
2291A
  8
PATH
 10
-11.5186928076000203
 20
-249.0857417717998032
 30
0.0
  0
VERTEX
  5
2291B
  8
PATH
 10
-20.8245032035192708
 20
-250.4698705612173057
 30
0.0
  0
VERTEX
  5
2291C
  8
PATH
 10
-38.7008452853333509
 20
-258.7571582882155781
 30
0.0
  0
VERTEX
  5
2291D
  8
PATH
 10
-53.3548159615165787
 20
-284.3538793194529717
 30
0.0
  0
SEQEND
  5
2291E
  8
PATH
  0
POLYLINE
  5
209EB
  8
PATH
 66
     1
 10
0.0
 20
0.0
 30
0.0
  0
VERTEX
  5
2291F
  8
PATH
 10
34.9881450439425024
 20
-257.1896537481296718
 30
0.0
  0
VERTEX
  5
22920
  8
PATH
 10
135.2785445314221136
 20
-293.1329365805212888
 30
0.0
  0
SEQEND
  5
22921
  8
PATH
  0
POLYLINE
  5
209EC
  8
PATH
 66
     1
 10
0.0
 20
0.0
 30
0.0
  0
VERTEX
  5
22922
  8
PATH
 10
-901.1754933157501455
 20
-492.9812068738464177
 30
0.0
  0
VERTEX
  5
22923
  8
PATH
 10
-789.4130903524493306
 20
-388.2118229409169885
 30
0.0
  0
SEQEND
  5
22924
  8
PATH
  0
POLYLINE
  5
209ED
  8
PATH
 66
     1
 10
0.0
 20
0.0
 30
0.0
  0
VERTEX
  5
22925
  8
PATH
 10
-968.0717412648516529
 20
-424.9156879488800769
 30
0.0
  0
VERTEX
  5
22926
  8
PATH
 10
-915.0584161219450152
 20
-378.6531744342718753
 30
0.0
  0
VERTEX
  5
22927
  8
PATH
 10
-908.9188630351708298
 20
-359.941862930492789
 30
0.0
  0
SEQEND
  5
22928
  8
PATH
  0
POLYLINE
  5
209EE
  8
PATH
 66
     1
 10
0.0
 20
0.0
 30
0.0
  0
VERTEX
  5
22929
  8
PATH
 10
-908.9188630351708298
 20
-359.941862930492789
 30
0.0
  0
VERTEX
  5
2292A
  8
PATH
 10
-897.5014411982409683
 20
-356.3641316582870786
 30
0.0
  0
VERTEX
  5
2292B
  8
PATH
 10
-837.230990370924701
 20
-314.5702605666082832
 30
0.0
  0
SEQEND
  5
2292C
  8
PATH
  0
POLYLINE
  5
209EF
  8
PATH
 66
     1
 10
0.0
 20
0.0
 30
0.0
  0
VERTEX
  5
2292D
  8
PATH
 10
-908.9188630351708298
 20
-359.941862930492789
 30
0.0
  0
VERTEX
  5
2292E
  8
PATH
 10
-915.5594996738509508
 20
-353.8816652302120929
 30
0.0
  0
VERTEX
  5
2292F
  8
PATH
 10
-959.7624960005198318
 20
-269.9499394166704747
 30
0.0
  0
SEQEND
  5
22930
  8
PATH
  0
POLYLINE
  5
209F0
  8
PATH
 66
     1
 10
0.0
 20
0.0
 30
0.0
  0
VERTEX
  5
22931
  8
PATH
 10
-1045.5231768921510138
 20
-313.8129799570378964
 30
0.0
  0
VERTEX
  5
22932
  8
PATH
 10
-959.7624960005198318
 20
-269.9499394166704747
 30
0.0
  0
SEQEND
  5
22933
  8
PATH
  0
POLYLINE
  5
209F1
  8
PATH
 66
     1
 10
0.0
 20
0.0
 30
0.0
  0
VERTEX
  5
22934
  8
PATH
 10
-729.7130057203611386
 20
-663.7743274038148229
 30
0.0
  0
VERTEX
  5
22935
  8
PATH
 10
-650.005639383933044
 20
-586.5406839432614561
 30
0.0
  0
SEQEND
  5
22936
  8
PATH
  0
POLYLINE
  5
209F2
  8
PATH
 66
     1
 10
0.0
 20
0.0
 30
0.0
  0
VERTEX
  5
22937
  8
PATH
 10
-789.4130903524493306
 20
-388.2118229409169885
 30
0.0
  0
VERTEX
  5
22938
  8
PATH
 10
-755.2169071941898437
 20
-375.7155337994407773
 30
0.0
  0
VERTEX
  5
22939
  8
PATH
 10
-714.3852391403197544
 20
-352.0770577201110996
 30
0.0
  0
VERTEX
  5
2293A
  8
PATH
 10
-689.8921998764417367
 20
-337.897423373950005
 30
0.0
  0
VERTEX
  5
2293B
  8
PATH
 10
-667.9379560952219208
 20
-334.725831915573508
 30
0.0
  0
VERTEX
  5
2293C
  8
PATH
 10
-635.3318826489994535
 20
-334.6705845426258179
 30
0.0
  0
VERTEX
  5
2293D
  8
PATH
 10
-563.0618722579239375
 20
-344.9336907988836174
 30
0.0
  0
SEQEND
  5
2293E
  8
PATH
  0
POLYLINE
  5
209F3
  8
PATH
 66
     1
 10
0.0
 20
0.0
 30
0.0
  0
VERTEX
  5
2293F
  8
PATH
 10
-563.0618722579239375
 20
-344.9336907988836174
 30
0.0
  0
VERTEX
  5
22940
  8
PATH
 10
-557.6779571878287243
 20
-377.103063736059994
 30
0.0
  0
VERTEX
  5
22941
  8
PATH
 10
-551.5347857226878432
 20
-416.0406788982871262
 30
0.0
  0
VERTEX
  5
22942
  8
PATH
 10
-543.3264479964417433
 20
-485.5787027035328833
 30
0.0
  0
VERTEX
  5
22943
  8
PATH
 10
-536.5579026024350924
 20
-578.3871336075899308
 30
0.0
  0
SEQEND
  5
22944
  8
PATH
  0
POLYLINE
  5
209F4
  8
PATH
 66
     1
 10
0.0
 20
0.0
 30
0.0
  0
VERTEX
  5
22945
  8
PATH
 10
-536.5579026024350924
 20
-578.3871336075899308
 30
0.0
  0
VERTEX
  5
22946
  8
PATH
 10
-533.7254057128011482
 20
-612.7603155229661525
 30
0.0
  0
VERTEX
  5
22947
  8
PATH
 10
-530.2223515540971448
 20
-647.2357374657367473
 30
0.0
  0
VERTEX
  5
22948
  8
PATH
 10
-524.5826758931068525
 20
-684.5017664348197286
 30
0.0
  0
VERTEX
  5
22949
  8
PATH
 10
-501.5726192050059922
 20
-758.7089912024747491
 30
0.0
  0
VERTEX
  5
2294A
  8
PATH
 10
-487.3815939593623057
 20
-794.1129682766694486
 30
0.0
  0
SEQEND
  5
2294B
  8
PATH
  0
POLYLINE
  5
209F5
  8
PATH
 66
     1
 10
0.0
 20
0.0
 30
0.0
  0
VERTEX
  5
2294C
  8
PATH
 10
-520.9321182992570129
 20
-577.2215507616712102
 30
0.0
  0
VERTEX
  5
2294D
  8
PATH
 10
-520.3493123662917696
 20
-609.4748569782311733
 30
0.0
  0
VERTEX
  5
2294E
  8
PATH
 10
-516.4216863488109084
 20
-656.1814286955120679
 30
0.0
  0
VERTEX
  5
2294F
  8
PATH
 10
-510.2911482816707007
 20
-687.7423780103637228
 30
0.0
  0
VERTEX
  5
22950
  8
PATH
 10
-494.9940516722415964
 20
-737.2510567595670636
 30
0.0
  0
VERTEX
  5
22951
  8
PATH
 10
-475.5272335027257213
 20
-789.5629295953038991
 30
0.0
  0
SEQEND
  5
22952
  8
PATH
  0
POLYLINE
  5
209F6
  8
PATH
 66
     1
 10
0.0
 20
0.0
 30
0.0
  0
VERTEX
  5
22953
  8
PATH
 10
-520.9321182992570129
 20
-577.2215507616712102
 30
0.0
  0
VERTEX
  5
22954
  8
PATH
 10
-526.8226840526477872
 20
-512.666959125963217
 30
0.0
  0
VERTEX
  5
22955
  8
PATH
 10
-538.6037374527804786
 20
-408.289117438201913
 30
0.0
  0
VERTEX
  5
22956
  8
PATH
 10
-545.020235389252548
 20
-348.9291195854967214
 30
0.0
  0
SEQEND
  5
22957
  8
PATH
  0
POLYLINE
  5
209F7
  8
PATH
 66
     1
 10
0.0
 20
0.0
 30
0.0
  0
VERTEX
  5
22958
  8
PATH
 10
-545.020235389252548
 20
-348.9291195854967214
 30
0.0
  0
VERTEX
  5
22959
  8
PATH
 10
-563.0618722579239375
 20
-344.9336907988836174
 30
0.0
  0
SEQEND
  5
2295A
  8
PATH
  0
POLYLINE
  5
209F8
  8
PATH
 66
     1
 10
0.0
 20
0.0
 30
0.0
  0
VERTEX
  5
2295B
  8
PATH
 10
-545.020235389252548
 20
-348.9291195854967214
 30
0.0
  0
VERTEX
  5
2295C
  8
PATH
 10
-300.1957983719328809
 20
-385.9462846894239192
 30
0.0
  0
SEQEND
  5
2295D
  8
PATH
  0
POLYLINE
  5
209F9
  8
PATH
 66
     1
 10
0.0
 20
0.0
 30
0.0
  0
VERTEX
  5
2295E
  8
PATH
 10
199.9251715310238069
 20
-964.3455952144649928
 30
0.0
  0
VERTEX
  5
2295F
  8
PATH
 10
159.0828878886385951
 20
-963.8317341142754913
 30
0.0
  0
VERTEX
  5
22960
  8
PATH
 10
114.2053006781933959
 20
-968.2804419341917992
 30
0.0
  0
VERTEX
  5
22961
  8
PATH
 10
69.3277289308462059
 20
-978.5466866380954798
 30
0.0
  0
VERTEX
  5
22962
  8
PATH
 10
33.626426587390597
 20
-991.5960626005617087
 30
0.0
  0
VERTEX
  5
22963
  8
PATH
 10
-6.7976481523510301
 20
-1012.4707726374690537
 30
0.0
  0
SEQEND
  5
22964
  8
PATH
  0
POLYLINE
  5
209FA
  8
PATH
 66
     1
 10
0.0
 20
0.0
 30
0.0
  0
VERTEX
  5
22965
  8
PATH
 10
199.9251715310238069
 20
-964.3455952144649928
 30
0.0
  0
VERTEX
  5
22966
  8
PATH
 10
221.4458401499869069
 20
-1014.1375786154020489
 30
0.0
  0
SEQEND
  5
22967
  8
PATH
  0
POLYLINE
  5
209FB
  8
PATH
 66
     1
 10
0.0
 20
0.0
 30
0.0
  0
VERTEX
  5
22968
  8
PATH
 10
525.4328191070087541
 20
-875.8162117478857454
 30
0.0
  0
VERTEX
  5
22969
  8
PATH
 10
571.5505287991109071
 20
-1014.598983901502038
 30
0.0
  0
SEQEND
  5
2296A
  8
PATH
  0
POLYLINE
  5
209FC
  8
PATH
 66
     1
 10
0.0
 20
0.0
 30
0.0
  0
VERTEX
  5
2296B
  8
PATH
 10
525.4328191087552113
 20
-875.8162117530082469
 30
0.0
  0
VERTEX
  5
2296C
  8
PATH
 10
754.027205674486936
 20
-789.1348532749763081
 30
0.0
  0
SEQEND
  5
2296D
  8
PATH
  0
POLYLINE
  5
209FD
  8
PATH
 66
     1
 10
0.0
 20
0.0
 30
0.0
  0
VERTEX
  5
2296E
  8
PATH
 10
754.027205674486936
 20
-789.1348532749763081
 30
0.0
  0
VERTEX
  5
2296F
  8
PATH
 10
781.58630620756594
 20
-1012.4050026833499487
 30
0.0
  0
SEQEND
  5
22970
  8
PATH
  0
POLYLINE
  5
209FE
  8
PATH
 66
     1
 10
0.0
 20
0.0
 30
0.0
  0
VERTEX
  5
22971
  8
PATH
 10
754.027205674486936
 20
-789.1348532749763081
 30
0.0
  0
VERTEX
  5
22972
  8
PATH
 10
880.4192806585779181
 20
-748.0465613663617432
 30
0.0
  0
SEQEND
  5
22973
  8
PATH
  0
POLYLINE
  5
209FF
  8
PATH
 66
     1
 10
0.0
 20
0.0
 30
0.0
  0
VERTEX
  5
22974
  8
PATH
 10
754.027205674486936
 20
-789.1348532749763081
 30
0.0
  0
VERTEX
  5
22975
  8
PATH
 10
733.4591523454728303
 20
-614.1192939835091238
 30
0.0
  0
SEQEND
  5
22976
  8
PATH
  0
POLYLINE
  5
20A00
  8
PATH
 66
     1
 10
0.0
 20
0.0
 30
0.0
  0
VERTEX
  5
22977
  8
PATH
 10
135.2785445314221136
 20
-293.1329365805212888
 30
0.0
  0
VERTEX
  5
22978
  8
PATH
 10
150.8390622207516003
 20
-249.6916187926616999
 30
0.0
  0
SEQEND
  5
22979
  8
PATH
  0
POLYLINE
  5
20A01
  8
PATH
 66
     1
 10
0.0
 20
0.0
 30
0.0
  0
VERTEX
  5
2297A
  8
PATH
 10
150.8390622207516003
 20
-249.6916187926616999
 30
0.0
  0
VERTEX
  5
2297B
  8
PATH
 10
218.313230897634611
 20
-213.7618209192951042
 30
0.0
  0
SEQEND
  5
2297C
  8
PATH
  0
POLYLINE
  5
20A02
  8
PATH
 66
     1
 10
0.0
 20
0.0
 30
0.0
  0
VERTEX
  5
2297D
  8
PATH
 10
-263.6497286326048197
 20
-557.5737992100838483
 30
0.0
  0
VERTEX
  5
2297E
  8
PATH
 10
-226.4532555783661962
 20
-534.3787413108583451
 30
0.0
  0
VERTEX
  5
2297F
  8
PATH
 10
-95.1353924303111853
 20
-495.6633297833104166
 30
0.0
  0
VERTEX
  5
22980
  8
PATH
 10
-83.6615455391729483
 20
-487.5126585545439752
 30
0.0
  0
VERTEX
  5
22981
  8
PATH
 10
-73.6788571162178414
 20
-474.7349835964341764
 30
0.0
  0
VERTEX
  5
22982
  8
PATH
 10
-71.8449887341848807
 20
-459.3013417883263969
 30
0.0
  0
VERTEX
  5
22983
  8
PATH
 10
-78.9262915158324176
 20
-276.8403093865563278
 30
0.0
  0
SEQEND
  5
22984
  8
PATH
  0
POLYLINE
  5
20A03
  8
PATH
 66
     1
 10
0.0
 20
0.0
 30
0.0
  0
VERTEX
  5
22985
  8
PATH
 10
-53.3548159615165787
 20
-284.3538793194529717
 30
0.0
  0
VERTEX
  5
22986
  8
PATH
 10
-78.9262915158324176
 20
-276.8403093865563278
 30
0.0
  0
SEQEND
  5
22987
  8
PATH
  0
POLYLINE
  5
20A04
  8
PATH
 66
     1
 10
0.0
 20
0.0
 30
0.0
  0
VERTEX
  5
22988
  8
PATH
 10
-78.9262915158324176
 20
-276.8403093865563278
 30
0.0
  0
VERTEX
  5
22989
  8
PATH
 10
-293.2703772268869216
 20
-201.4338478152131131
 30
0.0
  0
SEQEND
  5
2298A
  8
PATH
  0
POLYLINE
  5
20A05
  8
PATH
 66
     1
 10
0.0
 20
0.0
 30
0.0
  0
VERTEX
  5
2298B
  8
PATH
 10
-563.0618722579239375
 20
-344.9336907988836174
 30
0.0
  0
VERTEX
  5
2298C
  8
PATH
 10
-572.4459046182015527
 20
-302.3372257966038887
 30
0.0
  0
VERTEX
  5
2298D
  8
PATH
 10
-581.8490958280889345
 20
-249.2754499180664141
 30
0.0
  0
VERTEX
  5
2298E
  8
PATH
 10
-587.3022858345793793
 20
-208.7765829497438972
 30
0.0
  0
VERTEX
  5
2298F
  8
PATH
 10
-587.1749622126951635
 20
-168.151933711902501
 30
0.0
  0
VERTEX
  5
22990
  8
PATH
 10
-570.1667185544065433
 20
-80.2761076697570246
 30
0.0
  0
SEQEND
  5
22991
  8
PATH
  0
POLYLINE
  5
20A06
  8
PATH
 66
     1
 10
0.0
 20
0.0
 30
0.0
  0
VERTEX
  5
22992
  8
PATH
 10
-538.0451618889491101
 20
-91.9070621360515077
 30
0.0
  0
VERTEX
  5
22993
  8
PATH
 10
-546.6536860778722939
 20
-126.7136323251252037
 30
0.0
  0
VERTEX
  5
22994
  8
PATH
 10
-552.2488433143735165
 20
-161.3242060644043079
 30
0.0
  0
VERTEX
  5
22995
  8
PATH
 10
-554.0348068408927702
 20
-196.6993545703080883
 30
0.0
  0
VERTEX
  5
22996
  8
PATH
 10
-551.3787624843098456
 20
-223.3030758806926031
 30
0.0
  0
VERTEX
  5
22997
  8
PATH
 10
-544.751965369752611
 20
-263.8495617312801187
 30
0.0
  0
VERTEX
  5
22998
  8
PATH
 10
-537.589818350868768
 20
-306.3106382172044846
 30
0.0
  0
VERTEX
  5
22999
  8
PATH
 10
-545.020235389252548
 20
-348.9291195854967214
 30
0.0
  0
SEQEND
  5
2299A
  8
PATH
  0
POLYLINE
  5
20A07
  8
PATH
 66
     1
 10
0.0
 20
0.0
 30
0.0
  0
VERTEX
  5
2299B
  8
PATH
 10
-852.2040637915049501
 20
30.9847185668113489
 30
0.0
  0
VERTEX
  5
2299C
  8
PATH
 10
-828.3998777453814455
 20
30.7991546020421012
 30
0.0
  0
VERTEX
  5
2299D
  8
PATH
 10
-795.6583239585888805
 20
23.8496014387856086
 30
0.0
  0
SEQEND
  5
2299E
  8
PATH
  0
POLYLINE
  5
20A08
  8
PATH
 66
     1
 10
0.0
 20
0.0
 30
0.0
  0
VERTEX
  5
2299F
  8
PATH
 10
-795.6583239585888805
 20
23.8496014387856086
 30
0.0
  0
VERTEX
  5
229A0
  8
PATH
 10
-772.0497889383259462
 20
18.8385756854477187
 30
0.0
  0
VERTEX
  5
229A1
  8
PATH
 10
-742.1742240576568292
 20
12.4973425302232499
 30
0.0
  0
VERTEX
  5
229A2
  8
PATH
 10
-611.2077520012534251
 20
-49.5043791066345875
 30
0.0
  0
VERTEX
  5
229A3
  8
PATH
 10
-588.7362306275900892
 20
-69.4848835002121632
 30
0.0
  0
VERTEX
  5
229A4
  8
PATH
 10
-570.1667185544065433
 20
-80.2761076697570246
 30
0.0
  0
SEQEND
  5
229A5
  8
PATH
  0
POLYLINE
  5
20A09
  8
PATH
 66
     1
 10
0.0
 20
0.0
 30
0.0
  0
VERTEX
  5
229A6
  8
PATH
 10
-795.6583239585888805
 20
23.8496014387856086
 30
0.0
  0
VERTEX
  5
229A7
  8
PATH
 10
-777.6904078518419965
 20
10.7351109884257294
 30
0.0
  0
VERTEX
  5
229A8
  8
PATH
 10
-624.3953340198640944
 20
-60.61819563149038
 30
0.0
  0
VERTEX
  5
229A9
  8
PATH
 10
-588.7362306275900892
 20
-69.4848835002121632
 30
0.0
  0
SEQEND
  5
229AA
  8
PATH
  0
POLYLINE
  5
20A0A
  8
PATH
 66
     1
 10
0.0
 20
0.0
 30
0.0
  0
VERTEX
  5
229AB
  8
PATH
 10
-838.2236515073598184
 20
65.6160060228357906
 30
0.0
  0
VERTEX
  5
229AC
  8
PATH
 10
-793.3368016793535844
 20
55.3840063391762598
 30
0.0
  0
VERTEX
  5
229AD
  8
PATH
 10
-778.1905073833913775
 20
48.5710226498122211
 30
0.0
  0
SEQEND
  5
229AE
  8
PATH
  0
POLYLINE
  5
20A0B
  8
PATH
 66
     1
 10
0.0
 20
0.0
 30
0.0
  0
VERTEX
  5
229AF
  8
PATH
 10
-778.1905073832166408
 20
48.5710226498122211
 30
0.0
  0
VERTEX
  5
229B0
  8
PATH
 10
-599.3231882386753568
 20
-31.8856292585332994
 30
0.0
  0
VERTEX
  5
229B1
  8
PATH
 10
-531.4020202191459248
 20
-58.3710135225628619
 30
0.0
  0
SEQEND
  5
229B2
  8
PATH
  0
POLYLINE
  5
20A0C
  8
PATH
 66
     1
 10
0.0
 20
0.0
 30
0.0
  0
VERTEX
  5
229B3
  8
PATH
 10
-570.1667185544065433
 20
-80.2761076697570246
 30
0.0
  0
VERTEX
  5
229B4
  8
PATH
 10
-538.0451618889491101
 20
-91.9070621360515077
 30
0.0
  0
SEQEND
  5
229B5
  8
PATH
  0
POLYLINE
  5
20A0D
  8
PATH
 66
     1
 10
0.0
 20
0.0
 30
0.0
  0
VERTEX
  5
229B6
  8
PATH
 10
-538.0451618889491101
 20
-91.9070621360515077
 30
0.0
  0
VERTEX
  5
229B7
  8
PATH
 10
-531.4020202191459248
 20
-58.3710135225628619
 30
0.0
  0
SEQEND
  5
229B8
  8
PATH
  0
POLYLINE
  5
20A0E
  8
PATH
 66
     1
 10
0.0
 20
0.0
 30
0.0
  0
VERTEX
  5
229B9
  8
PATH
 10
-538.0451618889491101
 20
-91.9070621360515077
 30
0.0
  0
VERTEX
  5
229BA
  8
PATH
 10
-369.1676189140562201
 20
-167.828032149416714
 30
0.0
  0
VERTEX
  5
229BB
  8
PATH
 10
-293.2703772268869216
 20
-201.4338478152131131
 30
0.0
  0
SEQEND
  5
229BC
  8
PATH
  0
POLYLINE
  5
20A0F
  8
PATH
 66
     1
 10
0.0
 20
0.0
 30
0.0
  0
VERTEX
  5
229BD
  8
PATH
 10
-463.1687032371555119
 20
170.4002036331729926
 30
0.0
  0
VERTEX
  5
229BE
  8
PATH
 10
-444.8855235112278024
 20
155.9054747722620959
 30
0.0
  0
SEQEND
  5
229BF
  8
PATH
  0
POLYLINE
  5
20A10
  8
PATH
 66
     1
 10
0.0
 20
0.0
 30
0.0
  0
VERTEX
  5
229C0
  8
PATH
 10
-444.8855235112278024
 20
155.9054747722620959
 30
0.0
  0
VERTEX
  5
229C1
  8
PATH
 10
-379.0827488108917009
 20
216.7166202818553131
 30
0.0
  0
VERTEX
  5
229C2
  8
PATH
 10
-309.6432844854571727
 20
262.3442990091206752
 30
0.0
  0
SEQEND
  5
229C3
  8
PATH
  0
POLYLINE
  5
20A11
  8
PATH
 66
     1
 10
0.0
 20
0.0
 30
0.0
  0
VERTEX
  5
229C4
  8
PATH
 10
-501.9210975784953916
 20
169.9407357266682084
 30
0.0
  0
VERTEX
  5
229C5
  8
PATH
 10
-501.9210975784953916
 20
169.9407357266682084
 30
0.0
  0
VERTEX
  5
229C6
  8
PATH
 10
-501.2734689999631996
 20
156.0185731757009933
 30
0.0
  0
VERTEX
  5
229C7
  8
PATH
 10
-500.8814780096436152
 20
149.5579981096597919
 30
0.0
  0
VERTEX
  5
229C8
  8
PATH
 10
-501.8953507220866754
 20
144.4481010353702004
 30
0.0
  0
VERTEX
  5
229C9
  8
PATH
 10
-504.9774977898484849
 20
135.0256406339393891
 30
0.0
  0
VERTEX
  5
229CA
  8
PATH
 10
-508.9016677262987969
 20
129.1917053261348087
 30
0.0
  0
SEQEND
  5
229CB
  8
PATH
  0
POLYLINE
  5
20A12
  8
PATH
 66
     1
 10
0.0
 20
0.0
 30
0.0
  0
VERTEX
  5
229CC
  8
PATH
 10
-508.9016677262405892
 20
129.1917053261348087
 30
0.0
  0
VERTEX
  5
229CD
  8
PATH
 10
-524.5188903769156923
 20
105.9740903638812028
 30
0.0
  0
VERTEX
  5
229CE
  8
PATH
 10
-540.8231177629929789
 20
69.1034065536732669
 30
0.0
  0
VERTEX
  5
229CF
  8
PATH
 10
-550.9360678073280724
 20
33.0378071587110824
 30
0.0
  0
VERTEX
  5
229D0
  8
PATH
 10
-558.9444205443287501
 20
-5.024723219634323
 30
0.0
  0
SEQEND
  5
229D1
  8
PATH
  0
POLYLINE
  5
20A13
  8
PATH
 66
     1
 10
0.0
 20
0.0
 30
0.0
  0
VERTEX
  5
229D2
  8
PATH
 10
-444.8855235112278024
 20
155.9054747722620959
 30
0.0
  0
VERTEX
  5
229D3
  8
PATH
 10
-465.801763588402423
 20
149.6068387725900095
 30
0.0
  0
VERTEX
  5
229D4
  8
PATH
 10
-488.9588903478140764
 20
136.6448277291420084
 30
0.0
  0
VERTEX
  5
229D5
  8
PATH
 10
-508.9016677262405892
 20
129.1917053261348087
 30
0.0
  0
SEQEND
  5
229D6
  8
PATH
  0
POLYLINE
  5
20A14
  8
PATH
 66
     1
 10
0.0
 20
0.0
 30
0.0
  0
VERTEX
  5
229D7
  8
PATH
 10
-778.1905073833913775
 20
48.5710226498122211
 30
0.0
  0
VERTEX
  5
229D8
  8
PATH
 10
-726.8984574871865334
 20
61.2496737260880693
 30
0.0
  0
VERTEX
  5
229D9
  8
PATH
 10
-647.677727801448782
 20
29.0688084187495512
 30
0.0
  0
VERTEX
  5
229DA
  8
PATH
 10
-628.4746690553291728
 20
25.6659367988395388
 30
0.0
  0
VERTEX
  5
229DB
  8
PATH
 10
-558.9444205443287501
 20
-5.024723219634323
 30
0.0
  0
SEQEND
  5
229DC
  8
PATH
  0
POLYLINE
  5
20A15
  8
PATH
 66
     1
 10
0.0
 20
0.0
 30
0.0
  0
VERTEX
  5
229DD
  8
PATH
 10
-444.8855235112278024
 20
155.9054747722620959
 30
0.0
  0
VERTEX
  5
229DE
  8
PATH
 10
-449.7437560263350065
 20
138.4411042258653026
 30
0.0
  0
VERTEX
  5
229DF
  8
PATH
 10
-453.8542338568511809
 20
133.802104142545403
 30
0.0
  0
VERTEX
  5
229E0
  8
PATH
 10
-475.019551564604626
 20
112.6169550330887006
 30
0.0
  0
VERTEX
  5
229E1
  8
PATH
 10
-489.2912554107750793
 20
94.6239586431110666
 30
0.0
  0
VERTEX
  5
229E2
  8
PATH
 10
-495.8664365124568008
 20
83.8218564233320649
 30
0.0
  0
VERTEX
  5
229E3
  8
PATH
 10
-504.1898046519635272
 20
66.1032489538702066
 30
0.0
  0
VERTEX
  5
229E4
  8
PATH
 10
-507.4890853483374826
 20
54.3955098102378471
 30
0.0
  0
VERTEX
  5
229E5
  8
PATH
 10
-531.4020202191459248
 20
-58.3710135225628619
 30
0.0
  0
SEQEND
  5
229E6
  8
PATH
  0
POLYLINE
  5
20A16
  8
PATH
 66
     1
 10
0.0
 20
0.0
 30
0.0
  0
VERTEX
  5
229E7
  8
PATH
 10
-558.9444205443287501
 20
-5.024723219634323
 30
0.0
  0
VERTEX
  5
229E8
  8
PATH
 10
-557.3004087847219807
 20
-29.6140497265805607
 30
0.0
  0
VERTEX
  5
229E9
  8
PATH
 10
-531.4020202191459248
 20
-58.3710135225628619
 30
0.0
  0
SEQEND
  5
229EA
  8
PATH
  0
POLYLINE
  5
20A17
  8
PATH
 66
     1
 10
0.0
 20
0.0
 30
0.0
  0
VERTEX
  5
229EB
  8
PATH
 10
-309.6432844854571727
 20
262.3442990091206752
 30
0.0
  0
VERTEX
  5
229EC
  8
PATH
 10
-266.2244913588074269
 20
198.8332633912141034
 30
0.0
  0
VERTEX
  5
229ED
  8
PATH
 10
-234.2506599488696963
 20
148.9286056850613988
 30
0.0
  0
VERTEX
  5
229EE
  8
PATH
 10
-201.6784021975618089
 20
94.239223373173445
 30
0.0
  0
SEQEND
  5
229EF
  8
PATH
  0
POLYLINE
  5
20A18
  8
PATH
 66
     1
 10
0.0
 20
0.0
 30
0.0
  0
VERTEX
  5
229F0
  8
PATH
 10
2.5103203724574992
 20
200.8567135995762953
 30
0.0
  0
VERTEX
  5
229F1
  8
PATH
 10
-46.6285581620322773
 20
166.8383502779105925
 30
0.0
  0
SEQEND
  5
229F2
  8
PATH
  0
POLYLINE
  5
20A19
  8
PATH
 66
     1
 10
0.0
 20
0.0
 30
0.0
  0
VERTEX
  5
229F3
  8
PATH
 10
-46.6285581620322773
 20
166.8383502779105925
 30
0.0
  0
VERTEX
  5
229F4
  8
PATH
 10
-85.4359821126709136
 20
139.9723515636796947
 30
0.0
  0
SEQEND
  5
229F5
  8
PATH
  0
POLYLINE
  5
20A1A
  8
PATH
 66
     1
 10
0.0
 20
0.0
 30
0.0
  0
VERTEX
  5
229F6
  8
PATH
 10
-85.4359821126709136
 20
139.9723515636796947
 30
0.0
  0
VERTEX
  5
229F7
  8
PATH
 10
-62.8600876226701075
 20
98.8395392685706895
 30
0.0
  0
SEQEND
  5
229F8
  8
PATH
  0
POLYLINE
  5
20A1B
  8
PATH
 66
     1
 10
0.0
 20
0.0
 30
0.0
  0
VERTEX
  5
229F9
  8
PATH
 10
-62.8600876226701075
 20
98.8395392685706895
 30
0.0
  0
VERTEX
  5
229FA
  8
PATH
 10
-44.7055470718914805
 20
65.7623423003169592
 30
0.0
  0
SEQEND
  5
229FB
  8
PATH
  0
POLYLINE
  5
20A1C
  8
PATH
 66
     1
 10
0.0
 20
0.0
 30
0.0
  0
VERTEX
  5
229FC
  8
PATH
 10
-85.4359821126709136
 20
139.9723515636796947
 30
0.0
  0
VERTEX
  5
229FD
  8
PATH
 10
-87.9170986940298462
 20
153.1580345067704911
 30
0.0
  0
VERTEX
  5
229FE
  8
PATH
 10
-120.9880068529892014
 20
205.3973545935513982
 30
0.0
  0
SEQEND
  5
229FF
  8
PATH
  0
POLYLINE
  5
20A1D
  8
PATH
 66
     1
 10
0.0
 20
0.0
 30
0.0
  0
VERTEX
  5
22A00
  8
PATH
 10
-120.9880068530473949
 20
205.3973545935513982
 30
0.0
  0
VERTEX
  5
22A01
  8
PATH
 10
-140.6389555854403
 20
236.4382983712058035
 30
0.0
  0
SEQEND
  5
22A02
  8
PATH
  0
POLYLINE
  5
20A1E
  8
PATH
 66
     1
 10
0.0
 20
0.0
 30
0.0
  0
VERTEX
  5
22A03
  8
PATH
 10
-140.6389555854985076
 20
236.4382983712058035
 30
0.0
  0
VERTEX
  5
22A04
  8
PATH
 10
-165.3140606245287927
 20
275.4154774710113998
 30
0.0
  0
SEQEND
  5
22A05
  8
PATH
  0
POLYLINE
  5
20A1F
  8
PATH
 66
     1
 10
0.0
 20
0.0
 30
0.0
  0
VERTEX
  5
22A06
  8
PATH
 10
-165.3140606245287927
 20
275.4154774710113998
 30
0.0
  0
VERTEX
  5
22A07
  8
PATH
 10
-190.993898904198403
 20
315.9797488004480215
 30
0.0
  0
SEQEND
  5
22A08
  8
PATH
  0
POLYLINE
  5
20A20
  8
PATH
 66
     1
 10
0.0
 20
0.0
 30
0.0
  0
VERTEX
  5
22A09
  8
PATH
 10
-190.993898904198403
 20
315.9797488004480215
 30
0.0
  0
VERTEX
  5
22A0A
  8
PATH
 10
-215.9285671026009084
 20
355.3669378976846929
 30
0.0
  0
SEQEND
  5
22A0B
  8
PATH
  0
POLYLINE
  5
20A21
  8
PATH
 66
     1
 10
0.0
 20
0.0
 30
0.0
  0
VERTEX
  5
22A0C
  8
PATH
 10
-369.7773002065515016
 20
412.102905285129907
 30
0.0
  0
VERTEX
  5
22A0D
  8
PATH
 10
-311.4212157635046765
 20
448.6524193184959017
 30
0.0
  0
SEQEND
  5
22A0E
  8
PATH
  0
POLYLINE
  5
20A22
  8
PATH
 66
     1
 10
0.0
 20
0.0
 30
0.0
  0
VERTEX
  5
22A0F
  8
PATH
 10
-311.4212157635046765
 20
448.6524193184959017
 30
0.0
  0
VERTEX
  5
22A10
  8
PATH
 10
-299.2513636538204764
 20
456.2746267491530148
 30
0.0
  0
SEQEND
  5
22A11
  8
PATH
  0
POLYLINE
  5
20A23
  8
PATH
 66
     1
 10
0.0
 20
0.0
 30
0.0
  0
VERTEX
  5
22A12
  8
PATH
 10
-299.2513636538204764
 20
456.2746267491530148
 30
0.0
  0
VERTEX
  5
22A13
  8
PATH
 10
-289.2276824058645275
 20
458.0210546143861166
 30
0.0
  0
VERTEX
  5
22A14
  8
PATH
 10
-278.5046799532282762
 20
452.5488997158171856
 30
0.0
  0
SEQEND
  5
22A15
  8
PATH
  0
POLYLINE
  5
20A24
  8
PATH
 66
     1
 10
0.0
 20
0.0
 30
0.0
  0
VERTEX
  5
22A16
  8
PATH
 10
-269.9501220400125021
 20
439.2634992232124205
 30
0.0
  0
VERTEX
  5
22A17
  8
PATH
 10
-225.9820366637578104
 20
370.9801783264193205
 30
0.0
  0
SEQEND
  5
22A18
  8
PATH
  0
POLYLINE
  5
20A25
  8
PATH
 66
     1
 10
0.0
 20
0.0
 30
0.0
  0
VERTEX
  5
22A19
  8
PATH
 10
-225.9820366637578104
 20
370.9801783264193205
 30
0.0
  0
VERTEX
  5
22A1A
  8
PATH
 10
-215.9285671026009084
 20
355.3669378976846929
 30
0.0
  0
SEQEND
  5
22A1B
  8
PATH
  0
POLYLINE
  5
20A26
  8
PATH
 66
     1
 10
0.0
 20
0.0
 30
0.0
  0
VERTEX
  5
22A1C
  8
PATH
 10
-434.6036215183701756
 20
502.3103598566303276
 30
0.0
  0
VERTEX
  5
22A1D
  8
PATH
 10
-409.4164758830592064
 20
473.2371740225278813
 30
0.0
  0
VERTEX
  5
22A1E
  8
PATH
 10
-369.7773002065515016
 20
412.102905285129907
 30
0.0
  0
SEQEND
  5
22A1F
  8
PATH
  0
POLYLINE
  5
20A27
  8
PATH
 66
     1
 10
0.0
 20
0.0
 30
0.0
  0
VERTEX
  5
22A20
  8
PATH
 10
-369.7773002065515016
 20
412.102905285129907
 30
0.0
  0
VERTEX
  5
22A21
  8
PATH
 10
-302.7662799313694109
 20
297.7430229108358049
 30
0.0
  0
SEQEND
  5
22A22
  8
PATH
  0
POLYLINE
  5
20A28
  8
PATH
 66
     1
 10
0.0
 20
0.0
 30
0.0
  0
VERTEX
  5
22A23
  8
PATH
 10
-85.4359821126709136
 20
139.9723515636796947
 30
0.0
  0
VERTEX
  5
22A24
  8
PATH
 10
-163.5248157227323986
 20
83.2589059318924853
 30
0.0
  0
SEQEND
  5
22A25
  8
PATH
  0
POLYLINE
  5
20A29
  8
PATH
 66
     1
 10
0.0
 20
0.0
 30
0.0
  0
VERTEX
  5
22A26
  8
PATH
 10
-163.5248157227323986
 20
83.2589059318924853
 30
0.0
  0
VERTEX
  5
22A27
  8
PATH
 10
-154.4305958275363082
 20
62.633390712137043
 30
0.0
  0
SEQEND
  5
22A28
  8
PATH
  0
POLYLINE
  5
20A2A
  8
PATH
 66
     1
 10
0.0
 20
0.0
 30
0.0
  0
VERTEX
  5
22A29
  8
PATH
 10
-154.4305958275363082
 20
62.633390712137043
 30
0.0
  0
VERTEX
  5
22A2A
  8
PATH
 10
-125.1701132222806052
 20
-3.7288191606712631
 30
0.0
  0
SEQEND
  5
22A2B
  8
PATH
  0
POLYLINE
  5
20A2B
  8
PATH
 66
     1
 10
0.0
 20
0.0
 30
0.0
  0
VERTEX
  5
22A2C
  8
PATH
 10
-125.1701132222806052
 20
-3.7288191606712631
 30
0.0
  0
VERTEX
  5
22A2D
  8
PATH
 10
-115.2222477088362069
 20
1.4958885959858881
 30
0.0
  0
SEQEND
  5
22A2E
  8
PATH
  0
POLYLINE
  5
20A2C
  8
PATH
 66
     1
 10
0.0
 20
0.0
 30
0.0
  0
VERTEX
  5
22A2F
  8
PATH
 10
-115.2222477087779993
 20
1.4958885959858881
 30
0.0
  0
VERTEX
  5
22A30
  8
PATH
 10
-87.639989785107872
 20
15.9823366413402201
 30
0.0
  0
SEQEND
  5
22A31
  8
PATH
  0
POLYLINE
  5
20A2D
  8
PATH
 66
     1
 10
0.0
 20
0.0
 30
0.0
  0
VERTEX
  5
22A32
  8
PATH
 10
-87.6399897852243015
 20
15.9823366413402201
 30
0.0
  0
VERTEX
  5
22A33
  8
PATH
 10
-36.6154981893632794
 20
42.7808550438421591
 30
0.0
  0
SEQEND
  5
22A34
  8
PATH
  0
POLYLINE
  5
20A2E
  8
PATH
 66
     1
 10
0.0
 20
0.0
 30
0.0
  0
VERTEX
  5
22A35
  8
PATH
 10
-36.6154981893632794
 20
42.7808550438421591
 30
0.0
  0
VERTEX
  5
22A36
  8
PATH
 10
-9.6100989443511917
 20
-9.6059167165731196
 30
0.0
  0
SEQEND
  5
22A37
  8
PATH
  0
POLYLINE
  5
20A2F
  8
PATH
 66
     1
 10
0.0
 20
0.0
 30
0.0
  0
VERTEX
  5
22A38
  8
PATH
 10
-9.6100989442347782
 20
-9.6059167165731196
 30
0.0
  0
VERTEX
  5
22A39
  8
PATH
 10
1.7138292729941891
 20
-31.5727848070164399
 30
0.0
  0
SEQEND
  5
22A3A
  8
PATH
  0
POLYLINE
  5
20A30
  8
PATH
 66
     1
 10
0.0
 20
0.0
 30
0.0
  0
VERTEX
  5
22A3B
  8
PATH
 10
-44.7055470718914805
 20
65.7623423003169592
 30
0.0
  0
VERTEX
  5
22A3C
  8
PATH
 10
-36.6154981893632794
 20
42.7808550438421591
 30
0.0
  0
SEQEND
  5
22A3D
  8
PATH
  0
POLYLINE
  5
20A31
  8
PATH
 66
     1
 10
0.0
 20
0.0
 30
0.0
  0
VERTEX
  5
22A3E
  8
PATH
 10
-531.4020202191459248
 20
-58.3710135225628619
 30
0.0
  0
VERTEX
  5
22A3F
  8
PATH
 10
-446.3856844129766728
 20
-99.6179001349446338
 30
0.0
  0
VERTEX
  5
22A40
  8
PATH
 10
-385.8026495843806742
 20
-123.7235696841453034
 30
0.0
  0
VERTEX
  5
22A41
  8
PATH
 10
-331.5332211200876031
 20
-136.495609181416512
 30
0.0
  0
VERTEX
  5
22A42
  8
PATH
 10
-286.1277063199231065
 20
-141.3542929780159909
 30
0.0
  0
VERTEX
  5
22A43
  8
PATH
 10
-242.8286907952424087
 20
-139.9044904326509879
 30
0.0
  0
VERTEX
  5
22A44
  8
PATH
 10
-193.0099295810942124
 20
-133.2845341418359908
 30
0.0
  0
VERTEX
  5
22A45
  8
PATH
 10
-125.2865943024080053
 20
-113.0197927695189009
 30
0.0
  0
VERTEX
  5
22A46
  8
PATH
 10
-114.4334467006993066
 20
-118.2206641057928067
 30
0.0
  0
SEQEND
  5
22A47
  8
PATH
  0
POLYLINE
  5
20A32
  8
PATH
 66
     1
 10
0.0
 20
0.0
 30
0.0
  0
VERTEX
  5
22A48
  8
PATH
 10
1.7138292729941891
 20
-31.5727848070164399
 30
0.0
  0
VERTEX
  5
22A49
  8
PATH
 10
27.6112680255173508
 20
-13.57009903848666
 30
0.0
  0
SEQEND
  5
22A4A
  8
PATH
  0
POLYLINE
  5
20A33
  8
PATH
 66
     1
 10
0.0
 20
0.0
 30
0.0
  0
VERTEX
  5
22A4B
  8
PATH
 10
27.6112680254591396
 20
-13.57009903848666
 30
0.0
  0
VERTEX
  5
22A4C
  8
PATH
 10
89.2791879841679332
 20
29.2985489243219384
 30
0.0
  0
SEQEND
  5
22A4D
  8
PATH
  0
POLYLINE
  5
20A34
  8
PATH
 66
     1
 10
0.0
 20
0.0
 30
0.0
  0
VERTEX
  5
22A4E
  8
PATH
 10
2.8794342931214469
 20
-56.2378245652143889
 30
0.0
  0
VERTEX
  5
22A4F
  8
PATH
 10
27.4269025480462005
 20
-38.7779574589294498
 30
0.0
  0
SEQEND
  5
22A50
  8
PATH
  0
POLYLINE
  5
20A35
  8
PATH
 66
     1
 10
0.0
 20
0.0
 30
0.0
  0
VERTEX
  5
22A51
  8
PATH
 10
27.4114097013225511
 20
-38.7889770492402022
 30
0.0
  0
VERTEX
  5
22A52
  8
PATH
 10
85.1890606189699753
 20
2.306507676425098
 30
0.0
  0
VERTEX
  5
22A53
  8
PATH
 10
89.3199429415253547
 20
29.2213212950664492
 30
0.0
  0
SEQEND
  5
22A54
  8
PATH
  0
POLYLINE
  5
20A36
  8
PATH
 66
     1
 10
0.0
 20
0.0
 30
0.0
  0
VERTEX
  5
22A55
  8
PATH
 10
-225.0910752075870107
 20
182.9745800989257134
 30
0.0
  0
VERTEX
  5
22A56
  8
PATH
 10
-140.6389555854403
 20
236.4382983712058035
 30
0.0
  0
SEQEND
  5
22A57
  8
PATH
  0
POLYLINE
  5
20A37
  8
PATH
 66
     1
 10
0.0
 20
0.0
 30
0.0
  0
VERTEX
  5
22A58
  8
PATH
 10
-412.0025148536806228
 20
-148.5710794906553929
 30
0.0
  0
VERTEX
  5
22A59
  8
PATH
 10
-339.1506962139537791
 20
-156.1301817884159107
 30
0.0
  0
VERTEX
  5
22A5A
  8
PATH
 10
-276.3615639256458962
 20
-157.4909776476634136
 30
0.0
  0
VERTEX
  5
22A5B
  8
PATH
 10
-208.782224420181592
 20
-153.0814660628747959
 30
0.0
  0
VERTEX
  5
22A5C
  8
PATH
 10
-156.6883227573270858
 20
-142.0689351153050097
 30
0.0
  0
VERTEX
  5
22A5D
  8
PATH
 10
-119.306385625342898
 20
-130.8478554756802055
 30
0.0
  0
VERTEX
  5
22A5E
  8
PATH
 10
-114.4334467006993066
 20
-118.2206641057928067
 30
0.0
  0
SEQEND
  5
22A5F
  8
PATH
  0
POLYLINE
  5
20A38
  8
PATH
 66
     1
 10
0.0
 20
0.0
 30
0.0
  0
VERTEX
  5
22A60
  8
PATH
 10
-225.0910752075870107
 20
182.9745800989257134
 30
0.0
  0
VERTEX
  5
22A61
  8
PATH
 10
-178.1678435587234901
 20
106.9754578993233025
 30
0.0
  0
SEQEND
  5
22A62
  8
PATH
  0
POLYLINE
  5
20A39
  8
PATH
 66
     1
 10
0.0
 20
0.0
 30
0.0
  0
VERTEX
  5
22A63
  8
PATH
 10
-178.1678435587234901
 20
106.9754578993233025
 30
0.0
  0
VERTEX
  5
22A64
  8
PATH
 10
-163.5248157227323986
 20
83.2589059318924853
 30
0.0
  0
SEQEND
  5
22A65
  8
PATH
  0
POLYLINE
  5
20A3A
  8
PATH
 66
     1
 10
0.0
 20
0.0
 30
0.0
  0
VERTEX
  5
22A66
  8
PATH
 10
49.4703646623383904
 20
-126.1095866569740025
 30
0.0
  0
VERTEX
  5
22A67
  8
PATH
 10
72.2597196684655501
 20
-130.6741972378877108
 30
0.0
  0
SEQEND
  5
22A68
  8
PATH
  0
POLYLINE
  5
20A3B
  8
PATH
 66
     1
 10
0.0
 20
0.0
 30
0.0
  0
VERTEX
  5
22A69
  8
PATH
 10
72.2597196684655501
 20
-130.6741972378877108
 30
0.0
  0
VERTEX
  5
22A6A
  8
PATH
 10
87.899919090195894
 20
-122.3390745561991935
 30
0.0
  0
SEQEND
  5
22A6B
  8
PATH
  0
POLYLINE
  5
20A3C
  8
PATH
 66
     1
 10
0.0
 20
0.0
 30
0.0
  0
VERTEX
  5
22A6C
  8
PATH
 10
87.899919090195894
 20
-122.3390745561991935
 30
0.0
  0
VERTEX
  5
22A6D
  8
PATH
 10
132.2678775497915922
 20
-98.6940834074703162
 30
0.0
  0
SEQEND
  5
22A6E
  8
PATH
  0
POLYLINE
  5
20A3D
  8
PATH
 66
     1
 10
0.0
 20
0.0
 30
0.0
  0
VERTEX
  5
22A6F
  8
PATH
 10
132.2678775497915922
 20
-98.6940834074703162
 30
0.0
  0
VERTEX
  5
22A70
  8
PATH
 10
151.5528641422716021
 20
-88.4165463488971
 30
0.0
  0
SEQEND
  5
22A71
  8
PATH
  0
POLYLINE
  5
20A3E
  8
PATH
 66
     1
 10
0.0
 20
0.0
 30
0.0
  0
VERTEX
  5
22A72
  8
PATH
 10
72.2597196684655501
 20
-130.6741972378877108
 30
0.0
  0
VERTEX
  5
22A73
  8
PATH
 10
73.5119391395565032
 20
-139.2100473679093113
 30
0.0
  0
VERTEX
  5
22A74
  8
PATH
 10
94.0120804752077532
 20
-197.6746234720995119
 30
0.0
  0
SEQEND
  5
22A75
  8
PATH
  0
POLYLINE
  5
20A3F
  8
PATH
 66
     1
 10
0.0
 20
0.0
 30
0.0
  0
VERTEX
  5
22A76
  8
PATH
 10
50.5116581896290882
 20
-207.3048561172981863
 30
0.0
  0
VERTEX
  5
22A77
  8
PATH
 10
94.0120804752077532
 20
-197.6746234720995119
 30
0.0
  0
SEQEND
  5
22A78
  8
PATH
  0
POLYLINE
  5
20A40
  8
PATH
 66
     1
 10
0.0
 20
0.0
 30
0.0
  0
VERTEX
  5
22A79
  8
PATH
 10
94.0120804752077532
 20
-197.6746234720995119
 30
0.0
  0
VERTEX
  5
22A7A
  8
PATH
 10
96.2695304340886651
 20
-208.7818412449632888
 30
0.0
  0
VERTEX
  5
22A7B
  8
PATH
 10
150.8390622207516003
 20
-249.6916187926616999
 30
0.0
  0
SEQEND
  5
22A7C
  8
PATH
  0
POLYLINE
  5
20A41
  8
PATH
 66
     1
 10
0.0
 20
0.0
 30
0.0
  0
VERTEX
  5
22A7D
  8
PATH
 10
-570.6852246885682689
 20
-827.5036781466988032
 30
0.0
  0
VERTEX
  5
22A7E
  8
PATH
 10
-576.2221059771400178
 20
-855.910576794245344
 30
0.0
  0
VERTEX
  5
22A7F
  8
PATH
 10
-574.4823354169055847
 20
-869.9224331727673416
 30
0.0
  0
VERTEX
  5
22A80
  8
PATH
 10
-441.8794540102971951
 20
-1013.6074139372869922
 30
0.0
  0
SEQEND
  5
22A81
  8
PATH
  0
POLYLINE
  5
20A42
  8
PATH
 66
     1
 10
0.0
 20
0.0
 30
0.0
  0
VERTEX
  5
22A82
  8
PATH
 10
-475.5272335027257213
 20
-789.5629295953038991
 30
0.0
  0
VERTEX
  5
22A83
  8
PATH
 10
-441.7752865877263844
 20
-837.2632453538900563
 30
0.0
  0
VERTEX
  5
22A84
  8
PATH
 10
-359.1506640238367254
 20
-946.3880882746958605
 30
0.0
  0
VERTEX
  5
22A85
  8
PATH
 10
-319.8799729278106838
 20
-1014.9251108252859694
 30
0.0
  0
SEQEND
  5
22A86
  8
PATH
  0
POLYLINE
  5
20A43
  8
PATH
 66
     1
 10
0.0
 20
0.0
 30
0.0
  0
VERTEX
  5
22A87
  8
PATH
 10
429.5631381142156897
 20
-275.6283221467820113
 30
0.0
  0
VERTEX
  5
22A88
  8
PATH
 10
284.0126753907970851
 20
-340.7652276865629233
 30
0.0
  0
SEQEND
  5
22A89
  8
PATH
  0
POLYLINE
  5
20A44
  8
PATH
 66
     1
 10
0.0
 20
0.0
 30
0.0
  0
VERTEX
  5
22A8A
  8
PATH
 10
284.0121548898605965
 20
-340.7642069346692892
 30
0.0
  0
VERTEX
  5
22A8B
  8
PATH
 10
263.4671410143928938
 20
-342.116082304106385
 30
0.0
  0
VERTEX
  5
22A8C
  8
PATH
 10
135.2785445314221136
 20
-293.1329365805212888
 30
0.0
  0
VERTEX
  5
22A8D
  8
PATH
 10
135.2785445314221136
 20
-293.1329365805212888
 30
0.0
  0
SEQEND
  5
22A8E
  8
PATH
  0
POLYLINE
  5
20A45
  8
PATH
 66
     1
 10
0.0
 20
0.0
 30
0.0
  0
VERTEX
  5
22A8F
  8
PATH
 10
-316.4519323448911905
 20
291.0343692456880831
 30
0.0
  0
VERTEX
  5
22A90
  8
PATH
 10
-309.6432844854571727
 20
262.3442990091206752
 30
0.0
  0
SEQEND
  5
22A91
  8
PATH
  0
POLYLINE
  5
20A46
  8
PATH
 66
     1
 10
0.0
 20
0.0
 30
0.0
  0
VERTEX
  5
22A92
  8
PATH
 10
-302.7662799314858262
 20
297.7430229108358049
 30
0.0
  0
VERTEX
  5
22A93
  8
PATH
 10
-268.0402415004355134
 20
254.3299660874108099
 30
0.0
  0
VERTEX
  5
22A94
  8
PATH
 10
-250.015390502012508
 20
221.7484356249260031
 30
0.0
  0
SEQEND
  5
22A95
  8
PATH
  0
POLYLINE
  5
20A47
  8
PATH
 66
     1
 10
0.0
 20
0.0
 30
0.0
  0
VERTEX
  5
22A96
  8
PATH
 10
-250.015390502012508
 20
221.7484356249260031
 30
0.0
  0
VERTEX
  5
22A97
  8
PATH
 10
-225.0910752075870107
 20
182.9745800989257134
 30
0.0
  0
SEQEND
  5
22A98
  8
PATH
  0
POLYLINE
  5
20A48
  8
PATH
 66
     1
 10
0.0
 20
0.0
 30
0.0
  0
VERTEX
  5
22A99
  8
PATH
 10
-201.6784021975618089
 20
94.239223373173445
 30
0.0
  0
VERTEX
  5
22A9A
  8
PATH
 10
-178.1678435587234901
 20
106.9754578993233025
 30
0.0
  0
SEQEND
  5
22A9B
  8
PATH
  0
POLYLINE
  5
20A49
  8
PATH
 66
     1
 10
0.0
 20
0.0
 30
0.0
  0
VERTEX
  5
22A9C
  8
PATH
 10
-201.6784021975618089
 20
94.239223373173445
 30
0.0
  0
VERTEX
  5
22A9D
  8
PATH
 10
-186.3247248858824037
 20
81.9939430766316946
 30
0.0
  0
VERTEX
  5
22A9E
  8
PATH
 10
-170.4322459695538896
 20
49.4259266802619166
 30
0.0
  0
VERTEX
  5
22A9F
  8
PATH
 10
-151.4777686381858075
 20
8.6025537564928491
 30
0.0
  0
VERTEX
  5
22AA0
  8
PATH
 10
-138.648124002400408
 20
-22.5281905978408794
 30
0.0
  0
VERTEX
  5
22AA1
  8
PATH
 10
-115.4275189163308966
 20
-87.8843580991451461
 30
0.0
  0
VERTEX
  5
22AA2
  8
PATH
 10
-105.2417170220433036
 20
-94.7669010660101634
 30
0.0
  0
SEQEND
  5
22AA3
  8
PATH
  0
POLYLINE
  5
20A4A
  8
PATH
 66
     1
 10
0.0
 20
0.0
 30
0.0
  0
VERTEX
  5
22AA4
  8
PATH
 10
-96.3344992295169646
 20
-130.9237188393670976
 30
0.0
  0
VERTEX
  5
22AA5
  8
PATH
 10
-104.0224031758989014
 20
-143.078916647420499
 30
0.0
  0
VERTEX
  5
22AA6
  8
PATH
 10
-84.5247143387823314
 20
-222.7336270459418017
 30
0.0
  0
VERTEX
  5
22AA7
  8
PATH
 10
-78.9262915158324176
 20
-276.8403093865563278
 30
0.0
  0
SEQEND
  5
22AA8
  8
PATH
  0
POLYLINE
  5
20A4B
  8
PATH
 66
     1
 10
0.0
 20
0.0
 30
0.0
  0
VERTEX
  5
22AA9
  8
PATH
 10
1.7138292729941891
 20
-31.5727848070164399
 30
0.0
  0
VERTEX
  5
22AAA
  8
PATH
 10
-44.167176507253302
 20
-65.0062376195055549
 30
0.0
  0
SEQEND
  5
22AAB
  8
PATH
  0
POLYLINE
  5
20A4C
  8
PATH
 66
     1
 10
0.0
 20
0.0
 30
0.0
  0
VERTEX
  5
22AAC
  8
PATH
 10
-44.167176507253302
 20
-65.0062376195055549
 30
0.0
  0
VERTEX
  5
22AAD
  8
PATH
 10
-81.0806592200679006
 20
-91.9050634283994441
 30
0.0
  0
VERTEX
  5
22AAE
  8
PATH
 10
-87.0317795977025668
 20
-106.0589343546379979
 30
0.0
  0
SEQEND
  5
22AAF
  8
PATH
  0
POLYLINE
  5
20A4D
  8
PATH
 66
     1
 10
0.0
 20
0.0
 30
0.0
  0
VERTEX
  5
22AB0
  8
PATH
 10
-125.1701132222806052
 20
-3.7288191606712631
 30
0.0
  0
VERTEX
  5
22AB1
  8
PATH
 10
-110.0193201954971016
 20
-45.6628560847093325
 30
0.0
  0
SEQEND
  5
22AB2
  8
PATH
  0
POLYLINE
  5
20A4E
  8
PATH
 66
     1
 10
0.0
 20
0.0
 30
0.0
  0
VERTEX
  5
22AB3
  8
PATH
 10
-110.0193201954971016
 20
-45.6628560847093325
 30
0.0
  0
VERTEX
  5
22AB4
  8
PATH
 10
-103.1588886644021983
 20
-62.8350927377541666
 30
0.0
  0
SEQEND
  5
22AB5
  8
PATH
  0
POLYLINE
  5
20A4F
  8
PATH
 66
     1
 10
0.0
 20
0.0
 30
0.0
  0
VERTEX
  5
22AB6
  8
PATH
 10
-103.1588886644021983
 20
-62.8350927377541666
 30
0.0
  0
VERTEX
  5
22AB7
  8
PATH
 10
-105.2417170220433036
 20
-94.7669010660101634
 30
0.0
  0
SEQEND
  5
22AB8
  8
PATH
  0
POLYLINE
  5
20A50
  8
PATH
 66
     1
 10
0.0
 20
0.0
 30
0.0
  0
VERTEX
  5
22AB9
  8
PATH
 10
-201.6784021975618089
 20
94.239223373173445
 30
0.0
  0
VERTEX
  5
22ABA
  8
PATH
 10
-201.5353975587204047
 20
75.591669453824565
 30
0.0
  0
VERTEX
  5
22ABB
  8
PATH
 10
-166.3480397085803872
 20
-0.969248937391967
 30
0.0
  0
VERTEX
  5
22ABC
  8
PATH
 10
-151.3801581164734102
 20
-35.2526376223613624
 30
0.0
  0
VERTEX
  5
22ABD
  8
PATH
 10
-137.1980272929212958
 20
-56.7529497811992911
 30
0.0
  0
VERTEX
  5
22ABE
  8
PATH
 10
-126.1769356649747067
 20
-91.638143972442748
 30
0.0
  0
VERTEX
  5
22ABF
  8
PATH
 10
-105.2417170220433036
 20
-94.7669010660101634
 30
0.0
  0
SEQEND
  5
22AC0
  8
PATH
  0
POLYLINE
  5
20A51
  8
PATH
 66
     1
 10
0.0
 20
0.0
 30
0.0
  0
VERTEX
  5
22AC1
  8
PATH
 10
-105.2417170220433036
 20
-94.7669010660101634
 30
0.0
  0
VERTEX
  5
22AC2
  8
PATH
 10
-101.2322706369595977
 20
-111.9721137182277033
 30
0.0
  0
SEQEND
  5
22AC3
  8
PATH
  0
POLYLINE
  5
20A52
  8
PATH
 66
     1
 10
0.0
 20
0.0
 30
0.0
  0
VERTEX
  5
22AC4
  8
PATH
 10
-114.4334467006993066
 20
-118.2206641057928067
 30
0.0
  0
VERTEX
  5
22AC5
  8
PATH
 10
-101.2322706369595977
 20
-111.9721137182277033
 30
0.0
  0
SEQEND
  5
22AC6
  8
PATH
  0
POLYLINE
  5
20A53
  8
PATH
 66
     1
 10
0.0
 20
0.0
 30
0.0
  0
VERTEX
  5
22AC7
  8
PATH
 10
-101.2322706369595977
 20
-111.9721137182277033
 30
0.0
  0
VERTEX
  5
22AC8
  8
PATH
 10
-96.3344992295169646
 20
-130.9237188393670976
 30
0.0
  0
SEQEND
  5
22AC9
  8
PATH
  0
POLYLINE
  5
20A54
  8
PATH
 66
     1
 10
0.0
 20
0.0
 30
0.0
  0
VERTEX
  5
22ACA
  8
PATH
 10
-101.2322706369595977
 20
-111.9721137182277033
 30
0.0
  0
VERTEX
  5
22ACB
  8
PATH
 10
-87.0317795977025668
 20
-106.0589343546379979
 30
0.0
  0
SEQEND
  5
22ACC
  8
PATH
  0
POLYLINE
  5
20A55
  8
PATH
 66
     1
 10
0.0
 20
0.0
 30
0.0
  0
VERTEX
  5
22ACD
  8
PATH
 10
-269.9501220400125021
 20
439.2634992232124205
 30
0.0
  0
VERTEX
  5
22ACE
  8
PATH
 10
-278.5046799532282762
 20
452.5488997158171856
 30
0.0
  0
SEQEND
  5
22ACF
  8
PATH
  0
POLYLINE
  5
20A56
  8
PATH
 66
     1
 10
0.0
 20
0.0
 30
0.0
  0
VERTEX
  5
22AD0
  8
PATH
 10
-684.5948646901669008
 20
526.4392412738452549
 30
0.0
  0
VERTEX
  5
22AD1
  8
PATH
 10
-574.5319217653159285
 20
385.778263736101394
 30
0.0
  0
SEQEND
  5
22AD2
  8
PATH
  0
POLYLINE
  5
20A57
  8
PATH
 66
     1
 10
0.0
 20
0.0
 30
0.0
  0
VERTEX
  5
22AD3
  8
PATH
 10
-661.6739247369839632
 20
497.1461682902225903
 30
0.0
  0
VERTEX
  5
22AD4
  8
PATH
 10
-597.105872451691539
 20
548.2580936397935147
 30
0.0
  0
SEQEND
  5
22AD5
  8
PATH
  0
POLYLINE
  5
20A58
  8
PATH
 66
     1
 10
0.0
 20
0.0
 30
0.0
  0
VERTEX
  5
22AD6
  8
PATH
 10
-614.9668300551275024
 20
575.3706160570072825
 30
0.0
  0
VERTEX
  5
22AD7
  8
PATH
 10
-603.9452636242639301
 20
558.6401319718496552
 30
0.0
  0
SEQEND
  5
22AD8
  8
PATH
  0
POLYLINE
  5
20A59
  8
PATH
 66
     1
 10
0.0
 20
0.0
 30
0.0
  0
VERTEX
  5
22AD9
  8
PATH
 10
-603.9452636242639301
 20
558.6401319718496552
 30
0.0
  0
VERTEX
  5
22ADA
  8
PATH
 10
-597.105872451691539
 20
548.2580936397935147
 30
0.0
  0
SEQEND
  5
22ADB
  8
PATH
  0
POLYLINE
  5
20A5A
  8
PATH
 66
     1
 10
0.0
 20
0.0
 30
0.0
  0
VERTEX
  5
22ADC
  8
PATH
 10
-597.105872451691539
 20
548.2580936397935147
 30
0.0
  0
VERTEX
  5
22ADD
  8
PATH
 10
-540.3869708988495404
 20
465.1414334630169947
 30
0.0
  0
SEQEND
  5
22ADE
  8
PATH
  0
POLYLINE
  5
20A5B
  8
PATH
 66
     1
 10
0.0
 20
0.0
 30
0.0
  0
VERTEX
  5
22ADF
  8
PATH
 10
-540.3869708988495404
 20
465.1414334630169947
 30
0.0
  0
VERTEX
  5
22AE0
  8
PATH
 10
-477.0599577629616874
 20
504.1518623782831128
 30
0.0
  0
SEQEND
  5
22AE1
  8
PATH
  0
POLYLINE
  5
20A5C
  8
PATH
 66
     1
 10
0.0
 20
0.0
 30
0.0
  0
VERTEX
  5
22AE2
  8
PATH
 10
-477.0599577629616874
 20
504.1518623782831128
 30
0.0
  0
VERTEX
  5
22AE3
  8
PATH
 10
-476.0947930972470203
 20
497.4596298155883005
 30
0.0
  0
VERTEX
  5
22AE4
  8
PATH
 10
-475.8353961542160278
 20
493.0799118639479275
 30
0.0
  0
VERTEX
  5
22AE5
  8
PATH
 10
-477.4356514664395945
 20
487.1944332863711793
 30
0.0
  0
VERTEX
  5
22AE6
  8
PATH
 10
-480.4925418142373132
 20
482.2824252397330156
 30
0.0
  0
VERTEX
  5
22AE7
  8
PATH
 10
-487.405725749107603
 20
476.3150321222419166
 30
0.0
  0
VERTEX
  5
22AE8
  8
PATH
 10
-527.2054454404424177
 20
443.2579990518788122
 30
0.0
  0
SEQEND
  5
22AE9
  8
PATH
  0
POLYLINE
  5
20A5D
  8
PATH
 66
     1
 10
0.0
 20
0.0
 30
0.0
  0
VERTEX
  5
22AEA
  8
PATH
 10
-540.3869708988495404
 20
465.1414334630169947
 30
0.0
  0
VERTEX
  5
22AEB
  8
PATH
 10
-527.2054454404424177
 20
443.2579990518788122
 30
0.0
  0
SEQEND
  5
22AEC
  8
PATH
  0
POLYLINE
  5
20A5E
  8
PATH
 66
     1
 10
0.0
 20
0.0
 30
0.0
  0
VERTEX
  5
22AED
  8
PATH
 10
-527.2054454404424177
 20
443.2579990518788122
 30
0.0
  0
VERTEX
  5
22AEE
  8
PATH
 10
-517.1541172600846039
 20
427.7241415423849276
 30
0.0
  0
SEQEND
  5
22AEF
  8
PATH
  0
POLYLINE
  5
20A5F
  8
PATH
 66
     1
 10
0.0
 20
0.0
 30
0.0
  0
VERTEX
  5
22AF0
  8
PATH
 10
-477.0599577629616874
 20
504.1518623782831128
 30
0.0
  0
VERTEX
  5
22AF1
  8
PATH
 10
-476.2733339792027891
 20
513.8235915452752351
 30
0.0
  0
VERTEX
  5
22AF2
  8
PATH
 10
-474.7667884827968123
 20
520.6144921388985267
 30
0.0
  0
VERTEX
  5
22AF3
  8
PATH
 10
-471.7923702027910053
 20
527.0483966633255477
 30
0.0
  0
VERTEX
  5
22AF4
  8
PATH
 10
-470.1963328152924078
 20
529.4009942366319592
 30
0.0
  0
SEQEND
  5
22AF5
  8
PATH
  0
POLYLINE
  5
20A60
  8
PATH
 66
     1
 10
0.0
 20
0.0
 30
0.0
  0
VERTEX
  5
22AF6
  8
PATH
 10
-468.7469590752879185
 20
531.5374060590329464
 30
0.0
  0
VERTEX
  5
22AF7
  8
PATH
 10
-464.6202351199025884
 20
535.8564485759052332
 30
0.0
  0
VERTEX
  5
22AF8
  8
PATH
 10
-455.6201401083525866
 20
542.0541023021141882
 30
0.0
  0
SEQEND
  5
22AF9
  8
PATH
  0
POLYLINE
  5
20A61
  8
PATH
 66
     1
 10
0.0
 20
0.0
 30
0.0
  0
VERTEX
  5
22AFA
  8
PATH
 10
-706.2565245375881204
 20
430.2944818093017716
 30
0.0
  0
VERTEX
  5
22AFB
  8
PATH
 10
-696.5956799623819506
 20
436.7974665118888993
 30
0.0
  0
SEQEND
  5
22AFC
  8
PATH
  0
POLYLINE
  5
20A62
  8
PATH
 66
     1
 10
0.0
 20
0.0
 30
0.0
  0
VERTEX
  5
22AFD
  8
PATH
 10
-691.5873878016282106
 20
411.4534010286951116
 30
0.0
  0
VERTEX
  5
22AFE
  8
PATH
 10
-681.9551380602206336
 20
419.2512394004078828
 30
0.0
  0
SEQEND
  5
22AFF
  8
PATH
  0
POLYLINE
  5
20A63
  8
PATH
 66
     1
 10
0.0
 20
0.0
 30
0.0
  0
VERTEX
  5
22B00
  8
PATH
 10
-696.5956799623819506
 20
436.7974665118888993
 30
0.0
  0
VERTEX
  5
22B01
  8
PATH
 10
-681.9551380602206336
 20
419.2512394004078828
 30
0.0
  0
SEQEND
  5
22B02
  8
PATH
  0
POLYLINE
  5
20A64
  8
PATH
 66
     1
 10
0.0
 20
0.0
 30
0.0
  0
VERTEX
  5
22B03
  8
PATH
 10
-681.9551380602206336
 20
419.2512394004078828
 30
0.0
  0
VERTEX
  5
22B04
  8
PATH
 10
-672.4305839518929133
 20
406.77603494287888
 30
0.0
  0
VERTEX
  5
22B05
  8
PATH
 10
-670.5651363621725523
 20
405.5725551797585808
 30
0.0
  0
VERTEX
  5
22B06
  8
PATH
 10
-667.8446726117542767
 20
405.4949100786398049
 30
0.0
  0
VERTEX
  5
22B07
  8
PATH
 10
-661.3645706719980808
 20
409.1785701835104874
 30
0.0
  0
SEQEND
  5
22B08
  8
PATH
  0
POLYLINE
  5
20A65
  8
PATH
 66
     1
 10
0.0
 20
0.0
 30
0.0
  0
VERTEX
  5
22B09
  8
PATH
 10
-696.5956799623819506
 20
436.7974665118888993
 30
0.0
  0
VERTEX
  5
22B0A
  8
PATH
 10
-718.2376921913380556
 20
464.5167485694910283
 30
0.0
  0
VERTEX
  5
22B0B
  8
PATH
 10
-718.7076858540095827
 20
467.3760173139672247
 30
0.0
  0
VERTEX
  5
22B0C
  8
PATH
 10
-718.3909299593213973
 20
470.5497231772678219
 30
0.0
  0
VERTEX
  5
22B0D
  8
PATH
 10
-678.7041635662460521
 20
501.3174263085747953
 30
0.0
  0
VERTEX
  5
22B0E
  8
PATH
 10
-676.2748225002577556
 20
502.1130782096224152
 30
0.0
  0
VERTEX
  5
22B0F
  8
PATH
 10
-673.2480976114893565
 20
501.7152483985336744
 30
0.0
  0
VERTEX
  5
22B10
  8
PATH
 10
-605.0810142831903704
 20
414.4372678651051274
 30
0.0
  0
VERTEX
  5
22B11
  8
PATH
 10
-574.5319217653159285
 20
385.778263736101394
 30
0.0
  0
SEQEND
  5
22B12
  8
PATH
  0
POLYLINE
  5
20A66
  8
PATH
 66
     1
 10
0.0
 20
0.0
 30
0.0
  0
VERTEX
  5
22B13
  8
PATH
 10
-434.6036215183701756
 20
502.3103598566303276
 30
0.0
  0
VERTEX
  5
22B14
  8
PATH
 10
-424.8815491410351228
 20
506.3448537989096963
 30
0.0
  0
VERTEX
  5
22B15
  8
PATH
 10
-407.2144823548877071
 20
517.9899227605708347
 30
0.0
  0
SEQEND
  5
22B16
  8
PATH
  0
POLYLINE
  5
20A67
  8
PATH
 66
     1
 10
0.0
 20
0.0
 30
0.0
  0
VERTEX
  5
22B17
  8
PATH
 10
-407.2144823548877071
 20
517.9899227605708347
 30
0.0
  0
VERTEX
  5
22B18
  8
PATH
 10
-342.1991991772811161
 20
558.0599982119673541
 30
0.0
  0
SEQEND
  5
22B19
  8
PATH
  0
POLYLINE
  5
20A68
  8
PATH
 66
     1
 10
0.0
 20
0.0
 30
0.0
  0
VERTEX
  5
22B1A
  8
PATH
 10
-342.1991991772811161
 20
558.0599982119673541
 30
0.0
  0
VERTEX
  5
22B1B
  8
PATH
 10
-338.8382580912002027
 20
555.4978256887335419
 30
0.0
  0
VERTEX
  5
22B1C
  8
PATH
 10
-304.4980592655629152
 20
546.0045173508623293
 30
0.0
  0
VERTEX
  5
22B1D
  8
PATH
 10
-299.9943227965413826
 20
541.0057385685432791
 30
0.0
  0
VERTEX
  5
22B1E
  8
PATH
 10
-260.6470120707672891
 20
484.4784169695848277
 30
0.0
  0
SEQEND
  5
22B1F
  8
PATH
  0
POLYLINE
  5
20A69
  8
PATH
 66
     1
 10
0.0
 20
0.0
 30
0.0
  0
VERTEX
  5
22B20
  8
PATH
 10
-342.1991991772811161
 20
558.0599982119673541
 30
0.0
  0
VERTEX
  5
22B21
  8
PATH
 10
-345.793773972560416
 20
563.4796370664189453
 30
0.0
  0
VERTEX
  5
22B22
  8
PATH
 10
-385.1610664005419835
 20
607.121138159702241
 30
0.0
  0
VERTEX
  5
22B23
  8
PATH
 10
-391.6579211423086235
 20
608.4761041137899156
 30
0.0
  0
VERTEX
  5
22B24
  8
PATH
 10
-398.9873661221499788
 20
607.9859139230609344
 30
0.0
  0
VERTEX
  5
22B25
  8
PATH
 10
-406.7166706073476234
 20
605.9304843494245461
 30
0.0
  0
VERTEX
  5
22B26
  8
PATH
 10
-412.3623108693425934
 20
602.5155513627032633
 30
0.0
  0
VERTEX
  5
22B27
  8
PATH
 10
-428.6390650422108024
 20
590.0715438970871674
 30
0.0
  0
VERTEX
  5
22B28
  8
PATH
 10
-432.6517026371582801
 20
585.5927255661736126
 30
0.0
  0
VERTEX
  5
22B29
  8
PATH
 10
-434.6567769236424965
 20
580.0420466107825632
 30
0.0
  0
VERTEX
  5
22B2A
  8
PATH
 10
-434.8897790900227278
 20
574.5025237822483177
 30
0.0
  0
VERTEX
  5
22B2B
  8
PATH
 10
-432.5547608079069164
 20
567.5912219407543944
 30
0.0
  0
VERTEX
  5
22B2C
  8
PATH
 10
-424.9345832141843857
 20
549.4313244717702673
 30
0.0
  0
VERTEX
  5
22B2D
  8
PATH
 10
-413.3739310849484809
 20
527.9846157664942439
 30
0.0
  0
VERTEX
  5
22B2E
  8
PATH
 10
-407.2144823548877071
 20
517.9899227605708347
 30
0.0
  0
SEQEND
  5
22B2F
  8
PATH
  0
POLYLINE
  5
20A6A
  8
PATH
 66
     1
 10
0.0
 20
0.0
 30
0.0
  0
VERTEX
  5
22B30
  8
PATH
 10
-342.1991991772811161
 20
558.0599982119673541
 30
0.0
  0
VERTEX
  5
22B31
  8
PATH
 10
-325.1617070950596826
 20
569.3601127137005733
 30
0.0
  0
VERTEX
  5
22B32
  8
PATH
 10
-306.5022839508746983
 20
589.8768352391705321
 30
0.0
  0
SEQEND
  5
22B33
  8
PATH
  0
POLYLINE
  5
20A6B
  8
PATH
 66
     1
 10
0.0
 20
0.0
 30
0.0
  0
VERTEX
  5
22B34
  8
PATH
 10
-278.5046799532282762
 20
452.5488997158171856
 30
0.0
  0
VERTEX
  5
22B35
  8
PATH
 10
-275.7375395377310952
 20
455.9895657864908003
 30
0.0
  0
VERTEX
  5
22B36
  8
PATH
 10
-208.2378690752811963
 20
490.5286329705775756
 30
0.0
  0
VERTEX
  5
22B37
  8
PATH
 10
-202.2257296308671926
 20
483.5583773665638887
 30
0.0
  0
VERTEX
  5
22B38
  8
PATH
 10
-193.6700141616310873
 20
467.461058656735986
 30
0.0
  0
VERTEX
  5
22B39
  8
PATH
 10
-180.5210317353630103
 20
448.3482580767520744
 30
0.0
  0
VERTEX
  5
22B3A
  8
PATH
 10
-171.4521505414886065
 20
436.8015660988675108
 30
0.0
  0
VERTEX
  5
22B3B
  8
PATH
 10
-170.5674704411212019
 20
430.7749335608023102
 30
0.0
  0
VERTEX
  5
22B3C
  8
PATH
 10
-171.2048272120445915
 20
424.823583649522277
 30
0.0
  0
VERTEX
  5
22B3D
  8
PATH
 10
-174.0729048189386106
 20
418.8222125974061214
 30
0.0
  0
VERTEX
  5
22B3E
  8
PATH
 10
-225.9820366637578104
 20
370.9801783264193205
 30
0.0
  0
SEQEND
  5
22B3F
  8
PATH
  0
POLYLINE
  5
20A6C
  8
PATH
 66
     1
 10
0.0
 20
0.0
 30
0.0
  0
VERTEX
  5
22B40
  8
PATH
 10
-181.0843736248934022
 20
378.2234571385707795
 30
0.0
  0
VERTEX
  5
22B41
  8
PATH
 10
-164.4739919910352057
 20
351.2094655316832927
 30
0.0
  0
SEQEND
  5
22B42
  8
PATH
  0
POLYLINE
  5
20A6D
  8
PATH
 66
     1
 10
0.0
 20
0.0
 30
0.0
  0
VERTEX
  5
22B43
  8
PATH
 10
-164.4739919910352057
 20
351.2094655316832927
 30
0.0
  0
VERTEX
  5
22B44
  8
PATH
 10
-168.3750508221710049
 20
348.3117136150175952
 30
0.0
  0
VERTEX
  5
22B45
  8
PATH
 10
-190.9938989042566106
 20
315.9797488004480215
 30
0.0
  0
SEQEND
  5
22B46
  8
PATH
  0
POLYLINE
  5
20A6E
  8
PATH
 66
     1
 10
0.0
 20
0.0
 30
0.0
  0
VERTEX
  5
22B47
  8
PATH
 10
-164.4739919910352057
 20
351.2094655316832927
 30
0.0
  0
VERTEX
  5
22B48
  8
PATH
 10
-157.7839284342626058
 20
353.5381931989031727
 30
0.0
  0
VERTEX
  5
22B49
  8
PATH
 10
-116.7676900182996036
 20
346.2138830377297722
 30
0.0
  0
SEQEND
  5
22B4A
  8
PATH
  0
POLYLINE
  5
20A6F
  8
PATH
 66
     1
 10
0.0
 20
0.0
 30
0.0
  0
VERTEX
  5
22B4B
  8
PATH
 10
-116.7676900182996036
 20
346.2138830377297722
 30
0.0
  0
VERTEX
  5
22B4C
  8
PATH
 10
-112.8320820777007043
 20
348.5727129471998182
 30
0.0
  0
VERTEX
  5
22B4D
  8
PATH
 10
-78.0344848666136386
 20
357.0280534606936271
 30
0.0
  0
SEQEND
  5
22B4E
  8
PATH
  0
POLYLINE
  5
20A70
  8
PATH
 66
     1
 10
0.0
 20
0.0
 30
0.0
  0
VERTEX
  5
22B4F
  8
PATH
 10
-116.7676900182996036
 20
346.2138830377297722
 30
0.0
  0
VERTEX
  5
22B50
  8
PATH
 10
-105.4205179510317976
 20
338.2762174974703839
 30
0.0
  0
VERTEX
  5
22B51
  8
PATH
 10
-98.1904109483729854
 20
326.0931012770669781
 30
0.0
  0
SEQEND
  5
22B52
  8
PATH
  0
POLYLINE
  5
20A71
  8
PATH
 66
     1
 10
0.0
 20
0.0
 30
0.0
  0
VERTEX
  5
22B53
  8
PATH
 10
-98.1904109483729854
 20
326.0931012770669781
 30
0.0
  0
VERTEX
  5
22B54
  8
PATH
 10
-69.9546545978082577
 20
340.2630009754138882
 30
0.0
  0
SEQEND
  5
22B55
  8
PATH
  0
POLYLINE
  5
20A72
  8
PATH
 66
     1
 10
0.0
 20
0.0
 30
0.0
  0
VERTEX
  5
22B56
  8
PATH
 10
-98.1904109483729854
 20
326.0931012770669781
 30
0.0
  0
VERTEX
  5
22B57
  8
PATH
 10
-90.1519471903011151
 20
310.0636114427397843
 30
0.0
  0
SEQEND
  5
22B58
  8
PATH
  0
POLYLINE
  5
20A73
  8
PATH
 66
     1
 10
0.0
 20
0.0
 30
0.0
  0
VERTEX
  5
22B59
  8
PATH
 10
-165.3140606243541129
 20
275.4154774710113998
 30
0.0
  0
VERTEX
  5
22B5A
  8
PATH
 10
-237.6157198656729008
 20
229.6049078181895027
 30
0.0
  0
SEQEND
  5
22B5B
  8
PATH
  0
POLYLINE
  5
20A74
  8
PATH
 66
     1
 10
0.0
 20
0.0
 30
0.0
  0
VERTEX
  5
22B5C
  8
PATH
 10
-237.6157198656729008
 20
229.6049078181895027
 30
0.0
  0
VERTEX
  5
22B5D
  8
PATH
 10
-231.9792926995579023
 20
224.3767142822543974
 30
0.0
  0
VERTEX
  5
22B5E
  8
PATH
 10
-215.6568445431913119
 20
212.4891929687510128
 30
0.0
  0
VERTEX
  5
22B5F
  8
PATH
 10
-205.0172052044800068
 20
195.6826534462670111
 30
0.0
  0
SEQEND
  5
22B60
  8
PATH
  0
POLYLINE
  5
20A75
  8
PATH
 66
     1
 10
0.0
 20
0.0
 30
0.0
  0
VERTEX
  5
22B61
  8
PATH
 10
-237.6157198656729008
 20
229.6049078181895027
 30
0.0
  0
VERTEX
  5
22B62
  8
PATH
 10
-250.015390502012508
 20
221.7484356249260031
 30
0.0
  0
SEQEND
  5
22B63
  8
PATH
  0
POLYLINE
  5
20A76
  8
PATH
 66
     1
 10
0.0
 20
0.0
 30
0.0
  0
VERTEX
  5
22B64
  8
PATH
 10
-120.9880068529892014
 20
205.3973545935513982
 30
0.0
  0
VERTEX
  5
22B65
  8
PATH
 10
-130.8145777954630944
 20
198.5752788945609097
 30
0.0
  0
SEQEND
  5
22B66
  8
PATH
  0
POLYLINE
  5
20A77
  8
PATH
 66
     1
 10
0.0
 20
0.0
 30
0.0
  0
VERTEX
  5
22B67
  8
PATH
 10
-130.8145777954630944
 20
198.5752788945609097
 30
0.0
  0
VERTEX
  5
22B68
  8
PATH
 10
-107.4150789064151041
 20
162.0636526123197996
 30
0.0
  0
VERTEX
  5
22B69
  8
PATH
 10
-105.0851129671355011
 20
156.2735454105350072
 30
0.0
  0
VERTEX
  5
22B6A
  8
PATH
 10
-104.8437707200792062
 20
150.9991601040165108
 30
0.0
  0
VERTEX
  5
22B6B
  8
PATH
 10
-106.1953838927002067
 20
144.8170983950184905
 30
0.0
  0
VERTEX
  5
22B6C
  8
PATH
 10
-109.3009773399825946
 20
139.6693525026130089
 30
0.0
  0
VERTEX
  5
22B6D
  8
PATH
 10
-113.9141564719173942
 20
135.4939885507847066
 30
0.0
  0
VERTEX
  5
22B6E
  8
PATH
 10
-160.8717643822456012
 20
109.1672115210021019
 30
0.0
  0
VERTEX
  5
22B6F
  8
PATH
 10
-164.5687048455147021
 20
107.7653997503730068
 30
0.0
  0
VERTEX
  5
22B70
  8
PATH
 10
-169.0501144168810868
 20
108.5618545837277935
 30
0.0
  0
VERTEX
  5
22B71
  8
PATH
 10
-173.1181234609248065
 20
112.5176011007788048
 30
0.0
  0
VERTEX
  5
22B72
  8
PATH
 10
-194.1647351198043907
 20
156.0267363633537911
 30
0.0
  0
VERTEX
  5
22B73
  8
PATH
 10
-197.0246398191227968
 20
166.4187112767758094
 30
0.0
  0
VERTEX
  5
22B74
  8
PATH
 10
-196.9280137613095008
 20
171.4731394462797027
 30
0.0
  0
VERTEX
  5
22B75
  8
PATH
 10
-193.7961184113082993
 20
177.5215592445383095
 30
0.0
  0
VERTEX
  5
22B76
  8
PATH
 10
-177.2362287137221131
 20
188.0708471313627967
 30
0.0
  0
VERTEX
  5
22B77
  8
PATH
 10
-170.1758024181617088
 20
191.8601395991209131
 30
0.0
  0
VERTEX
  5
22B78
  8
PATH
 10
-161.2325796789519075
 20
192.3640877265061135
 30
0.0
  0
VERTEX
  5
22B79
  8
PATH
 10
-153.2358910910116094
 20
190.2129702359015937
 30
0.0
  0
VERTEX
  5
22B7A
  8
PATH
 10
-144.3385295084007964
 20
191.633187686143998
 30
0.0
  0
VERTEX
  5
22B7B
  8
PATH
 10
-134.4780464870418086
 20
196.3061457914807875
 30
0.0
  0
VERTEX
  5
22B7C
  8
PATH
 10
-130.8145777954630944
 20
198.5752788945609097
 30
0.0
  0
SEQEND
  5
22B7D
  8
PATH
  0
POLYLINE
  5
20A78
  8
PATH
 66
     1
 10
0.0
 20
0.0
 30
0.0
  0
VERTEX
  5
22B7E
  8
PATH
 10
-62.8600876226701075
 20
98.8395392685706895
 30
0.0
  0
VERTEX
  5
22B7F
  8
PATH
 10
-87.639989785107872
 20
15.9823366413402201
 30
0.0
  0
SEQEND
  5
22B80
  8
PATH
  0
POLYLINE
  5
20A79
  8
PATH
 66
     1
 10
0.0
 20
0.0
 30
0.0
  0
VERTEX
  5
22B81
  8
PATH
 10
-154.4305958275363082
 20
62.633390712137043
 30
0.0
  0
VERTEX
  5
22B82
  8
PATH
 10
-142.9545962010888047
 20
66.6336544869045611
 30
0.0
  0
SEQEND
  5
22B83
  8
PATH
  0
POLYLINE
  5
20A7A
  8
PATH
 66
     1
 10
0.0
 20
0.0
 30
0.0
  0
VERTEX
  5
22B84
  8
PATH
 10
-142.9545962010888047
 20
66.6336544869045611
 30
0.0
  0
VERTEX
  5
22B85
  8
PATH
 10
-115.2222477087779993
 20
1.4958885959858881
 30
0.0
  0
SEQEND
  5
22B86
  8
PATH
  0
POLYLINE
  5
20A7B
  8
PATH
 66
     1
 10
0.0
 20
0.0
 30
0.0
  0
VERTEX
  5
22B87
  8
PATH
 10
-115.2222477087779993
 20
1.4958885959858881
 30
0.0
  0
VERTEX
  5
22B88
  8
PATH
 10
-111.145878767958493
 20
-1.5185330416497891
 30
0.0
  0
VERTEX
  5
22B89
  8
PATH
 10
-95.6591128598229119
 20
-38.4107866719787125
 30
0.0
  0
SEQEND
  5
22B8A
  8
PATH
  0
POLYLINE
  5
20A7C
  8
PATH
 66
     1
 10
0.0
 20
0.0
 30
0.0
  0
VERTEX
  5
22B8B
  8
PATH
 10
-95.6591128598229119
 20
-38.4107866719787125
 30
0.0
  0
VERTEX
  5
22B8C
  8
PATH
 10
-110.0193201954971016
 20
-45.6628560847093325
 30
0.0
  0
SEQEND
  5
22B8D
  8
PATH
  0
POLYLINE
  5
20A7D
  8
PATH
 66
     1
 10
0.0
 20
0.0
 30
0.0
  0
VERTEX
  5
22B8E
  8
PATH
 10
-95.6591128598229119
 20
-38.4107866719787125
 30
0.0
  0
VERTEX
  5
22B8F
  8
PATH
 10
-95.9787849965068744
 20
-45.1432276148771123
 30
0.0
  0
VERTEX
  5
22B90
  8
PATH
 10
-103.1588886644021983
 20
-62.8350927377541666
 30
0.0
  0
SEQEND
  5
22B91
  8
PATH
  0
POLYLINE
  5
20A7E
  8
PATH
 66
     1
 10
0.0
 20
0.0
 30
0.0
  0
VERTEX
  5
22B92
  8
PATH
 10
-95.6591128598229119
 20
-38.4107866719787125
 30
0.0
  0
VERTEX
  5
22B93
  8
PATH
 10
-87.7940823836979547
 20
-51.6858599865299624
 30
0.0
  0
VERTEX
  5
22B94
  8
PATH
 10
-84.7463308326114344
 20
-56.3558997413565521
 30
0.0
  0
VERTEX
  5
22B95
  8
PATH
 10
-81.5713605445489236
 20
-57.9848641580392723
 30
0.0
  0
VERTEX
  5
22B96
  8
PATH
 10
-76.7895966181094707
 20
-57.8647871715438598
 30
0.0
  0
VERTEX
  5
22B97
  8
PATH
 10
-55.7167016312741907
 20
-46.197354243551672
 30
0.0
  0
SEQEND
  5
22B98
  8
PATH
  0
POLYLINE
  5
20A7F
  8
PATH
 66
     1
 10
0.0
 20
0.0
 30
0.0
  0
VERTEX
  5
22B99
  8
PATH
 10
-55.7167016312741907
 20
-46.197354243551672
 30
0.0
  0
VERTEX
  5
22B9A
  8
PATH
 10
-44.167176507253302
 20
-65.0062376195055549
 30
0.0
  0
SEQEND
  5
22B9B
  8
PATH
  0
POLYLINE
  5
20A80
  8
PATH
 66
     1
 10
0.0
 20
0.0
 30
0.0
  0
VERTEX
  5
22B9C
  8
PATH
 10
-55.7167016312741907
 20
-46.197354243551672
 30
0.0
  0
VERTEX
  5
22B9D
  8
PATH
 10
-21.2382134937361116
 20
-25.5261932489884202
 30
0.0
  0
VERTEX
  5
22B9E
  8
PATH
 10
-9.6100989443511917
 20
-9.6059167165731196
 30
0.0
  0
SEQEND
  5
22B9F
  8
PATH
  0
POLYLINE
  5
20A81
  8
PATH
 66
     1
 10
0.0
 20
0.0
 30
0.0
  0
VERTEX
  5
22BA0
  8
PATH
 10
-9.6100989442347782
 20
-9.6059167165731196
 30
0.0
  0
VERTEX
  5
22BA1
  8
PATH
 10
10.9591046779969403
 20
8.6500425716440041
 30
0.0
  0
SEQEND
  5
22BA2
  8
PATH
  0
POLYLINE
  5
20A82
  8
PATH
 66
     1
 10
0.0
 20
0.0
 30
0.0
  0
VERTEX
  5
22BA3
  8
PATH
 10
10.9591046779969403
 20
8.6500425716440041
 30
0.0
  0
VERTEX
  5
22BA4
  8
PATH
 10
27.6112680255173508
 20
-13.57009903848666
 30
0.0
  0
SEQEND
  5
22BA5
  8
PATH
  0
POLYLINE
  5
20A83
  8
PATH
 66
     1
 10
0.0
 20
0.0
 30
0.0
  0
VERTEX
  5
22BA6
  8
PATH
 10
10.9591046779969403
 20
8.6500425716440041
 30
0.0
  0
VERTEX
  5
22BA7
  8
PATH
 10
15.3486619125906092
 20
16.1724145231346483
 30
0.0
  0
VERTEX
  5
22BA8
  8
PATH
 10
34.7954826290224517
 20
72.253262095204235
 30
0.0
  0
VERTEX
  5
22BA9
  8
PATH
 10
35.2563603196613329
 20
79.1013484560462672
 30
0.0
  0
VERTEX
  5
22BAA
  8
PATH
 10
33.5419814974156907
 20
87.0239590150813456
 30
0.0
  0
VERTEX
  5
22BAB
  8
PATH
 10
25.1032584745989915
 20
101.1683913451197014
 30
0.0
  0
SEQEND
  5
22BAC
  8
PATH
  0
POLYLINE
  5
20A84
  8
PATH
 66
     1
 10
0.0
 20
0.0
 30
0.0
  0
VERTEX
  5
22BAD
  8
PATH
 10
25.1032584746571992
 20
101.1683913451197014
 30
0.0
  0
VERTEX
  5
22BAE
  8
PATH
 10
-6.053192605977527
 20
156.5051141842776872
 30
0.0
  0
VERTEX
  5
22BAF
  8
PATH
 10
-10.2927398361061897
 20
159.989601184664906
 30
0.0
  0
VERTEX
  5
22BB0
  8
PATH
 10
-14.8596491660136891
 20
161.6039506886662025
 30
0.0
  0
VERTEX
  5
22BB1
  8
PATH
 10
-19.3033519135933602
 20
161.3685525451365095
 30
0.0
  0
VERTEX
  5
22BB2
  8
PATH
 10
-22.63615219273197
 20
160.0906780129807032
 30
0.0
  0
VERTEX
  5
22BB3
  8
PATH
 10
-79.383430028989082
 20
128.9447269938463876
 30
0.0
  0
SEQEND
  5
22BB4
  8
PATH
  0
POLYLINE
  5
20A85
  8
PATH
 66
     1
 10
0.0
 20
0.0
 30
0.0
  0
VERTEX
  5
22BB5
  8
PATH
 10
-79.383430028989082
 20
128.9447269938463876
 30
0.0
  0
VERTEX
  5
22BB6
  8
PATH
 10
-102.255838096622
 20
109.9118154547686004
 30
0.0
  0
VERTEX
  5
22BB7
  8
PATH
 10
-129.5596835545875081
 20
86.3073959490793641
 30
0.0
  0
VERTEX
  5
22BB8
  8
PATH
 10
-142.9545962010888047
 20
66.6336544869045611
 30
0.0
  0
SEQEND
  5
22BB9
  8
PATH
  0
POLYLINE
  5
20A86
  8
PATH
 66
     1
 10
0.0
 20
0.0
 30
0.0
  0
VERTEX
  5
22BBA
  8
PATH
 10
-24.7075354975095216
 20
252.1365060480821114
 30
0.0
  0
VERTEX
  5
22BBB
  8
PATH
 10
-55.2250826630770391
 20
234.0124041406016033
 30
0.0
  0
SEQEND
  5
22BBC
  8
PATH
  0
POLYLINE
  5
20A87
  8
PATH
 66
     1
 10
0.0
 20
0.0
 30
0.0
  0
VERTEX
  5
22BBD
  8
PATH
 10
-78.6797495399514304
 20
272.535280504314926
 30
0.0
  0
VERTEX
  5
22BBE
  8
PATH
 10
-55.2250826630770391
 20
234.0124041406016033
 30
0.0
  0
SEQEND
  5
22BBF
  8
PATH
  0
POLYLINE
  5
20A88
  8
PATH
 66
     1
 10
0.0
 20
0.0
 30
0.0
  0
VERTEX
  5
22BC0
  8
PATH
 10
-55.2250826630770391
 20
234.0124041406016033
 30
0.0
  0
VERTEX
  5
22BC1
  8
PATH
 10
-40.559858700042227
 20
209.3147382168608885
 30
0.0
  0
VERTEX
  5
22BC2
  8
PATH
 10
-39.1863087003148394
 20
204.9448639066467877
 30
0.0
  0
VERTEX
  5
22BC3
  8
PATH
 10
-39.1868473692593327
 20
198.1752796224828046
 30
0.0
  0
VERTEX
  5
22BC4
  8
PATH
 10
-40.3952860601857466
 20
190.5462257573890099
 30
0.0
  0
VERTEX
  5
22BC5
  8
PATH
 10
-46.6285581620322773
 20
166.8383502779105925
 30
0.0
  0
SEQEND
  5
22BC6
  8
PATH
  0
POLYLINE
  5
20A89
  8
PATH
 66
     1
 10
0.0
 20
0.0
 30
0.0
  0
VERTEX
  5
22BC7
  8
PATH
 10
-59.7268392256955778
 20
-219.7544056293045003
 30
0.0
  0
VERTEX
  5
22BC8
  8
PATH
 10
-20.5747034184314614
 20
-195.4971867859784993
 30
0.0
  0
VERTEX
  5
22BC9
  8
PATH
 10
22.2570945629704511
 20
-160.7597718033429999
 30
0.0
  0
SEQEND
  5
22BCA
  8
PATH
  0
POLYLINE
  5
20A8A
  8
PATH
 66
     1
 10
0.0
 20
0.0
 30
0.0
  0
VERTEX
  5
22BCB
  8
PATH
 10
38.4818713954155101
 20
-109.6302980654363068
 30
0.0
  0
VERTEX
  5
22BCC
  8
PATH
 10
48.6305063508771127
 20
-106.6490566296924953
 30
0.0
  0
VERTEX
  5
22BCD
  8
PATH
 10
59.593198838920209
 20
-105.7920267278749975
 30
0.0
  0
VERTEX
  5
22BCE
  8
PATH
 10
72.5577707495394861
 20
-109.0296815195543019
 30
0.0
  0
VERTEX
  5
22BCF
  8
PATH
 10
83.9896444571058964
 20
-117.6703870351848025
 30
0.0
  0
VERTEX
  5
22BD0
  8
PATH
 10
87.899919090021271
 20
-122.3390745561991935
 30
0.0
  0
SEQEND
  5
22BD1
  8
PATH
  0
POLYLINE
  5
20A8B
  8
PATH
 66
     1
 10
0.0
 20
0.0
 30
0.0
  0
VERTEX
  5
22BD2
  8
PATH
 10
27.4269025481044117
 20
-38.7779574589294498
 30
0.0
  0
VERTEX
  5
22BD3
  8
PATH
 10
38.187517913625932
 20
-56.0690212826666396
 30
0.0
  0
SEQEND
  5
22BD4
  8
PATH
  0
POLYLINE
  5
20A8C
  8
PATH
 66
     1
 10
0.0
 20
0.0
 30
0.0
  0
VERTEX
  5
22BD5
  8
PATH
 10
13.6686948624992493
 20
-72.4183266860854928
 30
0.0
  0
VERTEX
  5
22BD6
  8
PATH
 10
38.187517913625932
 20
-56.0690212826666396
 30
0.0
  0
SEQEND
  5
22BD7
  8
PATH
  0
POLYLINE
  5
20A8D
  8
PATH
 66
     1
 10
0.0
 20
0.0
 30
0.0
  0
VERTEX
  5
22BD8
  8
PATH
 10
38.187517913625932
 20
-56.0690212826666396
 30
0.0
  0
VERTEX
  5
22BD9
  8
PATH
 10
53.4228950572287431
 20
-46.7227113265034717
 30
0.0
  0
VERTEX
  5
22BDA
  8
PATH
 10
103.2426737912317947
 20
-57.7019077147779171
 30
0.0
  0
VERTEX
  5
22BDB
  8
PATH
 10
110.2967103590344067
 20
-66.546469886736304
 30
0.0
  0
SEQEND
  5
22BDC
  8
PATH
  0
POLYLINE
  5
20A8E
  8
PATH
 66
     1
 10
0.0
 20
0.0
 30
0.0
  0
VERTEX
  5
22BDD
  8
PATH
 10
110.2967103590344067
 20
-66.546469886736304
 30
0.0
  0
VERTEX
  5
22BDE
  8
PATH
 10
131.7722459588403012
 20
-51.2226524627258186
 30
0.0
  0
SEQEND
  5
22BDF
  8
PATH
  0
POLYLINE
  5
20A8F
  8
PATH
 66
     1
 10
0.0
 20
0.0
 30
0.0
  0
VERTEX
  5
22BE0
  8
PATH
 10
110.2967103590344067
 20
-66.546469886736304
 30
0.0
  0
VERTEX
  5
22BE1
  8
PATH
 10
132.2678775497915922
 20
-98.6940834074703162
 30
0.0
  0
SEQEND
  5
22BE2
  8
PATH
  0
POLYLINE
  5
20A90
  8
PATH
 66
     1
 10
0.0
 20
0.0
 30
0.0
  0
VERTEX
  5
22BE3
  8
PATH
 10
-552.3629680223676814
 20
26.2559589352968104
 30
0.0
  0
VERTEX
  5
22BE4
  8
PATH
 10
-581.3984913181775482
 20
33.3976910333658523
 30
0.0
  0
SEQEND
  5
22BE5
  8
PATH
  0
POLYLINE
  5
20A91
  8
PATH
 66
     1
 10
0.0
 20
0.0
 30
0.0
  0
VERTEX
  5
22BE6
  8
PATH
 10
-581.3984913181775482
 20
33.3976910333658523
 30
0.0
  0
VERTEX
  5
22BE7
  8
PATH
 10
-580.5533012214143582
 20
37.7273646831090517
 30
0.0
  0
VERTEX
  5
22BE8
  8
PATH
 10
-556.4973506772803375
 20
100.6925772610627945
 30
0.0
  0
SEQEND
  5
22BE9
  8
PATH
  0
POLYLINE
  5
20A92
  8
PATH
 66
     1
 10
0.0
 20
0.0
 30
0.0
  0
VERTEX
  5
22BEA
  8
PATH
 10
-556.4973506772803375
 20
100.6925772610627945
 30
0.0
  0
VERTEX
  5
22BEB
  8
PATH
 10
-607.742564812200726
 20
132.7327638506467054
 30
0.0
  0
SEQEND
  5
22BEC
  8
PATH
  0
POLYLINE
  5
20A93
  8
PATH
 66
     1
 10
0.0
 20
0.0
 30
0.0
  0
VERTEX
  5
22BED
  8
PATH
 10
-631.983505337513634
 20
128.6006886582399034
 30
0.0
  0
VERTEX
  5
22BEE
  8
PATH
 10
-657.1003082059469307
 20
64.8359584720383282
 30
0.0
  0
SEQEND
  5
22BEF
  8
PATH
  0
POLYLINE
  5
20A94
  8
PATH
 66
     1
 10
0.0
 20
0.0
 30
0.0
  0
VERTEX
  5
22BF0
  8
PATH
 10
-657.1003082059469307
 20
64.8359584720383282
 30
0.0
  0
VERTEX
  5
22BF1
  8
PATH
 10
-657.1003082059469307
 20
64.8359584720383282
 30
0.0
  0
VERTEX
  5
22BF2
  8
PATH
 10
-589.9483714659727411
 20
35.5006651338699299
 30
0.0
  0
VERTEX
  5
22BF3
  8
PATH
 10
-581.3984913181775482
 20
33.3976910333658523
 30
0.0
  0
SEQEND
  5
22BF4
  8
PATH
  0
POLYLINE
  5
20A95
  8
PATH
 66
     1
 10
0.0
 20
0.0
 30
0.0
  0
VERTEX
  5
22BF5
  8
PATH
 10
-657.1003082059469307
 20
64.8359584720383282
 30
0.0
  0
VERTEX
  5
22BF6
  8
PATH
 10
-663.4391782073214472
 20
71.6982968822630937
 30
0.0
  0
VERTEX
  5
22BF7
  8
PATH
 10
-666.8164279590273509
 20
80.1668165037917646
 30
0.0
  0
SEQEND
  5
22BF8
  8
PATH
  0
POLYLINE
  5
20A96
  8
PATH
 66
     1
 10
0.0
 20
0.0
 30
0.0
  0
VERTEX
  5
22BF9
  8
PATH
 10
-666.8164279590273509
 20
80.1668165037917646
 30
0.0
  0
VERTEX
  5
22BFA
  8
PATH
 10
-723.5805591256502112
 20
103.1224512411789931
 30
0.0
  0
VERTEX
  5
22BFB
  8
PATH
 10
-737.3764643396863221
 20
120.5172468410383004
 30
0.0
  0
SEQEND
  5
22BFC
  8
PATH
  0
POLYLINE
  5
20A97
  8
PATH
 66
     1
 10
0.0
 20
0.0
 30
0.0
  0
VERTEX
  5
22BFD
  8
PATH
 10
-737.3764643396863221
 20
120.5172468410383004
 30
0.0
  0
VERTEX
  5
22BFE
  8
PATH
 10
-713.490917844421233
 20
139.3333656928080018
 30
0.0
  0
SEQEND
  5
22BFF
  8
PATH
  0
POLYLINE
  5
20A98
  8
PATH
 66
     1
 10
0.0
 20
0.0
 30
0.0
  0
VERTEX
  5
22C00
  8
PATH
 10
-713.490917844421233
 20
139.3333656928080018
 30
0.0
  0
VERTEX
  5
22C01
  8
PATH
 10
-682.1053190727978972
 20
123.2788013602183952
 30
0.0
  0
SEQEND
  5
22C02
  8
PATH
  0
POLYLINE
  5
20A99
  8
PATH
 66
     1
 10
0.0
 20
0.0
 30
0.0
  0
VERTEX
  5
22C03
  8
PATH
 10
-682.1053190727978972
 20
123.2788013602183952
 30
0.0
  0
VERTEX
  5
22C04
  8
PATH
 10
-660.9383056248334469
 20
163.959746440457792
 30
0.0
  0
VERTEX
  5
22C05
  8
PATH
 10
-642.1454661164459594
 20
179.7007639259608993
 30
0.0
  0
SEQEND
  5
22C06
  8
PATH
  0
POLYLINE
  5
20A9A
  8
PATH
 66
     1
 10
0.0
 20
0.0
 30
0.0
  0
VERTEX
  5
22C07
  8
PATH
 10
-682.1053190727978972
 20
123.2788013602183952
 30
0.0
  0
VERTEX
  5
22C08
  8
PATH
 10
-653.653644463818523
 20
108.5934777646834988
 30
0.0
  0
SEQEND
  5
22C09
  8
PATH
  0
POLYLINE
  5
20A9B
  8
PATH
 66
     1
 10
0.0
 20
0.0
 30
0.0
  0
VERTEX
  5
22C0A
  8
PATH
 10
-653.653644463818523
 20
108.5934777646834988
 30
0.0
  0
VERTEX
  5
22C0B
  8
PATH
 10
-653.653644463818523
 20
108.5934777646834988
 30
0.0
  0
VERTEX
  5
22C0C
  8
PATH
 10
-665.5643199366894578
 20
88.5146723804573128
 30
0.0
  0
VERTEX
  5
22C0D
  8
PATH
 10
-666.8098524833476404
 20
83.0206928002225908
 30
0.0
  0
VERTEX
  5
22C0E
  8
PATH
 10
-666.8164279590273509
 20
80.1668165037917646
 30
0.0
  0
SEQEND
  5
22C0F
  8
PATH
  0
POLYLINE
  5
20A9C
  8
PATH
 66
     1
 10
0.0
 20
0.0
 30
0.0
  0
VERTEX
  5
22C10
  8
PATH
 10
-653.653644463818523
 20
108.5934777646834988
 30
0.0
  0
VERTEX
  5
22C11
  8
PATH
 10
-637.014979081650381
 20
138.1032329826192893
 30
0.0
  0
VERTEX
  5
22C12
  8
PATH
 10
-624.5930139378324384
 20
163.9044676372359106
 30
0.0
  0
SEQEND
  5
22C13
  8
PATH
  0
POLYLINE
  5
20A9D
  8
PATH
 66
     1
 10
0.0
 20
0.0
 30
0.0
  0
VERTEX
  5
22C14
  8
PATH
 10
-642.1454661164459594
 20
179.7007639259608993
 30
0.0
  0
VERTEX
  5
22C15
  8
PATH
 10
-624.5930139378324384
 20
163.9044676372359106
 30
0.0
  0
SEQEND
  5
22C16
  8
PATH
  0
POLYLINE
  5
20A9E
  8
PATH
 66
     1
 10
0.0
 20
0.0
 30
0.0
  0
VERTEX
  5
22C17
  8
PATH
 10
-624.5930139378324384
 20
163.9044676372359106
 30
0.0
  0
VERTEX
  5
22C18
  8
PATH
 10
-611.6451407634450561
 20
151.0995343663306869
 30
0.0
  0
SEQEND
  5
22C19
  8
PATH
  0
POLYLINE
  5
20A9F
  8
PATH
 66
     1
 10
0.0
 20
0.0
 30
0.0
  0
VERTEX
  5
22C1A
  8
PATH
 10
-619.6484764374471297
 20
145.3486069073478006
 30
0.0
  0
VERTEX
  5
22C1B
  8
PATH
 10
-611.6451407634450561
 20
151.0995343663306869
 30
0.0
  0
SEQEND
  5
22C1C
  8
PATH
  0
POLYLINE
  5
20AA0
  8
PATH
 66
     1
 10
0.0
 20
0.0
 30
0.0
  0
VERTEX
  5
22C1D
  8
PATH
 10
-611.6451407634450561
 20
151.0995343663306869
 30
0.0
  0
VERTEX
  5
22C1E
  8
PATH
 10
-550.8326898302912014
 20
112.0718424059959943
 30
0.0
  0
SEQEND
  5
22C1F
  8
PATH
  0
POLYLINE
  5
20AA1
  8
PATH
 66
     1
 10
0.0
 20
0.0
 30
0.0
  0
VERTEX
  5
22C20
  8
PATH
 10
-550.8326898302912014
 20
112.0718424059959943
 30
0.0
  0
VERTEX
  5
22C21
  8
PATH
 10
-556.4973506772803375
 20
100.6925772610627945
 30
0.0
  0
SEQEND
  5
22C22
  8
PATH
  0
POLYLINE
  5
20AA2
  8
PATH
 66
     1
 10
0.0
 20
0.0
 30
0.0
  0
VERTEX
  5
22C23
  8
PATH
 10
-550.8326898302912014
 20
112.0718424059959943
 30
0.0
  0
VERTEX
  5
22C24
  8
PATH
 10
-528.0551715836771791
 20
97.9770781072366077
 30
0.0
  0
SEQEND
  5
22C25
  8
PATH
  0
POLYLINE
  5
20AA3
  8
PATH
 66
     1
 10
0.0
 20
0.0
 30
0.0
  0
VERTEX
  5
22C26
  8
PATH
 10
-713.490917844421233
 20
139.3333656928080018
 30
0.0
  0
VERTEX
  5
22C27
  8
PATH
 10
-647.9062515019468265
 20
191.1559911021541041
 30
0.0
  0
VERTEX
  5
22C28
  8
PATH
 10
-641.2107269568513175
 20
191.933708274322214
 30
0.0
  0
SEQEND
  5
22C29
  8
PATH
  0
POLYLINE
  5
20AA4
  8
PATH
 66
     1
 10
0.0
 20
0.0
 30
0.0
  0
VERTEX
  5
22C2A
  8
PATH
 10
-641.2107269568513175
 20
191.933708274322214
 30
0.0
  0
VERTEX
  5
22C2B
  8
PATH
 10
-642.1454661164459594
 20
179.7007639259608993
 30
0.0
  0
SEQEND
  5
22C2C
  8
PATH
  0
POLYLINE
  5
20AA5
  8
PATH
 66
     1
 10
0.0
 20
0.0
 30
0.0
  0
VERTEX
  5
22C2D
  8
PATH
 10
-641.2107269568513175
 20
191.933708274322214
 30
0.0
  0
VERTEX
  5
22C2E
  8
PATH
 10
-565.8160222561127739
 20
250.993872684477509
 30
0.0
  0
SEQEND
  5
22C2F
  8
PATH
  0
POLYLINE
  5
20AA6
  8
PATH
 66
     1
 10
0.0
 20
0.0
 30
0.0
  0
VERTEX
  5
22C30
  8
PATH
 10
-712.3168654649198288
 20
283.4591359473341754
 30
0.0
  0
VERTEX
  5
22C31
  8
PATH
 10
-708.9717431532480987
 20
272.7647346645172206
 30
0.0
  0
VERTEX
  5
22C32
  8
PATH
 10
-703.4703212079037939
 20
256.2438170728784144
 30
0.0
  0
VERTEX
  5
22C33
  8
PATH
 10
-701.3644415357409798
 20
247.1236483767206096
 30
0.0
  0
VERTEX
  5
22C34
  8
PATH
 10
-700.9952118591900216
 20
240.8603206505576964
 30
0.0
  0
VERTEX
  5
22C35
  8
PATH
 10
-701.8472189039019895
 20
235.3979024878281052
 30
0.0
  0
VERTEX
  5
22C36
  8
PATH
 10
-704.9238356787390103
 20
228.899022208112001
 30
0.0
  0
VERTEX
  5
22C37
  8
PATH
 10
-710.5280541589163477
 20
221.9679404376583989
 30
0.0
  0
SEQEND
  5
22C38
  8
PATH
  0
POLYLINE
  5
20AA7
  8
PATH
 66
     1
 10
0.0
 20
0.0
 30
0.0
  0
VERTEX
  5
22C39
  8
PATH
 10
-710.5280541589163477
 20
221.9679404376583989
 30
0.0
  0
VERTEX
  5
22C3A
  8
PATH
 10
-704.8704703069088282
 20
216.5297106113793859
 30
0.0
  0
SEQEND
  5
22C3B
  8
PATH
  0
POLYLINE
  5
20AA8
  8
PATH
 66
     1
 10
0.0
 20
0.0
 30
0.0
  0
VERTEX
  5
22C3C
  8
PATH
 10
-710.5280541589163477
 20
221.9679404376583989
 30
0.0
  0
VERTEX
  5
22C3D
  8
PATH
 10
-716.1946096344762509
 20
217.4250650909307012
 30
0.0
  0
VERTEX
  5
22C3E
  8
PATH
 10
-721.7988095398900441
 20
215.0791593040848966
 30
0.0
  0
VERTEX
  5
22C3F
  8
PATH
 10
-728.3637533108849311
 20
214.1194698708640942
 30
0.0
  0
VERTEX
  5
22C40
  8
PATH
 10
-734.4403844264013514
 20
214.2531426637943071
 30
0.0
  0
VERTEX
  5
22C41
  8
PATH
 10
-742.1698932342841317
 20
216.4376513311216002
 30
0.0
  0
VERTEX
  5
22C42
  8
PATH
 10
-767.6709547899225754
 20
233.7075545075859964
 30
0.0
  0
SEQEND
  5
22C43
  8
PATH
  0
POLYLINE
  5
20AA9
  8
PATH
 66
     1
 10
0.0
 20
0.0
 30
0.0
  0
VERTEX
  5
22C44
  8
PATH
 10
-779.328835024512955
 20
170.7650689338842938
 30
0.0
  0
VERTEX
  5
22C45
  8
PATH
 10
-751.3723271686028511
 20
192.509719579065802
 30
0.0
  0
VERTEX
  5
22C46
  8
PATH
 10
-713.2777360540495692
 20
211.3332869466904071
 30
0.0
  0
VERTEX
  5
22C47
  8
PATH
 10
-704.8704703069088282
 20
216.5297106113793859
 30
0.0
  0
SEQEND
  5
22C48
  8
PATH
  0
POLYLINE
  5
20AAA
  8
PATH
 66
     1
 10
0.0
 20
0.0
 30
0.0
  0
VERTEX
  5
22C49
  8
PATH
 10
-704.8704703069088282
 20
216.5297106113793859
 30
0.0
  0
VERTEX
  5
22C4A
  8
PATH
 10
-696.1970092435510651
 20
226.266423254324792
 30
0.0
  0
VERTEX
  5
22C4B
  8
PATH
 10
-685.4324354662239784
 20
237.5765898954632007
 30
0.0
  0
VERTEX
  5
22C4C
  8
PATH
 10
-670.8323161422304111
 20
262.727943470752507
 30
0.0
  0
VERTEX
  5
22C4D
  8
PATH
 10
-676.2487620698083219
 20
271.4511779347013203
 30
0.0
  0
VERTEX
  5
22C4E
  8
PATH
 10
-649.6065134837554069
 20
295.0459699724378879
 30
0.0
  0
VERTEX
  5
22C4F
  8
PATH
 10
-643.8537709823719979
 20
310.8350012680094778
 30
0.0
  0
VERTEX
  5
22C50
  8
PATH
 10
-633.9828091688832501
 20
337.4660290172832902
 30
0.0
  0
SEQEND
  5
22C51
  8
PATH
  0
POLYLINE
  5
20AAB
  8
PATH
 66
     1
 10
0.0
 20
0.0
 30
0.0
  0
VERTEX
  5
22C52
  8
PATH
 10
-800.9312454545432729
 20
194.587621931037603
 30
0.0
  0
VERTEX
  5
22C53
  8
PATH
 10
-779.328835024512955
 20
170.7650689338842938
 30
0.0
  0
SEQEND
  5
22C54
  8
PATH
  0
POLYLINE
  5
20AAC
  8
PATH
 66
     1
 10
0.0
 20
0.0
 30
0.0
  0
VERTEX
  5
22C55
  8
PATH
 10
-779.328835024512955
 20
170.7650689338842938
 30
0.0
  0
VERTEX
  5
22C56
  8
PATH
 10
-737.3764643396863221
 20
120.5172468410383004
 30
0.0
  0
SEQEND
  5
22C57
  8
PATH
  0
POLYLINE
  5
20AAD
  8
PATH
 66
     1
 10
0.0
 20
0.0
 30
0.0
  0
VERTEX
  5
22C58
  8
PATH
 10
-517.1541172600846039
 20
427.7241415423849276
 30
0.0
  0
VERTEX
  5
22C59
  8
PATH
 10
-503.6656883117536836
 20
405.1748180147768039
 30
0.0
  0
SEQEND
  5
22C5A
  8
PATH
  0
POLYLINE
  5
20AAE
  8
PATH
 66
     1
 10
0.0
 20
0.0
 30
0.0
  0
VERTEX
  5
22C5B
  8
PATH
 10
-503.6656883117536836
 20
405.1748180147768039
 30
0.0
  0
VERTEX
  5
22C5C
  8
PATH
 10
-513.1422675724169267
 20
397.7891298528339235
 30
0.0
  0
SEQEND
  5
22C5D
  8
PATH
  0
POLYLINE
  5
20AAF
  8
PATH
 66
     1
 10
0.0
 20
0.0
 30
0.0
  0
VERTEX
  5
22C5E
  8
PATH
 10
-482.3500942509418223
 20
371.6457220917146174
 30
0.0
  0
VERTEX
  5
22C5F
  8
PATH
 10
-492.527286271637422
 20
365.175732734198391
 30
0.0
  0
VERTEX
  5
22C60
  8
PATH
 10
-476.0381771371610853
 20
339.0895647919314229
 30
0.0
  0
VERTEX
  5
22C61
  8
PATH
 10
-481.6483209753786241
 20
334.5585712995890049
 30
0.0
  0
SEQEND
  5
22C62
  8
PATH
  0
POLYLINE
  5
20AB0
  8
PATH
 66
     1
 10
0.0
 20
0.0
 30
0.0
  0
VERTEX
  5
22C63
  8
PATH
 10
-481.6483209753786241
 20
334.5585712995890049
 30
0.0
  0
VERTEX
  5
22C64
  8
PATH
 10
-481.6483209753786241
 20
334.5585712995890049
 30
0.0
  0
VERTEX
  5
22C65
  8
PATH
 10
-473.226529742431012
 20
322.7869347399609978
 30
0.0
  0
SEQEND
  5
22C66
  8
PATH
  0
POLYLINE
  5
20AB1
  8
PATH
 66
     1
 10
0.0
 20
0.0
 30
0.0
  0
VERTEX
  5
22C67
  8
PATH
 10
-473.226529742431012
 20
322.7869347399609978
 30
0.0
  0
VERTEX
  5
22C68
  8
PATH
 10
-467.7946579080452807
 20
326.6730630929159815
 30
0.0
  0
VERTEX
  5
22C69
  8
PATH
 10
-464.9367123927366947
 20
332.2376181791113936
 30
0.0
  0
VERTEX
  5
22C6A
  8
PATH
 10
-464.1496242392021827
 20
338.551430275714722
 30
0.0
  0
VERTEX
  5
22C6B
  8
PATH
 10
-464.8306317667738767
 20
343.6534399069424239
 30
0.0
  0
VERTEX
  5
22C6C
  8
PATH
 10
-467.0843481928604888
 20
347.6329424125652281
 30
0.0
  0
VERTEX
  5
22C6D
  8
PATH
 10
-482.3500942509418223
 20
371.6457220917146174
 30
0.0
  0
SEQEND
  5
22C6E
  8
PATH
  0
POLYLINE
  5
20AB2
  8
PATH
 66
     1
 10
0.0
 20
0.0
 30
0.0
  0
VERTEX
  5
22C6F
  8
PATH
 10
-482.3500942508251796
 20
371.6457220917146174
 30
0.0
  0
VERTEX
  5
22C70
  8
PATH
 10
-503.6656883117536836
 20
405.1748180147768039
 30
0.0
  0
SEQEND
  5
22C71
  8
PATH
  0
POLYLINE
  5
20AB3
  8
PATH
 66
     1
 10
0.0
 20
0.0
 30
0.0
  0
VERTEX
  5
22C72
  8
PATH
 10
-513.1422675724169267
 20
397.7891298528339235
 30
0.0
  0
VERTEX
  5
22C73
  8
PATH
 10
-517.8489579722081544
 20
394.561437282296481
 30
0.0
  0
SEQEND
  5
22C74
  8
PATH
  0
POLYLINE
  5
20AB4
  8
PATH
 66
     1
 10
0.0
 20
0.0
 30
0.0
  0
VERTEX
  5
22C75
  8
PATH
 10
-517.8489579720917391
 20
394.561437282296481
 30
0.0
  0
VERTEX
  5
22C76
  8
PATH
 10
-560.8021139952613794
 20
365.1055838461542749
 30
0.0
  0
VERTEX
  5
22C77
  8
PATH
 10
-567.1280559427831349
 20
364.6719154594974839
 30
0.0
  0
SEQEND
  5
22C78
  8
PATH
  0
POLYLINE
  5
20AB5
  8
PATH
 66
     1
 10
0.0
 20
0.0
 30
0.0
  0
VERTEX
  5
22C79
  8
PATH
 10
-567.1280559427831349
 20
364.6719154594974839
 30
0.0
  0
VERTEX
  5
22C7A
  8
PATH
 10
-567.1280559427831349
 20
364.6719154594974839
 30
0.0
  0
VERTEX
  5
22C7B
  8
PATH
 10
-567.5646245338283506
 20
356.4827124821530901
 30
0.0
  0
VERTEX
  5
22C7C
  8
PATH
 10
-517.2478411845077062
 20
287.853203067141294
 30
0.0
  0
SEQEND
  5
22C7D
  8
PATH
  0
POLYLINE
  5
20AB6
  8
PATH
 66
     1
 10
0.0
 20
0.0
 30
0.0
  0
VERTEX
  5
22C7E
  8
PATH
 10
-514.0115078303058453
 20
311.0726977149532786
 30
0.0
  0
VERTEX
  5
22C7F
  8
PATH
 10
-481.6483209753786241
 20
334.5585712995890049
 30
0.0
  0
SEQEND
  5
22C80
  8
PATH
  0
POLYLINE
  5
20AB7
  8
PATH
 66
     1
 10
0.0
 20
0.0
 30
0.0
  0
VERTEX
  5
22C81
  8
PATH
 10
-514.0115078303058453
 20
311.0726977149532786
 30
0.0
  0
VERTEX
  5
22C82
  8
PATH
 10
-504.3698221269439728
 20
298.18042698461079
 30
0.0
  0
SEQEND
  5
22C83
  8
PATH
  0
POLYLINE
  5
20AB8
  8
PATH
 66
     1
 10
0.0
 20
0.0
 30
0.0
  0
VERTEX
  5
22C84
  8
PATH
 10
-511.1268820457769948
 20
292.8416321888144012
 30
0.0
  0
VERTEX
  5
22C85
  8
PATH
 10
-481.5012924100881833
 20
316.2489936245182207
 30
0.0
  0
SEQEND
  5
22C86
  8
PATH
  0
POLYLINE
  5
20AB9
  8
PATH
 66
     1
 10
0.0
 20
0.0
 30
0.0
  0
VERTEX
  5
22C87
  8
PATH
 10
-481.5012924100881833
 20
316.2489936245182207
 30
0.0
  0
VERTEX
  5
22C88
  8
PATH
 10
-473.226529742431012
 20
322.7869347399609978
 30
0.0
  0
SEQEND
  5
22C89
  8
PATH
  0
POLYLINE
  5
20ABA
  8
PATH
 66
     1
 10
0.0
 20
0.0
 30
0.0
  0
VERTEX
  5
22C8A
  8
PATH
 10
-511.1268820457769948
 20
292.8416321888144012
 30
0.0
  0
VERTEX
  5
22C8B
  8
PATH
 10
-557.9973387852803626
 20
254.6433782824823879
 30
0.0
  0
VERTEX
  5
22C8C
  8
PATH
 10
-565.8160222561708679
 20
250.993872684477509
 30
0.0
  0
SEQEND
  5
22C8D
  8
PATH
  0
POLYLINE
  5
20ABB
  8
PATH
 66
     1
 10
0.0
 20
0.0
 30
0.0
  0
VERTEX
  5
22C8E
  8
PATH
 10
-618.4478061432164395
 20
317.7592880791561925
 30
0.0
  0
VERTEX
  5
22C8F
  8
PATH
 10
-605.5436937284682699
 20
327.1341339317659731
 30
0.0
  0
VERTEX
  5
22C90
  8
PATH
 10
-573.0864585195813561
 20
351.8807478459129925
 30
0.0
  0
SEQEND
  5
22C91
  8
PATH
  0
POLYLINE
  5
20ABC
  8
PATH
 66
     1
 10
0.0
 20
0.0
 30
0.0
  0
VERTEX
  5
22C92
  8
PATH
 10
-590.2505027272417237
 20
373.0087374630894033
 30
0.0
  0
VERTEX
  5
22C93
  8
PATH
 10
-573.0864585195813561
 20
351.8807478459129925
 30
0.0
  0
SEQEND
  5
22C94
  8
PATH
  0
POLYLINE
  5
20ABD
  8
PATH
 66
     1
 10
0.0
 20
0.0
 30
0.0
  0
VERTEX
  5
22C95
  8
PATH
 10
-590.2505027272417237
 20
373.0087374630894033
 30
0.0
  0
VERTEX
  5
22C96
  8
PATH
 10
-577.403762770947651
 20
370.5493435962634976
 30
0.0
  0
VERTEX
  5
22C97
  8
PATH
 10
-567.1280559427831349
 20
364.6719154594974839
 30
0.0
  0
SEQEND
  5
22C98
  8
PATH
  0
POLYLINE
  5
20ABE
  8
PATH
 66
     1
 10
0.0
 20
0.0
 30
0.0
  0
VERTEX
  5
22C99
  8
PATH
 10
-573.0864585195813561
 20
351.8807478459129925
 30
0.0
  0
VERTEX
  5
22C9A
  8
PATH
 10
-535.1762036215077387
 20
302.6992121739822892
 30
0.0
  0
VERTEX
  5
22C9B
  8
PATH
 10
-537.1413792590174126
 20
290.0570579935373985
 30
0.0
  0
VERTEX
  5
22C9C
  8
PATH
 10
-566.3027102009655209
 20
265.4162800685081152
 30
0.0
  0
VERTEX
  5
22C9D
  8
PATH
 10
-569.3968550983844352
 20
262.6204045811246033
 30
0.0
  0
VERTEX
  5
22C9E
  8
PATH
 10
-565.8160222560544526
 20
250.993872684477509
 30
0.0
  0
SEQEND
  5
22C9F
  8
PATH
  0
POLYLINE
  5
20ABF
  8
PATH
 66
     1
 10
0.0
 20
0.0
 30
0.0
  0
VERTEX
  5
22CA0
  8
PATH
 10
-481.5012924100881833
 20
316.2489936245182207
 30
0.0
  0
VERTEX
  5
22CA1
  8
PATH
 10
-460.4305818517022999
 20
289.5427493434909252
 30
0.0
  0
SEQEND
  5
22CA2
  8
PATH
  0
POLYLINE
  5
20AC0
  8
PATH
 66
     1
 10
0.0
 20
0.0
 30
0.0
  0
VERTEX
  5
22CA3
  8
PATH
 10
-460.4305818517022999
 20
289.5427493434909252
 30
0.0
  0
VERTEX
  5
22CA4
  8
PATH
 10
-447.8092327363700065
 20
273.5457172692330801
 30
0.0
  0
SEQEND
  5
22CA5
  8
PATH
  0
POLYLINE
  5
20AC1
  8
PATH
 66
     1
 10
0.0
 20
0.0
 30
0.0
  0
VERTEX
  5
22CA6
  8
PATH
 10
-447.8092327363700065
 20
273.5457172692330801
 30
0.0
  0
VERTEX
  5
22CA7
  8
PATH
 10
-408.5437898136004833
 20
223.77841077098131
 30
0.0
  0
SEQEND
  5
22CA8
  8
PATH
  0
POLYLINE
  5
20AC2
  8
PATH
 66
     1
 10
0.0
 20
0.0
 30
0.0
  0
VERTEX
  5
22CA9
  8
PATH
 10
-445.8894376069220016
 20
356.2917964621955775
 30
0.0
  0
VERTEX
  5
22CAA
  8
PATH
 10
-386.798644743466923
 20
399.667104432875874
 30
0.0
  0
SEQEND
  5
22CAB
  8
PATH
  0
POLYLINE
  5
20AC3
  8
PATH
 66
     1
 10
0.0
 20
0.0
 30
0.0
  0
VERTEX
  5
22CAC
  8
PATH
 10
-311.4212157635046765
 20
448.6524193184959017
 30
0.0
  0
VERTEX
  5
22CAD
  8
PATH
 10
-304.8240044257981936
 20
438.4212004687212811
 30
0.0
  0
SEQEND
  5
22CAE
  8
PATH
  0
POLYLINE
  5
20AC4
  8
PATH
 66
     1
 10
0.0
 20
0.0
 30
0.0
  0
VERTEX
  5
22CAF
  8
PATH
 10
-304.8240044257981936
 20
438.4212004687212811
 30
0.0
  0
VERTEX
  5
22CB0
  8
PATH
 10
-301.0434477485396201
 20
432.5581621700474102
 30
0.0
  0
VERTEX
  5
22CB1
  8
PATH
 10
-298.0377219561632955
 20
429.2520663762043114
 30
0.0
  0
VERTEX
  5
22CB2
  8
PATH
 10
-293.6907953810440972
 20
427.5740556098098182
 30
0.0
  0
VERTEX
  5
22CB3
  8
PATH
 10
-285.9596569098212058
 20
428.7563331802884932
 30
0.0
  0
VERTEX
  5
22CB4
  8
PATH
 10
-281.5249827797088074
 20
431.8103692560034119
 30
0.0
  0
VERTEX
  5
22CB5
  8
PATH
 10
-280.772413488026416
 20
432.2949536382728866
 30
0.0
  0
SEQEND
  5
22CB6
  8
PATH
  0
POLYLINE
  5
20AC5
  8
PATH
 66
     1
 10
0.0
 20
0.0
 30
0.0
  0
VERTEX
  5
22CB7
  8
PATH
 10
-280.7724134880846236
 20
432.2949536382728866
 30
0.0
  0
VERTEX
  5
22CB8
  8
PATH
 10
-269.9501220399542945
 20
439.2634992232124205
 30
0.0
  0
SEQEND
  5
22CB9
  8
PATH
  0
POLYLINE
  5
20AC6
  8
PATH
 66
     1
 10
0.0
 20
0.0
 30
0.0
  0
VERTEX
  5
22CBA
  8
PATH
 10
-304.8240044257981936
 20
438.4212004687212811
 30
0.0
  0
VERTEX
  5
22CBB
  8
PATH
 10
-297.3241436315146871
 20
443.4113659519280191
 30
0.0
  0
VERTEX
  5
22CBC
  8
PATH
 10
-292.2779113963043187
 20
443.7705161679111825
 30
0.0
  0
VERTEX
  5
22CBD
  8
PATH
 10
-288.3084217256546253
 20
442.3343125526370159
 30
0.0
  0
VERTEX
  5
22CBE
  8
PATH
 10
-285.6735006946400972
 20
439.9064406427132212
 30
0.0
  0
VERTEX
  5
22CBF
  8
PATH
 10
-280.7724134880846236
 20
432.2949536382728866
 30
0.0
  0
SEQEND
  5
22CC0
  8
PATH
  0
POLYLINE
  5
20AC7
  8
PATH
 66
     1
 10
0.0
 20
0.0
 30
0.0
  0
VERTEX
  5
22CC1
  8
PATH
 10
-470.2696646390393767
 20
529.2929013609464164
 30
0.0
  0
VERTEX
  5
22CC2
  8
PATH
 10
-509.4759391828118851
 20
590.7089839079924332
 30
0.0
  0
VERTEX
  5
22CC3
  8
PATH
 10
-517.7871344172308454
 20
592.3438819773072055
 30
0.0
  0
VERTEX
  5
22CC4
  8
PATH
 10
-588.444953714104372
 20
568.8512946917252293
 30
0.0
  0
VERTEX
  5
22CC5
  8
PATH
 10
-603.9452636243222514
 20
558.6401319718496552
 30
0.0
  0
SEQEND
  5
22CC6
  8
PATH
  0
POLYLINE
  5
20AC8
  8
PATH
 66
     1
 10
0.0
 20
0.0
 30
0.0
  0
VERTEX
  5
22CC7
  8
PATH
 10
-470.1963328152924078
 20
529.4009942366319592
 30
0.0
  0
VERTEX
  5
22CC8
  8
PATH
 10
-468.7469590752879185
 20
531.5374060590329464
 30
0.0
  0
SEQEND
  5
22CC9
  8
PATH
  0
POLYLINE
  5
20AC9
  8
PATH
 66
     1
 10
0.0
 20
0.0
 30
0.0
  0
VERTEX
  5
22CCA
  8
PATH
 10
-527.8301634975504157
 20
202.8073691716926987
 30
0.0
  0
VERTEX
  5
22CCB
  8
PATH
 10
-514.646911235948096
 20
214.3989513125779922
 30
0.0
  0
VERTEX
  5
22CCC
  8
PATH
 10
-514.646911235948096
 20
221.4460778800348066
 30
0.0
  0
VERTEX
  5
22CCD
  8
PATH
 10
-528.2723486822942505
 20
239.320414143199713
 30
0.0
  0
VERTEX
  5
22CCE
  8
PATH
 10
-536.968372898947564
 20
237.806228270805093
 30
0.0
  0
VERTEX
  5
22CCF
  8
PATH
 10
-548.3482631658115452
 20
228.8353573242712002
 30
0.0
  0
SEQEND
  5
22CD0
  8
PATH
  0
POLYLINE
  5
20ACA
  8
PATH
 66
     1
 10
0.0
 20
0.0
 30
0.0
  0
VERTEX
  5
22CD1
  8
PATH
 10
-460.4305818517603939
 20
289.5427493434909252
 30
0.0
  0
VERTEX
  5
22CD2
  8
PATH
 10
-463.2875335287096732
 20
286.3141272245484856
 30
0.0
  0
VERTEX
  5
22CD3
  8
PATH
 10
-463.8165150669082095
 20
283.8237143480728264
 30
0.0
  0
VERTEX
  5
22CD4
  8
PATH
 10
-463.8165150669082095
 20
280.9910319885747754
 30
0.0
  0
VERTEX
  5
22CD5
  8
PATH
 10
-462.9440422590848812
 20
277.3231459144079736
 30
0.0
  0
VERTEX
  5
22CD6
  8
PATH
 10
-461.0354067759034251
 20
274.2521143332633073
 30
0.0
  0
VERTEX
  5
22CD7
  8
PATH
 10
-458.1886273723939098
 20
272.2155323955739732
 30
0.0
  0
VERTEX
  5
22CD8
  8
PATH
 10
-455.0183611624087803
 20
271.3103848677636734
 30
0.0
  0
VERTEX
  5
22CD9
  8
PATH
 10
-452.236287425111982
 20
271.4720183550888919
 30
0.0
  0
VERTEX
  5
22CDA
  8
PATH
 10
-449.454213687756976
 20
272.2478590929458733
 30
0.0
  0
VERTEX
  5
22CDB
  8
PATH
 10
-447.8092327363700065
 20
273.5457172692330801
 30
0.0
  0
SEQEND
  5
22CDC
  8
PATH
  0
POLYLINE
  5
20ACB
  8
PATH
 66
     1
 10
0.0
 20
0.0
 30
0.0
  0
VERTEX
  5
22CDD
  8
PATH
 10
-607.742564812200726
 20
132.7327638506467054
 30
0.0
  0
VERTEX
  5
22CDE
  8
PATH
 10
-619.6484764374471297
 20
145.3486069073478006
 30
0.0
  0
SEQEND
  5
22CDF
  8
PATH
  0
POLYLINE
  5
20ACC
  8
PATH
 66
     1
 10
0.0
 20
0.0
 30
0.0
  0
VERTEX
  5
22CE0
  8
PATH
 10
-607.742564812200726
 20
132.7327638506467054
 30
0.0
  0
VERTEX
  5
22CE1
  8
PATH
 10
-631.983505337513634
 20
128.6006886582399034
 30
0.0
  0
SEQEND
  5
22CE2
  8
PATH
  0
POLYLINE
  5
20ACD
  8
PATH
 66
     1
 10
0.0
 20
0.0
 30
0.0
  0
VERTEX
  5
22CE3
  8
PATH
 10
-631.983505337513634
 20
128.6006886582399034
 30
0.0
  0
VERTEX
  5
22CE4
  8
PATH
 10
-619.6484764374471297
 20
145.3486069073478006
 30
0.0
  0
SEQEND
  5
22CE5
  8
PATH
  0
POLYLINE
  5
20ACE
  8
PATH
 66
     1
 10
0.0
 20
0.0
 30
0.0
  0
VERTEX
  5
22CE6
  8
PATH
 10
-517.8489579722081544
 20
394.561437282296481
 30
0.0
  0
VERTEX
  5
22CE7
  8
PATH
 10
-498.338830642940593
 20
366.3045887980188127
 30
0.0
  0
SEQEND
  5
22CE8
  8
PATH
  0
POLYLINE
  5
20ACF
  8
BOUNDARY
 66
     1
 10
0.0
 20
0.0
 30
0.0
 70
     1
  0
VERTEX
  5
22CE9
  8
BOUNDARY
 10
900.3295007395136054
 20
807.4465786644790342
 30
0.0
  0
VERTEX
  5
22CEA
  8
BOUNDARY
 10
-269.2260674206045223
 20
798.4202660837364647
 30
0.0
  0
VERTEX
  5
22CEB
  8
BOUNDARY
 10
-1529.0948053326048921
 20
220.7354167753692025
 30
0.0
  0
VERTEX
  5
22CEC
  8
BOUNDARY
 10
-1384.5937072320809875
 20
-316.3309555745872785
 30
0.0
  0
VERTEX
  5
22CED
  8
BOUNDARY
 10
-413.7271323992536054
 20
-1182.8582295371379587
 30
0.0
  0
VERTEX
  5
22CEE
  8
BOUNDARY
 10
995.1583422277471982
 20
-1061.0028267999330183
 30
0.0
  0
VERTEX
  5
22CEF
  8
BOUNDARY
 10
995.1583422277471982
 20
-235.0940297957932046
 30
0.0
  0
SEQEND
  5
22CF0
  8
BOUNDARY
  0
TEXT
  5
20AD0
  8
BUILDING
 10
192.6094792668444029
 20
-267.5644111996003858
 30
0.0
 40
5.0
  1
2432 
  0
TEXT
  5
20AD1
  8
NAME
 10
179.0734538673858935
 20
-282.4405409655951189
 30
0.0
 40
4.0
  1

  0
TEXT
  5
20AD2
  8
DINING
 10
194.9892437936941008
 20
-295.3058313079596928
 30
0.0
 40
5.0
  1
0.2
  0
CIRCLE
  5
20AD3
  8
BUILDING
 10
201.0381442597573027
 20
-279.8890806110064204
 30
0.0
 40
27.4635907490736599
  0
TEXT
  5
20AD4
  8
BUILDING
 10
86.239710418842165
 20
-232.3228032681577133
 30
0.0
 40
5.0
  1
3048
  0
TEXT
  5
20AD5
  8
NAME
 10
72.7036850193835562
 20
-247.1989330341527022
 30
0.0
 40
4.0
  1

  0
TEXT
  5
20AD6
  8
DINING
 10
88.6194749456917634
 20
-260.0642233765170772
 30
0.0
 40
5.0
  1
0.2
  0
CIRCLE
  5
20AD7
  8
BUILDING
 10
94.6683754117548091
 20
-244.6474726795638901
 30
0.0
 40
27.4635907490736599
  0
TEXT
  5
20AD8
  8
BUILDING
 10
0.7317391849210253
 20
-200.9791399226010924
 30
0.0
 40
5.0
  1
1433
  0
TEXT
  5
20AD9
  8
NAME
 10
-12.8042862145375693
 20
-215.8552696885959961
 30
0.0
 40
4.0
  1

  0
TEXT
  5
20ADA
  8
DINING
 10
3.1115037117706361
 20
-228.7205600309603142
 30
0.0
 40
5.0
  1
0.2
  0
CIRCLE
  5
20ADB
  8
BUILDING
 10
9.1604041778336942
 20
-213.3038093340070134
 30
0.0
 40
27.4635907490736599
  0
TEXT
  5
20ADC
  8
BUILDING
 10
-23.7000397735537298
 20
-120.7851311708289046
 30
0.0
 40
5.0
  1
2433
  0
TEXT
  5
20ADD
  8
NAME
 10
-37.2360651730123209
 20
-135.6612609368235098
 30
0.0
 40
4.0
  1

  0
TEXT
  5
20ADE
  8
DINING
 10
-21.3202752467041101
 20
-148.5265512791881974
 30
0.0
 40
5.0
  1
0.7
  0
CIRCLE
  5
20ADF
  8
BUILDING
 10
-15.2713747806410503
 20
-133.1098005822346124
 30
0.0
 40
27.4635907490736599
  0
TEXT
  5
20AE0
  8
BUILDING
 10
63.0619486445066286
 20
-67.5207383213050889
 30
0.0
 40
5.0
  1
2700
  0
TEXT
  5
20AE1
  8
NAME
 10
49.5259232450480198
 20
-82.3968680872999357
 30
0.0
 40
4.0
  1

  0
TEXT
  5
20AE2
  8
DINING
 10
65.4417131713562412
 20
-95.262158429664396
 30
0.0
 40
5.0
  1
0.7
  0
CIRCLE
  5
20AE3
  8
BUILDING
 10
71.4906136374192869
 20
-79.8454077327110241
 30
0.0
 40
27.4635907490736599
  0
TEXT
  5
20AE4
  8
BUILDING
 10
117.2970706518827058
 20
-164.7803741236635915
 30
0.0
 40
5.0
  1
3467
  0
TEXT
  5
20AE5
  8
NAME
 10
103.7610452524240969
 20
-179.6565038896582962
 30
0.0
 40
4.0
  1

  0
TEXT
  5
20AE6
  8
DINING
 10
119.6768351787323041
 20
-192.5217942320228985
 30
0.0
 40
5.0
  1
0.7
  0
CIRCLE
  5
20AE7
  8
BUILDING
 10
125.725735644795293
 20
-177.1050435350695125
 30
0.0
 40
27.4635907490736599
  0
TEXT
  5
20AE8
  8
BUILDING
 10
-70.6190608916367637
 20
4.6036337721675391
 30
0.0
 40
5.0
  1
2488
  0
TEXT
  5
20AE9
  8
NAME
 10
-84.1550862910953583
 20
-10.2724959938273006
 30
0.0
 40
4.0
  1

  0
TEXT
  5
20AEA
  8
DINING
 10
-68.2392963647871511
 20
-23.1377863361917697
 30
0.0
 40
5.0
  1
0.7
  0
CIRCLE
  5
20AEB
  8
BUILDING
 10
-62.1903958987240912
 20
-7.7210356392383801
 30
0.0
 40
27.4635907490736599
  0
TEXT
  5
20AEC
  8
BUILDING
 10
-13.5371006981149407
 20
64.9314433024778737
 30
0.0
 40
5.0
  1
933
  0
TEXT
  5
20AED
  8
NAME
 10
-27.0731260975735495
 20
50.0553135364830268
 30
0.0
 40
4.0
  1

  0
TEXT
  5
20AEE
  8
DINING
 10
-11.1573361712653405
 20
37.1900231941185666
 30
0.0
 40
5.0
  1
0.2
  0
CIRCLE
  5
20AEF
  8
BUILDING
 10
-5.1084357052022806
 20
52.6067738910719385
 30
0.0
 40
27.4635907490736599
  0
TEXT
  5
20AF0
  8
BUILDING
 10
-35.5444114714191528
 20
130.9539091745905068
 30
0.0
 40
5.0
  1
2700
  0
TEXT
  5
20AF1
  8
NAME
 10
-49.0804368708777616
 20
116.0777794085957026
 30
0.0
 40
4.0
  1

  0
TEXT
  5
20AF2
  8
DINING
 10
-33.1646469445695402
 20
103.2124890662311998
 30
0.0
 40
5.0
  1
0.7
  0
CIRCLE
  5
20AF3
  8
BUILDING
 10
-27.1157464785064803
 20
118.6292397631846001
 30
0.0
 40
27.4635907490736599
  0
TEXT
  5
20AF4
  8
BUILDING
 10
-113.6714325772044987
 20
79.6548795626081301
 30
0.0
 40
5.0
  1
2925
  0
TEXT
  5
20AF5
  8
NAME
 10
-127.2074579766629938
 20
64.778749796613269
 30
0.0
 40
4.0
  1

  0
TEXT
  5
20AF6
  8
DINING
 10
-111.2916680503549003
 20
51.9134594542488088
 30
0.0
 40
5.0
  1
0.2
  0
CIRCLE
  5
20AF7
  8
BUILDING
 10
-105.2427675842917978
 20
67.3302101512021949
 30
0.0
 40
27.4635907490736599
  0
TEXT
  5
20AF8
  8
BUILDING
 10
-155.1631366200890056
 20
173.0961697577081111
 30
0.0
 40
5.0
  1
2433 
  0
TEXT
  5
20AF9
  8
NAME
 10
-168.6991620195476003
 20
158.2200399917132927
 30
0.0
 40
4.0
  1

  0
TEXT
  5
20AFA
  8
DINING
 10
-152.7833720932393931
 20
145.3547496493486051
 30
0.0
 40
5.0
  1
0.7
  0
CIRCLE
  5
20AFB
  8
BUILDING
 10
-146.73447162717639
 20
160.7715003463021901
 30
0.0
 40
27.4635907490736599
  0
TEXT
  5
20AFC
  8
BUILDING
 10
-98.7398139418946954
 20
232.4559933939530936
 30
0.0
 40
5.0
  1
2149
  0
TEXT
  5
20AFD
  8
NAME
 10
-112.2758393413533042
 20
217.5798636279583889
 30
0.0
 40
4.0
  1

  0
TEXT
  5
20AFE
  8
DINING
 10
-96.3600494150450544
 20
204.7145732855935876
 30
0.0
 40
5.0
  1
0.7
  0
CIRCLE
  5
20AFF
  8
BUILDING
 10
-90.3111489489819945
 20
220.131323982547201
 30
0.0
 40
27.4635907490736599
  0
TEXT
  5
20B00
  8
BUILDING
 10
-217.7214577081176969
 20
295.3090392943053075
 30
0.0
 40
5.0
  1
3894
  0
TEXT
  5
20B01
  8
NAME
 10
-231.2574831075762916
 20
280.4329095283105744
 30
0.0
 40
4.0
  1

  0
TEXT
  5
20B02
  8
DINING
 10
-215.3416931812681128
 20
267.5676191859460005
 30
0.0
 40
5.0
  1
0.2
  0
CIRCLE
  5
20B03
  8
BUILDING
 10
-209.2927927152049961
 20
282.9843698828992729
 30
0.0
 40
27.4635907490736599
  0
TEXT
  5
20B04
  8
BUILDING
 10
-151.0739816003624014
 20
332.6252070675184882
 30
0.0
 40
5.0
  1
3192
  0
TEXT
  5
20B05
  8
NAME
 10
-164.610006999820996
 20
317.7490773015238119
 30
0.0
 40
4.0
  1

  0
TEXT
  5
20B06
  8
DINING
 10
-148.6942170735127036
 20
304.8837869591590106
 30
0.0
 40
5.0
  1
0.2
  0
CIRCLE
  5
20B07
  8
BUILDING
 10
-142.6453166074497858
 20
320.3005376561126809
 30
0.0
 40
27.4635907490736599
  0
TEXT
  5
20B08
  8
BUILDING
 10
-225.3961282317904988
 20
440.4276451543486814
 30
0.0
 40
5.0
  1
3366
  0
TEXT
  5
20B09
  8
NAME
 10
-238.9321536312490935
 20
425.5515153883536072
 30
0.0
 40
4.0
  1

  0
TEXT
  5
20B0A
  8
DINING
 10
-223.016363704940801
 20
412.6862250459890902
 30
0.0
 40
5.0
  1
0.2
  0
CIRCLE
  5
20B0B
  8
BUILDING
 10
-216.9674632388777127
 20
428.1029757429425899
 30
0.0
 40
27.4635907490736599
  0
TEXT
  5
20B0C
  8
BUILDING
 10
-292.0432788274047766
 20
402.1923474222933237
 30
0.0
 40
5.0
  1
3701
  0
TEXT
  5
20B0D
  8
NAME
 10
-305.5793042268633144
 20
387.3162176562984769
 30
0.0
 40
4.0
  1

  0
TEXT
  5
20B0E
  8
DINING
 10
-289.6635143005552209
 20
374.4509273139340166
 30
0.0
 40
5.0
  1
0.7
  0
CIRCLE
  5
20B0F
  8
BUILDING
 10
-283.6146138344921042
 20
389.8676780108875732
 30
0.0
 40
27.4635907490736599
  0
TEXT
  5
20B10
  8
BUILDING
 10
-334.8259818430087762
 20
520.537580157215757
 30
0.0
 40
5.0
  1
3267
  0
TEXT
  5
20B11
  8
NAME
 10
-348.3620072424674277
 20
505.6614503912206828
 30
0.0
 40
4.0
  1

  0
TEXT
  5
20B12
  8
DINING
 10
-332.4462173161592204
 20
492.7961600488562226
 30
0.0
 40
5.0
  1
0.2
  0
CIRCLE
  5
20B13
  8
BUILDING
 10
-326.3973168500961037
 20
508.2129107458097792
 30
0.0
 40
27.4635907490736599
  0
TEXT
  5
20B18
  8
BUILDING
 10
-484.2990831002388745
 20
245.5637322683400896
 30
0.0
 40
5.0
  1
3600
  0
TEXT
  5
20B19
  8
NAME
 10
-497.8351084996974123
 20
230.6876025023452996
 30
0.0
 40
4.0
  1

  0
TEXT
  5
20B1A
  8
DINING
 10
-481.9193185733893188
 20
217.822312159980811
 30
0.0
 40
5.0
  1
0.2
  0
CIRCLE
  5
20B1B
  8
BUILDING
 10
-475.8704181073262021
 20
233.239062856934197
 30
0.0
 40
27.4635907490736599
  0
TEXT
  5
20B1C
  8
BUILDING
 10
-527.3123029167909408
 20
364.1371935415593271
 30
0.0
 40
5.0
  1
2629
  0
TEXT
  5
20B1D
  8
NAME
 10
-540.8483283162495354
 20
349.2610637755644802
 30
0.0
 40
4.0
  1

  0
TEXT
  5
20B1E
  8
DINING
 10
-524.9325383899412145
 20
336.39577343320002
 30
0.0
 40
5.0
  1
0.9
  0
CIRCLE
  5
20B1F
  8
BUILDING
 10
-518.883637923878041
 20
351.8125241301535766
 30
0.0
 40
27.4635907490736599
  0
TEXT
  5
20B20
  8
BUILDING
 10
-564.0273523539799498
 20
181.5131432498384072
 30
0.0
 40
5.0
  1
3600
  0
TEXT
  5
20B21
  8
NAME
 10
-577.5633777534386581
 20
166.6370134838439014
 30
0.0
 40
4.0
  1

  0
TEXT
  5
20B22
  8
DINING
 10
-561.6475878271302236
 20
153.7717231414792138
 30
0.0
 40
5.0
  1
0.2
  0
CIRCLE
  5
20B23
  8
BUILDING
 10
-555.59868736106705
 20
169.1884738384327989
 30
0.0
 40
27.4635907490736599
  0
TEXT
  5
20B24
  8
BUILDING
 10
-612.3317890304168714
 20
93.8254373819149947
 30
0.0
 40
5.0
  1
4100
  0
TEXT
  5
20B25
  8
NAME
 10
-625.8678144298753523
 20
78.9493076159201337
 30
0.0
 40
4.0
  1

  0
TEXT
  5
20B26
  8
DINING
 10
-609.9520245035671451
 20
66.0840172735556735
 30
0.0
 40
5.0
  1
0.2
  0
CIRCLE
  5
20B27
  8
BUILDING
 10
-603.9031240375041989
 20
81.5007679705090453
 30
0.0
 40
27.4635907490736599
  0
TEXT
  5
20B28
  8
BUILDING
 10
-685.8621817918756278
 20
217.2537185717887951
 30
0.0
 40
5.0
  1
5500
  0
TEXT
  5
20B29
  8
NAME
 10
-699.3982071913343361
 20
202.3775888057940051
 30
0.0
 40
4.0
  1

  0
TEXT
  5
20B2A
  8
DINING
 10
-683.4824172650260152
 20
189.5122984634294028
 30
0.0
 40
5.0
  1
0.9
  0
CIRCLE
  5
20B2B
  8
BUILDING
 10
-677.4335167989628417
 20
204.9290491603829025
 30
0.0
 40
27.4635907490736599
  0
TEXT
  5
20B2C
  8
BUILDING
 10
-606.626556979332122
 20
494.8859081455087789
 30
0.0
 40
5.0
  1
1533
  0
TEXT
  5
20B2D
  8
NAME
 10
-620.1625823787908303
 20
480.0097783795137047
 30
0.0
 40
4.0
  1

  0
TEXT
  5
20B2E
  8
DINING
 10
-604.2467924524823957
 20
467.144488037149415
 30
0.0
 40
5.0
  1
0.2
  0
CIRCLE
  5
20B2F
  8
BUILDING
 10
-598.1978919864195632
 20
482.5612387341029148
 30
0.0
 40
27.4635907490736599
  0
TEXT
  5
20B30
  8
BUILDING
 10
-671.1627617699122084
 20
453.6669086656115155
 30
0.0
 40
5.0
  1
2691
  0
TEXT
  5
20B31
  8
NAME
 10
-684.6987871693709167
 20
438.7907788996167255
 30
0.0
 40
4.0
  1

  0
TEXT
  5
20B32
  8
DINING
 10
-668.7829972430628231
 20
425.9254885572519242
 30
0.0
 40
5.0
  1
0.9
  0
CIRCLE
  5
20B33
  8
BUILDING
 10
-662.7340967769996496
 20
441.342239254205424
 30
0.0
 40
27.4635907490736599
  0
TEXT
  5
20B34
  8
BUILDING
 10
-779.984974757433406
 20
452.2987286728387062
 30
0.0
 40
5.0
  1
2302
  0
TEXT
  5
20B35
  8
NAME
 10
-793.5210001568921143
 20
437.4225989068438025
 30
0.0
 40
4.0
  1

  0
TEXT
  5
20B36
  8
DINING
 10
-777.6052102305837934
 20
424.5573085644795128
 30
0.0
 40
5.0
  1
0.7
  0
CIRCLE
  5
20B37
  8
BUILDING
 10
-771.5563097645208472
 20
439.9740592614327284
 30
0.0
 40
27.4635907490736599
  0
ENDSEC
  0
EOF
